%TF.GenerationSoftware,KiCad,Pcbnew,7.0.9*%
%TF.CreationDate,2024-01-04T00:39:50-06:00*%
%TF.ProjectId,HexDisplayPCB,48657844-6973-4706-9c61-795043422e6b,rev?*%
%TF.SameCoordinates,Original*%
%TF.FileFunction,Soldermask,Bot*%
%TF.FilePolarity,Negative*%
%FSLAX46Y46*%
G04 Gerber Fmt 4.6, Leading zero omitted, Abs format (unit mm)*
G04 Created by KiCad (PCBNEW 7.0.9) date 2024-01-04 00:39:50*
%MOMM*%
%LPD*%
G01*
G04 APERTURE LIST*
G04 Aperture macros list*
%AMRoundRect*
0 Rectangle with rounded corners*
0 $1 Rounding radius*
0 $2 $3 $4 $5 $6 $7 $8 $9 X,Y pos of 4 corners*
0 Add a 4 corners polygon primitive as box body*
4,1,4,$2,$3,$4,$5,$6,$7,$8,$9,$2,$3,0*
0 Add four circle primitives for the rounded corners*
1,1,$1+$1,$2,$3*
1,1,$1+$1,$4,$5*
1,1,$1+$1,$6,$7*
1,1,$1+$1,$8,$9*
0 Add four rect primitives between the rounded corners*
20,1,$1+$1,$2,$3,$4,$5,0*
20,1,$1+$1,$4,$5,$6,$7,0*
20,1,$1+$1,$6,$7,$8,$9,0*
20,1,$1+$1,$8,$9,$2,$3,0*%
%AMHorizOval*
0 Thick line with rounded ends*
0 $1 width*
0 $2 $3 position (X,Y) of the first rounded end (center of the circle)*
0 $4 $5 position (X,Y) of the second rounded end (center of the circle)*
0 Add line between two ends*
20,1,$1,$2,$3,$4,$5,0*
0 Add two circle primitives to create the rounded ends*
1,1,$1,$2,$3*
1,1,$1,$4,$5*%
%AMRotRect*
0 Rectangle, with rotation*
0 The origin of the aperture is its center*
0 $1 length*
0 $2 width*
0 $3 Rotation angle, in degrees counterclockwise*
0 Add horizontal line*
21,1,$1,$2,0,0,$3*%
%AMFreePoly0*
4,1,6,0.500000,-0.750000,-0.650000,-0.750000,-0.150000,0.000000,-0.650000,0.750000,0.500000,0.750000,0.500000,-0.750000,0.500000,-0.750000,$1*%
%AMFreePoly1*
4,1,6,1.000000,0.000000,0.500000,-0.750000,-0.500000,-0.750000,-0.500000,0.750000,0.500000,0.750000,1.000000,0.000000,1.000000,0.000000,$1*%
G04 Aperture macros list end*
%ADD10C,1.524000*%
%ADD11C,2.286000*%
%ADD12R,1.700000X1.700000*%
%ADD13O,1.700000X1.700000*%
%ADD14FreePoly0,0.000000*%
%ADD15FreePoly1,0.000000*%
%ADD16FreePoly0,180.000000*%
%ADD17FreePoly1,180.000000*%
%ADD18HorizOval,1.700000X0.000000X0.000000X0.000000X0.000000X0*%
%ADD19RotRect,1.700000X1.700000X60.000000*%
%ADD20RotRect,3.500000X3.500000X60.000000*%
%ADD21RoundRect,0.750000X0.491025X-1.149519X1.241025X0.149519X-0.491025X1.149519X-1.241025X-0.149519X0*%
%ADD22RoundRect,0.875000X0.320272X-1.195272X1.195272X0.320272X-0.320272X1.195272X-1.195272X-0.320272X0*%
%ADD23R,1.000000X1.500000*%
%ADD24RoundRect,0.102000X0.565000X0.565000X-0.565000X0.565000X-0.565000X-0.565000X0.565000X-0.565000X0*%
%ADD25C,1.334000*%
%ADD26HorizOval,1.700000X0.000000X0.000000X0.000000X0.000000X0*%
%ADD27RotRect,1.700000X1.700000X300.000000*%
%ADD28O,1.800000X1.800000*%
%ADD29O,1.500000X1.500000*%
%ADD30R,3.500000X1.700000*%
%ADD31R,1.700000X3.500000*%
G04 APERTURE END LIST*
D10*
%TO.C,U2*%
X224790000Y-234950000D03*
X224790000Y-237490000D03*
X224790000Y-240030000D03*
X224790000Y-242570000D03*
X224790000Y-245110000D03*
X224790000Y-247650000D03*
X224790000Y-250190000D03*
X224790000Y-252730000D03*
X224790000Y-252730000D03*
X224790000Y-255270000D03*
X224790000Y-257810000D03*
X224790000Y-260350000D03*
X224790000Y-262890000D03*
X224790000Y-265430000D03*
X214630000Y-234950000D03*
X214630000Y-237490000D03*
X214630000Y-240030000D03*
X214630000Y-242570000D03*
X214630000Y-245110000D03*
X214630000Y-247650000D03*
X214630000Y-250190000D03*
X214630000Y-252730000D03*
X214630000Y-255270000D03*
X214630000Y-257810000D03*
X214630000Y-260350000D03*
X214630000Y-262890000D03*
X214630000Y-265430000D03*
%TD*%
D11*
%TO.C,A12*%
X373398054Y-99446667D03*
X370398054Y-99446667D03*
X367398054Y-99446667D03*
X373398054Y-324746667D03*
X370398054Y-324746667D03*
X367398054Y-324746667D03*
%TD*%
%TO.C,A2*%
X257926054Y-132780000D03*
X254926054Y-132780000D03*
X251926054Y-132780000D03*
X257926054Y-291440000D03*
X254926054Y-291440000D03*
X251926054Y-291440000D03*
%TD*%
%TO.C,A4*%
X286794054Y-116113334D03*
X283794054Y-116113334D03*
X280794054Y-116113334D03*
X286794054Y-308093334D03*
X283794054Y-308093334D03*
X280794054Y-308093334D03*
%TD*%
%TO.C,A7*%
X330096054Y-91113334D03*
X327096054Y-91113334D03*
X324096054Y-91113334D03*
X330096054Y-333073334D03*
X327096054Y-333073334D03*
X324096054Y-333073334D03*
%TD*%
%TO.C,A3*%
X272360054Y-124446667D03*
X269360054Y-124446667D03*
X266360054Y-124446667D03*
X272360054Y-299766667D03*
X269360054Y-299766667D03*
X266360054Y-299766667D03*
%TD*%
%TO.C,A6*%
X315662054Y-99446667D03*
X312662054Y-99446667D03*
X309662054Y-99446667D03*
X315662054Y-324746667D03*
X312662054Y-324746667D03*
X309662054Y-324746667D03*
%TD*%
%TO.C,A17*%
X445568054Y-141113334D03*
X442568054Y-141113334D03*
X439568054Y-141113334D03*
X445568054Y-283113334D03*
X442568054Y-283113334D03*
X439568054Y-283113334D03*
%TD*%
%TO.C,A1*%
X243492054Y-141113334D03*
X240492054Y-141113334D03*
X237492054Y-141113334D03*
X243492054Y-283113334D03*
X240492054Y-283113334D03*
X237492054Y-283113334D03*
%TD*%
%TO.C,A15*%
X416700054Y-124446667D03*
X413700054Y-124446667D03*
X410700054Y-124446667D03*
X416700054Y-299766667D03*
X413700054Y-299766667D03*
X410700054Y-299766667D03*
%TD*%
%TO.C,A14*%
X402240000Y-115966500D03*
X399240000Y-115966500D03*
X396240000Y-115966500D03*
X402240000Y-307946500D03*
X399240000Y-307946500D03*
X396240000Y-307946500D03*
%TD*%
%TO.C,A16*%
X431134054Y-132780000D03*
X428134054Y-132780000D03*
X425134054Y-132780000D03*
X431134054Y-291440000D03*
X428134054Y-291440000D03*
X425134054Y-291440000D03*
%TD*%
%TO.C,A11*%
X358964054Y-91113334D03*
X355964054Y-91113334D03*
X352964054Y-91113334D03*
X358964054Y-333073334D03*
X355964054Y-333073334D03*
X352964054Y-333073334D03*
%TD*%
%TO.C,A8*%
X344530054Y-82780000D03*
X341530054Y-82780000D03*
X338530054Y-82780000D03*
X344530054Y-341400000D03*
X341530054Y-341400000D03*
X338530054Y-341400000D03*
%TD*%
%TO.C,A13*%
X387832054Y-107780000D03*
X384832054Y-107780000D03*
X381832054Y-107780000D03*
X387832054Y-316420000D03*
X384832054Y-316420000D03*
X381832054Y-316420000D03*
%TD*%
%TO.C,A5*%
X301228054Y-107780000D03*
X298228054Y-107780000D03*
X295228054Y-107780000D03*
X301228054Y-316420000D03*
X298228054Y-316420000D03*
X295228054Y-316420000D03*
%TD*%
D12*
%TO.C,J1*%
X406400000Y-199390000D03*
D13*
X406400000Y-196850000D03*
X406400000Y-194310000D03*
X406400000Y-191770000D03*
X406400000Y-189230000D03*
X406400000Y-186690000D03*
X406400000Y-184150000D03*
X406400000Y-181610000D03*
X406400000Y-179070000D03*
X406400000Y-176530000D03*
X406400000Y-173990000D03*
X406400000Y-171450000D03*
X406400000Y-168910000D03*
X406400000Y-166370000D03*
X406400000Y-163830000D03*
X406400000Y-161290000D03*
X406400000Y-158750000D03*
X406400000Y-156210000D03*
X406400000Y-153670000D03*
X406400000Y-151130000D03*
%TD*%
D14*
%TO.C,LED_DATA_IN-DATA_4*%
X405130000Y-248920000D03*
D15*
X403680000Y-248920000D03*
%TD*%
D12*
%TO.C,RTC1*%
X377190000Y-189230000D03*
D13*
X377190000Y-191770000D03*
X377190000Y-194310000D03*
X377190000Y-196850000D03*
X377190000Y-199390000D03*
X377190000Y-201930000D03*
%TD*%
D12*
%TO.C,LED_DATA_IN1*%
X242570000Y-129540000D03*
%TD*%
D16*
%TO.C,DATA_6_DISCONNECT_1*%
X384630000Y-305810000D03*
D17*
X386080000Y-305810000D03*
%TD*%
%TO.C,LED_DATA_OUT-DATA_6*%
X422365000Y-264910000D03*
D16*
X420915000Y-264910000D03*
%TD*%
D14*
%TO.C,LED_DATA_IN-DATA_6*%
X405130000Y-256020000D03*
D15*
X403680000Y-256020000D03*
%TD*%
D18*
%TO.C,J7*%
X386513339Y-95431368D03*
X388713044Y-96701368D03*
X390912748Y-97971368D03*
X393112453Y-99241368D03*
X395312157Y-100511368D03*
X397511862Y-101781368D03*
X399711566Y-103051368D03*
X401911271Y-104321368D03*
X404110975Y-105591368D03*
X406310680Y-106861368D03*
X408510384Y-108131368D03*
X410710089Y-109401368D03*
X412909793Y-110671368D03*
X415109498Y-111941368D03*
X417309202Y-113211368D03*
D19*
X419508907Y-114481368D03*
%TD*%
D12*
%TO.C,STEPPER_1-4*%
X452120000Y-246380000D03*
D13*
X452120000Y-248920000D03*
X452120000Y-251460000D03*
X452120000Y-254000000D03*
X452120000Y-256540000D03*
X452120000Y-259080000D03*
X452120000Y-261620000D03*
X452120000Y-264160000D03*
%TD*%
D18*
%TO.C,J4*%
X263550664Y-308411173D03*
X265750369Y-309681173D03*
X267950073Y-310951173D03*
X270149778Y-312221173D03*
X272349482Y-313491173D03*
X274549187Y-314761173D03*
X276748891Y-316031173D03*
X278948596Y-317301173D03*
X281148300Y-318571173D03*
X283348005Y-319841173D03*
X285547709Y-321111173D03*
X287747414Y-322381173D03*
X289947118Y-323651173D03*
X292146823Y-324921173D03*
X294346527Y-326191173D03*
D19*
X296546232Y-327461173D03*
%TD*%
D14*
%TO.C,LED_DATA_IN-DATA_1*%
X405130000Y-238270000D03*
D15*
X403680000Y-238270000D03*
%TD*%
D13*
%TO.C,J3*%
X464493692Y-230497106D03*
X464493692Y-227957106D03*
X464493692Y-225417106D03*
X464493692Y-222877106D03*
X464493692Y-220337106D03*
X464493692Y-217797106D03*
X464493692Y-215257106D03*
X464493692Y-212717106D03*
X464493692Y-210177106D03*
X464493692Y-207637106D03*
X464493692Y-205097106D03*
X464493692Y-202557106D03*
X464493692Y-200017106D03*
X464493692Y-197477106D03*
X464493692Y-194937106D03*
D12*
X464493692Y-192397106D03*
%TD*%
D17*
%TO.C,LED_DATA_OUT-DATA_3*%
X422365000Y-254260000D03*
D16*
X420915000Y-254260000D03*
%TD*%
D13*
%TO.C,J5*%
X218566052Y-230496439D03*
X218566052Y-227956439D03*
X218566052Y-225416439D03*
X218566052Y-222876439D03*
X218566052Y-220336439D03*
X218566052Y-217796439D03*
X218566052Y-215256439D03*
X218566052Y-212716439D03*
X218566052Y-210176439D03*
X218566052Y-207636439D03*
X218566052Y-205096439D03*
X218566052Y-202556439D03*
X218566052Y-200016439D03*
X218566052Y-197476439D03*
X218566052Y-194936439D03*
D12*
X218566052Y-192396439D03*
%TD*%
%TO.C,J2*%
X421640000Y-151130000D03*
D13*
X421640000Y-153670000D03*
X421640000Y-156210000D03*
X421640000Y-158750000D03*
X421640000Y-161290000D03*
X421640000Y-163830000D03*
X421640000Y-166370000D03*
X421640000Y-168910000D03*
X421640000Y-171450000D03*
X421640000Y-173990000D03*
X421640000Y-176530000D03*
X421640000Y-179070000D03*
X421640000Y-181610000D03*
X421640000Y-184150000D03*
X421640000Y-186690000D03*
X421640000Y-189230000D03*
X421640000Y-191770000D03*
X421640000Y-194310000D03*
X421640000Y-196850000D03*
X421640000Y-199390000D03*
%TD*%
D15*
%TO.C,PICO_DATAIN_5-STEPPER1*%
X436025000Y-233040000D03*
D14*
X437475000Y-233040000D03*
%TD*%
D16*
%TO.C,DATA_3_DISCONNECT_1*%
X384630000Y-295160000D03*
D17*
X386080000Y-295160000D03*
%TD*%
D15*
%TO.C,STEPPER-DATA_3*%
X440510000Y-259080000D03*
D14*
X441960000Y-259080000D03*
%TD*%
%TO.C,LED_DATA_IN-DATA_5*%
X405130000Y-252470000D03*
D15*
X403680000Y-252470000D03*
%TD*%
D14*
%TO.C,LED_DATA_IN-DATA_2*%
X405130000Y-241820000D03*
D15*
X403680000Y-241820000D03*
%TD*%
D16*
%TO.C,DATA_5_DISCONNECT_1*%
X384630000Y-302260000D03*
D17*
X386080000Y-302260000D03*
%TD*%
D20*
%TO.C,J30*%
X245570000Y-289443848D03*
D21*
X242570000Y-294640000D03*
D22*
X239999681Y-289691924D03*
%TD*%
D17*
%TO.C,STEPPER-DATA_5*%
X441960000Y-266700000D03*
D16*
X440510000Y-266700000D03*
%TD*%
D23*
%TO.C,PICO_5V_BREAKER1*%
X445800000Y-129540000D03*
X444500000Y-129540000D03*
%TD*%
D19*
%TO.C,AmbientLightSensor1*%
X365668818Y-85090000D03*
D18*
X363469113Y-83820000D03*
X361269409Y-82550000D03*
X359069704Y-81280000D03*
X356870000Y-80010000D03*
%TD*%
D12*
%TO.C,MAX98357*%
X377190000Y-158750000D03*
D13*
X377190000Y-161290000D03*
X377190000Y-163830000D03*
X377190000Y-166370000D03*
X377190000Y-168910000D03*
X377190000Y-171450000D03*
X377190000Y-173990000D03*
%TD*%
D17*
%TO.C,LED_DATA_OUT-DATA_4*%
X422365000Y-257810000D03*
D16*
X420915000Y-257810000D03*
%TD*%
%TO.C,PICO_DATAIN_3-STEPPER1*%
X436025000Y-225940000D03*
D17*
X437475000Y-225940000D03*
%TD*%
D24*
%TO.C,U1*%
X463550000Y-238760000D03*
D25*
X463550000Y-241300000D03*
X463550000Y-243840000D03*
X463550000Y-246380000D03*
X463550000Y-248920000D03*
X463550000Y-251460000D03*
X463550000Y-254000000D03*
X463550000Y-256540000D03*
X463550000Y-259080000D03*
X463550000Y-261620000D03*
X455610000Y-261620000D03*
X455610000Y-259080000D03*
X455610000Y-256540000D03*
X455610000Y-254000000D03*
X455610000Y-251460000D03*
X455610000Y-248920000D03*
X455610000Y-246380000D03*
X455610000Y-243840000D03*
X455610000Y-241300000D03*
X455610000Y-238760000D03*
%TD*%
D16*
%TO.C,DATA_1_DISCONNECT_1*%
X384630000Y-288060000D03*
D17*
X386080000Y-288060000D03*
%TD*%
D15*
%TO.C,STEPPER-DATA_4*%
X440690000Y-262890000D03*
D14*
X442140000Y-262890000D03*
%TD*%
D17*
%TO.C,LED_DATA_OUT-DATA_5*%
X422365000Y-261360000D03*
D16*
X420915000Y-261360000D03*
%TD*%
D12*
%TO.C,LED_DATA_OUT1*%
X453390000Y-279400000D03*
%TD*%
D16*
%TO.C,PICO_DATAIN_4-STEPPER1*%
X436025000Y-229490000D03*
D17*
X437475000Y-229490000D03*
%TD*%
D26*
%TO.C,J8*%
X419509543Y-308412485D03*
X417309838Y-309682485D03*
X415110134Y-310952485D03*
X412910429Y-312222485D03*
X410710725Y-313492485D03*
X408511020Y-314762485D03*
X406311316Y-316032485D03*
X404111611Y-317302485D03*
X401911907Y-318572485D03*
X399712202Y-319842485D03*
X397512498Y-321112485D03*
X395312793Y-322382485D03*
X393113089Y-323652485D03*
X390913384Y-324922485D03*
X388713680Y-326192485D03*
D27*
X386513975Y-327462485D03*
%TD*%
D17*
%TO.C,STEPPER-DATA_6*%
X441960000Y-270510000D03*
D16*
X440510000Y-270510000D03*
%TD*%
%TO.C,DATA_4_DISCONNECT_1*%
X384630000Y-298710000D03*
D17*
X386080000Y-298710000D03*
%TD*%
D26*
%TO.C,J6*%
X296546160Y-95431217D03*
X294346455Y-96701217D03*
X292146751Y-97971217D03*
X289947046Y-99241217D03*
X287747342Y-100511217D03*
X285547637Y-101781217D03*
X283347933Y-103051217D03*
X281148228Y-104321217D03*
X278948524Y-105591217D03*
X276748819Y-106861217D03*
X274549115Y-108131217D03*
X272349410Y-109401217D03*
X270149706Y-110671217D03*
X267950001Y-111941217D03*
X265750297Y-113211217D03*
D27*
X263550592Y-114481217D03*
%TD*%
D14*
%TO.C,LED_DATA_IN-DATA_3*%
X405130000Y-245370000D03*
D15*
X403680000Y-245370000D03*
%TD*%
D27*
%TO.C,I2CBreakout1*%
X316910591Y-85090000D03*
D26*
X319110296Y-83820000D03*
X321310000Y-82550000D03*
X323509705Y-81280000D03*
%TD*%
D15*
%TO.C,STEPPER-DATA_2*%
X440510000Y-255270000D03*
D14*
X441960000Y-255270000D03*
%TD*%
D12*
%TO.C,Keypad1*%
X231140000Y-255270000D03*
D13*
X231140000Y-252730000D03*
X231140000Y-250190000D03*
X231140000Y-247650000D03*
X231140000Y-245110000D03*
X231140000Y-242570000D03*
X231140000Y-240030000D03*
%TD*%
D16*
%TO.C,DATA_2_DISCONNECT_1*%
X384630000Y-291610000D03*
D17*
X386080000Y-291610000D03*
%TD*%
D16*
%TO.C,PICO_DATAIN_1-STEPPER1*%
X436155000Y-218440000D03*
D17*
X437605000Y-218440000D03*
%TD*%
D28*
%TO.C,PicoProbe1*%
X226485000Y-139325000D03*
D29*
X226185000Y-142355000D03*
X221335000Y-142355000D03*
D28*
X221035000Y-139325000D03*
D13*
X232650000Y-139195000D03*
D30*
X233550000Y-139195000D03*
D13*
X232650000Y-141735000D03*
D30*
X233550000Y-141735000D03*
D12*
X232650000Y-144275000D03*
D30*
X233550000Y-144275000D03*
D13*
X232650000Y-146815000D03*
D30*
X233550000Y-146815000D03*
D13*
X232650000Y-149355000D03*
D30*
X233550000Y-149355000D03*
D13*
X232650000Y-151895000D03*
D30*
X233550000Y-151895000D03*
D13*
X232650000Y-154435000D03*
D30*
X233550000Y-154435000D03*
D12*
X232650000Y-156975000D03*
D30*
X233550000Y-156975000D03*
D13*
X232650000Y-159515000D03*
D30*
X233550000Y-159515000D03*
D13*
X232650000Y-162055000D03*
D30*
X233550000Y-162055000D03*
D13*
X232650000Y-164595000D03*
D30*
X233550000Y-164595000D03*
D13*
X232650000Y-167135000D03*
D30*
X233550000Y-167135000D03*
D12*
X232650000Y-169675000D03*
D30*
X233550000Y-169675000D03*
D13*
X232650000Y-172215000D03*
D30*
X233550000Y-172215000D03*
D13*
X232650000Y-174755000D03*
D30*
X233550000Y-174755000D03*
D13*
X232650000Y-177295000D03*
D30*
X233550000Y-177295000D03*
D13*
X232650000Y-179835000D03*
D30*
X233550000Y-179835000D03*
D12*
X232650000Y-182375000D03*
D30*
X233550000Y-182375000D03*
D13*
X232650000Y-184915000D03*
D30*
X233550000Y-184915000D03*
D13*
X232650000Y-187455000D03*
D30*
X233550000Y-187455000D03*
D13*
X214870000Y-187455000D03*
D30*
X213970000Y-187455000D03*
D13*
X214870000Y-184915000D03*
D30*
X213970000Y-184915000D03*
D12*
X214870000Y-182375000D03*
D30*
X213970000Y-182375000D03*
D13*
X214870000Y-179835000D03*
D30*
X213970000Y-179835000D03*
D13*
X214870000Y-177295000D03*
D30*
X213970000Y-177295000D03*
D13*
X214870000Y-174755000D03*
D30*
X213970000Y-174755000D03*
D13*
X214870000Y-172215000D03*
D30*
X213970000Y-172215000D03*
D12*
X214870000Y-169675000D03*
D30*
X213970000Y-169675000D03*
D13*
X214870000Y-167135000D03*
D30*
X213970000Y-167135000D03*
D13*
X214870000Y-164595000D03*
D30*
X213970000Y-164595000D03*
D13*
X214870000Y-162055000D03*
D30*
X213970000Y-162055000D03*
D13*
X214870000Y-159515000D03*
D30*
X213970000Y-159515000D03*
D12*
X214870000Y-156975000D03*
D30*
X213970000Y-156975000D03*
D13*
X214870000Y-154435000D03*
D30*
X213970000Y-154435000D03*
D13*
X214870000Y-151895000D03*
D30*
X213970000Y-151895000D03*
D13*
X214870000Y-149355000D03*
D30*
X213970000Y-149355000D03*
D13*
X214870000Y-146815000D03*
D30*
X213970000Y-146815000D03*
D12*
X214870000Y-144275000D03*
D30*
X213970000Y-144275000D03*
D13*
X214870000Y-141735000D03*
D30*
X213970000Y-141735000D03*
D13*
X214870000Y-139195000D03*
D30*
X213970000Y-139195000D03*
D13*
X226300000Y-187225000D03*
D31*
X226300000Y-188125000D03*
D12*
X223760000Y-187225000D03*
D31*
X223760000Y-188125000D03*
D13*
X221220000Y-187225000D03*
D31*
X221220000Y-188125000D03*
%TD*%
D12*
%TO.C,STEPPER_4-8*%
X467360000Y-246380000D03*
D13*
X467360000Y-248920000D03*
X467360000Y-251460000D03*
X467360000Y-254000000D03*
X467360000Y-256540000D03*
X467360000Y-259080000D03*
X467360000Y-261620000D03*
X467360000Y-264160000D03*
%TD*%
D12*
%TO.C,MAX98357_BREAKOUT1*%
X349250000Y-166370000D03*
D13*
X349250000Y-168910000D03*
X349250000Y-171450000D03*
X349250000Y-173990000D03*
%TD*%
D17*
%TO.C,LED_DATA_OUT-DATA_2*%
X422365000Y-250710000D03*
D16*
X420915000Y-250710000D03*
%TD*%
D14*
%TO.C,PICO_DATAIN_6-STEPPER1*%
X437605000Y-236220000D03*
D15*
X436155000Y-236220000D03*
%TD*%
D17*
%TO.C,LED_DATA_OUT-DATA_1*%
X422315000Y-246960000D03*
D16*
X420865000Y-246960000D03*
%TD*%
D28*
%TO.C,MasterControlPico1*%
X461195000Y-138560000D03*
D29*
X460895000Y-141590000D03*
X456045000Y-141590000D03*
D28*
X455745000Y-138560000D03*
D13*
X467360000Y-138430000D03*
D30*
X468260000Y-138430000D03*
D13*
X467360000Y-140970000D03*
D30*
X468260000Y-140970000D03*
D12*
X467360000Y-143510000D03*
D30*
X468260000Y-143510000D03*
D13*
X467360000Y-146050000D03*
D30*
X468260000Y-146050000D03*
D13*
X467360000Y-148590000D03*
D30*
X468260000Y-148590000D03*
D13*
X467360000Y-151130000D03*
D30*
X468260000Y-151130000D03*
D13*
X467360000Y-153670000D03*
D30*
X468260000Y-153670000D03*
D12*
X467360000Y-156210000D03*
D30*
X468260000Y-156210000D03*
D13*
X467360000Y-158750000D03*
D30*
X468260000Y-158750000D03*
D13*
X467360000Y-161290000D03*
D30*
X468260000Y-161290000D03*
D13*
X467360000Y-163830000D03*
D30*
X468260000Y-163830000D03*
D13*
X467360000Y-166370000D03*
D30*
X468260000Y-166370000D03*
D12*
X467360000Y-168910000D03*
D30*
X468260000Y-168910000D03*
D13*
X467360000Y-171450000D03*
D30*
X468260000Y-171450000D03*
D13*
X467360000Y-173990000D03*
D30*
X468260000Y-173990000D03*
D13*
X467360000Y-176530000D03*
D30*
X468260000Y-176530000D03*
D13*
X467360000Y-179070000D03*
D30*
X468260000Y-179070000D03*
D12*
X467360000Y-181610000D03*
D30*
X468260000Y-181610000D03*
D13*
X467360000Y-184150000D03*
D30*
X468260000Y-184150000D03*
D13*
X467360000Y-186690000D03*
D30*
X468260000Y-186690000D03*
D13*
X449580000Y-186690000D03*
D30*
X448680000Y-186690000D03*
D13*
X449580000Y-184150000D03*
D30*
X448680000Y-184150000D03*
D12*
X449580000Y-181610000D03*
D30*
X448680000Y-181610000D03*
D13*
X449580000Y-179070000D03*
D30*
X448680000Y-179070000D03*
D13*
X449580000Y-176530000D03*
D30*
X448680000Y-176530000D03*
D13*
X449580000Y-173990000D03*
D30*
X448680000Y-173990000D03*
D13*
X449580000Y-171450000D03*
D30*
X448680000Y-171450000D03*
D12*
X449580000Y-168910000D03*
D30*
X448680000Y-168910000D03*
D13*
X449580000Y-166370000D03*
D30*
X448680000Y-166370000D03*
D13*
X449580000Y-163830000D03*
D30*
X448680000Y-163830000D03*
D13*
X449580000Y-161290000D03*
D30*
X448680000Y-161290000D03*
D13*
X449580000Y-158750000D03*
D30*
X448680000Y-158750000D03*
D12*
X449580000Y-156210000D03*
D30*
X448680000Y-156210000D03*
D13*
X449580000Y-153670000D03*
D30*
X448680000Y-153670000D03*
D13*
X449580000Y-151130000D03*
D30*
X448680000Y-151130000D03*
D13*
X449580000Y-148590000D03*
D30*
X448680000Y-148590000D03*
D13*
X449580000Y-146050000D03*
D30*
X448680000Y-146050000D03*
D12*
X449580000Y-143510000D03*
D30*
X448680000Y-143510000D03*
D13*
X449580000Y-140970000D03*
D30*
X448680000Y-140970000D03*
D13*
X449580000Y-138430000D03*
D30*
X448680000Y-138430000D03*
D13*
X457885900Y-168160000D03*
D12*
X455345900Y-168160000D03*
D13*
X452805900Y-168160000D03*
%TD*%
D15*
%TO.C,STEPPER-DATA_1*%
X440510000Y-251460000D03*
D14*
X441960000Y-251460000D03*
%TD*%
D16*
%TO.C,PICO_DATAIN_2-STEPPER1*%
X436155000Y-222250000D03*
D17*
X437605000Y-222250000D03*
%TD*%
M02*
