%TF.GenerationSoftware,KiCad,Pcbnew,7.0.9*%
%TF.CreationDate,2024-01-04T10:45:34-06:00*%
%TF.ProjectId,HexDisplayPCB,48657844-6973-4706-9c61-795043422e6b,rev?*%
%TF.SameCoordinates,Original*%
%TF.FileFunction,Copper,L1,Top*%
%TF.FilePolarity,Positive*%
%FSLAX46Y46*%
G04 Gerber Fmt 4.6, Leading zero omitted, Abs format (unit mm)*
G04 Created by KiCad (PCBNEW 7.0.9) date 2024-01-04 10:45:34*
%MOMM*%
%LPD*%
G01*
G04 APERTURE LIST*
G04 Aperture macros list*
%AMRoundRect*
0 Rectangle with rounded corners*
0 $1 Rounding radius*
0 $2 $3 $4 $5 $6 $7 $8 $9 X,Y pos of 4 corners*
0 Add a 4 corners polygon primitive as box body*
4,1,4,$2,$3,$4,$5,$6,$7,$8,$9,$2,$3,0*
0 Add four circle primitives for the rounded corners*
1,1,$1+$1,$2,$3*
1,1,$1+$1,$4,$5*
1,1,$1+$1,$6,$7*
1,1,$1+$1,$8,$9*
0 Add four rect primitives between the rounded corners*
20,1,$1+$1,$2,$3,$4,$5,0*
20,1,$1+$1,$4,$5,$6,$7,0*
20,1,$1+$1,$6,$7,$8,$9,0*
20,1,$1+$1,$8,$9,$2,$3,0*%
%AMHorizOval*
0 Thick line with rounded ends*
0 $1 width*
0 $2 $3 position (X,Y) of the first rounded end (center of the circle)*
0 $4 $5 position (X,Y) of the second rounded end (center of the circle)*
0 Add line between two ends*
20,1,$1,$2,$3,$4,$5,0*
0 Add two circle primitives to create the rounded ends*
1,1,$1,$2,$3*
1,1,$1,$4,$5*%
%AMRotRect*
0 Rectangle, with rotation*
0 The origin of the aperture is its center*
0 $1 length*
0 $2 width*
0 $3 Rotation angle, in degrees counterclockwise*
0 Add horizontal line*
21,1,$1,$2,0,0,$3*%
G04 Aperture macros list end*
%TA.AperFunction,EtchedComponent*%
%ADD10C,0.200000*%
%TD*%
%TA.AperFunction,ComponentPad*%
%ADD11C,1.524000*%
%TD*%
%TA.AperFunction,SMDPad,CuDef*%
%ADD12RoundRect,0.381000X-0.381000X1.190500X-0.381000X-1.190500X0.381000X-1.190500X0.381000X1.190500X0*%
%TD*%
%TA.AperFunction,SMDPad,CuDef*%
%ADD13RoundRect,0.381000X-0.381000X1.025500X-0.381000X-1.025500X0.381000X-1.025500X0.381000X1.025500X0*%
%TD*%
%TA.AperFunction,ComponentPad*%
%ADD14C,2.286000*%
%TD*%
%TA.AperFunction,ComponentPad*%
%ADD15R,1.700000X1.700000*%
%TD*%
%TA.AperFunction,ComponentPad*%
%ADD16O,1.700000X1.700000*%
%TD*%
%TA.AperFunction,ComponentPad*%
%ADD17HorizOval,1.700000X0.000000X0.000000X0.000000X0.000000X0*%
%TD*%
%TA.AperFunction,ComponentPad*%
%ADD18RotRect,1.700000X1.700000X60.000000*%
%TD*%
%TA.AperFunction,ComponentPad*%
%ADD19RotRect,3.500000X3.500000X60.000000*%
%TD*%
%TA.AperFunction,ComponentPad*%
%ADD20RoundRect,0.750000X0.491025X-1.149519X1.241025X0.149519X-0.491025X1.149519X-1.241025X-0.149519X0*%
%TD*%
%TA.AperFunction,ComponentPad*%
%ADD21RoundRect,0.875000X0.320272X-1.195272X1.195272X0.320272X-0.320272X1.195272X-1.195272X-0.320272X0*%
%TD*%
%TA.AperFunction,ComponentPad*%
%ADD22R,1.130000X1.130000*%
%TD*%
%TA.AperFunction,ComponentPad*%
%ADD23C,1.130000*%
%TD*%
%TA.AperFunction,ComponentPad*%
%ADD24HorizOval,1.700000X0.000000X0.000000X0.000000X0.000000X0*%
%TD*%
%TA.AperFunction,ComponentPad*%
%ADD25RotRect,1.700000X1.700000X300.000000*%
%TD*%
%TA.AperFunction,ViaPad*%
%ADD26C,2.000000*%
%TD*%
%TA.AperFunction,ViaPad*%
%ADD27C,0.800000*%
%TD*%
%TA.AperFunction,Conductor*%
%ADD28C,1.000000*%
%TD*%
%TA.AperFunction,Conductor*%
%ADD29C,0.250000*%
%TD*%
G04 APERTURE END LIST*
D10*
%TO.C,A12*%
X370398054Y-100431667D02*
X370398054Y-101288667D01*
X367398054Y-100446667D02*
X367398054Y-101303667D01*
X373398054Y-100589667D02*
X373398054Y-101446667D01*
X370398054Y-323603667D02*
X370398054Y-321588667D01*
X373398054Y-323754167D02*
X373398054Y-321588667D01*
X367398054Y-323829417D02*
X367398054Y-321588667D01*
%TO.C,A2*%
X254926054Y-133765000D02*
X254926054Y-134622000D01*
X251926054Y-133780000D02*
X251926054Y-134637000D01*
X257926054Y-133923000D02*
X257926054Y-134780000D01*
X254926054Y-290297000D02*
X254926054Y-288282000D01*
X257926054Y-290447500D02*
X257926054Y-288282000D01*
X251926054Y-290522750D02*
X251926054Y-288282000D01*
%TO.C,A4*%
X283794054Y-117098334D02*
X283794054Y-117955334D01*
X280794054Y-117113334D02*
X280794054Y-117970334D01*
X286794054Y-117256334D02*
X286794054Y-118113334D01*
X283794054Y-306950334D02*
X283794054Y-304935334D01*
X286794054Y-307100834D02*
X286794054Y-304935334D01*
X280794054Y-307176084D02*
X280794054Y-304935334D01*
%TO.C,A7*%
X327096054Y-92098334D02*
X327096054Y-92955334D01*
X324096054Y-92113334D02*
X324096054Y-92970334D01*
X330096054Y-92256334D02*
X330096054Y-93113334D01*
X327096054Y-331930334D02*
X327096054Y-329915334D01*
X330096054Y-332080834D02*
X330096054Y-329915334D01*
X324096054Y-332156084D02*
X324096054Y-329915334D01*
%TO.C,A3*%
X269360054Y-125431667D02*
X269360054Y-126288667D01*
X266360054Y-125446667D02*
X266360054Y-126303667D01*
X272360054Y-125589667D02*
X272360054Y-126446667D01*
X269360054Y-298623667D02*
X269360054Y-296608667D01*
X272360054Y-298774167D02*
X272360054Y-296608667D01*
X266360054Y-298849417D02*
X266360054Y-296608667D01*
%TO.C,A6*%
X312662054Y-100431667D02*
X312662054Y-101288667D01*
X309662054Y-100446667D02*
X309662054Y-101303667D01*
X315662054Y-100589667D02*
X315662054Y-101446667D01*
X312662054Y-323603667D02*
X312662054Y-321588667D01*
X315662054Y-323754167D02*
X315662054Y-321588667D01*
X309662054Y-323829417D02*
X309662054Y-321588667D01*
%TO.C,A17*%
X442568054Y-142098334D02*
X442568054Y-142955334D01*
X439568054Y-142113334D02*
X439568054Y-142970334D01*
X445568054Y-142256334D02*
X445568054Y-143113334D01*
X442568054Y-281970334D02*
X442568054Y-279955334D01*
X445568054Y-282120834D02*
X445568054Y-279955334D01*
X439568054Y-282196084D02*
X439568054Y-279955334D01*
%TO.C,A1*%
X240492054Y-142098334D02*
X240492054Y-142955334D01*
X237492054Y-142113334D02*
X237492054Y-142970334D01*
X243492054Y-142256334D02*
X243492054Y-143113334D01*
X240492054Y-281970334D02*
X240492054Y-279955334D01*
X243492054Y-282120834D02*
X243492054Y-279955334D01*
X237492054Y-282196084D02*
X237492054Y-279955334D01*
%TO.C,A15*%
X413700054Y-125431667D02*
X413700054Y-126288667D01*
X410700054Y-125446667D02*
X410700054Y-126303667D01*
X416700054Y-125589667D02*
X416700054Y-126446667D01*
X413700054Y-298623667D02*
X413700054Y-296608667D01*
X416700054Y-298774167D02*
X416700054Y-296608667D01*
X410700054Y-298849417D02*
X410700054Y-296608667D01*
%TO.C,A14*%
X399240000Y-116951500D02*
X399240000Y-117808500D01*
X396240000Y-116966500D02*
X396240000Y-117823500D01*
X402240000Y-117109500D02*
X402240000Y-117966500D01*
X399240000Y-306803500D02*
X399240000Y-304788500D01*
X402240000Y-306954000D02*
X402240000Y-304788500D01*
X396240000Y-307029250D02*
X396240000Y-304788500D01*
%TO.C,A16*%
X428134054Y-133765000D02*
X428134054Y-134622000D01*
X425134054Y-133780000D02*
X425134054Y-134637000D01*
X431134054Y-133923000D02*
X431134054Y-134780000D01*
X428134054Y-290297000D02*
X428134054Y-288282000D01*
X431134054Y-290447500D02*
X431134054Y-288282000D01*
X425134054Y-290522750D02*
X425134054Y-288282000D01*
%TO.C,A11*%
X355964054Y-92098334D02*
X355964054Y-92955334D01*
X352964054Y-92113334D02*
X352964054Y-92970334D01*
X358964054Y-92256334D02*
X358964054Y-93113334D01*
X355964054Y-331930334D02*
X355964054Y-329915334D01*
X358964054Y-332080834D02*
X358964054Y-329915334D01*
X352964054Y-332156084D02*
X352964054Y-329915334D01*
%TO.C,A8*%
X341530054Y-83765000D02*
X341530054Y-84622000D01*
X338530054Y-83780000D02*
X338530054Y-84637000D01*
X344530054Y-83923000D02*
X344530054Y-84780000D01*
X341530054Y-340257000D02*
X341530054Y-338242000D01*
X344530054Y-340407500D02*
X344530054Y-338242000D01*
X338530054Y-340482750D02*
X338530054Y-338242000D01*
%TO.C,A13*%
X384832054Y-108765000D02*
X384832054Y-109622000D01*
X381832054Y-108780000D02*
X381832054Y-109637000D01*
X387832054Y-108923000D02*
X387832054Y-109780000D01*
X384832054Y-315277000D02*
X384832054Y-313262000D01*
X387832054Y-315427500D02*
X387832054Y-313262000D01*
X381832054Y-315502750D02*
X381832054Y-313262000D01*
%TO.C,A5*%
X298228054Y-108765000D02*
X298228054Y-109622000D01*
X295228054Y-108780000D02*
X295228054Y-109637000D01*
X301228054Y-108923000D02*
X301228054Y-109780000D01*
X298228054Y-315277000D02*
X298228054Y-313262000D01*
X301228054Y-315427500D02*
X301228054Y-313262000D01*
X295228054Y-315502750D02*
X295228054Y-313262000D01*
%TD*%
D11*
%TO.P,U2,27*%
%TO.N,N/C*%
X224790000Y-234950000D03*
%TO.P,U2,26,R0*%
%TO.N,/KEYPAD_7*%
X224790000Y-237490000D03*
%TO.P,U2,25,R1*%
%TO.N,/KEYPAD_6*%
X224790000Y-240030000D03*
%TO.P,U2,24,C0*%
%TO.N,/KEYPAD_4*%
X224790000Y-242570000D03*
%TO.P,U2,23,C1*%
%TO.N,/KEYPAD_3*%
X224790000Y-245110000D03*
%TO.P,U2,22,C2*%
%TO.N,/KEYPAD_2*%
X224790000Y-247650000D03*
%TO.P,U2,21,C3*%
%TO.N,/KEYPAD_1*%
X224790000Y-250190000D03*
%TO.P,U2,20,C4*%
%TO.N,unconnected-(U2-C4-Pad20)*%
X224790000Y-252730000D03*
%TO.P,U2,19,C5*%
%TO.N,unconnected-(U2-C5-Pad19)*%
X224790000Y-252730000D03*
%TO.P,U2,18,C6*%
%TO.N,unconnected-(U2-C6-Pad18)*%
X224790000Y-255270000D03*
%TO.P,U2,17,C7*%
%TO.N,unconnected-(U2-C7-Pad17)*%
X224790000Y-257810000D03*
%TO.P,U2,16,C8*%
%TO.N,unconnected-(U2-C8-Pad16)*%
X224790000Y-260350000D03*
%TO.P,U2,15,C9*%
%TO.N,unconnected-(U2-C9-Pad15)*%
X224790000Y-262890000D03*
%TO.P,U2,14,GND*%
%TO.N,GND*%
X224790000Y-265430000D03*
%TO.P,U2,13,R2*%
%TO.N,/KEYPAD_5*%
X214630000Y-234950000D03*
%TO.P,U2,12,R3*%
%TO.N,unconnected-(U2-R3-Pad12)*%
X214630000Y-237490000D03*
%TO.P,U2,11,R4*%
%TO.N,unconnected-(U2-R4-Pad11)*%
X214630000Y-240030000D03*
%TO.P,U2,10,R5*%
%TO.N,unconnected-(U2-R5-Pad10)*%
X214630000Y-242570000D03*
%TO.P,U2,9,R6*%
%TO.N,unconnected-(U2-R6-Pad9)*%
X214630000Y-245110000D03*
%TO.P,U2,8,R7*%
%TO.N,unconnected-(U2-R7-Pad8)*%
X214630000Y-247650000D03*
%TO.P,U2,7,RST*%
%TO.N,unconnected-(U2-RST-Pad7)*%
X214630000Y-250190000D03*
%TO.P,U2,6,INT*%
%TO.N,/KEYPAD_INT*%
X214630000Y-252730000D03*
%TO.P,U2,5,SDA*%
%TO.N,/SDA*%
X214630000Y-255270000D03*
%TO.P,U2,4,SCL*%
%TO.N,/SCL*%
X214630000Y-257810000D03*
%TO.P,U2,3,GND*%
%TO.N,GND*%
X214630000Y-260350000D03*
%TO.P,U2,2,3Vo*%
%TO.N,unconnected-(U2-3Vo-Pad2)*%
X214630000Y-262890000D03*
%TO.P,U2,1,VIN*%
%TO.N,+3V3*%
X214630000Y-265430000D03*
%TD*%
D12*
%TO.P,A12,1,GND_Start*%
%TO.N,GND*%
X367398054Y-102860167D03*
%TO.P,A12,2,Data_In*%
%TO.N,Net-(A11-Data_Out)*%
X370398054Y-102860167D03*
%TO.P,A12,3,5V_Start*%
%TO.N,+5V*%
X373398054Y-102860167D03*
D13*
%TO.P,A12,4,GND_End*%
%TO.N,GND*%
X367398054Y-320182167D03*
%TO.P,A12,5,Data_Out*%
%TO.N,Net-(A12-Data_Out)*%
X370398054Y-320182167D03*
%TO.P,A12,6,5V_End*%
%TO.N,+5V*%
X373398054Y-320182167D03*
D14*
%TO.P,A12,10*%
%TO.N,N/C*%
X373398054Y-99446667D03*
X370398054Y-99446667D03*
X367398054Y-99446667D03*
%TO.P,A12,11*%
X373398054Y-324746667D03*
X370398054Y-324746667D03*
X367398054Y-324746667D03*
%TD*%
D12*
%TO.P,A2,1,GND_Start*%
%TO.N,GND*%
X251926054Y-136193500D03*
%TO.P,A2,2,Data_In*%
%TO.N,Net-(A1-Data_Out)*%
X254926054Y-136193500D03*
%TO.P,A2,3,5V_Start*%
%TO.N,+5V*%
X257926054Y-136193500D03*
D13*
%TO.P,A2,4,GND_End*%
%TO.N,GND*%
X251926054Y-286875500D03*
%TO.P,A2,5,Data_Out*%
%TO.N,Net-(A2-Data_Out)*%
X254926054Y-286875500D03*
%TO.P,A2,6,5V_End*%
%TO.N,+5V*%
X257926054Y-286875500D03*
D14*
%TO.P,A2,10*%
%TO.N,N/C*%
X257926054Y-132780000D03*
X254926054Y-132780000D03*
X251926054Y-132780000D03*
%TO.P,A2,11*%
X257926054Y-291440000D03*
X254926054Y-291440000D03*
X251926054Y-291440000D03*
%TD*%
D12*
%TO.P,A4,1,GND_Start*%
%TO.N,GND*%
X280794054Y-119526834D03*
%TO.P,A4,2,Data_In*%
%TO.N,Net-(A3-Data_Out)*%
X283794054Y-119526834D03*
%TO.P,A4,3,5V_Start*%
%TO.N,+5V*%
X286794054Y-119526834D03*
D13*
%TO.P,A4,4,GND_End*%
%TO.N,GND*%
X280794054Y-303528834D03*
%TO.P,A4,5,Data_Out*%
%TO.N,Net-(A4-Data_Out)*%
X283794054Y-303528834D03*
%TO.P,A4,6,5V_End*%
%TO.N,+5V*%
X286794054Y-303528834D03*
D14*
%TO.P,A4,10*%
%TO.N,N/C*%
X286794054Y-116113334D03*
X283794054Y-116113334D03*
X280794054Y-116113334D03*
%TO.P,A4,11*%
X286794054Y-308093334D03*
X283794054Y-308093334D03*
X280794054Y-308093334D03*
%TD*%
D12*
%TO.P,A7,1,GND_Start*%
%TO.N,GND*%
X324096054Y-94526834D03*
%TO.P,A7,2,Data_In*%
%TO.N,Net-(A6-Data_Out)*%
X327096054Y-94526834D03*
%TO.P,A7,3,5V_Start*%
%TO.N,+5V*%
X330096054Y-94526834D03*
D13*
%TO.P,A7,4,GND_End*%
%TO.N,GND*%
X324096054Y-328508834D03*
%TO.P,A7,5,Data_Out*%
%TO.N,Net-(A7-Data_Out)*%
X327096054Y-328508834D03*
%TO.P,A7,6,5V_End*%
%TO.N,+5V*%
X330096054Y-328508834D03*
D14*
%TO.P,A7,10*%
%TO.N,N/C*%
X330096054Y-91113334D03*
X327096054Y-91113334D03*
X324096054Y-91113334D03*
%TO.P,A7,11*%
X330096054Y-333073334D03*
X327096054Y-333073334D03*
X324096054Y-333073334D03*
%TD*%
D12*
%TO.P,A3,1,GND_Start*%
%TO.N,GND*%
X266360054Y-127860167D03*
%TO.P,A3,2,Data_In*%
%TO.N,Net-(A2-Data_Out)*%
X269360054Y-127860167D03*
%TO.P,A3,3,5V_Start*%
%TO.N,+5V*%
X272360054Y-127860167D03*
D13*
%TO.P,A3,4,GND_End*%
%TO.N,GND*%
X266360054Y-295202167D03*
%TO.P,A3,5,Data_Out*%
%TO.N,Net-(A3-Data_Out)*%
X269360054Y-295202167D03*
%TO.P,A3,6,5V_End*%
%TO.N,+5V*%
X272360054Y-295202167D03*
D14*
%TO.P,A3,10*%
%TO.N,N/C*%
X272360054Y-124446667D03*
X269360054Y-124446667D03*
X266360054Y-124446667D03*
%TO.P,A3,11*%
X272360054Y-299766667D03*
X269360054Y-299766667D03*
X266360054Y-299766667D03*
%TD*%
D12*
%TO.P,A6,1,GND_Start*%
%TO.N,GND*%
X309662054Y-102860167D03*
%TO.P,A6,2,Data_In*%
%TO.N,Net-(A5-Data_Out)*%
X312662054Y-102860167D03*
%TO.P,A6,3,5V_Start*%
%TO.N,+5V*%
X315662054Y-102860167D03*
D13*
%TO.P,A6,4,GND_End*%
%TO.N,GND*%
X309662054Y-320182167D03*
%TO.P,A6,5,Data_Out*%
%TO.N,Net-(A6-Data_Out)*%
X312662054Y-320182167D03*
%TO.P,A6,6,5V_End*%
%TO.N,+5V*%
X315662054Y-320182167D03*
D14*
%TO.P,A6,10*%
%TO.N,N/C*%
X315662054Y-99446667D03*
X312662054Y-99446667D03*
X309662054Y-99446667D03*
%TO.P,A6,11*%
X315662054Y-324746667D03*
X312662054Y-324746667D03*
X309662054Y-324746667D03*
%TD*%
%TO.P,A17,*%
%TO.N,*%
X445568054Y-141113334D03*
X442568054Y-141113334D03*
X439568054Y-141113334D03*
X445568054Y-283113334D03*
X442568054Y-283113334D03*
X439568054Y-283113334D03*
D12*
%TO.P,A17,1,GND_Start*%
%TO.N,GND*%
X439568054Y-144526834D03*
%TO.P,A17,2,Data_In*%
%TO.N,Net-(A16-Data_Out)*%
X442568054Y-144526834D03*
%TO.P,A17,3,5V_Start*%
%TO.N,+5V*%
X445568054Y-144526834D03*
D13*
%TO.P,A17,4,GND_End*%
%TO.N,GND*%
X439568054Y-278548834D03*
%TO.P,A17,5,Data_Out*%
%TO.N,/LED_DATA_OUT*%
X442568054Y-278548834D03*
%TO.P,A17,6,5V_End*%
%TO.N,+5V*%
X445568054Y-278548834D03*
%TD*%
D14*
%TO.P,A1,*%
%TO.N,*%
X243492054Y-141113334D03*
X240492054Y-141113334D03*
X237492054Y-141113334D03*
X243492054Y-283113334D03*
X240492054Y-283113334D03*
X237492054Y-283113334D03*
D12*
%TO.P,A1,1,GND_Start*%
%TO.N,GND*%
X237492054Y-144526834D03*
%TO.P,A1,2,Data_In*%
%TO.N,/LED_DATA_IN*%
X240492054Y-144526834D03*
%TO.P,A1,3,5V_Start*%
%TO.N,+5V*%
X243492054Y-144526834D03*
D13*
%TO.P,A1,4,GND_End*%
%TO.N,GND*%
X237492054Y-278548834D03*
%TO.P,A1,5,Data_Out*%
%TO.N,Net-(A1-Data_Out)*%
X240492054Y-278548834D03*
%TO.P,A1,6,5V_End*%
%TO.N,+5V*%
X243492054Y-278548834D03*
%TD*%
D12*
%TO.P,A15,1,GND_Start*%
%TO.N,GND*%
X410700054Y-127860167D03*
%TO.P,A15,2,Data_In*%
%TO.N,Net-(A14-Data_Out)*%
X413700054Y-127860167D03*
%TO.P,A15,3,5V_Start*%
%TO.N,+5V*%
X416700054Y-127860167D03*
D13*
%TO.P,A15,4,GND_End*%
%TO.N,GND*%
X410700054Y-295202167D03*
%TO.P,A15,5,Data_Out*%
%TO.N,Net-(A15-Data_Out)*%
X413700054Y-295202167D03*
%TO.P,A15,6,5V_End*%
%TO.N,+5V*%
X416700054Y-295202167D03*
D14*
%TO.P,A15,10*%
%TO.N,N/C*%
X416700054Y-124446667D03*
X413700054Y-124446667D03*
X410700054Y-124446667D03*
%TO.P,A15,11*%
X416700054Y-299766667D03*
X413700054Y-299766667D03*
X410700054Y-299766667D03*
%TD*%
D12*
%TO.P,A14,1,GND_Start*%
%TO.N,GND*%
X396240000Y-119380000D03*
%TO.P,A14,2,Data_In*%
%TO.N,Net-(A13-Data_Out)*%
X399240000Y-119380000D03*
%TO.P,A14,3,5V_Start*%
%TO.N,+5V*%
X402240000Y-119380000D03*
D13*
%TO.P,A14,4,GND_End*%
%TO.N,GND*%
X396240000Y-303382000D03*
%TO.P,A14,5,Data_Out*%
%TO.N,Net-(A14-Data_Out)*%
X399240000Y-303382000D03*
%TO.P,A14,6,5V_End*%
%TO.N,+5V*%
X402240000Y-303382000D03*
D14*
%TO.P,A14,10*%
%TO.N,N/C*%
X402240000Y-115966500D03*
X399240000Y-115966500D03*
X396240000Y-115966500D03*
%TO.P,A14,11*%
X402240000Y-307946500D03*
X399240000Y-307946500D03*
X396240000Y-307946500D03*
%TD*%
D12*
%TO.P,A16,1,GND_Start*%
%TO.N,GND*%
X425134054Y-136193500D03*
%TO.P,A16,2,Data_In*%
%TO.N,Net-(A15-Data_Out)*%
X428134054Y-136193500D03*
%TO.P,A16,3,5V_Start*%
%TO.N,+5V*%
X431134054Y-136193500D03*
D13*
%TO.P,A16,4,GND_End*%
%TO.N,GND*%
X425134054Y-286875500D03*
%TO.P,A16,5,Data_Out*%
%TO.N,Net-(A16-Data_Out)*%
X428134054Y-286875500D03*
%TO.P,A16,6,5V_End*%
%TO.N,+5V*%
X431134054Y-286875500D03*
D14*
%TO.P,A16,10*%
%TO.N,N/C*%
X431134054Y-132780000D03*
X428134054Y-132780000D03*
X425134054Y-132780000D03*
%TO.P,A16,11*%
X431134054Y-291440000D03*
X428134054Y-291440000D03*
X425134054Y-291440000D03*
%TD*%
D12*
%TO.P,A11,1,GND_Start*%
%TO.N,GND*%
X352964054Y-94526834D03*
%TO.P,A11,2,Data_In*%
%TO.N,Net-(A11-Data_In)*%
X355964054Y-94526834D03*
%TO.P,A11,3,5V_Start*%
%TO.N,+5V*%
X358964054Y-94526834D03*
D13*
%TO.P,A11,4,GND_End*%
%TO.N,GND*%
X352964054Y-328508834D03*
%TO.P,A11,5,Data_Out*%
%TO.N,Net-(A11-Data_Out)*%
X355964054Y-328508834D03*
%TO.P,A11,6,5V_End*%
%TO.N,+5V*%
X358964054Y-328508834D03*
D14*
%TO.P,A11,10*%
%TO.N,N/C*%
X358964054Y-91113334D03*
X355964054Y-91113334D03*
X352964054Y-91113334D03*
%TO.P,A11,11*%
X358964054Y-333073334D03*
X355964054Y-333073334D03*
X352964054Y-333073334D03*
%TD*%
D12*
%TO.P,A8,1,GND_Start*%
%TO.N,GND*%
X338530054Y-86193500D03*
%TO.P,A8,2,Data_In*%
%TO.N,Net-(A7-Data_Out)*%
X341530054Y-86193500D03*
%TO.P,A8,3,5V_Start*%
%TO.N,+5V*%
X344530054Y-86193500D03*
D13*
%TO.P,A8,4,GND_End*%
%TO.N,GND*%
X338530054Y-336835500D03*
%TO.P,A8,5,Data_Out*%
%TO.N,Net-(A11-Data_In)*%
X341530054Y-336835500D03*
%TO.P,A8,6,5V_End*%
%TO.N,+5V*%
X344530054Y-336835500D03*
D14*
%TO.P,A8,10*%
%TO.N,N/C*%
X344530054Y-82780000D03*
X341530054Y-82780000D03*
X338530054Y-82780000D03*
%TO.P,A8,11*%
X344530054Y-341400000D03*
X341530054Y-341400000D03*
X338530054Y-341400000D03*
%TD*%
D12*
%TO.P,A13,1,GND_Start*%
%TO.N,GND*%
X381832054Y-111193500D03*
%TO.P,A13,2,Data_In*%
%TO.N,Net-(A12-Data_Out)*%
X384832054Y-111193500D03*
%TO.P,A13,3,5V_Start*%
%TO.N,+5V*%
X387832054Y-111193500D03*
D13*
%TO.P,A13,4,GND_End*%
%TO.N,GND*%
X381832054Y-311855500D03*
%TO.P,A13,5,Data_Out*%
%TO.N,Net-(A13-Data_Out)*%
X384832054Y-311855500D03*
%TO.P,A13,6,5V_End*%
%TO.N,+5V*%
X387832054Y-311855500D03*
D14*
%TO.P,A13,10*%
%TO.N,N/C*%
X387832054Y-107780000D03*
X384832054Y-107780000D03*
X381832054Y-107780000D03*
%TO.P,A13,11*%
X387832054Y-316420000D03*
X384832054Y-316420000D03*
X381832054Y-316420000D03*
%TD*%
D12*
%TO.P,A5,1,GND_Start*%
%TO.N,GND*%
X295228054Y-111193500D03*
%TO.P,A5,2,Data_In*%
%TO.N,Net-(A4-Data_Out)*%
X298228054Y-111193500D03*
%TO.P,A5,3,5V_Start*%
%TO.N,+5V*%
X301228054Y-111193500D03*
D13*
%TO.P,A5,4,GND_End*%
%TO.N,GND*%
X295228054Y-311855500D03*
%TO.P,A5,5,Data_Out*%
%TO.N,Net-(A5-Data_Out)*%
X298228054Y-311855500D03*
%TO.P,A5,6,5V_End*%
%TO.N,+5V*%
X301228054Y-311855500D03*
D14*
%TO.P,A5,10*%
%TO.N,N/C*%
X301228054Y-107780000D03*
X298228054Y-107780000D03*
X295228054Y-107780000D03*
%TO.P,A5,11*%
X301228054Y-316420000D03*
X298228054Y-316420000D03*
X295228054Y-316420000D03*
%TD*%
D15*
%TO.P,J1,1,Pin_1*%
%TO.N,/PICO_DATAIN_6*%
X406400000Y-199390000D03*
D16*
%TO.P,J1,2,Pin_2*%
%TO.N,/PICO_DATAIN_5*%
X406400000Y-196850000D03*
%TO.P,J1,3,Pin_3*%
%TO.N,GND*%
X406400000Y-194310000D03*
%TO.P,J1,4,Pin_4*%
%TO.N,/PICO_DATAIN_4*%
X406400000Y-191770000D03*
%TO.P,J1,5,Pin_5*%
%TO.N,/PICO_DATAIN_3*%
X406400000Y-189230000D03*
%TO.P,J1,6,Pin_6*%
%TO.N,/PICO_DATAIN_2*%
X406400000Y-186690000D03*
%TO.P,J1,7,Pin_7*%
%TO.N,/PICO_DATAIN_1*%
X406400000Y-184150000D03*
%TO.P,J1,8,Pin_8*%
%TO.N,GND*%
X406400000Y-181610000D03*
%TO.P,J1,9,Pin_9*%
%TO.N,/SCL*%
X406400000Y-179070000D03*
%TO.P,J1,10,Pin_10*%
%TO.N,/SDA*%
X406400000Y-176530000D03*
%TO.P,J1,11,Pin_11*%
%TO.N,/RTC_INT*%
X406400000Y-173990000D03*
%TO.P,J1,12,Pin_12*%
%TO.N,/KEYPAD_INT*%
X406400000Y-171450000D03*
%TO.P,J1,13,Pin_13*%
%TO.N,GND*%
X406400000Y-168910000D03*
%TO.P,J1,14,Pin_14*%
%TO.N,Net-(J1-Pin_14)*%
X406400000Y-166370000D03*
%TO.P,J1,15,Pin_15*%
%TO.N,/DIN*%
X406400000Y-163830000D03*
%TO.P,J1,16,Pin_16*%
%TO.N,/BCLK*%
X406400000Y-161290000D03*
%TO.P,J1,17,Pin_17*%
%TO.N,/LRC*%
X406400000Y-158750000D03*
%TO.P,J1,18,Pin_18*%
%TO.N,GND*%
X406400000Y-156210000D03*
%TO.P,J1,19,Pin_19*%
%TO.N,/UART0 RX*%
X406400000Y-153670000D03*
%TO.P,J1,20,Pin_20*%
%TO.N,/UART0 TX*%
X406400000Y-151130000D03*
%TD*%
D15*
%TO.P,RTC1,1,Pin_1*%
%TO.N,GND*%
X377190000Y-189230000D03*
D16*
%TO.P,RTC1,2,Pin_2*%
%TO.N,+3V3*%
X377190000Y-191770000D03*
%TO.P,RTC1,3,Pin_3*%
%TO.N,/SDA*%
X377190000Y-194310000D03*
%TO.P,RTC1,4,Pin_4*%
%TO.N,/SCL*%
X377190000Y-196850000D03*
%TO.P,RTC1,5,Pin_5*%
%TO.N,unconnected-(RTC1-Pin_5-Pad5)*%
X377190000Y-199390000D03*
%TO.P,RTC1,6,Pin_6*%
%TO.N,/RTC_INT*%
X377190000Y-201930000D03*
%TD*%
D15*
%TO.P,LED_DATA_IN1,1,Pin_1*%
%TO.N,/LED_DATA_IN*%
X242570000Y-129540000D03*
%TD*%
D17*
%TO.P,J7,16,Pin_16*%
%TO.N,/BUS_1*%
X386513339Y-95431368D03*
%TO.P,J7,15,Pin_15*%
%TO.N,/BUS_2*%
X388713044Y-96701368D03*
%TO.P,J7,14,Pin_14*%
%TO.N,/BUS_3*%
X390912748Y-97971368D03*
%TO.P,J7,13,Pin_13*%
%TO.N,/BUS_4*%
X393112453Y-99241368D03*
%TO.P,J7,12,Pin_12*%
%TO.N,/BUS_5*%
X395312157Y-100511368D03*
%TO.P,J7,11,Pin_11*%
%TO.N,/BUS_6*%
X397511862Y-101781368D03*
%TO.P,J7,10,Pin_10*%
%TO.N,GND*%
X399711566Y-103051368D03*
%TO.P,J7,9,Pin_9*%
%TO.N,+5V*%
X401911271Y-104321368D03*
%TO.P,J7,8,Pin_8*%
X404110975Y-105591368D03*
%TO.P,J7,7,Pin_7*%
%TO.N,GND*%
X406310680Y-106861368D03*
%TO.P,J7,6,Pin_6*%
%TO.N,/BUS_6*%
X408510384Y-108131368D03*
%TO.P,J7,5,Pin_5*%
%TO.N,/BUS_5*%
X410710089Y-109401368D03*
%TO.P,J7,4,Pin_4*%
%TO.N,/BUS_4*%
X412909793Y-110671368D03*
%TO.P,J7,3,Pin_3*%
%TO.N,/BUS_3*%
X415109498Y-111941368D03*
%TO.P,J7,2,Pin_2*%
%TO.N,/BUS_2*%
X417309202Y-113211368D03*
D18*
%TO.P,J7,1,Pin_1*%
%TO.N,/BUS_1*%
X419508907Y-114481368D03*
%TD*%
D15*
%TO.P,STEPPER_1-4,1,Pin_1*%
%TO.N,Net-(PICO_DATAIN_1-STEPPER1-B)*%
X452120000Y-246380000D03*
D16*
%TO.P,STEPPER_1-4,2,Pin_2*%
%TO.N,Net-(PICO_DATAIN_2-STEPPER1-B)*%
X452120000Y-248920000D03*
%TO.P,STEPPER_1-4,3,Pin_3*%
%TO.N,Net-(PICO_DATAIN_3-STEPPER1-B)*%
X452120000Y-251460000D03*
%TO.P,STEPPER_1-4,4,Pin_4*%
%TO.N,Net-(PICO_DATAIN_4-STEPPER1-B)*%
X452120000Y-254000000D03*
%TO.P,STEPPER_1-4,5,Pin_5*%
%TO.N,Net-(STEPPER-DATA_1-B)*%
X452120000Y-256540000D03*
%TO.P,STEPPER_1-4,6,Pin_6*%
%TO.N,Net-(STEPPER-DATA_2-B)*%
X452120000Y-259080000D03*
%TO.P,STEPPER_1-4,7,Pin_7*%
%TO.N,Net-(STEPPER-DATA_3-B)*%
X452120000Y-261620000D03*
%TO.P,STEPPER_1-4,8,Pin_8*%
%TO.N,Net-(STEPPER-DATA_4-B)*%
X452120000Y-264160000D03*
%TD*%
D17*
%TO.P,J4,16,Pin_16*%
%TO.N,/BUS_1*%
X263550664Y-308411173D03*
%TO.P,J4,15,Pin_15*%
%TO.N,/BUS_2*%
X265750369Y-309681173D03*
%TO.P,J4,14,Pin_14*%
%TO.N,/BUS_3*%
X267950073Y-310951173D03*
%TO.P,J4,13,Pin_13*%
%TO.N,/BUS_4*%
X270149778Y-312221173D03*
%TO.P,J4,12,Pin_12*%
%TO.N,/BUS_5*%
X272349482Y-313491173D03*
%TO.P,J4,11,Pin_11*%
%TO.N,/BUS_6*%
X274549187Y-314761173D03*
%TO.P,J4,10,Pin_10*%
%TO.N,GND*%
X276748891Y-316031173D03*
%TO.P,J4,9,Pin_9*%
%TO.N,+5V*%
X278948596Y-317301173D03*
%TO.P,J4,8,Pin_8*%
X281148300Y-318571173D03*
%TO.P,J4,7,Pin_7*%
%TO.N,GND*%
X283348005Y-319841173D03*
%TO.P,J4,6,Pin_6*%
%TO.N,/BUS_6*%
X285547709Y-321111173D03*
%TO.P,J4,5,Pin_5*%
%TO.N,/BUS_5*%
X287747414Y-322381173D03*
%TO.P,J4,4,Pin_4*%
%TO.N,/BUS_4*%
X289947118Y-323651173D03*
%TO.P,J4,3,Pin_3*%
%TO.N,/BUS_3*%
X292146823Y-324921173D03*
%TO.P,J4,2,Pin_2*%
%TO.N,/BUS_2*%
X294346527Y-326191173D03*
D18*
%TO.P,J4,1,Pin_1*%
%TO.N,/BUS_1*%
X296546232Y-327461173D03*
%TD*%
D16*
%TO.P,J3,16,Pin_16*%
%TO.N,/BUS_1*%
X464493692Y-230497106D03*
%TO.P,J3,15,Pin_15*%
%TO.N,/BUS_2*%
X464493692Y-227957106D03*
%TO.P,J3,14,Pin_14*%
%TO.N,/BUS_3*%
X464493692Y-225417106D03*
%TO.P,J3,13,Pin_13*%
%TO.N,/BUS_4*%
X464493692Y-222877106D03*
%TO.P,J3,12,Pin_12*%
%TO.N,/BUS_5*%
X464493692Y-220337106D03*
%TO.P,J3,11,Pin_11*%
%TO.N,/BUS_6*%
X464493692Y-217797106D03*
%TO.P,J3,10,Pin_10*%
%TO.N,GND*%
X464493692Y-215257106D03*
%TO.P,J3,9,Pin_9*%
%TO.N,+5V*%
X464493692Y-212717106D03*
%TO.P,J3,8,Pin_8*%
X464493692Y-210177106D03*
%TO.P,J3,7,Pin_7*%
%TO.N,GND*%
X464493692Y-207637106D03*
%TO.P,J3,6,Pin_6*%
%TO.N,/BUS_6*%
X464493692Y-205097106D03*
%TO.P,J3,5,Pin_5*%
%TO.N,/BUS_5*%
X464493692Y-202557106D03*
%TO.P,J3,4,Pin_4*%
%TO.N,/BUS_4*%
X464493692Y-200017106D03*
%TO.P,J3,3,Pin_3*%
%TO.N,/BUS_3*%
X464493692Y-197477106D03*
%TO.P,J3,2,Pin_2*%
%TO.N,/BUS_2*%
X464493692Y-194937106D03*
D15*
%TO.P,J3,1,Pin_1*%
%TO.N,/BUS_1*%
X464493692Y-192397106D03*
%TD*%
D16*
%TO.P,J5,16,Pin_16*%
%TO.N,/BUS_1*%
X218566052Y-230496439D03*
%TO.P,J5,15,Pin_15*%
%TO.N,/BUS_2*%
X218566052Y-227956439D03*
%TO.P,J5,14,Pin_14*%
%TO.N,/BUS_3*%
X218566052Y-225416439D03*
%TO.P,J5,13,Pin_13*%
%TO.N,/BUS_4*%
X218566052Y-222876439D03*
%TO.P,J5,12,Pin_12*%
%TO.N,/BUS_5*%
X218566052Y-220336439D03*
%TO.P,J5,11,Pin_11*%
%TO.N,/BUS_6*%
X218566052Y-217796439D03*
%TO.P,J5,10,Pin_10*%
%TO.N,GND*%
X218566052Y-215256439D03*
%TO.P,J5,9,Pin_9*%
%TO.N,+5V*%
X218566052Y-212716439D03*
%TO.P,J5,8,Pin_8*%
X218566052Y-210176439D03*
%TO.P,J5,7,Pin_7*%
%TO.N,GND*%
X218566052Y-207636439D03*
%TO.P,J5,6,Pin_6*%
%TO.N,/BUS_6*%
X218566052Y-205096439D03*
%TO.P,J5,5,Pin_5*%
%TO.N,/BUS_5*%
X218566052Y-202556439D03*
%TO.P,J5,4,Pin_4*%
%TO.N,/BUS_4*%
X218566052Y-200016439D03*
%TO.P,J5,3,Pin_3*%
%TO.N,/BUS_3*%
X218566052Y-197476439D03*
%TO.P,J5,2,Pin_2*%
%TO.N,/BUS_2*%
X218566052Y-194936439D03*
D15*
%TO.P,J5,1,Pin_1*%
%TO.N,/BUS_1*%
X218566052Y-192396439D03*
%TD*%
%TO.P,J2,1,Pin_1*%
%TO.N,Net-(J2-Pin_1)*%
X421640000Y-151130000D03*
D16*
%TO.P,J2,2,Pin_2*%
%TO.N,Net-(J2-Pin_2)*%
X421640000Y-153670000D03*
%TO.P,J2,3,Pin_3*%
%TO.N,GND*%
X421640000Y-156210000D03*
%TO.P,J2,4,Pin_4*%
%TO.N,Net-(J2-Pin_4)*%
X421640000Y-158750000D03*
%TO.P,J2,5,Pin_5*%
%TO.N,+3V3*%
X421640000Y-161290000D03*
%TO.P,J2,6,Pin_6*%
%TO.N,Net-(J2-Pin_6)*%
X421640000Y-163830000D03*
%TO.P,J2,7,Pin_7*%
%TO.N,Net-(J2-Pin_7)*%
X421640000Y-166370000D03*
%TO.P,J2,8,Pin_8*%
%TO.N,Net-(J2-Pin_8)*%
X421640000Y-168910000D03*
%TO.P,J2,9,Pin_9*%
%TO.N,Net-(J2-Pin_9)*%
X421640000Y-171450000D03*
%TO.P,J2,10,Pin_10*%
%TO.N,Net-(J2-Pin_10)*%
X421640000Y-173990000D03*
%TO.P,J2,11,Pin_11*%
%TO.N,Net-(J2-Pin_11)*%
X421640000Y-176530000D03*
%TO.P,J2,12,Pin_12*%
%TO.N,Net-(J2-Pin_12)*%
X421640000Y-179070000D03*
%TO.P,J2,13,Pin_13*%
%TO.N,GND*%
X421640000Y-181610000D03*
%TO.P,J2,14,Pin_14*%
%TO.N,Net-(J2-Pin_14)*%
X421640000Y-184150000D03*
%TO.P,J2,15,Pin_15*%
%TO.N,Net-(J2-Pin_15)*%
X421640000Y-186690000D03*
%TO.P,J2,16,Pin_16*%
%TO.N,Net-(J2-Pin_16)*%
X421640000Y-189230000D03*
%TO.P,J2,17,Pin_17*%
%TO.N,Net-(J2-Pin_17)*%
X421640000Y-191770000D03*
%TO.P,J2,18,Pin_18*%
%TO.N,GND*%
X421640000Y-194310000D03*
%TO.P,J2,19,Pin_19*%
%TO.N,Net-(J2-Pin_19)*%
X421640000Y-196850000D03*
%TO.P,J2,20,Pin_20*%
%TO.N,Net-(J2-Pin_20)*%
X421640000Y-199390000D03*
%TD*%
D19*
%TO.P,J30,1*%
%TO.N,+5V*%
X245570000Y-289443848D03*
D20*
%TO.P,J30,2*%
%TO.N,GND*%
X242570000Y-294640000D03*
D21*
%TO.P,J30,3*%
%TO.N,unconnected-(J30-Pad3)*%
X239999681Y-289691924D03*
%TD*%
D18*
%TO.P,AmbientLightSensor1,1,Pin_1*%
%TO.N,+3V3*%
X363514705Y-90805000D03*
D17*
%TO.P,AmbientLightSensor1,2,Pin_2*%
%TO.N,unconnected-(AmbientLightSensor1-Pin_2-Pad2)*%
X361315000Y-89535000D03*
%TO.P,AmbientLightSensor1,3,Pin_3*%
%TO.N,GND*%
X359115296Y-88265000D03*
%TO.P,AmbientLightSensor1,4,Pin_4*%
%TO.N,/SCL*%
X356915591Y-86995000D03*
%TO.P,AmbientLightSensor1,5,Pin_5*%
%TO.N,/SDA*%
X354715887Y-85725000D03*
%TD*%
D15*
%TO.P,MAX98357,1,Pin_1*%
%TO.N,/LRC*%
X377190000Y-158750000D03*
D16*
%TO.P,MAX98357,2,Pin_2*%
%TO.N,/BCLK*%
X377190000Y-161290000D03*
%TO.P,MAX98357,3,Pin_3*%
%TO.N,/DIN*%
X377190000Y-163830000D03*
%TO.P,MAX98357,4,Pin_4*%
%TO.N,Net-(MAX98357-Pin_4)*%
X377190000Y-166370000D03*
%TO.P,MAX98357,5,Pin_5*%
%TO.N,Net-(MAX98357-Pin_5)*%
X377190000Y-168910000D03*
%TO.P,MAX98357,6,Pin_6*%
%TO.N,GND*%
X377190000Y-171450000D03*
%TO.P,MAX98357,7,Pin_7*%
%TO.N,+5V*%
X377190000Y-173990000D03*
%TD*%
D22*
%TO.P,U1,1,DIR*%
%TO.N,+5V*%
X463550000Y-238760000D03*
D23*
%TO.P,U1,2,A1*%
%TO.N,Net-(PICO_DATAIN_1-STEPPER1-B)*%
X463550000Y-241300000D03*
%TO.P,U1,3,A2*%
%TO.N,Net-(PICO_DATAIN_2-STEPPER1-B)*%
X463550000Y-243840000D03*
%TO.P,U1,4,A3*%
%TO.N,Net-(PICO_DATAIN_3-STEPPER1-B)*%
X463550000Y-246380000D03*
%TO.P,U1,5,A4*%
%TO.N,Net-(PICO_DATAIN_4-STEPPER1-B)*%
X463550000Y-248920000D03*
%TO.P,U1,6,A5*%
%TO.N,Net-(PICO_DATAIN_5-STEPPER1-A)*%
X463550000Y-251460000D03*
%TO.P,U1,7,A6*%
%TO.N,Net-(PICO_DATAIN_6-STEPPER1-A)*%
X463550000Y-254000000D03*
%TO.P,U1,8,A7*%
%TO.N,Net-(STEPPER_4-8-Pin_3)*%
X463550000Y-256540000D03*
%TO.P,U1,9,A8*%
%TO.N,Net-(STEPPER_4-8-Pin_4)*%
X463550000Y-259080000D03*
%TO.P,U1,10,GND*%
%TO.N,GND*%
X463550000Y-261620000D03*
%TO.P,U1,11,B8*%
%TO.N,Net-(STEPPER_4-8-Pin_8)*%
X455610000Y-261620000D03*
%TO.P,U1,12,B7*%
%TO.N,Net-(STEPPER_4-8-Pin_7)*%
X455610000Y-259080000D03*
%TO.P,U1,13,B6*%
%TO.N,Net-(STEPPER-DATA_6-A)*%
X455610000Y-256540000D03*
%TO.P,U1,14,B5*%
%TO.N,Net-(STEPPER-DATA_5-A)*%
X455610000Y-254000000D03*
%TO.P,U1,15,B4*%
%TO.N,Net-(STEPPER-DATA_4-B)*%
X455610000Y-251460000D03*
%TO.P,U1,16,B3*%
%TO.N,Net-(STEPPER-DATA_3-B)*%
X455610000Y-248920000D03*
%TO.P,U1,17,B2*%
%TO.N,Net-(STEPPER-DATA_2-B)*%
X455610000Y-246380000D03*
%TO.P,U1,18,B1*%
%TO.N,Net-(STEPPER-DATA_1-B)*%
X455610000Y-243840000D03*
%TO.P,U1,19,~{OE}*%
%TO.N,GND*%
X455610000Y-241300000D03*
%TO.P,U1,20,VCC*%
%TO.N,+5V*%
X455610000Y-238760000D03*
%TD*%
D15*
%TO.P,LED_DATA_OUT1,1,Pin_1*%
%TO.N,/LED_DATA_OUT*%
X453390000Y-279400000D03*
%TD*%
D24*
%TO.P,J8,16,Pin_16*%
%TO.N,/BUS_1*%
X419509543Y-308412485D03*
%TO.P,J8,15,Pin_15*%
%TO.N,/BUS_2*%
X417309838Y-309682485D03*
%TO.P,J8,14,Pin_14*%
%TO.N,/BUS_3*%
X415110134Y-310952485D03*
%TO.P,J8,13,Pin_13*%
%TO.N,/BUS_4*%
X412910429Y-312222485D03*
%TO.P,J8,12,Pin_12*%
%TO.N,/BUS_5*%
X410710725Y-313492485D03*
%TO.P,J8,11,Pin_11*%
%TO.N,/BUS_6*%
X408511020Y-314762485D03*
%TO.P,J8,10,Pin_10*%
%TO.N,GND*%
X406311316Y-316032485D03*
%TO.P,J8,9,Pin_9*%
%TO.N,+5V*%
X404111611Y-317302485D03*
%TO.P,J8,8,Pin_8*%
X401911907Y-318572485D03*
%TO.P,J8,7,Pin_7*%
%TO.N,GND*%
X399712202Y-319842485D03*
%TO.P,J8,6,Pin_6*%
%TO.N,/BUS_6*%
X397512498Y-321112485D03*
%TO.P,J8,5,Pin_5*%
%TO.N,/BUS_5*%
X395312793Y-322382485D03*
%TO.P,J8,4,Pin_4*%
%TO.N,/BUS_4*%
X393113089Y-323652485D03*
%TO.P,J8,3,Pin_3*%
%TO.N,/BUS_3*%
X390913384Y-324922485D03*
%TO.P,J8,2,Pin_2*%
%TO.N,/BUS_2*%
X388713680Y-326192485D03*
D25*
%TO.P,J8,1,Pin_1*%
%TO.N,/BUS_1*%
X386513975Y-327462485D03*
%TD*%
D24*
%TO.P,J6,16,Pin_16*%
%TO.N,/BUS_1*%
X296546160Y-95431217D03*
%TO.P,J6,15,Pin_15*%
%TO.N,/BUS_2*%
X294346455Y-96701217D03*
%TO.P,J6,14,Pin_14*%
%TO.N,/BUS_3*%
X292146751Y-97971217D03*
%TO.P,J6,13,Pin_13*%
%TO.N,/BUS_4*%
X289947046Y-99241217D03*
%TO.P,J6,12,Pin_12*%
%TO.N,/BUS_5*%
X287747342Y-100511217D03*
%TO.P,J6,11,Pin_11*%
%TO.N,/BUS_6*%
X285547637Y-101781217D03*
%TO.P,J6,10,Pin_10*%
%TO.N,GND*%
X283347933Y-103051217D03*
%TO.P,J6,9,Pin_9*%
%TO.N,+5V*%
X281148228Y-104321217D03*
%TO.P,J6,8,Pin_8*%
X278948524Y-105591217D03*
%TO.P,J6,7,Pin_7*%
%TO.N,GND*%
X276748819Y-106861217D03*
%TO.P,J6,6,Pin_6*%
%TO.N,/BUS_6*%
X274549115Y-108131217D03*
%TO.P,J6,5,Pin_5*%
%TO.N,/BUS_5*%
X272349410Y-109401217D03*
%TO.P,J6,4,Pin_4*%
%TO.N,/BUS_4*%
X270149706Y-110671217D03*
%TO.P,J6,3,Pin_3*%
%TO.N,/BUS_3*%
X267950001Y-111941217D03*
%TO.P,J6,2,Pin_2*%
%TO.N,/BUS_2*%
X265750297Y-113211217D03*
D25*
%TO.P,J6,1,Pin_1*%
%TO.N,/BUS_1*%
X263550592Y-114481217D03*
%TD*%
%TO.P,I2CBreakout1,1,Pin_1*%
%TO.N,+3V3*%
X316910591Y-85090000D03*
D24*
%TO.P,I2CBreakout1,2,Pin_2*%
%TO.N,GND*%
X319110296Y-83820000D03*
%TO.P,I2CBreakout1,3,Pin_3*%
%TO.N,/SCL*%
X321310000Y-82550000D03*
%TO.P,I2CBreakout1,4,Pin_4*%
%TO.N,/SDA*%
X323509705Y-81280000D03*
%TD*%
D15*
%TO.P,Keypad1,1,Pin_1*%
%TO.N,/KEYPAD_1*%
X231140000Y-255270000D03*
D16*
%TO.P,Keypad1,2,Pin_2*%
%TO.N,/KEYPAD_2*%
X231140000Y-252730000D03*
%TO.P,Keypad1,3,Pin_3*%
%TO.N,/KEYPAD_3*%
X231140000Y-250190000D03*
%TO.P,Keypad1,4,Pin_4*%
%TO.N,/KEYPAD_4*%
X231140000Y-247650000D03*
%TO.P,Keypad1,5,Pin_5*%
%TO.N,/KEYPAD_5*%
X231140000Y-245110000D03*
%TO.P,Keypad1,6,Pin_6*%
%TO.N,/KEYPAD_6*%
X231140000Y-242570000D03*
%TO.P,Keypad1,7,Pin_7*%
%TO.N,/KEYPAD_7*%
X231140000Y-240030000D03*
%TD*%
%TO.P,PicoProbe1,1,GPIO0*%
%TO.N,unconnected-(PicoProbe1-GPIO0-Pad1)*%
X232650000Y-139195000D03*
%TO.P,PicoProbe1,2,GPIO1*%
%TO.N,unconnected-(PicoProbe1-GPIO1-Pad2)*%
X232650000Y-141735000D03*
D15*
%TO.P,PicoProbe1,3,GND*%
%TO.N,GND*%
X232650000Y-144275000D03*
D16*
%TO.P,PicoProbe1,4,GPIO2*%
%TO.N,/SWCLK*%
X232650000Y-146815000D03*
%TO.P,PicoProbe1,5,GPIO3*%
%TO.N,/SWDIO*%
X232650000Y-149355000D03*
%TO.P,PicoProbe1,6,GPIO4*%
%TO.N,/UART0 RX*%
X232650000Y-151895000D03*
%TO.P,PicoProbe1,7,GPIO5*%
%TO.N,/UART0 TX*%
X232650000Y-154435000D03*
D15*
%TO.P,PicoProbe1,8,GND*%
%TO.N,GND*%
X232650000Y-156975000D03*
D16*
%TO.P,PicoProbe1,9,GPIO6*%
%TO.N,unconnected-(PicoProbe1-GPIO6-Pad9)*%
X232650000Y-159515000D03*
%TO.P,PicoProbe1,10,GPIO7*%
%TO.N,unconnected-(PicoProbe1-GPIO7-Pad10)*%
X232650000Y-162055000D03*
%TO.P,PicoProbe1,11,GPIO8*%
%TO.N,unconnected-(PicoProbe1-GPIO8-Pad11)*%
X232650000Y-164595000D03*
%TO.P,PicoProbe1,12,GPIO9*%
%TO.N,unconnected-(PicoProbe1-GPIO9-Pad12)*%
X232650000Y-167135000D03*
D15*
%TO.P,PicoProbe1,13,GND*%
%TO.N,GND*%
X232650000Y-169675000D03*
D16*
%TO.P,PicoProbe1,14,GPIO10*%
%TO.N,unconnected-(PicoProbe1-GPIO10-Pad14)*%
X232650000Y-172215000D03*
%TO.P,PicoProbe1,15,GPIO11*%
%TO.N,unconnected-(PicoProbe1-GPIO11-Pad15)*%
X232650000Y-174755000D03*
%TO.P,PicoProbe1,16,GPIO12*%
%TO.N,unconnected-(PicoProbe1-GPIO12-Pad16)*%
X232650000Y-177295000D03*
%TO.P,PicoProbe1,17,GPIO13*%
%TO.N,unconnected-(PicoProbe1-GPIO13-Pad17)*%
X232650000Y-179835000D03*
D15*
%TO.P,PicoProbe1,18,GND*%
%TO.N,GND*%
X232650000Y-182375000D03*
D16*
%TO.P,PicoProbe1,19,GPIO14*%
%TO.N,unconnected-(PicoProbe1-GPIO14-Pad19)*%
X232650000Y-184915000D03*
%TO.P,PicoProbe1,20,GPIO15*%
%TO.N,unconnected-(PicoProbe1-GPIO15-Pad20)*%
X232650000Y-187455000D03*
%TO.P,PicoProbe1,21,GPIO16*%
%TO.N,unconnected-(PicoProbe1-GPIO16-Pad21)*%
X214870000Y-187455000D03*
%TO.P,PicoProbe1,22,GPIO17*%
%TO.N,unconnected-(PicoProbe1-GPIO17-Pad22)*%
X214870000Y-184915000D03*
D15*
%TO.P,PicoProbe1,23,GND*%
%TO.N,GND*%
X214870000Y-182375000D03*
D16*
%TO.P,PicoProbe1,24,GPIO18*%
%TO.N,unconnected-(PicoProbe1-GPIO18-Pad24)*%
X214870000Y-179835000D03*
%TO.P,PicoProbe1,25,GPIO19*%
%TO.N,unconnected-(PicoProbe1-GPIO19-Pad25)*%
X214870000Y-177295000D03*
%TO.P,PicoProbe1,26,GPIO20*%
%TO.N,unconnected-(PicoProbe1-GPIO20-Pad26)*%
X214870000Y-174755000D03*
%TO.P,PicoProbe1,27,GPIO21*%
%TO.N,unconnected-(PicoProbe1-GPIO21-Pad27)*%
X214870000Y-172215000D03*
D15*
%TO.P,PicoProbe1,28,GND*%
%TO.N,GND*%
X214870000Y-169675000D03*
D16*
%TO.P,PicoProbe1,29,GPIO22*%
%TO.N,unconnected-(PicoProbe1-GPIO22-Pad29)*%
X214870000Y-167135000D03*
%TO.P,PicoProbe1,30,RUN*%
%TO.N,unconnected-(PicoProbe1-RUN-Pad30)*%
X214870000Y-164595000D03*
%TO.P,PicoProbe1,31,GPIO26_ADC0*%
%TO.N,unconnected-(PicoProbe1-GPIO26_ADC0-Pad31)*%
X214870000Y-162055000D03*
%TO.P,PicoProbe1,32,GPIO27_ADC1*%
%TO.N,unconnected-(PicoProbe1-GPIO27_ADC1-Pad32)*%
X214870000Y-159515000D03*
D15*
%TO.P,PicoProbe1,33,AGND*%
%TO.N,unconnected-(PicoProbe1-AGND-Pad33)*%
X214870000Y-156975000D03*
D16*
%TO.P,PicoProbe1,34,GPIO28_ADC2*%
%TO.N,unconnected-(PicoProbe1-GPIO28_ADC2-Pad34)*%
X214870000Y-154435000D03*
%TO.P,PicoProbe1,35,ADC_VREF*%
%TO.N,unconnected-(PicoProbe1-ADC_VREF-Pad35)*%
X214870000Y-151895000D03*
%TO.P,PicoProbe1,36,3V3*%
%TO.N,unconnected-(PicoProbe1-3V3-Pad36)*%
X214870000Y-149355000D03*
%TO.P,PicoProbe1,37,3V3_EN*%
%TO.N,unconnected-(PicoProbe1-3V3_EN-Pad37)*%
X214870000Y-146815000D03*
D15*
%TO.P,PicoProbe1,38,GND*%
%TO.N,GND*%
X214870000Y-144275000D03*
D16*
%TO.P,PicoProbe1,39,VSYS*%
%TO.N,unconnected-(PicoProbe1-VSYS-Pad39)*%
X214870000Y-141735000D03*
%TO.P,PicoProbe1,40,VBUS*%
%TO.N,unconnected-(PicoProbe1-VBUS-Pad40)*%
X214870000Y-139195000D03*
%TO.P,PicoProbe1,41,SWCLK*%
%TO.N,unconnected-(PicoProbe1-SWCLK-Pad41)*%
X226300000Y-187225000D03*
D15*
%TO.P,PicoProbe1,42,GND*%
%TO.N,GND*%
X223760000Y-187225000D03*
D16*
%TO.P,PicoProbe1,43,SWDIO*%
%TO.N,unconnected-(PicoProbe1-SWDIO-Pad43)*%
X221220000Y-187225000D03*
%TD*%
D15*
%TO.P,STEPPER_4-8,1,Pin_1*%
%TO.N,Net-(PICO_DATAIN_5-STEPPER1-A)*%
X467360000Y-246380000D03*
D16*
%TO.P,STEPPER_4-8,2,Pin_2*%
%TO.N,Net-(PICO_DATAIN_6-STEPPER1-A)*%
X467360000Y-248920000D03*
%TO.P,STEPPER_4-8,3,Pin_3*%
%TO.N,Net-(STEPPER_4-8-Pin_3)*%
X467360000Y-251460000D03*
%TO.P,STEPPER_4-8,4,Pin_4*%
%TO.N,Net-(STEPPER_4-8-Pin_4)*%
X467360000Y-254000000D03*
%TO.P,STEPPER_4-8,5,Pin_5*%
%TO.N,Net-(STEPPER-DATA_5-A)*%
X467360000Y-256540000D03*
%TO.P,STEPPER_4-8,6,Pin_6*%
%TO.N,Net-(STEPPER-DATA_6-A)*%
X467360000Y-259080000D03*
%TO.P,STEPPER_4-8,7,Pin_7*%
%TO.N,Net-(STEPPER_4-8-Pin_7)*%
X467360000Y-261620000D03*
%TO.P,STEPPER_4-8,8,Pin_8*%
%TO.N,Net-(STEPPER_4-8-Pin_8)*%
X467360000Y-264160000D03*
%TD*%
D15*
%TO.P,MAX98357_BREAKOUT1,1,Pin_1*%
%TO.N,Net-(MAX98357-Pin_4)*%
X349250000Y-166370000D03*
D16*
%TO.P,MAX98357_BREAKOUT1,2,Pin_2*%
%TO.N,Net-(MAX98357-Pin_5)*%
X349250000Y-168910000D03*
%TO.P,MAX98357_BREAKOUT1,3,Pin_3*%
%TO.N,GND*%
X349250000Y-171450000D03*
%TO.P,MAX98357_BREAKOUT1,4,Pin_4*%
%TO.N,+5V*%
X349250000Y-173990000D03*
%TD*%
%TO.P,MasterControlPico1,1,GPIO0*%
%TO.N,/UART0 TX*%
X467360000Y-138430000D03*
%TO.P,MasterControlPico1,2,GPIO1*%
%TO.N,/UART0 RX*%
X467360000Y-140970000D03*
D15*
%TO.P,MasterControlPico1,3,GND*%
%TO.N,GND*%
X467360000Y-143510000D03*
D16*
%TO.P,MasterControlPico1,4,GPIO2*%
%TO.N,/LRC*%
X467360000Y-146050000D03*
%TO.P,MasterControlPico1,5,GPIO3*%
%TO.N,/BCLK*%
X467360000Y-148590000D03*
%TO.P,MasterControlPico1,6,GPIO4*%
%TO.N,/DIN*%
X467360000Y-151130000D03*
%TO.P,MasterControlPico1,7,GPIO5*%
%TO.N,Net-(J1-Pin_14)*%
X467360000Y-153670000D03*
D15*
%TO.P,MasterControlPico1,8,GND*%
%TO.N,GND*%
X467360000Y-156210000D03*
D16*
%TO.P,MasterControlPico1,9,GPIO6*%
%TO.N,/KEYPAD_INT*%
X467360000Y-158750000D03*
%TO.P,MasterControlPico1,10,GPIO7*%
%TO.N,/RTC_INT*%
X467360000Y-161290000D03*
%TO.P,MasterControlPico1,11,GPIO8*%
%TO.N,/SDA*%
X467360000Y-163830000D03*
%TO.P,MasterControlPico1,12,GPIO9*%
%TO.N,/SCL*%
X467360000Y-166370000D03*
D15*
%TO.P,MasterControlPico1,13,GND*%
%TO.N,GND*%
X467360000Y-168910000D03*
D16*
%TO.P,MasterControlPico1,14,GPIO10*%
%TO.N,/PICO_DATAIN_1*%
X467360000Y-171450000D03*
%TO.P,MasterControlPico1,15,GPIO11*%
%TO.N,/PICO_DATAIN_2*%
X467360000Y-173990000D03*
%TO.P,MasterControlPico1,16,GPIO12*%
%TO.N,/PICO_DATAIN_3*%
X467360000Y-176530000D03*
%TO.P,MasterControlPico1,17,GPIO13*%
%TO.N,/PICO_DATAIN_4*%
X467360000Y-179070000D03*
D15*
%TO.P,MasterControlPico1,18,GND*%
%TO.N,GND*%
X467360000Y-181610000D03*
D16*
%TO.P,MasterControlPico1,19,GPIO14*%
%TO.N,/PICO_DATAIN_5*%
X467360000Y-184150000D03*
%TO.P,MasterControlPico1,20,GPIO15*%
%TO.N,/PICO_DATAIN_6*%
X467360000Y-186690000D03*
%TO.P,MasterControlPico1,21,GPIO16*%
%TO.N,Net-(J2-Pin_20)*%
X449580000Y-186690000D03*
%TO.P,MasterControlPico1,22,GPIO17*%
%TO.N,Net-(J2-Pin_19)*%
X449580000Y-184150000D03*
D15*
%TO.P,MasterControlPico1,23,GND*%
%TO.N,GND*%
X449580000Y-181610000D03*
D16*
%TO.P,MasterControlPico1,24,GPIO18*%
%TO.N,Net-(J2-Pin_17)*%
X449580000Y-179070000D03*
%TO.P,MasterControlPico1,25,GPIO19*%
%TO.N,Net-(J2-Pin_16)*%
X449580000Y-176530000D03*
%TO.P,MasterControlPico1,26,GPIO20*%
%TO.N,Net-(J2-Pin_15)*%
X449580000Y-173990000D03*
%TO.P,MasterControlPico1,27,GPIO21*%
%TO.N,Net-(J2-Pin_14)*%
X449580000Y-171450000D03*
D15*
%TO.P,MasterControlPico1,28,GND*%
%TO.N,GND*%
X449580000Y-168910000D03*
D16*
%TO.P,MasterControlPico1,29,GPIO22*%
%TO.N,Net-(J2-Pin_12)*%
X449580000Y-166370000D03*
%TO.P,MasterControlPico1,30,RUN*%
%TO.N,Net-(J2-Pin_11)*%
X449580000Y-163830000D03*
%TO.P,MasterControlPico1,31,GPIO26_ADC0*%
%TO.N,Net-(J2-Pin_10)*%
X449580000Y-161290000D03*
%TO.P,MasterControlPico1,32,GPIO27_ADC1*%
%TO.N,Net-(J2-Pin_9)*%
X449580000Y-158750000D03*
D15*
%TO.P,MasterControlPico1,33,AGND*%
%TO.N,Net-(J2-Pin_8)*%
X449580000Y-156210000D03*
D16*
%TO.P,MasterControlPico1,34,GPIO28_ADC2*%
%TO.N,Net-(J2-Pin_7)*%
X449580000Y-153670000D03*
%TO.P,MasterControlPico1,35,ADC_VREF*%
%TO.N,Net-(J2-Pin_6)*%
X449580000Y-151130000D03*
%TO.P,MasterControlPico1,36,3V3*%
%TO.N,+3V3*%
X449580000Y-148590000D03*
%TO.P,MasterControlPico1,37,3V3_EN*%
%TO.N,Net-(J2-Pin_4)*%
X449580000Y-146050000D03*
D15*
%TO.P,MasterControlPico1,38,GND*%
%TO.N,GND*%
X449580000Y-143510000D03*
D16*
%TO.P,MasterControlPico1,39,VSYS*%
%TO.N,Net-(J2-Pin_2)*%
X449580000Y-140970000D03*
%TO.P,MasterControlPico1,40,VBUS*%
%TO.N,Net-(J2-Pin_1)*%
X449580000Y-138430000D03*
%TO.P,MasterControlPico1,41,SWCLK*%
%TO.N,/SWCLK*%
X457885900Y-168160000D03*
D15*
%TO.P,MasterControlPico1,42,GND*%
%TO.N,GND*%
X455345900Y-168160000D03*
D16*
%TO.P,MasterControlPico1,43,SWDIO*%
%TO.N,/SWDIO*%
X452805900Y-168160000D03*
%TD*%
D26*
%TO.N,GND*%
X292735000Y-316230000D03*
X290538426Y-318991173D03*
X309880000Y-316865000D03*
X324485000Y-324485000D03*
X337820000Y-332740000D03*
X338591500Y-346211500D03*
X363855000Y-323215000D03*
X365125000Y-337820000D03*
X350520000Y-332740000D03*
X356184320Y-344119320D03*
D27*
%TO.N,+5V*%
X419100000Y-295275000D03*
X422910000Y-297180000D03*
%TO.N,GND*%
X401955000Y-300990000D03*
X396875000Y-310515000D03*
%TO.N,+5V*%
X405765000Y-312420000D03*
%TO.N,GND*%
X389255000Y-306070000D03*
X391160000Y-306705000D03*
X323215000Y-92710000D03*
X432975000Y-144875000D03*
D26*
X280794054Y-300479054D03*
X276748891Y-304020500D03*
%TO.N,+5V*%
X277495000Y-285115000D03*
X277495000Y-289560000D03*
%TO.N,GND*%
X262200500Y-288290000D03*
%TO.N,+5V*%
X280670000Y-316230000D03*
D27*
%TO.N,GND*%
X422910000Y-286385000D03*
X424815000Y-282575000D03*
X459740000Y-242570000D03*
X458470000Y-245745000D03*
D26*
%TO.N,+5V*%
X457835000Y-210177106D03*
X402590000Y-210185000D03*
X392430000Y-210185000D03*
%TO.N,GND*%
X395605000Y-207645000D03*
X402590000Y-207645000D03*
%TO.N,+5V*%
X439420000Y-132080000D03*
%TO.N,GND*%
X420370000Y-139700000D03*
X421640000Y-130175000D03*
X407670000Y-131445000D03*
X410210000Y-133985000D03*
X405130000Y-139065000D03*
X396240000Y-139065000D03*
X380365000Y-139065000D03*
X368300000Y-139065000D03*
X354330000Y-139065000D03*
X339725000Y-139065000D03*
X324239554Y-139065000D03*
X311150000Y-139065000D03*
X295275000Y-139065000D03*
%TO.N,+5V*%
X416560000Y-136470500D03*
X401320000Y-137160000D03*
X387985000Y-137160000D03*
X372110000Y-137160000D03*
X358140000Y-137160000D03*
X344805000Y-137160000D03*
X330835000Y-137160000D03*
X315595000Y-137160000D03*
X300990000Y-137160000D03*
%TO.N,GND*%
X280670000Y-139065000D03*
%TO.N,+5V*%
X286385000Y-137160000D03*
%TO.N,GND*%
X266216554Y-139065000D03*
X253365000Y-139065000D03*
%TO.N,+5V*%
X272415000Y-137160000D03*
X262255000Y-137160000D03*
%TO.N,GND*%
X235530500Y-214630000D03*
X235530500Y-193094500D03*
X235530500Y-235585000D03*
%TO.N,+5V*%
X241935000Y-206375000D03*
X238179500Y-206375000D03*
X247650000Y-149081000D03*
X247015000Y-140970000D03*
%TO.N,GND*%
X233680000Y-280670000D03*
X252730000Y-283845000D03*
D27*
%TO.N,+5V*%
X386080000Y-120015000D03*
X384107554Y-120015000D03*
%TO.N,/BCLK*%
X401320000Y-161925000D03*
%TO.N,/DIN*%
X401320000Y-163830000D03*
X403949500Y-163830000D03*
%TO.N,/BCLK*%
X403949500Y-161654503D03*
%TO.N,/LRC*%
X403949500Y-158750000D03*
X401320000Y-158750000D03*
%TO.N,/RTC_INT*%
X401320000Y-173990000D03*
%TO.N,/SCL*%
X401320000Y-179070000D03*
%TO.N,/SDA*%
X401320000Y-176530000D03*
%TO.N,/RTC_INT*%
X382270000Y-196215000D03*
%TO.N,/SCL*%
X382270000Y-194310000D03*
%TO.N,/SDA*%
X382270000Y-193040000D03*
%TO.N,+3V3*%
X347305200Y-182919800D03*
X348647299Y-182212701D03*
X401320000Y-160655000D03*
X403949500Y-160655000D03*
X317500000Y-182334500D03*
%TO.N,/SCL*%
X320040000Y-180885500D03*
%TO.N,/SDA*%
X318135000Y-179794500D03*
%TO.N,/BUS_1*%
X263525000Y-260985000D03*
%TO.N,/BUS_2*%
X264892054Y-260447054D03*
%TO.N,/BUS_3*%
X267828054Y-261478054D03*
%TO.N,/BUS_4*%
X270084554Y-262255000D03*
%TO.N,/BUS_5*%
X271780000Y-262255000D03*
%TO.N,/BUS_6*%
X274549187Y-263119187D03*
X239395000Y-227965000D03*
%TO.N,/BUS_5*%
X239395000Y-229870000D03*
%TO.N,/BUS_4*%
X239395000Y-231775000D03*
%TO.N,/BUS_3*%
X239767554Y-233680000D03*
%TO.N,/BUS_2*%
X239767554Y-235585000D03*
%TO.N,/BUS_1*%
X239395000Y-236855000D03*
%TO.N,/BUS_6*%
X274549187Y-303759187D03*
%TO.N,/BUS_5*%
X272415000Y-303530000D03*
%TO.N,/BUS_4*%
X269875000Y-303530000D03*
%TO.N,/BUS_3*%
X267335000Y-303530000D03*
%TO.N,/BUS_2*%
X265430000Y-303530000D03*
%TO.N,/BUS_1*%
X263525000Y-303530000D03*
%TO.N,/BUS_2*%
X378460000Y-306070000D03*
%TO.N,/LED_DATA_IN*%
X240030000Y-147955000D03*
X285115000Y-150405500D03*
X292100000Y-157480000D03*
X313690000Y-178980500D03*
X316230000Y-181610000D03*
%TO.N,/DATA_1*%
X406400000Y-238125000D03*
%TO.N,/DATA_2*%
X406400000Y-241935000D03*
%TO.N,/DATA_3*%
X406400000Y-245110000D03*
%TO.N,/DATA_4*%
X406400000Y-248920000D03*
%TO.N,/DATA_5*%
X406400000Y-252095000D03*
%TO.N,/DATA_6*%
X406920000Y-256020000D03*
%TO.N,/BUS_2*%
X382905000Y-292100000D03*
%TO.N,/BUS_3*%
X378460000Y-307340000D03*
X382270000Y-295275000D03*
%TO.N,/BUS_4*%
X378460000Y-308610000D03*
X382905000Y-299085000D03*
%TO.N,/BUS_5*%
X378460000Y-309880000D03*
X382994500Y-302260000D03*
%TO.N,/BUS_6*%
X378432811Y-311122811D03*
X383629500Y-305926685D03*
%TO.N,Net-(PICO_DATAIN_5-STEPPER1-A)*%
X461010000Y-240030000D03*
X446845200Y-240224800D03*
%TO.N,Net-(PICO_DATAIN_6-STEPPER1-A)*%
X434975000Y-234315000D03*
%TO.N,Net-(PICO_DATAIN_5-STEPPER1-A)*%
X434975000Y-231140000D03*
%TO.N,Net-(PICO_DATAIN_4-STEPPER1-B)*%
X434975000Y-227330000D03*
%TO.N,Net-(PICO_DATAIN_3-STEPPER1-B)*%
X434975000Y-224155000D03*
%TO.N,Net-(PICO_DATAIN_2-STEPPER1-B)*%
X434975000Y-220980000D03*
%TO.N,Net-(PICO_DATAIN_1-STEPPER1-B)*%
X436155000Y-215990000D03*
%TO.N,/PICO_DATAIN_6*%
X448310000Y-198025000D03*
%TO.N,/PICO_DATAIN_5*%
X450215000Y-195485000D03*
%TO.N,/PICO_DATAIN_4*%
X454025000Y-190595000D03*
%TO.N,/PICO_DATAIN_3*%
X456019500Y-185420000D03*
%TO.N,/PICO_DATAIN_2*%
X455384500Y-182880000D03*
%TO.N,/PICO_DATAIN_1*%
X454660000Y-180435000D03*
%TO.N,/DATA_6*%
X439420000Y-270510000D03*
%TO.N,/DATA_5*%
X439420000Y-266700000D03*
%TO.N,/DATA_4*%
X439420000Y-262255000D03*
%TO.N,/DATA_3*%
X439028464Y-259876514D03*
%TO.N,/DATA_2*%
X440055000Y-253365000D03*
%TO.N,/DATA_1*%
X440055000Y-250190000D03*
%TO.N,/DATA_6*%
X421005000Y-263525000D03*
%TO.N,/DATA_5*%
X421005000Y-259715000D03*
%TO.N,/DATA_4*%
X421005000Y-255905000D03*
%TO.N,/DATA_3*%
X421005000Y-252730000D03*
%TO.N,/DATA_2*%
X421005000Y-248920000D03*
%TO.N,/DATA_1*%
X421005000Y-244475000D03*
%TO.N,/LED_DATA_OUT*%
X439420000Y-272415000D03*
%TO.N,/KEYPAD_INT*%
X401320000Y-171450000D03*
%TO.N,/UART0 RX*%
X261620000Y-153670000D03*
X262890000Y-154940000D03*
X403225000Y-153670000D03*
%TO.N,/UART0 TX*%
X403225000Y-151130000D03*
%TD*%
D28*
%TO.N,GND*%
X324096054Y-328508834D02*
X324096054Y-324873946D01*
X324096054Y-324873946D02*
X324485000Y-324485000D01*
X292735000Y-316230000D02*
X292735000Y-314348554D01*
X292735000Y-314348554D02*
X295228054Y-311855500D01*
X309662054Y-320182167D02*
X309662054Y-317082946D01*
X309662054Y-317082946D02*
X309880000Y-316865000D01*
X337820000Y-332740000D02*
X338530054Y-333450054D01*
X338530054Y-333450054D02*
X338530054Y-336835500D01*
X384602056Y-334645000D02*
X381427056Y-337820000D01*
X406311316Y-318223684D02*
X393903516Y-330631484D01*
X284198005Y-318991173D02*
X283348005Y-319841173D01*
X381427056Y-337820000D02*
X362483640Y-337820000D01*
X386951902Y-334645000D02*
X384602056Y-334645000D01*
X331793362Y-349041367D02*
X330273729Y-347521734D01*
X344958367Y-349041367D02*
X340360000Y-344443000D01*
X406311316Y-316032485D02*
X406311316Y-318223684D01*
X351262273Y-349041367D02*
X344958367Y-349041367D01*
X340360000Y-344443000D02*
X335761633Y-349041367D01*
X393903516Y-330631484D02*
X386951902Y-334645000D01*
X335761633Y-349041367D02*
X331793362Y-349041367D01*
X362483640Y-337820000D02*
X351262273Y-349041367D01*
X330273729Y-347521734D02*
X319068987Y-347521734D01*
X319068987Y-347521734D02*
X290538426Y-318991173D01*
X290538426Y-318991173D02*
X284198005Y-318991173D01*
X363855000Y-323215000D02*
X364365221Y-323215000D01*
X364365221Y-323215000D02*
X367398054Y-320182167D01*
X350520000Y-332740000D02*
X350520000Y-330952888D01*
X350520000Y-330952888D02*
X352964054Y-328508834D01*
%TO.N,+5V*%
X288925000Y-310515000D02*
X288925000Y-305659780D01*
X288925000Y-305659780D02*
X286794054Y-303528834D01*
X306387500Y-332422500D02*
X288925000Y-314960000D01*
X306387500Y-332422500D02*
X306387500Y-317014946D01*
X317208000Y-343243000D02*
X306387500Y-332422500D01*
X306387500Y-317014946D02*
X301228054Y-311855500D01*
X321945000Y-343243000D02*
X317208000Y-343243000D01*
X337185000Y-343243000D02*
X321945000Y-343243000D01*
X321945000Y-343243000D02*
X321945000Y-326465113D01*
X321945000Y-326465113D02*
X315662054Y-320182167D01*
X346710000Y-343243000D02*
X337185000Y-343243000D01*
X337185000Y-343243000D02*
X336687054Y-342745054D01*
X336687054Y-335099834D02*
X330096054Y-328508834D01*
X336687054Y-342745054D02*
X336687054Y-335099834D01*
X353987000Y-343243000D02*
X346710000Y-343243000D01*
X346710000Y-343243000D02*
X346710000Y-339015446D01*
X346710000Y-339015446D02*
X344530054Y-336835500D01*
X363220000Y-334010000D02*
X363220000Y-332764780D01*
X363220000Y-332764780D02*
X358964054Y-328508834D01*
X378460000Y-334010000D02*
X363220000Y-334010000D01*
X383540000Y-334010000D02*
X378460000Y-334010000D01*
X378460000Y-334010000D02*
X378460000Y-325244113D01*
X378460000Y-325244113D02*
X373398054Y-320182167D01*
D29*
%TO.N,GND*%
X359115296Y-88265000D02*
X353736322Y-88265000D01*
X353736322Y-88265000D02*
X351155000Y-90846322D01*
X351155000Y-90846322D02*
X351155000Y-92717780D01*
X351155000Y-92717780D02*
X352964054Y-94526834D01*
%TO.N,/BUS_6*%
X464493692Y-217797106D02*
X470535000Y-223838414D01*
X470535000Y-223838414D02*
X470535000Y-285750000D01*
X470535000Y-285750000D02*
X470000475Y-286284525D01*
X470000475Y-286284525D02*
X458047662Y-286284525D01*
X458047662Y-286284525D02*
X440802187Y-303530000D01*
X440802187Y-303530000D02*
X428500246Y-303530000D01*
X428500246Y-303530000D02*
X417267761Y-314762485D01*
X417267761Y-314762485D02*
X408511020Y-314762485D01*
%TO.N,+5V*%
X416700054Y-295202167D02*
X419027167Y-295202167D01*
X419027167Y-295202167D02*
X419100000Y-295275000D01*
X427470120Y-297180000D02*
X422910000Y-297180000D01*
X432602054Y-292048066D02*
X427470120Y-297180000D01*
X432602054Y-288343500D02*
X432602054Y-292048066D01*
X431134054Y-286875500D02*
X432602054Y-288343500D01*
%TO.N,GND*%
X422910000Y-286385000D02*
X422910000Y-295632787D01*
X422910000Y-295632787D02*
X407035000Y-311507787D01*
X407035000Y-315308801D02*
X406311316Y-316032485D01*
X407035000Y-311507787D02*
X407035000Y-315308801D01*
X404912221Y-300990000D02*
X401955000Y-300990000D01*
X410700054Y-295202167D02*
X404912221Y-300990000D01*
%TO.N,+5V*%
X402240000Y-303382000D02*
X412160787Y-303382000D01*
X412160787Y-303382000D02*
X415232054Y-300310733D01*
X415232054Y-300310733D02*
X415232054Y-296670167D01*
X415232054Y-296670167D02*
X416700054Y-295202167D01*
%TO.N,GND*%
X396240000Y-310515000D02*
X396875000Y-310515000D01*
X394772000Y-304850000D02*
X394772000Y-309047000D01*
X394772000Y-309047000D02*
X396240000Y-310515000D01*
X396240000Y-303382000D02*
X394772000Y-304850000D01*
%TO.N,+5V*%
X405765000Y-306907000D02*
X405765000Y-312420000D01*
X402240000Y-303382000D02*
X405765000Y-306907000D01*
%TO.N,GND*%
X391160000Y-306705000D02*
X392917000Y-306705000D01*
X392917000Y-306705000D02*
X396240000Y-303382000D01*
X381832054Y-311855500D02*
X387617554Y-306070000D01*
X387617554Y-306070000D02*
X389255000Y-306070000D01*
%TO.N,+5V*%
X387832054Y-311855500D02*
X397471066Y-311855500D01*
X400772000Y-304850000D02*
X402240000Y-303382000D01*
X397471066Y-311855500D02*
X400772000Y-308554566D01*
X400772000Y-308554566D02*
X400772000Y-304850000D01*
%TO.N,GND*%
X323215000Y-92710000D02*
X323215000Y-93645780D01*
X323215000Y-93645780D02*
X324096054Y-94526834D01*
D28*
%TO.N,+5V*%
X280670000Y-316230000D02*
X280670000Y-318092873D01*
X280670000Y-318092873D02*
X281148300Y-318571173D01*
X386715000Y-330835000D02*
X383540000Y-334010000D01*
X401911907Y-319834812D02*
X390911719Y-330835000D01*
X390911719Y-330835000D02*
X386715000Y-330835000D01*
X401911907Y-318572485D02*
X401911907Y-319834812D01*
X363220000Y-334010000D02*
X353987000Y-343243000D01*
X288925000Y-314960000D02*
X288925000Y-310515000D01*
%TO.N,GND*%
X406311316Y-316032485D02*
X405461316Y-315182485D01*
X405461316Y-315182485D02*
X403109875Y-315182485D01*
X403109875Y-315182485D02*
X399712202Y-318580158D01*
X399712202Y-318580158D02*
X399712202Y-319842485D01*
%TO.N,+5V*%
X401911907Y-318572485D02*
X402841611Y-318572485D01*
X402841611Y-318572485D02*
X404111611Y-317302485D01*
%TO.N,GND*%
X276748891Y-304403256D02*
X276748891Y-304020500D01*
X262255000Y-288290000D02*
X262200500Y-288290000D01*
D29*
%TO.N,+5V*%
X445568054Y-278548834D02*
X444100054Y-280016834D01*
X444100054Y-280016834D02*
X444100054Y-284244946D01*
X441469500Y-286875500D02*
X431134054Y-286875500D01*
X444100054Y-284244946D02*
X441469500Y-286875500D01*
%TO.N,GND*%
X422910000Y-286385000D02*
X424643554Y-286385000D01*
X424643554Y-286385000D02*
X425134054Y-286875500D01*
X435541888Y-282575000D02*
X424815000Y-282575000D01*
X439568054Y-278548834D02*
X435541888Y-282575000D01*
X457835000Y-240860000D02*
X457395000Y-241300000D01*
X457395000Y-241300000D02*
X455610000Y-241300000D01*
%TO.N,Net-(PICO_DATAIN_3-STEPPER1-B)*%
X434975000Y-224155000D02*
X437513604Y-224155000D01*
X437513604Y-224155000D02*
X451484302Y-238125698D01*
X457200000Y-241935000D02*
X461645000Y-246380000D01*
X451484302Y-238125698D02*
X451484302Y-238432953D01*
X451484302Y-238432953D02*
X455241349Y-242190000D01*
X455241349Y-242190000D02*
X456310000Y-242190000D01*
X456565000Y-241935000D02*
X457200000Y-241935000D01*
X456310000Y-242190000D02*
X456565000Y-241935000D01*
X461645000Y-246380000D02*
X463550000Y-246380000D01*
%TO.N,GND*%
X458030000Y-240860000D02*
X457835000Y-240860000D01*
X459740000Y-242570000D02*
X458030000Y-240860000D01*
X458470000Y-256540000D02*
X458470000Y-245745000D01*
X463550000Y-261620000D02*
X458470000Y-256540000D01*
D28*
%TO.N,+5V*%
X464493692Y-210177106D02*
X457835000Y-210177106D01*
X457835000Y-210177106D02*
X402597894Y-210177106D01*
X464493692Y-210177106D02*
X464493692Y-212717106D01*
X392430000Y-210185000D02*
X392430000Y-141605000D01*
X392430000Y-141605000D02*
X387985000Y-137160000D01*
X402597894Y-210177106D02*
X402590000Y-210185000D01*
%TO.N,GND*%
X395605000Y-207645000D02*
X395605000Y-139700000D01*
X395605000Y-139700000D02*
X396240000Y-139065000D01*
X402597894Y-207637106D02*
X402590000Y-207645000D01*
X464493692Y-207637106D02*
X402597894Y-207637106D01*
D29*
X467360000Y-143510000D02*
X469900000Y-146050000D01*
X469900000Y-153670000D02*
X467360000Y-156210000D01*
X469900000Y-146050000D02*
X469900000Y-153670000D01*
X467360000Y-168910000D02*
X468535000Y-167735000D01*
X468535000Y-167735000D02*
X468535000Y-157385000D01*
X468535000Y-157385000D02*
X467360000Y-156210000D01*
D28*
%TO.N,+5V*%
X402240000Y-119380000D02*
X404110975Y-117509025D01*
X404110975Y-117509025D02*
X404110975Y-105591368D01*
%TO.N,GND*%
X396240000Y-119380000D02*
X394397000Y-117537000D01*
X394397000Y-117537000D02*
X394397000Y-108365934D01*
X394397000Y-108365934D02*
X399711566Y-103051368D01*
%TO.N,+5V*%
X387985000Y-137160000D02*
X387832054Y-137007054D01*
X387832054Y-137007054D02*
X387832054Y-111193500D01*
%TO.N,GND*%
X380365000Y-139065000D02*
X381832054Y-137597946D01*
X381832054Y-137597946D02*
X381832054Y-111193500D01*
%TO.N,+5V*%
X373398054Y-102860167D02*
X373398054Y-135871946D01*
X373398054Y-135871946D02*
X372110000Y-137160000D01*
%TO.N,GND*%
X368300000Y-139065000D02*
X367398054Y-138163054D01*
X367398054Y-138163054D02*
X367398054Y-102860167D01*
X425196834Y-144526834D02*
X420370000Y-139700000D01*
X439568054Y-144526834D02*
X425196834Y-144526834D01*
%TO.N,+5V*%
X432977054Y-132016604D02*
X439077720Y-132016604D01*
X447411054Y-142683834D02*
X445568054Y-144526834D01*
X439077720Y-132016604D02*
X447411054Y-140349938D01*
X447411054Y-140349938D02*
X447411054Y-142683834D01*
%TO.N,GND*%
X421640000Y-132699446D02*
X421640000Y-130175000D01*
X425134054Y-136193500D02*
X421640000Y-132699446D01*
%TO.N,+5V*%
X416700054Y-127860167D02*
X428820617Y-127860167D01*
X428820617Y-127860167D02*
X432977054Y-132016604D01*
X432977054Y-132016604D02*
X432977054Y-134350500D01*
X432977054Y-134350500D02*
X431134054Y-136193500D01*
%TO.N,GND*%
X407670000Y-131445000D02*
X407670000Y-130890221D01*
X407670000Y-130890221D02*
X410700054Y-127860167D01*
X405130000Y-139065000D02*
X410210000Y-133985000D01*
%TO.N,+5V*%
X416700054Y-127860167D02*
X416700054Y-136330446D01*
X416700054Y-136330446D02*
X416560000Y-136470500D01*
X402240000Y-119380000D02*
X402240000Y-136240000D01*
X402240000Y-136240000D02*
X401320000Y-137160000D01*
%TO.N,GND*%
X396240000Y-119380000D02*
X396240000Y-139065000D01*
%TO.N,+5V*%
X358964054Y-94526834D02*
X358964054Y-136335946D01*
X358964054Y-136335946D02*
X358140000Y-137160000D01*
%TO.N,GND*%
X352964054Y-94526834D02*
X352964054Y-137699054D01*
X352964054Y-137699054D02*
X354330000Y-139065000D01*
%TO.N,+5V*%
X344530054Y-86193500D02*
X344530054Y-136885054D01*
X344530054Y-136885054D02*
X344805000Y-137160000D01*
%TO.N,GND*%
X338530054Y-86193500D02*
X338530054Y-137870054D01*
X338530054Y-137870054D02*
X339725000Y-139065000D01*
%TO.N,+5V*%
X330096054Y-94526834D02*
X330096054Y-136421054D01*
X330096054Y-136421054D02*
X330835000Y-137160000D01*
%TO.N,GND*%
X324096054Y-94526834D02*
X324096054Y-138921500D01*
X324096054Y-138921500D02*
X324239554Y-139065000D01*
%TO.N,+5V*%
X315662054Y-102860167D02*
X315662054Y-137092946D01*
X315662054Y-137092946D02*
X315595000Y-137160000D01*
%TO.N,GND*%
X309662054Y-102860167D02*
X309662054Y-137577054D01*
X309662054Y-137577054D02*
X311150000Y-139065000D01*
%TO.N,+5V*%
X301228054Y-111193500D02*
X301228054Y-136921946D01*
X301228054Y-136921946D02*
X300990000Y-137160000D01*
%TO.N,GND*%
X295228054Y-111193500D02*
X295228054Y-139018054D01*
X295228054Y-139018054D02*
X295275000Y-139065000D01*
%TO.N,+5V*%
X286794054Y-119526834D02*
X286794054Y-119244705D01*
X286794054Y-119244705D02*
X288637054Y-117401705D01*
X288637054Y-117401705D02*
X288637054Y-111810043D01*
X288637054Y-111810043D02*
X281148228Y-104321217D01*
%TO.N,GND*%
X280794054Y-119526834D02*
X276748819Y-115481599D01*
X276748819Y-115481599D02*
X276748819Y-106861217D01*
%TO.N,+5V*%
X286794054Y-119526834D02*
X286794054Y-136750946D01*
X286794054Y-136750946D02*
X286385000Y-137160000D01*
%TO.N,GND*%
X280794054Y-119526834D02*
X280794054Y-138940946D01*
X280794054Y-138940946D02*
X280670000Y-139065000D01*
X266360054Y-127860167D02*
X266360054Y-138921500D01*
X266360054Y-138921500D02*
X266216554Y-139065000D01*
X253365000Y-137632446D02*
X253365000Y-139065000D01*
X251926054Y-136193500D02*
X253365000Y-137632446D01*
D29*
%TO.N,Net-(A1-Data_Out)*%
X240492054Y-278548834D02*
X240492054Y-153842946D01*
X240492054Y-153842946D02*
X254926054Y-139408946D01*
X254926054Y-139408946D02*
X254926054Y-136193500D01*
D28*
%TO.N,+5V*%
X272360054Y-127860167D02*
X272360054Y-137105054D01*
X272360054Y-137105054D02*
X272415000Y-137160000D01*
X258892554Y-137160000D02*
X262255000Y-137160000D01*
X257926054Y-136193500D02*
X258892554Y-137160000D01*
%TO.N,GND*%
X237492054Y-191132946D02*
X237492054Y-149225000D01*
X237492054Y-149225000D02*
X237492054Y-144526834D01*
X241894152Y-149225000D02*
X237492054Y-149225000D01*
X251926054Y-136193500D02*
X251926054Y-139193098D01*
X251926054Y-139193098D02*
X241894152Y-149225000D01*
%TO.N,+5V*%
X247015000Y-140970000D02*
X247015000Y-135084658D01*
X247015000Y-135084658D02*
X251162658Y-130937000D01*
X251162658Y-130937000D02*
X258689450Y-130937000D01*
X258689450Y-130937000D02*
X259769054Y-132016604D01*
X259769054Y-132016604D02*
X259769054Y-134350500D01*
X259769054Y-134350500D02*
X257926054Y-136193500D01*
D29*
%TO.N,GND*%
X232650000Y-144275000D02*
X237240220Y-144275000D01*
X237240220Y-144275000D02*
X237492054Y-144526834D01*
X232650000Y-156975000D02*
X233825000Y-158150000D01*
X233825000Y-158150000D02*
X233825000Y-168500000D01*
X233825000Y-168500000D02*
X232650000Y-169675000D01*
X232650000Y-144275000D02*
X233825000Y-145450000D01*
X233825000Y-145450000D02*
X233825000Y-149841701D01*
X233825000Y-149841701D02*
X233136701Y-150530000D01*
X233136701Y-150530000D02*
X231740000Y-150530000D01*
X231740000Y-150530000D02*
X231475000Y-150795000D01*
X231475000Y-150795000D02*
X231475000Y-155800000D01*
X231475000Y-155800000D02*
X232650000Y-156975000D01*
X214870000Y-144275000D02*
X232650000Y-144275000D01*
X214870000Y-169675000D02*
X216045000Y-170850000D01*
X216045000Y-170850000D02*
X216045000Y-181200000D01*
X216045000Y-181200000D02*
X214870000Y-182375000D01*
X232650000Y-169675000D02*
X231475000Y-170850000D01*
X231475000Y-170850000D02*
X231475000Y-181200000D01*
X231475000Y-181200000D02*
X232650000Y-182375000D01*
X223760000Y-187225000D02*
X228610000Y-182375000D01*
X228610000Y-182375000D02*
X232650000Y-182375000D01*
X214870000Y-182375000D02*
X218910000Y-182375000D01*
X218910000Y-182375000D02*
X223760000Y-187225000D01*
X214630000Y-260350000D02*
X219710000Y-260350000D01*
X219710000Y-260350000D02*
X224790000Y-265430000D01*
X224790000Y-265430000D02*
X224790000Y-271780000D01*
X224790000Y-271780000D02*
X233680000Y-280670000D01*
D28*
X235530500Y-214630000D02*
X234904061Y-215256439D01*
X234904061Y-215256439D02*
X218566052Y-215256439D01*
X235530500Y-193094500D02*
X237492054Y-191132946D01*
X237492054Y-237492054D02*
X235585000Y-235585000D01*
X237492054Y-278548834D02*
X237492054Y-237492054D01*
X235585000Y-235585000D02*
X235530500Y-235585000D01*
X218566052Y-215256439D02*
X217016052Y-213706439D01*
X217016052Y-209186439D02*
X218566052Y-207636439D01*
X217016052Y-213706439D02*
X217016052Y-209186439D01*
%TO.N,+5V*%
X243492054Y-205105000D02*
X243492054Y-154652946D01*
X243205000Y-205105000D02*
X241935000Y-206375000D01*
X243492054Y-278548834D02*
X243492054Y-205105000D01*
X243492054Y-205105000D02*
X243205000Y-205105000D01*
X234323561Y-210176439D02*
X238125000Y-206375000D01*
X238125000Y-206375000D02*
X238179500Y-206375000D01*
X218566052Y-210176439D02*
X234323561Y-210176439D01*
X218566052Y-212716439D02*
X218566052Y-210176439D01*
X247015000Y-140970000D02*
X247015000Y-141003888D01*
X247015000Y-141003888D02*
X243492054Y-144526834D01*
X243492054Y-154652946D02*
X247650000Y-150495000D01*
X247650000Y-150495000D02*
X247650000Y-149081000D01*
X245570000Y-289443848D02*
X245570000Y-280626780D01*
X245570000Y-280626780D02*
X243492054Y-278548834D01*
%TO.N,GND*%
X233680000Y-280670000D02*
X235370888Y-280670000D01*
X235370888Y-280670000D02*
X237492054Y-278548834D01*
X252730000Y-283845000D02*
X252730000Y-286071554D01*
X252730000Y-286071554D02*
X251926054Y-286875500D01*
X263525000Y-289560000D02*
X262255000Y-288290000D01*
X263525000Y-298037221D02*
X263525000Y-289560000D01*
%TO.N,+5V*%
X260985000Y-291465000D02*
X257810000Y-294640000D01*
X257926054Y-286875500D02*
X259769054Y-288718500D01*
X259769054Y-288718500D02*
X259769054Y-290249054D01*
X257810000Y-294640000D02*
X250766152Y-294640000D01*
X259769054Y-290249054D02*
X260985000Y-291465000D01*
X250766152Y-294640000D02*
X245570000Y-289443848D01*
X277495000Y-285115000D02*
X259686554Y-285115000D01*
X259686554Y-285115000D02*
X257926054Y-286875500D01*
X277495000Y-290067221D02*
X277495000Y-289560000D01*
X272360054Y-295202167D02*
X277495000Y-290067221D01*
%TO.N,GND*%
X280794054Y-303528834D02*
X280794054Y-300479054D01*
X280794054Y-300479054D02*
X280670000Y-300355000D01*
X276748891Y-316031173D02*
X276748891Y-304403256D01*
X276748891Y-304403256D02*
X273955302Y-301609667D01*
X273955302Y-301609667D02*
X264144667Y-301609667D01*
X264144667Y-301609667D02*
X263525000Y-300990000D01*
X263525000Y-300990000D02*
X263525000Y-298037221D01*
X263525000Y-298037221D02*
X266360054Y-295202167D01*
%TO.N,+5V*%
X278951054Y-309431054D02*
X278765000Y-309245000D01*
X278951054Y-314511054D02*
X278951054Y-309431054D01*
X280670000Y-316230000D02*
X278951054Y-314511054D01*
X278765000Y-309245000D02*
X278765000Y-301607113D01*
X278765000Y-301607113D02*
X272360054Y-295202167D01*
X280670000Y-316230000D02*
X281263784Y-316230000D01*
X281263784Y-316230000D02*
X286978784Y-310515000D01*
X286978784Y-310515000D02*
X288925000Y-310515000D01*
D29*
X321945000Y-330835000D02*
X321945000Y-326465113D01*
X321945000Y-335915000D02*
X321945000Y-330835000D01*
X326131654Y-337185000D02*
X324861654Y-335915000D01*
X336550000Y-337185000D02*
X326131654Y-337185000D01*
X336550000Y-341630000D02*
X336550000Y-337185000D01*
X324861654Y-335915000D02*
X321945000Y-335915000D01*
X336550000Y-337185000D02*
X336550000Y-334962780D01*
X346710000Y-342265000D02*
X345440000Y-343535000D01*
X345440000Y-343535000D02*
X337185000Y-343535000D01*
X337062054Y-343412054D02*
X337062054Y-342142054D01*
X337185000Y-343535000D02*
X337062054Y-343412054D01*
X337062054Y-342142054D02*
X336550000Y-341630000D01*
X336550000Y-334962780D02*
X330096054Y-328508834D01*
%TO.N,Net-(A14-Data_Out)*%
X399240000Y-303382000D02*
X399240000Y-142320221D01*
X399240000Y-142320221D02*
X413700054Y-127860167D01*
%TO.N,Net-(A13-Data_Out)*%
X384832054Y-311855500D02*
X398780000Y-297907554D01*
X398780000Y-297907554D02*
X398780000Y-120012888D01*
X398780000Y-120012888D02*
X399266054Y-119526834D01*
%TO.N,GND*%
X377190000Y-171450000D02*
X381832054Y-166807946D01*
X381832054Y-166807946D02*
X381832054Y-111193500D01*
%TO.N,+5V*%
X386080000Y-120015000D02*
X387832054Y-118262946D01*
X387832054Y-118262946D02*
X387832054Y-111193500D01*
X384175000Y-167005000D02*
X384175000Y-120015000D01*
X377190000Y-173990000D02*
X384175000Y-167005000D01*
X384175000Y-120015000D02*
X384107554Y-120015000D01*
%TO.N,GND*%
X377190000Y-171450000D02*
X376015000Y-172625000D01*
X376015000Y-172625000D02*
X376015000Y-188055000D01*
X376015000Y-188055000D02*
X377190000Y-189230000D01*
%TO.N,/BCLK*%
X401590497Y-161654503D02*
X401320000Y-161925000D01*
X403949500Y-161654503D02*
X401590497Y-161654503D01*
%TO.N,/DIN*%
X403949500Y-163830000D02*
X401320000Y-163830000D01*
%TO.N,/LRC*%
X401320000Y-158750000D02*
X403949500Y-158750000D01*
%TO.N,/RTC_INT*%
X401320000Y-173990000D02*
X406400000Y-173990000D01*
%TO.N,/SCL*%
X401320000Y-179070000D02*
X406400000Y-179070000D01*
%TO.N,/SDA*%
X401320000Y-176530000D02*
X406400000Y-176530000D01*
%TO.N,/RTC_INT*%
X382270000Y-196850000D02*
X382270000Y-196215000D01*
X377190000Y-201930000D02*
X382270000Y-196850000D01*
%TO.N,/SCL*%
X379730000Y-196850000D02*
X382270000Y-194310000D01*
X377190000Y-196850000D02*
X379730000Y-196850000D01*
%TO.N,/SDA*%
X381000000Y-194310000D02*
X382270000Y-193040000D01*
X377190000Y-194310000D02*
X381000000Y-194310000D01*
%TO.N,+3V3*%
X348012299Y-182212701D02*
X347305200Y-182919800D01*
X348647299Y-182212701D02*
X348012299Y-182212701D01*
X403949500Y-160655000D02*
X401320000Y-160655000D01*
X317500000Y-182334500D02*
X317410000Y-182244500D01*
X317410000Y-182244500D02*
X317410000Y-85589409D01*
X317410000Y-85589409D02*
X316910591Y-85090000D01*
%TO.N,/SCL*%
X321310000Y-82550000D02*
X321310000Y-81347919D01*
X321310000Y-81347919D02*
X322552919Y-80105000D01*
X322552919Y-80105000D02*
X323996406Y-80105000D01*
X325564054Y-175361446D02*
X320040000Y-180885500D01*
X323996406Y-80105000D02*
X325564054Y-81672648D01*
X325564054Y-81672648D02*
X325564054Y-175361446D01*
%TO.N,/SDA*%
X318135000Y-179794500D02*
X322485000Y-175444500D01*
X322485000Y-175444500D02*
X322485000Y-82304705D01*
X322485000Y-82304705D02*
X323509705Y-81280000D01*
%TO.N,/BUS_5*%
X470085000Y-270060000D02*
X456333722Y-283811278D01*
X442728170Y-288665680D02*
X417901365Y-313492485D01*
X456333722Y-283811278D02*
X456333722Y-287362069D01*
X456333722Y-287362069D02*
X455030111Y-288665680D01*
X455030111Y-288665680D02*
X442728170Y-288665680D01*
X417901365Y-313492485D02*
X410710725Y-313492485D01*
%TO.N,/BUS_4*%
X469635000Y-268340000D02*
X457400000Y-280575000D01*
X457400000Y-280575000D02*
X450182454Y-280575000D01*
X450182454Y-280575000D02*
X424052454Y-306705000D01*
X424052454Y-306705000D02*
X417695918Y-306705000D01*
X417695918Y-306705000D02*
X412910429Y-311490489D01*
X412910429Y-311490489D02*
X412910429Y-312222485D01*
X469635000Y-228018414D02*
X469635000Y-268340000D01*
X464493692Y-222877106D02*
X469635000Y-228018414D01*
%TO.N,/BUS_5*%
X470085000Y-225928414D02*
X470085000Y-270060000D01*
X464493692Y-220337106D02*
X470085000Y-225928414D01*
%TO.N,/BUS_1*%
X263525000Y-260985000D02*
X263717749Y-261177749D01*
X264167054Y-260747359D02*
X264167054Y-115097679D01*
X264167054Y-115097679D02*
X263550592Y-114481217D01*
X263717749Y-261177749D02*
X264597444Y-261177749D01*
X264597444Y-261177749D02*
X264167054Y-260747359D01*
%TO.N,/BUS_2*%
X265750297Y-113211217D02*
X265750297Y-122980358D01*
X265750297Y-122980358D02*
X264892054Y-123838601D01*
X264892054Y-123838601D02*
X264892054Y-260447054D01*
%TO.N,/BUS_3*%
X267828054Y-261478054D02*
X267828054Y-112063164D01*
X267828054Y-112063164D02*
X267950001Y-111941217D01*
%TO.N,/BUS_4*%
X270084554Y-262255000D02*
X271273054Y-261066500D01*
X271273054Y-261066500D02*
X270828054Y-260621500D01*
X270828054Y-260621500D02*
X270828054Y-111349565D01*
X270828054Y-111349565D02*
X270149706Y-110671217D01*
%TO.N,/BUS_5*%
X272349410Y-109401217D02*
X273828054Y-110879861D01*
X273828054Y-110879861D02*
X273828054Y-260206946D01*
X273828054Y-260206946D02*
X271780000Y-262255000D01*
%TO.N,/BUS_6*%
X274549187Y-263119187D02*
X274549187Y-110722550D01*
X274549115Y-110722478D02*
X274549115Y-108131217D01*
X274549187Y-110722550D02*
X274549115Y-110722478D01*
X239395000Y-227965000D02*
X229226439Y-217796439D01*
X229226439Y-217796439D02*
X218566052Y-217796439D01*
%TO.N,/BUS_5*%
X239395000Y-229870000D02*
X229861439Y-220336439D01*
X229861439Y-220336439D02*
X218566052Y-220336439D01*
%TO.N,/BUS_4*%
X239395000Y-231775000D02*
X230496439Y-222876439D01*
X230496439Y-222876439D02*
X218566052Y-222876439D01*
%TO.N,/BUS_3*%
X239767554Y-233680000D02*
X231503993Y-225416439D01*
X231503993Y-225416439D02*
X218566052Y-225416439D01*
%TO.N,/BUS_2*%
X239767554Y-235585000D02*
X232138993Y-227956439D01*
X232138993Y-227956439D02*
X218566052Y-227956439D01*
%TO.N,/BUS_1*%
X239395000Y-236855000D02*
X233036439Y-230496439D01*
X233036439Y-230496439D02*
X218566052Y-230496439D01*
%TO.N,/BUS_6*%
X274549187Y-314761173D02*
X274549187Y-303759187D01*
X274320000Y-303530000D02*
X274549187Y-303759187D01*
%TO.N,/BUS_5*%
X272349482Y-303595518D02*
X272415000Y-303530000D01*
X272349482Y-313491173D02*
X272349482Y-303595518D01*
%TO.N,/BUS_4*%
X270149778Y-303804778D02*
X269875000Y-303530000D01*
X270149778Y-312221173D02*
X270149778Y-303804778D01*
%TO.N,/BUS_3*%
X267950073Y-304145073D02*
X267335000Y-303530000D01*
X267950073Y-310951173D02*
X267950073Y-304145073D01*
%TO.N,/BUS_2*%
X265750369Y-303850369D02*
X265430000Y-303530000D01*
X265750369Y-309681173D02*
X265750369Y-303850369D01*
%TO.N,/BUS_1*%
X263550664Y-303555664D02*
X263525000Y-303530000D01*
X263550664Y-308411173D02*
X263550664Y-303555664D01*
%TO.N,+5V*%
X373398054Y-320182167D02*
X383145953Y-320182167D01*
X383145953Y-320182167D02*
X386300054Y-317028066D01*
X386300054Y-317028066D02*
X386300054Y-313387500D01*
X386300054Y-313387500D02*
X387832054Y-311855500D01*
X358964054Y-328508834D02*
X368711953Y-328508834D01*
X368711953Y-328508834D02*
X371866054Y-325354733D01*
X371866054Y-325354733D02*
X371866054Y-321714167D01*
X371866054Y-321714167D02*
X373398054Y-320182167D01*
%TO.N,GND*%
X352964054Y-328508834D02*
X352964054Y-329025946D01*
%TO.N,+5V*%
X344530054Y-336835500D02*
X354277954Y-336835500D01*
X354277954Y-336835500D02*
X357432054Y-333681400D01*
X357432054Y-333681400D02*
X357432054Y-330040834D01*
X357432054Y-330040834D02*
X358964054Y-328508834D01*
%TO.N,/BUS_1*%
X296546232Y-327461173D02*
X283644777Y-327461173D01*
X283644777Y-327461173D02*
X277943604Y-321760000D01*
X275697410Y-321760000D02*
X263550664Y-309613254D01*
X277943604Y-321760000D02*
X275697410Y-321760000D01*
X263550664Y-309613254D02*
X263550664Y-308411173D01*
%TO.N,/BUS_2*%
X281305000Y-324485000D02*
X278130000Y-321310000D01*
X294346527Y-326191173D02*
X284916173Y-326191173D01*
X284916173Y-326191173D02*
X283210000Y-324485000D01*
X283210000Y-324485000D02*
X281305000Y-324485000D01*
X278130000Y-321310000D02*
X276647199Y-321310000D01*
X276647199Y-321310000D02*
X265750369Y-310413170D01*
X265750369Y-310413170D02*
X265750369Y-309681173D01*
%TO.N,/BUS_3*%
X281914103Y-323837569D02*
X278123267Y-320046733D01*
X283773512Y-323837569D02*
X281914103Y-323837569D01*
X292146823Y-324921173D02*
X284857116Y-324921173D01*
X284857116Y-324921173D02*
X283773512Y-323837569D01*
X278123267Y-320046733D02*
X276313637Y-320046733D01*
X276313637Y-320046733D02*
X267950073Y-311683169D01*
X267950073Y-311683169D02*
X267950073Y-310951173D01*
%TO.N,/BUS_4*%
X281911169Y-321338830D02*
X280051760Y-321338830D01*
X289947118Y-323651173D02*
X284223512Y-323651173D01*
X280051760Y-321338830D02*
X278123965Y-319411035D01*
X278123965Y-319411035D02*
X276607643Y-319411035D01*
X284223512Y-323651173D02*
X281911169Y-321338830D01*
X276607643Y-319411035D02*
X270149778Y-312953170D01*
X270149778Y-312953170D02*
X270149778Y-312221173D01*
%TO.N,/BUS_5*%
X278754326Y-319405000D02*
X278305722Y-318956396D01*
X283589908Y-322381173D02*
X281911867Y-320703132D01*
X281911867Y-320703132D02*
X280698132Y-320703132D01*
X280698132Y-320703132D02*
X279400000Y-319405000D01*
X279400000Y-319405000D02*
X278754326Y-319405000D01*
X287747414Y-322381173D02*
X283589908Y-322381173D01*
X277082709Y-318956396D02*
X272349482Y-314223169D01*
X278305722Y-318956396D02*
X277082709Y-318956396D01*
X272349482Y-314223169D02*
X272349482Y-313491173D01*
%TO.N,/BUS_6*%
X279973300Y-318770000D02*
X278755722Y-318770000D01*
X278755722Y-318770000D02*
X277495000Y-317509278D01*
X280955426Y-320040000D02*
X279973300Y-319057874D01*
X277495000Y-317509278D02*
X277495000Y-317500000D01*
X282956304Y-321111173D02*
X281940000Y-320094869D01*
X285547709Y-321111173D02*
X282956304Y-321111173D01*
X279973300Y-319057874D02*
X279973300Y-318770000D01*
X274549187Y-315493170D02*
X274549187Y-314761173D01*
X281940000Y-320040000D02*
X280955426Y-320040000D01*
X281940000Y-320094869D02*
X281940000Y-320040000D01*
X276556017Y-317500000D02*
X274549187Y-315493170D01*
X277495000Y-317500000D02*
X276556017Y-317500000D01*
%TO.N,/BUS_2*%
X378460000Y-306068604D02*
X378460000Y-306070000D01*
X379094302Y-305434302D02*
X378460000Y-306068604D01*
X382905000Y-292100000D02*
X379094302Y-295910698D01*
X379094302Y-305434302D02*
X379095000Y-305435000D01*
X379094302Y-295910698D02*
X379094302Y-305434302D01*
%TO.N,/LED_DATA_IN*%
X240030000Y-147955000D02*
X240492054Y-147492946D01*
X240492054Y-147492946D02*
X240492054Y-144526834D01*
X292100000Y-157480000D02*
X285115000Y-150495000D01*
X285115000Y-150495000D02*
X285115000Y-150405500D01*
X316230000Y-181610000D02*
X313690000Y-179070000D01*
X313690000Y-179070000D02*
X313690000Y-178980500D01*
%TO.N,/DATA_6*%
X406920000Y-256020000D02*
X413500000Y-256020000D01*
X413500000Y-256020000D02*
X421005000Y-263525000D01*
%TO.N,/DATA_5*%
X406400000Y-252095000D02*
X413385000Y-252095000D01*
X413385000Y-252095000D02*
X421005000Y-259715000D01*
%TO.N,/DATA_4*%
X406400000Y-248920000D02*
X414020000Y-248920000D01*
X414020000Y-248920000D02*
X421005000Y-255905000D01*
%TO.N,/DATA_3*%
X406400000Y-245110000D02*
X413385000Y-245110000D01*
X413385000Y-245110000D02*
X421005000Y-252730000D01*
%TO.N,/DATA_2*%
X406400000Y-241935000D02*
X414020000Y-241935000D01*
X414020000Y-241935000D02*
X421005000Y-248920000D01*
%TO.N,/DATA_1*%
X406400000Y-238125000D02*
X414655000Y-238125000D01*
X414655000Y-238125000D02*
X421005000Y-244475000D01*
%TO.N,/BUS_5*%
X287747414Y-323113170D02*
X287747414Y-322381173D01*
%TO.N,/BUS_3*%
X379730000Y-306070000D02*
X378460000Y-307340000D01*
X382270000Y-295275000D02*
X379730000Y-297815000D01*
X379730000Y-297815000D02*
X379730000Y-306070000D01*
%TO.N,/BUS_4*%
X382905000Y-299085000D02*
X381000000Y-300990000D01*
X381000000Y-300990000D02*
X381000000Y-306070000D01*
X381000000Y-306070000D02*
X378460000Y-308610000D01*
%TO.N,/BUS_5*%
X381635000Y-306705000D02*
X378460000Y-309880000D01*
X382994500Y-302260000D02*
X381635000Y-303619500D01*
X381635000Y-303619500D02*
X381635000Y-306705000D01*
%TO.N,/BUS_6*%
X383629500Y-305980500D02*
X378460000Y-311150000D01*
X383629500Y-305926685D02*
X383629500Y-305980500D01*
X378460000Y-311150000D02*
X378432811Y-311122811D01*
%TO.N,Net-(PICO_DATAIN_6-STEPPER1-A)*%
X434975000Y-234315000D02*
X434250000Y-233590000D01*
X434250000Y-233590000D02*
X434250000Y-216869695D01*
X434250000Y-216869695D02*
X435854695Y-215265000D01*
X463296396Y-240410000D02*
X463918651Y-240410000D01*
X435854695Y-215265000D02*
X438151396Y-215265000D01*
X468535000Y-247745000D02*
X467360000Y-248920000D01*
X438151396Y-215265000D02*
X463296396Y-240410000D01*
X463918651Y-240410000D02*
X468535000Y-245026349D01*
X468535000Y-245026349D02*
X468535000Y-247745000D01*
%TO.N,Net-(PICO_DATAIN_5-STEPPER1-A)*%
X461010000Y-240030000D02*
X467360000Y-246380000D01*
X438148604Y-231140000D02*
X447039302Y-240030698D01*
X434975000Y-231140000D02*
X438148604Y-231140000D01*
X447039302Y-240030698D02*
X446845200Y-240224800D01*
%TO.N,Net-(PICO_DATAIN_4-STEPPER1-B)*%
X434975000Y-227330000D02*
X450595000Y-242950000D01*
X450595000Y-242950000D02*
X457580000Y-242950000D01*
X457580000Y-242950000D02*
X463550000Y-248920000D01*
%TO.N,Net-(PICO_DATAIN_2-STEPPER1-B)*%
X434975000Y-220980000D02*
X454405000Y-240410000D01*
X454405000Y-240410000D02*
X460120000Y-240410000D01*
X460120000Y-240410000D02*
X463550000Y-243840000D01*
%TO.N,Net-(PICO_DATAIN_1-STEPPER1-B)*%
X436155000Y-215990000D02*
X456500000Y-236335000D01*
X456500000Y-236335000D02*
X458585000Y-236335000D01*
X458585000Y-236335000D02*
X463550000Y-241300000D01*
%TO.N,/PICO_DATAIN_6*%
X407765000Y-198025000D02*
X448310000Y-198025000D01*
X448310000Y-198025000D02*
X456025000Y-198025000D01*
%TO.N,/PICO_DATAIN_5*%
X456025000Y-195485000D02*
X450215000Y-195485000D01*
X450215000Y-195485000D02*
X407765000Y-195485000D01*
%TO.N,/PICO_DATAIN_4*%
X455835000Y-190595000D02*
X454025000Y-190595000D01*
X454025000Y-190595000D02*
X407575000Y-190595000D01*
%TO.N,/PICO_DATAIN_1*%
X410115000Y-180435000D02*
X454660000Y-180435000D01*
X454660000Y-180435000D02*
X458375000Y-180435000D01*
%TO.N,/BUS_2*%
X388713680Y-325460488D02*
X388713680Y-326192485D01*
%TO.N,/DATA_6*%
X439420000Y-270510000D02*
X427990000Y-270510000D01*
X427990000Y-270510000D02*
X421005000Y-263525000D01*
%TO.N,/DATA_5*%
X421005000Y-259715000D02*
X427990000Y-266700000D01*
X427990000Y-266700000D02*
X439420000Y-266700000D01*
%TO.N,/DATA_4*%
X439420000Y-262255000D02*
X427355000Y-262255000D01*
X427355000Y-262255000D02*
X421005000Y-255905000D01*
%TO.N,/DATA_3*%
X421005000Y-252730000D02*
X428151514Y-259876514D01*
X428151514Y-259876514D02*
X439028464Y-259876514D01*
%TO.N,/DATA_2*%
X440055000Y-253365000D02*
X425450000Y-253365000D01*
X425450000Y-253365000D02*
X421005000Y-248920000D01*
%TO.N,/DATA_1*%
X421005000Y-244475000D02*
X434340000Y-244475000D01*
X434340000Y-244475000D02*
X440055000Y-250190000D01*
%TO.N,/LED_DATA_OUT*%
X439420000Y-272415000D02*
X442568054Y-275563054D01*
X442568054Y-275563054D02*
X442568054Y-278548834D01*
%TO.N,Net-(STEPPER_4-8-Pin_4)*%
X467360000Y-254000000D02*
X463550000Y-257810000D01*
X463550000Y-257810000D02*
X463550000Y-259080000D01*
%TO.N,Net-(STEPPER_4-8-Pin_3)*%
X467360000Y-251460000D02*
X463550000Y-255270000D01*
X463550000Y-255270000D02*
X463550000Y-256540000D01*
%TO.N,Net-(PICO_DATAIN_6-STEPPER1-A)*%
X467360000Y-248920000D02*
X463550000Y-252730000D01*
X463550000Y-252730000D02*
X463550000Y-254000000D01*
%TO.N,Net-(PICO_DATAIN_5-STEPPER1-A)*%
X467360000Y-246380000D02*
X463550000Y-250190000D01*
X463550000Y-250190000D02*
X463550000Y-251460000D01*
%TO.N,Net-(STEPPER-DATA_4-B)*%
X452120000Y-264160000D02*
X454195000Y-262085000D01*
X454195000Y-262085000D02*
X454195000Y-252875000D01*
X454195000Y-252875000D02*
X455610000Y-251460000D01*
%TO.N,Net-(STEPPER-DATA_3-B)*%
X452120000Y-261620000D02*
X453745000Y-259995000D01*
X453745000Y-259995000D02*
X453745000Y-250785000D01*
X453745000Y-250785000D02*
X455610000Y-248920000D01*
%TO.N,Net-(STEPPER-DATA_2-B)*%
X452120000Y-259080000D02*
X453295000Y-257905000D01*
X453295000Y-257905000D02*
X453295000Y-248695000D01*
X453295000Y-248695000D02*
X455610000Y-246380000D01*
%TO.N,Net-(STEPPER-DATA_1-B)*%
X452120000Y-256540000D02*
X450945000Y-255365000D01*
X450945000Y-255365000D02*
X450945000Y-245205000D01*
X450945000Y-245205000D02*
X452310000Y-243840000D01*
X452310000Y-243840000D02*
X455610000Y-243840000D01*
%TO.N,/KEYPAD_INT*%
X401320000Y-171450000D02*
X406400000Y-171450000D01*
%TO.N,Net-(A16-Data_Out)*%
X423545000Y-283845000D02*
X414655000Y-292735000D01*
X426720000Y-283845000D02*
X423545000Y-283845000D01*
X414655000Y-292735000D02*
X412750000Y-292735000D01*
X441960000Y-147320000D02*
X442595000Y-146685000D01*
X412750000Y-292735000D02*
X400500000Y-280485000D01*
X400500000Y-280485000D02*
X400500000Y-151950000D01*
X400500000Y-151950000D02*
X405130000Y-147320000D01*
X428134054Y-286875500D02*
X428134054Y-285259054D01*
X442595000Y-146685000D02*
X442568054Y-146658054D01*
X428134054Y-285259054D02*
X426720000Y-283845000D01*
X405130000Y-147320000D02*
X441960000Y-147320000D01*
X442568054Y-146658054D02*
X442568054Y-144526834D01*
%TO.N,Net-(A15-Data_Out)*%
X400050000Y-281552113D02*
X400050000Y-147320000D01*
X422910000Y-139065000D02*
X426720000Y-139065000D01*
X409575000Y-137795000D02*
X421640000Y-137795000D01*
X400050000Y-147320000D02*
X409575000Y-137795000D01*
X421640000Y-137795000D02*
X422910000Y-139065000D01*
X413700054Y-295202167D02*
X400050000Y-281552113D01*
X426720000Y-139065000D02*
X427355000Y-138430000D01*
X427355000Y-138430000D02*
X427355000Y-136972554D01*
X427355000Y-136972554D02*
X428134054Y-136193500D01*
%TO.N,/UART0 RX*%
X262890000Y-154940000D02*
X261620000Y-153670000D01*
X406400000Y-153670000D02*
X403225000Y-153670000D01*
%TO.N,/UART0 TX*%
X406400000Y-151130000D02*
X403225000Y-151130000D01*
%TO.N,/PICO_DATAIN_6*%
X406400000Y-199390000D02*
X407765000Y-198025000D01*
X456025000Y-198025000D02*
X467360000Y-186690000D01*
%TO.N,/PICO_DATAIN_5*%
X467360000Y-184150000D02*
X456025000Y-195485000D01*
X407765000Y-195485000D02*
X406400000Y-196850000D01*
%TO.N,GND*%
X406400000Y-194310000D02*
X455538299Y-194310000D01*
X455538299Y-194310000D02*
X467360000Y-182488299D01*
X467360000Y-182488299D02*
X467360000Y-181610000D01*
%TO.N,/PICO_DATAIN_4*%
X467360000Y-179070000D02*
X455835000Y-190595000D01*
X407575000Y-190595000D02*
X406400000Y-191770000D01*
%TO.N,/PICO_DATAIN_3*%
X406400000Y-189230000D02*
X410210000Y-185420000D01*
X410210000Y-185420000D02*
X458470000Y-185420000D01*
X458470000Y-185420000D02*
X467360000Y-176530000D01*
%TO.N,/PICO_DATAIN_2*%
X467360000Y-173990000D02*
X458565000Y-182785000D01*
X458565000Y-182785000D02*
X410305000Y-182785000D01*
X410305000Y-182785000D02*
X406400000Y-186690000D01*
%TO.N,/PICO_DATAIN_1*%
X406400000Y-184150000D02*
X410115000Y-180435000D01*
X458375000Y-180435000D02*
X467360000Y-171450000D01*
%TO.N,/SCL*%
X467360000Y-166370000D02*
X455930000Y-177800000D01*
X455930000Y-177800000D02*
X407670000Y-177800000D01*
X407670000Y-177800000D02*
X406400000Y-179070000D01*
%TO.N,/SDA*%
X406400000Y-176530000D02*
X407765000Y-175165000D01*
X407765000Y-175165000D02*
X456025000Y-175165000D01*
X456025000Y-175165000D02*
X467360000Y-163830000D01*
%TO.N,/RTC_INT*%
X467360000Y-161290000D02*
X456025000Y-172625000D01*
X456025000Y-172625000D02*
X407765000Y-172625000D01*
X407765000Y-172625000D02*
X406400000Y-173990000D01*
%TO.N,GND*%
X467846701Y-159925000D02*
X463580900Y-159925000D01*
X468535000Y-157385000D02*
X468535000Y-159236701D01*
X468535000Y-159236701D02*
X467846701Y-159925000D01*
X463580900Y-159925000D02*
X455345900Y-168160000D01*
%TO.N,/KEYPAD_INT*%
X406400000Y-171450000D02*
X407765000Y-170085000D01*
X407765000Y-170085000D02*
X452542601Y-170085000D01*
X452542601Y-170085000D02*
X453980900Y-168646701D01*
X453980900Y-167049100D02*
X462280000Y-158750000D01*
X453980900Y-168646701D02*
X453980900Y-167049100D01*
X462280000Y-158750000D02*
X467360000Y-158750000D01*
%TO.N,GND*%
X406400000Y-168910000D02*
X405225000Y-167735000D01*
X405225000Y-167735000D02*
X405225000Y-157385000D01*
X405225000Y-157385000D02*
X406400000Y-156210000D01*
%TO.N,Net-(J1-Pin_14)*%
X406400000Y-166370000D02*
X407575000Y-167545000D01*
X407575000Y-167545000D02*
X451581396Y-167545000D01*
X465456396Y-153670000D02*
X467360000Y-153670000D01*
X451581396Y-167545000D02*
X465456396Y-153670000D01*
%TO.N,/DIN*%
X467360000Y-151130000D02*
X453485000Y-165005000D01*
X453485000Y-165005000D02*
X407575000Y-165005000D01*
X407575000Y-165005000D02*
X406400000Y-163830000D01*
%TO.N,/BCLK*%
X406400000Y-161290000D02*
X407575000Y-162465000D01*
X407575000Y-162465000D02*
X453485000Y-162465000D01*
X453485000Y-162465000D02*
X467360000Y-148590000D01*
%TO.N,/LRC*%
X467360000Y-146050000D02*
X453485000Y-159925000D01*
X453485000Y-159925000D02*
X407575000Y-159925000D01*
X407575000Y-159925000D02*
X406400000Y-158750000D01*
%TO.N,GND*%
X406400000Y-156210000D02*
X407575000Y-157385000D01*
X407575000Y-157385000D02*
X453485000Y-157385000D01*
X453485000Y-157385000D02*
X467360000Y-143510000D01*
%TO.N,/UART0 RX*%
X467360000Y-140970000D02*
X453485000Y-154845000D01*
X453485000Y-154845000D02*
X407575000Y-154845000D01*
X407575000Y-154845000D02*
X406400000Y-153670000D01*
%TO.N,/UART0 TX*%
X406400000Y-151130000D02*
X407765000Y-152495000D01*
X407765000Y-152495000D02*
X453295000Y-152495000D01*
X453295000Y-152495000D02*
X467360000Y-138430000D01*
%TO.N,/LED_DATA_OUT*%
X444891888Y-276225000D02*
X447040000Y-276225000D01*
X442568054Y-278548834D02*
X444891888Y-276225000D01*
X447040000Y-276225000D02*
X450215000Y-279400000D01*
X450215000Y-279400000D02*
X453390000Y-279400000D01*
%TO.N,Net-(A12-Data_Out)*%
X370398054Y-320182167D02*
X384832054Y-305748167D01*
X384832054Y-305748167D02*
X384832054Y-111193500D01*
%TO.N,Net-(A11-Data_Out)*%
X355964054Y-328508834D02*
X370398054Y-314074834D01*
X370398054Y-314074834D02*
X370398054Y-102860167D01*
%TO.N,Net-(A11-Data_In)*%
X341530054Y-336835500D02*
X355964054Y-322401500D01*
X355964054Y-322401500D02*
X355964054Y-94526834D01*
%TO.N,Net-(A7-Data_Out)*%
X327096054Y-328508834D02*
X341530054Y-314074834D01*
X341530054Y-314074834D02*
X341530054Y-86193500D01*
%TO.N,Net-(A6-Data_Out)*%
X312662054Y-320182167D02*
X327096054Y-305748167D01*
X327096054Y-305748167D02*
X327096054Y-94526834D01*
%TO.N,Net-(A5-Data_Out)*%
X298228054Y-311855500D02*
X312662054Y-297421500D01*
X312662054Y-297421500D02*
X312662054Y-102860167D01*
%TO.N,Net-(A4-Data_Out)*%
X283794054Y-303528834D02*
X298228054Y-289094834D01*
X298228054Y-289094834D02*
X298228054Y-111193500D01*
%TO.N,Net-(A3-Data_Out)*%
X269360054Y-295202167D02*
X283794054Y-280768167D01*
X283794054Y-280768167D02*
X283794054Y-119526834D01*
%TO.N,Net-(A2-Data_Out)*%
X254926054Y-286875500D02*
X269360054Y-272441500D01*
X269360054Y-272441500D02*
X269360054Y-127860167D01*
%TO.N,/LED_DATA_IN*%
X242570000Y-129540000D02*
X241960054Y-130149946D01*
X241960054Y-130149946D02*
X241960054Y-143058834D01*
X241960054Y-143058834D02*
X240492054Y-144526834D01*
%TD*%
M02*
