M48
; DRILL file {KiCad 7.0.9} date 
; FORMAT={-:-/ absolute / metric / decimal}
; #@! TF.CreationDate,2024-01-04T10:45:39-06:00
; #@! TF.GenerationSoftware,Kicad,Pcbnew,7.0.9
; #@! TF.FileFunction,Plated,1,2,PTH
FMAT,2
METRIC
; #@! TA.AperFunction,Plated,PTH,ViaDrill
T1C0.400
; #@! TA.AperFunction,Plated,PTH,ComponentDrill
T2C0.750
; #@! TA.AperFunction,Plated,PTH,ComponentDrill
T3C0.762
; #@! TA.AperFunction,Plated,PTH,ComponentDrill
T4C0.780
; #@! TA.AperFunction,Plated,PTH,ViaDrill
T5C1.000
; #@! TA.AperFunction,Plated,PTH,ComponentDrill
T6C1.000
; #@! TA.AperFunction,Plated,PTH,ComponentDrill
T7C1.020
%
G90
G05
T1
X239.395Y-227.965
X239.395Y-229.87
X239.395Y-231.775
X239.395Y-236.855
X239.768Y-233.68
X239.768Y-235.585
X240.03Y-147.955
X261.62Y-153.67
X262.89Y-154.94
X263.525Y-260.985
X263.525Y-303.53
X264.892Y-260.447
X265.43Y-303.53
X267.335Y-303.53
X267.828Y-261.478
X269.875Y-303.53
X270.085Y-262.255
X271.78Y-262.255
X272.415Y-303.53
X274.549Y-263.119
X274.549Y-303.759
X285.115Y-150.405
X292.1Y-157.48
X313.69Y-178.98
X316.23Y-181.61
X317.5Y-182.334
X318.135Y-179.794
X320.04Y-180.885
X323.215Y-92.71
X347.305Y-182.92
X348.647Y-182.213
X378.433Y-311.123
X378.46Y-306.07
X378.46Y-307.34
X378.46Y-308.61
X378.46Y-309.88
X382.27Y-193.04
X382.27Y-194.31
X382.27Y-196.215
X382.27Y-295.275
X382.905Y-292.1
X382.905Y-299.085
X382.994Y-302.26
X383.63Y-305.927
X384.108Y-120.015
X386.08Y-120.015
X389.255Y-306.07
X391.16Y-306.705
X396.875Y-310.515
X401.32Y-158.75
X401.32Y-160.655
X401.32Y-161.925
X401.32Y-163.83
X401.32Y-171.45
X401.32Y-173.99
X401.32Y-176.53
X401.32Y-179.07
X401.955Y-300.99
X403.225Y-151.13
X403.225Y-153.67
X403.95Y-158.75
X403.95Y-160.655
X403.95Y-161.655
X403.95Y-163.83
X405.765Y-312.42
X406.4Y-238.125
X406.4Y-241.935
X406.4Y-245.11
X406.4Y-248.92
X406.4Y-252.095
X406.92Y-256.02
X419.1Y-295.275
X421.005Y-244.475
X421.005Y-248.92
X421.005Y-252.73
X421.005Y-255.905
X421.005Y-259.715
X421.005Y-263.525
X422.91Y-286.385
X422.91Y-297.18
X424.815Y-282.575
X432.975Y-144.875
X434.975Y-220.98
X434.975Y-224.155
X434.975Y-227.33
X434.975Y-231.14
X434.975Y-234.315
X436.155Y-215.99
X439.028Y-259.877
X439.42Y-262.255
X439.42Y-266.7
X439.42Y-270.51
X439.42Y-272.415
X440.055Y-250.19
X440.055Y-253.365
X446.845Y-240.225
X448.31Y-198.025
X450.215Y-195.485
X454.025Y-190.595
X454.66Y-180.435
X455.385Y-182.88
X456.019Y-185.42
X458.47Y-245.745
X459.74Y-242.57
X461.01Y-240.03
T2
X237.492Y-141.113
X237.492Y-283.113
X240.492Y-141.113
X240.492Y-283.113
X243.492Y-141.113
X243.492Y-283.113
X251.926Y-132.78
X251.926Y-291.44
X254.926Y-132.78
X254.926Y-291.44
X257.926Y-132.78
X257.926Y-291.44
X266.36Y-124.447
X266.36Y-299.767
X269.36Y-124.447
X269.36Y-299.767
X272.36Y-124.447
X272.36Y-299.767
X280.794Y-116.113
X280.794Y-308.093
X283.794Y-116.113
X283.794Y-308.093
X286.794Y-116.113
X286.794Y-308.093
X295.228Y-107.78
X295.228Y-316.42
X298.228Y-107.78
X298.228Y-316.42
X301.228Y-107.78
X301.228Y-316.42
X309.662Y-99.447
X309.662Y-324.747
X312.662Y-99.447
X312.662Y-324.747
X315.662Y-99.447
X315.662Y-324.747
X324.096Y-91.113
X324.096Y-333.073
X327.096Y-91.113
X327.096Y-333.073
X330.096Y-91.113
X330.096Y-333.073
X338.53Y-82.78
X338.53Y-341.4
X341.53Y-82.78
X341.53Y-341.4
X344.53Y-82.78
X344.53Y-341.4
X352.964Y-91.113
X352.964Y-333.073
X355.964Y-91.113
X355.964Y-333.073
X358.964Y-91.113
X358.964Y-333.073
X367.398Y-99.447
X367.398Y-324.747
X370.398Y-99.447
X370.398Y-324.747
X373.398Y-99.447
X373.398Y-324.747
X381.832Y-107.78
X381.832Y-316.42
X384.832Y-107.78
X384.832Y-316.42
X387.832Y-107.78
X387.832Y-316.42
X396.24Y-115.966
X396.24Y-307.946
X399.24Y-115.966
X399.24Y-307.946
X402.24Y-115.966
X402.24Y-307.946
X410.7Y-124.447
X410.7Y-299.767
X413.7Y-124.447
X413.7Y-299.767
X416.7Y-124.447
X416.7Y-299.767
X425.134Y-132.78
X425.134Y-291.44
X428.134Y-132.78
X428.134Y-291.44
X431.134Y-132.78
X431.134Y-291.44
X439.568Y-141.113
X439.568Y-283.113
X442.568Y-141.113
X442.568Y-283.113
X445.568Y-141.113
X445.568Y-283.113
T3
X214.63Y-234.95
X214.63Y-237.49
X214.63Y-240.03
X214.63Y-242.57
X214.63Y-245.11
X214.63Y-247.65
X214.63Y-250.19
X214.63Y-252.73
X214.63Y-255.27
X214.63Y-257.81
X214.63Y-260.35
X214.63Y-262.89
X214.63Y-265.43
X224.79Y-234.95
X224.79Y-237.49
X224.79Y-240.03
X224.79Y-242.57
X224.79Y-245.11
X224.79Y-247.65
X224.79Y-250.19
X224.79Y-252.73
X224.79Y-252.73
X224.79Y-255.27
X224.79Y-257.81
X224.79Y-260.35
X224.79Y-262.89
X224.79Y-265.43
T4
X455.61Y-238.76
X455.61Y-241.3
X455.61Y-243.84
X455.61Y-246.38
X455.61Y-248.92
X455.61Y-251.46
X455.61Y-254.0
X455.61Y-256.54
X455.61Y-259.08
X455.61Y-261.62
X463.55Y-238.76
X463.55Y-241.3
X463.55Y-243.84
X463.55Y-246.38
X463.55Y-248.92
X463.55Y-251.46
X463.55Y-254.0
X463.55Y-256.54
X463.55Y-259.08
X463.55Y-261.62
T5
X233.68Y-280.67
X235.53Y-193.094
X235.53Y-214.63
X235.53Y-235.585
X238.179Y-206.375
X241.935Y-206.375
X247.015Y-140.97
X247.65Y-149.081
X252.73Y-283.845
X253.365Y-139.065
X262.2Y-288.29
X262.255Y-137.16
X266.217Y-139.065
X272.415Y-137.16
X276.749Y-304.02
X277.495Y-285.115
X277.495Y-289.56
X280.67Y-139.065
X280.67Y-316.23
X280.794Y-300.479
X286.385Y-137.16
X290.538Y-318.991
X292.735Y-316.23
X295.275Y-139.065
X300.99Y-137.16
X309.88Y-316.865
X311.15Y-139.065
X315.595Y-137.16
X324.24Y-139.065
X324.485Y-324.485
X330.835Y-137.16
X337.82Y-332.74
X338.591Y-346.212
X339.725Y-139.065
X344.805Y-137.16
X350.52Y-332.74
X354.33Y-139.065
X356.184Y-344.119
X358.14Y-137.16
X363.855Y-323.215
X365.125Y-337.82
X368.3Y-139.065
X372.11Y-137.16
X380.365Y-139.065
X387.985Y-137.16
X392.43Y-210.185
X395.605Y-207.645
X396.24Y-139.065
X401.32Y-137.16
X402.59Y-207.645
X402.59Y-210.185
X405.13Y-139.065
X407.67Y-131.445
X410.21Y-133.985
X416.56Y-136.47
X420.37Y-139.7
X421.64Y-130.175
X439.42Y-132.08
X457.835Y-210.177
T6
X218.566Y-192.396
X218.566Y-194.936
X218.566Y-197.476
X218.566Y-200.016
X218.566Y-202.556
X218.566Y-205.096
X218.566Y-207.636
X218.566Y-210.176
X218.566Y-212.716
X218.566Y-215.256
X218.566Y-217.796
X218.566Y-220.336
X218.566Y-222.876
X218.566Y-225.416
X218.566Y-227.956
X218.566Y-230.496
X231.14Y-240.03
X231.14Y-242.57
X231.14Y-245.11
X231.14Y-247.65
X231.14Y-250.19
X231.14Y-252.73
X231.14Y-255.27
X242.57Y-129.54
X263.551Y-114.481
X263.551Y-308.411
X265.75Y-113.211
X265.75Y-309.681
X267.95Y-111.941
X267.95Y-310.951
X270.15Y-110.671
X270.15Y-312.221
X272.349Y-109.401
X272.349Y-313.491
X274.549Y-108.131
X274.549Y-314.761
X276.749Y-106.861
X276.749Y-316.031
X278.949Y-105.591
X278.949Y-317.301
X281.148Y-104.321
X281.148Y-318.571
X283.348Y-103.051
X283.348Y-319.841
X285.548Y-101.781
X285.548Y-321.111
X287.747Y-100.511
X287.747Y-322.381
X289.947Y-99.241
X289.947Y-323.651
X292.147Y-97.971
X292.147Y-324.921
X294.346Y-96.701
X294.347Y-326.191
X296.546Y-95.431
X296.546Y-327.461
X316.911Y-85.09
X319.11Y-83.82
X321.31Y-82.55
X323.51Y-81.28
X349.25Y-166.37
X349.25Y-168.91
X349.25Y-171.45
X349.25Y-173.99
X354.716Y-85.725
X356.916Y-86.995
X359.115Y-88.265
X361.315Y-89.535
X363.515Y-90.805
X377.19Y-158.75
X377.19Y-161.29
X377.19Y-163.83
X377.19Y-166.37
X377.19Y-168.91
X377.19Y-171.45
X377.19Y-173.99
X377.19Y-189.23
X377.19Y-191.77
X377.19Y-194.31
X377.19Y-196.85
X377.19Y-199.39
X377.19Y-201.93
X386.513Y-95.431
X386.514Y-327.462
X388.713Y-96.701
X388.714Y-326.192
X390.913Y-97.971
X390.913Y-324.922
X393.112Y-99.241
X393.113Y-323.652
X395.312Y-100.511
X395.313Y-322.382
X397.512Y-101.781
X397.512Y-321.112
X399.712Y-103.051
X399.712Y-319.842
X401.911Y-104.321
X401.912Y-318.572
X404.111Y-105.591
X404.112Y-317.302
X406.311Y-106.861
X406.311Y-316.032
X406.4Y-151.13
X406.4Y-153.67
X406.4Y-156.21
X406.4Y-158.75
X406.4Y-161.29
X406.4Y-163.83
X406.4Y-166.37
X406.4Y-168.91
X406.4Y-171.45
X406.4Y-173.99
X406.4Y-176.53
X406.4Y-179.07
X406.4Y-181.61
X406.4Y-184.15
X406.4Y-186.69
X406.4Y-189.23
X406.4Y-191.77
X406.4Y-194.31
X406.4Y-196.85
X406.4Y-199.39
X408.51Y-108.131
X408.511Y-314.762
X410.71Y-109.401
X410.711Y-313.492
X412.91Y-110.671
X412.91Y-312.222
X415.109Y-111.941
X415.11Y-310.952
X417.309Y-113.211
X417.31Y-309.682
X419.509Y-114.481
X419.51Y-308.412
X421.64Y-151.13
X421.64Y-153.67
X421.64Y-156.21
X421.64Y-158.75
X421.64Y-161.29
X421.64Y-163.83
X421.64Y-166.37
X421.64Y-168.91
X421.64Y-171.45
X421.64Y-173.99
X421.64Y-176.53
X421.64Y-179.07
X421.64Y-181.61
X421.64Y-184.15
X421.64Y-186.69
X421.64Y-189.23
X421.64Y-191.77
X421.64Y-194.31
X421.64Y-196.85
X421.64Y-199.39
X452.12Y-246.38
X452.12Y-248.92
X452.12Y-251.46
X452.12Y-254.0
X452.12Y-256.54
X452.12Y-259.08
X452.12Y-261.62
X452.12Y-264.16
X453.39Y-279.4
X464.494Y-192.397
X464.494Y-194.937
X464.494Y-197.477
X464.494Y-200.017
X464.494Y-202.557
X464.494Y-205.097
X464.494Y-207.637
X464.494Y-210.177
X464.494Y-212.717
X464.494Y-215.257
X464.494Y-217.797
X464.494Y-220.337
X464.494Y-222.877
X464.494Y-225.417
X464.494Y-227.957
X464.494Y-230.497
X467.36Y-246.38
X467.36Y-248.92
X467.36Y-251.46
X467.36Y-254.0
X467.36Y-256.54
X467.36Y-259.08
X467.36Y-261.62
X467.36Y-264.16
T7
X214.87Y-139.195
X214.87Y-141.735
X214.87Y-144.275
X214.87Y-146.815
X214.87Y-149.355
X214.87Y-151.895
X214.87Y-154.435
X214.87Y-156.975
X214.87Y-159.515
X214.87Y-162.055
X214.87Y-164.595
X214.87Y-167.135
X214.87Y-169.675
X214.87Y-172.215
X214.87Y-174.755
X214.87Y-177.295
X214.87Y-179.835
X214.87Y-182.375
X214.87Y-184.915
X214.87Y-187.455
X221.22Y-187.225
X223.76Y-187.225
X226.3Y-187.225
X232.65Y-139.195
X232.65Y-141.735
X232.65Y-144.275
X232.65Y-146.815
X232.65Y-149.355
X232.65Y-151.895
X232.65Y-154.435
X232.65Y-156.975
X232.65Y-159.515
X232.65Y-162.055
X232.65Y-164.595
X232.65Y-167.135
X232.65Y-169.675
X232.65Y-172.215
X232.65Y-174.755
X232.65Y-177.295
X232.65Y-179.835
X232.65Y-182.375
X232.65Y-184.915
X232.65Y-187.455
X449.58Y-138.43
X449.58Y-140.97
X449.58Y-143.51
X449.58Y-146.05
X449.58Y-148.59
X449.58Y-151.13
X449.58Y-153.67
X449.58Y-156.21
X449.58Y-158.75
X449.58Y-161.29
X449.58Y-163.83
X449.58Y-166.37
X449.58Y-168.91
X449.58Y-171.45
X449.58Y-173.99
X449.58Y-176.53
X449.58Y-179.07
X449.58Y-181.61
X449.58Y-184.15
X449.58Y-186.69
X452.806Y-168.16
X455.346Y-168.16
X457.886Y-168.16
X467.36Y-138.43
X467.36Y-140.97
X467.36Y-143.51
X467.36Y-146.05
X467.36Y-148.59
X467.36Y-151.13
X467.36Y-153.67
X467.36Y-156.21
X467.36Y-158.75
X467.36Y-161.29
X467.36Y-163.83
X467.36Y-166.37
X467.36Y-168.91
X467.36Y-171.45
X467.36Y-173.99
X467.36Y-176.53
X467.36Y-179.07
X467.36Y-181.61
X467.36Y-184.15
X467.36Y-186.69
T6
X239.5Y-290.558G85X240.5Y-288.826
G05
X241.704Y-294.14G85X243.436Y-295.14
G05
X244.704Y-288.944G85X246.436Y-289.944
G05
T0
M30
