%TF.GenerationSoftware,KiCad,Pcbnew,7.0.9*%
%TF.CreationDate,2024-01-04T10:45:34-06:00*%
%TF.ProjectId,HexDisplayPCB,48657844-6973-4706-9c61-795043422e6b,rev?*%
%TF.SameCoordinates,Original*%
%TF.FileFunction,Legend,Top*%
%TF.FilePolarity,Positive*%
%FSLAX46Y46*%
G04 Gerber Fmt 4.6, Leading zero omitted, Abs format (unit mm)*
G04 Created by KiCad (PCBNEW 7.0.9) date 2024-01-04 10:45:34*
%MOMM*%
%LPD*%
G01*
G04 APERTURE LIST*
G04 Aperture macros list*
%AMRoundRect*
0 Rectangle with rounded corners*
0 $1 Rounding radius*
0 $2 $3 $4 $5 $6 $7 $8 $9 X,Y pos of 4 corners*
0 Add a 4 corners polygon primitive as box body*
4,1,4,$2,$3,$4,$5,$6,$7,$8,$9,$2,$3,0*
0 Add four circle primitives for the rounded corners*
1,1,$1+$1,$2,$3*
1,1,$1+$1,$4,$5*
1,1,$1+$1,$6,$7*
1,1,$1+$1,$8,$9*
0 Add four rect primitives between the rounded corners*
20,1,$1+$1,$2,$3,$4,$5,0*
20,1,$1+$1,$4,$5,$6,$7,0*
20,1,$1+$1,$6,$7,$8,$9,0*
20,1,$1+$1,$8,$9,$2,$3,0*%
%AMHorizOval*
0 Thick line with rounded ends*
0 $1 width*
0 $2 $3 position (X,Y) of the first rounded end (center of the circle)*
0 $4 $5 position (X,Y) of the second rounded end (center of the circle)*
0 Add line between two ends*
20,1,$1,$2,$3,$4,$5,0*
0 Add two circle primitives to create the rounded ends*
1,1,$1,$2,$3*
1,1,$1,$4,$5*%
%AMRotRect*
0 Rectangle, with rotation*
0 The origin of the aperture is its center*
0 $1 length*
0 $2 width*
0 $3 Rotation angle, in degrees counterclockwise*
0 Add horizontal line*
21,1,$1,$2,0,0,$3*%
G04 Aperture macros list end*
%ADD10C,0.100000*%
%ADD11C,1.524000*%
%ADD12RoundRect,0.381000X-0.381000X1.190500X-0.381000X-1.190500X0.381000X-1.190500X0.381000X1.190500X0*%
%ADD13RoundRect,0.381000X-0.381000X1.025500X-0.381000X-1.025500X0.381000X-1.025500X0.381000X1.025500X0*%
%ADD14C,2.286000*%
%ADD15R,1.700000X1.700000*%
%ADD16O,1.700000X1.700000*%
%ADD17HorizOval,1.700000X0.000000X0.000000X0.000000X0.000000X0*%
%ADD18RotRect,1.700000X1.700000X60.000000*%
%ADD19RotRect,3.500000X3.500000X60.000000*%
%ADD20RoundRect,0.750000X0.491025X-1.149519X1.241025X0.149519X-0.491025X1.149519X-1.241025X-0.149519X0*%
%ADD21RoundRect,0.875000X0.320272X-1.195272X1.195272X0.320272X-0.320272X1.195272X-1.195272X-0.320272X0*%
%ADD22RoundRect,0.102000X0.565000X0.565000X-0.565000X0.565000X-0.565000X-0.565000X0.565000X-0.565000X0*%
%ADD23C,1.334000*%
%ADD24HorizOval,1.700000X0.000000X0.000000X0.000000X0.000000X0*%
%ADD25RotRect,1.700000X1.700000X300.000000*%
%ADD26O,1.800000X1.800000*%
%ADD27O,1.500000X1.500000*%
G04 APERTURE END LIST*
D10*
X364686349Y-102098191D02*
X364686349Y-102574381D01*
X364400634Y-102002953D02*
X365400634Y-102336286D01*
X365400634Y-102336286D02*
X364400634Y-102669619D01*
X364400634Y-103526762D02*
X364400634Y-102955334D01*
X364400634Y-103241048D02*
X365400634Y-103241048D01*
X365400634Y-103241048D02*
X365257777Y-103145810D01*
X365257777Y-103145810D02*
X365162539Y-103050572D01*
X365162539Y-103050572D02*
X365114920Y-102955334D01*
X365305396Y-103907715D02*
X365353015Y-103955334D01*
X365353015Y-103955334D02*
X365400634Y-104050572D01*
X365400634Y-104050572D02*
X365400634Y-104288667D01*
X365400634Y-104288667D02*
X365353015Y-104383905D01*
X365353015Y-104383905D02*
X365305396Y-104431524D01*
X365305396Y-104431524D02*
X365210158Y-104479143D01*
X365210158Y-104479143D02*
X365114920Y-104479143D01*
X365114920Y-104479143D02*
X364972063Y-104431524D01*
X364972063Y-104431524D02*
X364400634Y-103860096D01*
X364400634Y-103860096D02*
X364400634Y-104479143D01*
X249214349Y-135907714D02*
X249214349Y-136383904D01*
X248928634Y-135812476D02*
X249928634Y-136145809D01*
X249928634Y-136145809D02*
X248928634Y-136479142D01*
X249833396Y-136764857D02*
X249881015Y-136812476D01*
X249881015Y-136812476D02*
X249928634Y-136907714D01*
X249928634Y-136907714D02*
X249928634Y-137145809D01*
X249928634Y-137145809D02*
X249881015Y-137241047D01*
X249881015Y-137241047D02*
X249833396Y-137288666D01*
X249833396Y-137288666D02*
X249738158Y-137336285D01*
X249738158Y-137336285D02*
X249642920Y-137336285D01*
X249642920Y-137336285D02*
X249500063Y-137288666D01*
X249500063Y-137288666D02*
X248928634Y-136717238D01*
X248928634Y-136717238D02*
X248928634Y-137336285D01*
X278082349Y-119241048D02*
X278082349Y-119717238D01*
X277796634Y-119145810D02*
X278796634Y-119479143D01*
X278796634Y-119479143D02*
X277796634Y-119812476D01*
X278463301Y-120574381D02*
X277796634Y-120574381D01*
X278844254Y-120336286D02*
X278129968Y-120098191D01*
X278129968Y-120098191D02*
X278129968Y-120717238D01*
X321384349Y-94241048D02*
X321384349Y-94717238D01*
X321098634Y-94145810D02*
X322098634Y-94479143D01*
X322098634Y-94479143D02*
X321098634Y-94812476D01*
X322098634Y-95050572D02*
X322098634Y-95717238D01*
X322098634Y-95717238D02*
X321098634Y-95288667D01*
X263648349Y-127574381D02*
X263648349Y-128050571D01*
X263362634Y-127479143D02*
X264362634Y-127812476D01*
X264362634Y-127812476D02*
X263362634Y-128145809D01*
X264362634Y-128383905D02*
X264362634Y-129002952D01*
X264362634Y-129002952D02*
X263981682Y-128669619D01*
X263981682Y-128669619D02*
X263981682Y-128812476D01*
X263981682Y-128812476D02*
X263934063Y-128907714D01*
X263934063Y-128907714D02*
X263886444Y-128955333D01*
X263886444Y-128955333D02*
X263791206Y-129002952D01*
X263791206Y-129002952D02*
X263553111Y-129002952D01*
X263553111Y-129002952D02*
X263457873Y-128955333D01*
X263457873Y-128955333D02*
X263410254Y-128907714D01*
X263410254Y-128907714D02*
X263362634Y-128812476D01*
X263362634Y-128812476D02*
X263362634Y-128526762D01*
X263362634Y-128526762D02*
X263410254Y-128431524D01*
X263410254Y-128431524D02*
X263457873Y-128383905D01*
X306950349Y-102574381D02*
X306950349Y-103050571D01*
X306664634Y-102479143D02*
X307664634Y-102812476D01*
X307664634Y-102812476D02*
X306664634Y-103145809D01*
X307664634Y-103907714D02*
X307664634Y-103717238D01*
X307664634Y-103717238D02*
X307617015Y-103622000D01*
X307617015Y-103622000D02*
X307569396Y-103574381D01*
X307569396Y-103574381D02*
X307426539Y-103479143D01*
X307426539Y-103479143D02*
X307236063Y-103431524D01*
X307236063Y-103431524D02*
X306855111Y-103431524D01*
X306855111Y-103431524D02*
X306759873Y-103479143D01*
X306759873Y-103479143D02*
X306712254Y-103526762D01*
X306712254Y-103526762D02*
X306664634Y-103622000D01*
X306664634Y-103622000D02*
X306664634Y-103812476D01*
X306664634Y-103812476D02*
X306712254Y-103907714D01*
X306712254Y-103907714D02*
X306759873Y-103955333D01*
X306759873Y-103955333D02*
X306855111Y-104002952D01*
X306855111Y-104002952D02*
X307093206Y-104002952D01*
X307093206Y-104002952D02*
X307188444Y-103955333D01*
X307188444Y-103955333D02*
X307236063Y-103907714D01*
X307236063Y-103907714D02*
X307283682Y-103812476D01*
X307283682Y-103812476D02*
X307283682Y-103622000D01*
X307283682Y-103622000D02*
X307236063Y-103526762D01*
X307236063Y-103526762D02*
X307188444Y-103479143D01*
X307188444Y-103479143D02*
X307093206Y-103431524D01*
X436856349Y-143764858D02*
X436856349Y-144241048D01*
X436570634Y-143669620D02*
X437570634Y-144002953D01*
X437570634Y-144002953D02*
X436570634Y-144336286D01*
X436570634Y-145193429D02*
X436570634Y-144622001D01*
X436570634Y-144907715D02*
X437570634Y-144907715D01*
X437570634Y-144907715D02*
X437427777Y-144812477D01*
X437427777Y-144812477D02*
X437332539Y-144717239D01*
X437332539Y-144717239D02*
X437284920Y-144622001D01*
X437570634Y-145526763D02*
X437570634Y-146193429D01*
X437570634Y-146193429D02*
X436570634Y-145764858D01*
X234780349Y-144241048D02*
X234780349Y-144717238D01*
X234494634Y-144145810D02*
X235494634Y-144479143D01*
X235494634Y-144479143D02*
X234494634Y-144812476D01*
X234494634Y-145669619D02*
X234494634Y-145098191D01*
X234494634Y-145383905D02*
X235494634Y-145383905D01*
X235494634Y-145383905D02*
X235351777Y-145288667D01*
X235351777Y-145288667D02*
X235256539Y-145193429D01*
X235256539Y-145193429D02*
X235208920Y-145098191D01*
X407988349Y-127098191D02*
X407988349Y-127574381D01*
X407702634Y-127002953D02*
X408702634Y-127336286D01*
X408702634Y-127336286D02*
X407702634Y-127669619D01*
X407702634Y-128526762D02*
X407702634Y-127955334D01*
X407702634Y-128241048D02*
X408702634Y-128241048D01*
X408702634Y-128241048D02*
X408559777Y-128145810D01*
X408559777Y-128145810D02*
X408464539Y-128050572D01*
X408464539Y-128050572D02*
X408416920Y-127955334D01*
X408702634Y-129431524D02*
X408702634Y-128955334D01*
X408702634Y-128955334D02*
X408226444Y-128907715D01*
X408226444Y-128907715D02*
X408274063Y-128955334D01*
X408274063Y-128955334D02*
X408321682Y-129050572D01*
X408321682Y-129050572D02*
X408321682Y-129288667D01*
X408321682Y-129288667D02*
X408274063Y-129383905D01*
X408274063Y-129383905D02*
X408226444Y-129431524D01*
X408226444Y-129431524D02*
X408131206Y-129479143D01*
X408131206Y-129479143D02*
X407893111Y-129479143D01*
X407893111Y-129479143D02*
X407797873Y-129431524D01*
X407797873Y-129431524D02*
X407750254Y-129383905D01*
X407750254Y-129383905D02*
X407702634Y-129288667D01*
X407702634Y-129288667D02*
X407702634Y-129050572D01*
X407702634Y-129050572D02*
X407750254Y-128955334D01*
X407750254Y-128955334D02*
X407797873Y-128907715D01*
X393528295Y-118618024D02*
X393528295Y-119094214D01*
X393242580Y-118522786D02*
X394242580Y-118856119D01*
X394242580Y-118856119D02*
X393242580Y-119189452D01*
X393242580Y-120046595D02*
X393242580Y-119475167D01*
X393242580Y-119760881D02*
X394242580Y-119760881D01*
X394242580Y-119760881D02*
X394099723Y-119665643D01*
X394099723Y-119665643D02*
X394004485Y-119570405D01*
X394004485Y-119570405D02*
X393956866Y-119475167D01*
X393909247Y-120903738D02*
X393242580Y-120903738D01*
X394290200Y-120665643D02*
X393575914Y-120427548D01*
X393575914Y-120427548D02*
X393575914Y-121046595D01*
X422422349Y-135431524D02*
X422422349Y-135907714D01*
X422136634Y-135336286D02*
X423136634Y-135669619D01*
X423136634Y-135669619D02*
X422136634Y-136002952D01*
X422136634Y-136860095D02*
X422136634Y-136288667D01*
X422136634Y-136574381D02*
X423136634Y-136574381D01*
X423136634Y-136574381D02*
X422993777Y-136479143D01*
X422993777Y-136479143D02*
X422898539Y-136383905D01*
X422898539Y-136383905D02*
X422850920Y-136288667D01*
X423136634Y-137717238D02*
X423136634Y-137526762D01*
X423136634Y-137526762D02*
X423089015Y-137431524D01*
X423089015Y-137431524D02*
X423041396Y-137383905D01*
X423041396Y-137383905D02*
X422898539Y-137288667D01*
X422898539Y-137288667D02*
X422708063Y-137241048D01*
X422708063Y-137241048D02*
X422327111Y-137241048D01*
X422327111Y-137241048D02*
X422231873Y-137288667D01*
X422231873Y-137288667D02*
X422184254Y-137336286D01*
X422184254Y-137336286D02*
X422136634Y-137431524D01*
X422136634Y-137431524D02*
X422136634Y-137622000D01*
X422136634Y-137622000D02*
X422184254Y-137717238D01*
X422184254Y-137717238D02*
X422231873Y-137764857D01*
X422231873Y-137764857D02*
X422327111Y-137812476D01*
X422327111Y-137812476D02*
X422565206Y-137812476D01*
X422565206Y-137812476D02*
X422660444Y-137764857D01*
X422660444Y-137764857D02*
X422708063Y-137717238D01*
X422708063Y-137717238D02*
X422755682Y-137622000D01*
X422755682Y-137622000D02*
X422755682Y-137431524D01*
X422755682Y-137431524D02*
X422708063Y-137336286D01*
X422708063Y-137336286D02*
X422660444Y-137288667D01*
X422660444Y-137288667D02*
X422565206Y-137241048D01*
X350252349Y-93764858D02*
X350252349Y-94241048D01*
X349966634Y-93669620D02*
X350966634Y-94002953D01*
X350966634Y-94002953D02*
X349966634Y-94336286D01*
X349966634Y-95193429D02*
X349966634Y-94622001D01*
X349966634Y-94907715D02*
X350966634Y-94907715D01*
X350966634Y-94907715D02*
X350823777Y-94812477D01*
X350823777Y-94812477D02*
X350728539Y-94717239D01*
X350728539Y-94717239D02*
X350680920Y-94622001D01*
X349966634Y-96145810D02*
X349966634Y-95574382D01*
X349966634Y-95860096D02*
X350966634Y-95860096D01*
X350966634Y-95860096D02*
X350823777Y-95764858D01*
X350823777Y-95764858D02*
X350728539Y-95669620D01*
X350728539Y-95669620D02*
X350680920Y-95574382D01*
X335818349Y-85907714D02*
X335818349Y-86383904D01*
X335532634Y-85812476D02*
X336532634Y-86145809D01*
X336532634Y-86145809D02*
X335532634Y-86479142D01*
X336104063Y-86955333D02*
X336151682Y-86860095D01*
X336151682Y-86860095D02*
X336199301Y-86812476D01*
X336199301Y-86812476D02*
X336294539Y-86764857D01*
X336294539Y-86764857D02*
X336342158Y-86764857D01*
X336342158Y-86764857D02*
X336437396Y-86812476D01*
X336437396Y-86812476D02*
X336485015Y-86860095D01*
X336485015Y-86860095D02*
X336532634Y-86955333D01*
X336532634Y-86955333D02*
X336532634Y-87145809D01*
X336532634Y-87145809D02*
X336485015Y-87241047D01*
X336485015Y-87241047D02*
X336437396Y-87288666D01*
X336437396Y-87288666D02*
X336342158Y-87336285D01*
X336342158Y-87336285D02*
X336294539Y-87336285D01*
X336294539Y-87336285D02*
X336199301Y-87288666D01*
X336199301Y-87288666D02*
X336151682Y-87241047D01*
X336151682Y-87241047D02*
X336104063Y-87145809D01*
X336104063Y-87145809D02*
X336104063Y-86955333D01*
X336104063Y-86955333D02*
X336056444Y-86860095D01*
X336056444Y-86860095D02*
X336008825Y-86812476D01*
X336008825Y-86812476D02*
X335913587Y-86764857D01*
X335913587Y-86764857D02*
X335723111Y-86764857D01*
X335723111Y-86764857D02*
X335627873Y-86812476D01*
X335627873Y-86812476D02*
X335580254Y-86860095D01*
X335580254Y-86860095D02*
X335532634Y-86955333D01*
X335532634Y-86955333D02*
X335532634Y-87145809D01*
X335532634Y-87145809D02*
X335580254Y-87241047D01*
X335580254Y-87241047D02*
X335627873Y-87288666D01*
X335627873Y-87288666D02*
X335723111Y-87336285D01*
X335723111Y-87336285D02*
X335913587Y-87336285D01*
X335913587Y-87336285D02*
X336008825Y-87288666D01*
X336008825Y-87288666D02*
X336056444Y-87241047D01*
X336056444Y-87241047D02*
X336104063Y-87145809D01*
X379120349Y-110431524D02*
X379120349Y-110907714D01*
X378834634Y-110336286D02*
X379834634Y-110669619D01*
X379834634Y-110669619D02*
X378834634Y-111002952D01*
X378834634Y-111860095D02*
X378834634Y-111288667D01*
X378834634Y-111574381D02*
X379834634Y-111574381D01*
X379834634Y-111574381D02*
X379691777Y-111479143D01*
X379691777Y-111479143D02*
X379596539Y-111383905D01*
X379596539Y-111383905D02*
X379548920Y-111288667D01*
X379834634Y-112193429D02*
X379834634Y-112812476D01*
X379834634Y-112812476D02*
X379453682Y-112479143D01*
X379453682Y-112479143D02*
X379453682Y-112622000D01*
X379453682Y-112622000D02*
X379406063Y-112717238D01*
X379406063Y-112717238D02*
X379358444Y-112764857D01*
X379358444Y-112764857D02*
X379263206Y-112812476D01*
X379263206Y-112812476D02*
X379025111Y-112812476D01*
X379025111Y-112812476D02*
X378929873Y-112764857D01*
X378929873Y-112764857D02*
X378882254Y-112717238D01*
X378882254Y-112717238D02*
X378834634Y-112622000D01*
X378834634Y-112622000D02*
X378834634Y-112336286D01*
X378834634Y-112336286D02*
X378882254Y-112241048D01*
X378882254Y-112241048D02*
X378929873Y-112193429D01*
X292516349Y-110907714D02*
X292516349Y-111383904D01*
X292230634Y-110812476D02*
X293230634Y-111145809D01*
X293230634Y-111145809D02*
X292230634Y-111479142D01*
X293230634Y-112288666D02*
X293230634Y-111812476D01*
X293230634Y-111812476D02*
X292754444Y-111764857D01*
X292754444Y-111764857D02*
X292802063Y-111812476D01*
X292802063Y-111812476D02*
X292849682Y-111907714D01*
X292849682Y-111907714D02*
X292849682Y-112145809D01*
X292849682Y-112145809D02*
X292802063Y-112241047D01*
X292802063Y-112241047D02*
X292754444Y-112288666D01*
X292754444Y-112288666D02*
X292659206Y-112336285D01*
X292659206Y-112336285D02*
X292421111Y-112336285D01*
X292421111Y-112336285D02*
X292325873Y-112288666D01*
X292325873Y-112288666D02*
X292278254Y-112241047D01*
X292278254Y-112241047D02*
X292230634Y-112145809D01*
X292230634Y-112145809D02*
X292230634Y-111907714D01*
X292230634Y-111907714D02*
X292278254Y-111812476D01*
X292278254Y-111812476D02*
X292325873Y-111764857D01*
%TO.C,A12*%
X370398054Y-97788667D02*
X370398054Y-92788667D01*
X374334421Y-103293012D02*
X364334421Y-103293012D01*
X372898054Y-111446667D02*
X378398054Y-111446667D01*
X362898054Y-111446667D02*
X377898054Y-111446667D01*
X362898054Y-128106667D02*
X377898054Y-128106667D01*
X362898054Y-144766667D02*
X377898054Y-144766667D01*
X362898054Y-161426667D02*
X377898054Y-161426667D01*
X362898054Y-178086667D02*
X377898054Y-178086667D01*
X362898054Y-194746667D02*
X377898054Y-194746667D01*
X362898054Y-211406667D02*
X377898054Y-211406667D01*
X362898054Y-228066667D02*
X377898054Y-228066667D01*
X362898054Y-244726667D02*
X377898054Y-244726667D01*
X362898054Y-261386667D02*
X377898054Y-261386667D01*
X362898054Y-278046667D02*
X377898054Y-278046667D01*
X362898054Y-294706667D02*
X377898054Y-294706667D01*
X362898054Y-311366667D02*
X377898054Y-311366667D01*
X370398054Y-326713667D02*
X370398054Y-331713667D01*
X375398054Y-103292417D02*
X365398054Y-103292417D01*
X365398054Y-103292417D02*
X365398054Y-319888667D01*
X365398054Y-319888667D02*
X375398054Y-319888667D01*
X375398054Y-319888667D02*
X375398054Y-103292417D01*
X372898054Y-108946667D02*
X367898054Y-108946667D01*
X367898054Y-108946667D02*
X367898054Y-113946667D01*
X367898054Y-113946667D02*
X372898054Y-113946667D01*
X372898054Y-113946667D02*
X372898054Y-108946667D01*
X372898054Y-125606667D02*
X367898054Y-125606667D01*
X367898054Y-125606667D02*
X367898054Y-130606667D01*
X367898054Y-130606667D02*
X372898054Y-130606667D01*
X372898054Y-130606667D02*
X372898054Y-125606667D01*
X372898054Y-142266667D02*
X367898054Y-142266667D01*
X367898054Y-142266667D02*
X367898054Y-147266667D01*
X367898054Y-147266667D02*
X372898054Y-147266667D01*
X372898054Y-147266667D02*
X372898054Y-142266667D01*
X372898054Y-158926667D02*
X367898054Y-158926667D01*
X367898054Y-158926667D02*
X367898054Y-163926667D01*
X367898054Y-163926667D02*
X372898054Y-163926667D01*
X372898054Y-163926667D02*
X372898054Y-158926667D01*
X372898054Y-175586667D02*
X367898054Y-175586667D01*
X367898054Y-175586667D02*
X367898054Y-180586667D01*
X367898054Y-180586667D02*
X372898054Y-180586667D01*
X372898054Y-180586667D02*
X372898054Y-175586667D01*
X372898054Y-192246667D02*
X367898054Y-192246667D01*
X367898054Y-192246667D02*
X367898054Y-197246667D01*
X367898054Y-197246667D02*
X372898054Y-197246667D01*
X372898054Y-197246667D02*
X372898054Y-192246667D01*
X372898054Y-208906667D02*
X367898054Y-208906667D01*
X367898054Y-208906667D02*
X367898054Y-213906667D01*
X367898054Y-213906667D02*
X372898054Y-213906667D01*
X372898054Y-213906667D02*
X372898054Y-208906667D01*
X372898054Y-225566667D02*
X367898054Y-225566667D01*
X367898054Y-225566667D02*
X367898054Y-230566667D01*
X367898054Y-230566667D02*
X372898054Y-230566667D01*
X372898054Y-230566667D02*
X372898054Y-225566667D01*
X372898054Y-242226667D02*
X367898054Y-242226667D01*
X367898054Y-242226667D02*
X367898054Y-247226667D01*
X367898054Y-247226667D02*
X372898054Y-247226667D01*
X372898054Y-247226667D02*
X372898054Y-242226667D01*
X372898054Y-258886667D02*
X367898054Y-258886667D01*
X367898054Y-258886667D02*
X367898054Y-263886667D01*
X367898054Y-263886667D02*
X372898054Y-263886667D01*
X372898054Y-263886667D02*
X372898054Y-258886667D01*
X372898054Y-275546667D02*
X367898054Y-275546667D01*
X367898054Y-275546667D02*
X367898054Y-280546667D01*
X367898054Y-280546667D02*
X372898054Y-280546667D01*
X372898054Y-280546667D02*
X372898054Y-275546667D01*
X372898054Y-292206667D02*
X367898054Y-292206667D01*
X367898054Y-292206667D02*
X367898054Y-297206667D01*
X367898054Y-297206667D02*
X372898054Y-297206667D01*
X372898054Y-297206667D02*
X372898054Y-292206667D01*
X372898054Y-308866667D02*
X367898054Y-308866667D01*
X367898054Y-308866667D02*
X367898054Y-313866667D01*
X367898054Y-313866667D02*
X372898054Y-313866667D01*
X372898054Y-313866667D02*
X372898054Y-308866667D01*
%TO.C,A2*%
X254926054Y-131122000D02*
X254926054Y-126122000D01*
X259926054Y-136622000D02*
X249926054Y-136622000D01*
X257426054Y-144780000D02*
X262926054Y-144780000D01*
X247426054Y-144780000D02*
X262426054Y-144780000D01*
X247426054Y-161440000D02*
X262426054Y-161440000D01*
X247426054Y-178100000D02*
X262426054Y-178100000D01*
X247426054Y-194760000D02*
X262426054Y-194760000D01*
X247426054Y-211420000D02*
X262426054Y-211420000D01*
X247426054Y-228080000D02*
X262426054Y-228080000D01*
X247426054Y-244740000D02*
X262426054Y-244740000D01*
X247426054Y-261400000D02*
X262426054Y-261400000D01*
X247426054Y-278060000D02*
X262426054Y-278060000D01*
X254926054Y-293407000D02*
X254926054Y-298407000D01*
X259926054Y-136621772D02*
X249926054Y-136621772D01*
X249926054Y-136621772D02*
X249926054Y-286582000D01*
X249926054Y-286582000D02*
X259926054Y-286582000D01*
X259926054Y-286582000D02*
X259926054Y-136621772D01*
X257426054Y-142280000D02*
X252426054Y-142280000D01*
X252426054Y-142280000D02*
X252426054Y-147280000D01*
X252426054Y-147280000D02*
X257426054Y-147280000D01*
X257426054Y-147280000D02*
X257426054Y-142280000D01*
X257426054Y-158940000D02*
X252426054Y-158940000D01*
X252426054Y-158940000D02*
X252426054Y-163940000D01*
X252426054Y-163940000D02*
X257426054Y-163940000D01*
X257426054Y-163940000D02*
X257426054Y-158940000D01*
X257426054Y-175600000D02*
X252426054Y-175600000D01*
X252426054Y-175600000D02*
X252426054Y-180600000D01*
X252426054Y-180600000D02*
X257426054Y-180600000D01*
X257426054Y-180600000D02*
X257426054Y-175600000D01*
X257426054Y-192260000D02*
X252426054Y-192260000D01*
X252426054Y-192260000D02*
X252426054Y-197260000D01*
X252426054Y-197260000D02*
X257426054Y-197260000D01*
X257426054Y-197260000D02*
X257426054Y-192260000D01*
X257426054Y-208920000D02*
X252426054Y-208920000D01*
X252426054Y-208920000D02*
X252426054Y-213920000D01*
X252426054Y-213920000D02*
X257426054Y-213920000D01*
X257426054Y-213920000D02*
X257426054Y-208920000D01*
X257426054Y-225580000D02*
X252426054Y-225580000D01*
X252426054Y-225580000D02*
X252426054Y-230580000D01*
X252426054Y-230580000D02*
X257426054Y-230580000D01*
X257426054Y-230580000D02*
X257426054Y-225580000D01*
X257426054Y-242240000D02*
X252426054Y-242240000D01*
X252426054Y-242240000D02*
X252426054Y-247240000D01*
X252426054Y-247240000D02*
X257426054Y-247240000D01*
X257426054Y-247240000D02*
X257426054Y-242240000D01*
X257426054Y-258900000D02*
X252426054Y-258900000D01*
X252426054Y-258900000D02*
X252426054Y-263900000D01*
X252426054Y-263900000D02*
X257426054Y-263900000D01*
X257426054Y-263900000D02*
X257426054Y-258900000D01*
X257426054Y-275560000D02*
X252426054Y-275560000D01*
X252426054Y-275560000D02*
X252426054Y-280560000D01*
X252426054Y-280560000D02*
X257426054Y-280560000D01*
X257426054Y-280560000D02*
X257426054Y-275560000D01*
%TO.C,A4*%
X283794054Y-114455334D02*
X283794054Y-109455334D01*
X288794054Y-119955334D02*
X278794054Y-119955334D01*
X286294054Y-128113334D02*
X291794054Y-128113334D01*
X276294054Y-128113334D02*
X291294054Y-128113334D01*
X276294054Y-144773334D02*
X291294054Y-144773334D01*
X276294054Y-161433334D02*
X291294054Y-161433334D01*
X276294054Y-178093334D02*
X291294054Y-178093334D01*
X276294054Y-194753334D02*
X291294054Y-194753334D01*
X276294054Y-211413334D02*
X291294054Y-211413334D01*
X276294054Y-228073334D02*
X291294054Y-228073334D01*
X276294054Y-244733334D02*
X291294054Y-244733334D01*
X276294054Y-261393334D02*
X291294054Y-261393334D01*
X276294054Y-278053334D02*
X291294054Y-278053334D01*
X276294054Y-294713334D02*
X291294054Y-294713334D01*
X283794054Y-310060334D02*
X283794054Y-315060334D01*
X288794054Y-119935334D02*
X278794054Y-119935334D01*
X278794054Y-119935334D02*
X278794054Y-303235334D01*
X278794054Y-303235334D02*
X288794054Y-303235334D01*
X288794054Y-303235334D02*
X288794054Y-119935334D01*
X286294054Y-125613334D02*
X281294054Y-125613334D01*
X281294054Y-125613334D02*
X281294054Y-130613334D01*
X281294054Y-130613334D02*
X286294054Y-130613334D01*
X286294054Y-130613334D02*
X286294054Y-125613334D01*
X286294054Y-142273334D02*
X281294054Y-142273334D01*
X281294054Y-142273334D02*
X281294054Y-147273334D01*
X281294054Y-147273334D02*
X286294054Y-147273334D01*
X286294054Y-147273334D02*
X286294054Y-142273334D01*
X286294054Y-158933334D02*
X281294054Y-158933334D01*
X281294054Y-158933334D02*
X281294054Y-163933334D01*
X281294054Y-163933334D02*
X286294054Y-163933334D01*
X286294054Y-163933334D02*
X286294054Y-158933334D01*
X286294054Y-175593334D02*
X281294054Y-175593334D01*
X281294054Y-175593334D02*
X281294054Y-180593334D01*
X281294054Y-180593334D02*
X286294054Y-180593334D01*
X286294054Y-180593334D02*
X286294054Y-175593334D01*
X286294054Y-192253334D02*
X281294054Y-192253334D01*
X281294054Y-192253334D02*
X281294054Y-197253334D01*
X281294054Y-197253334D02*
X286294054Y-197253334D01*
X286294054Y-197253334D02*
X286294054Y-192253334D01*
X286294054Y-208913334D02*
X281294054Y-208913334D01*
X281294054Y-208913334D02*
X281294054Y-213913334D01*
X281294054Y-213913334D02*
X286294054Y-213913334D01*
X286294054Y-213913334D02*
X286294054Y-208913334D01*
X286294054Y-225573334D02*
X281294054Y-225573334D01*
X281294054Y-225573334D02*
X281294054Y-230573334D01*
X281294054Y-230573334D02*
X286294054Y-230573334D01*
X286294054Y-230573334D02*
X286294054Y-225573334D01*
X286294054Y-242233334D02*
X281294054Y-242233334D01*
X281294054Y-242233334D02*
X281294054Y-247233334D01*
X281294054Y-247233334D02*
X286294054Y-247233334D01*
X286294054Y-247233334D02*
X286294054Y-242233334D01*
X286294054Y-258893334D02*
X281294054Y-258893334D01*
X281294054Y-258893334D02*
X281294054Y-263893334D01*
X281294054Y-263893334D02*
X286294054Y-263893334D01*
X286294054Y-263893334D02*
X286294054Y-258893334D01*
X286294054Y-275553334D02*
X281294054Y-275553334D01*
X281294054Y-275553334D02*
X281294054Y-280553334D01*
X281294054Y-280553334D02*
X286294054Y-280553334D01*
X286294054Y-280553334D02*
X286294054Y-275553334D01*
X286294054Y-292213334D02*
X281294054Y-292213334D01*
X281294054Y-292213334D02*
X281294054Y-297213334D01*
X281294054Y-297213334D02*
X286294054Y-297213334D01*
X286294054Y-297213334D02*
X286294054Y-292213334D01*
%TO.C,A7*%
X327096054Y-89455334D02*
X327096054Y-84455334D01*
X332096054Y-94955334D02*
X322096054Y-94955334D01*
X329596054Y-103113334D02*
X335096054Y-103113334D01*
X319596054Y-103113334D02*
X334596054Y-103113334D01*
X319596054Y-119773334D02*
X334596054Y-119773334D01*
X319596054Y-136433334D02*
X334596054Y-136433334D01*
X319596054Y-153093334D02*
X334596054Y-153093334D01*
X319596054Y-169753334D02*
X334596054Y-169753334D01*
X319596054Y-186413334D02*
X334596054Y-186413334D01*
X319596054Y-203073334D02*
X334596054Y-203073334D01*
X319596054Y-219733334D02*
X334596054Y-219733334D01*
X319596054Y-236393334D02*
X334596054Y-236393334D01*
X319596054Y-253053334D02*
X334596054Y-253053334D01*
X319596054Y-269713334D02*
X334596054Y-269713334D01*
X319596054Y-286373334D02*
X334596054Y-286373334D01*
X319596054Y-303033334D02*
X334596054Y-303033334D01*
X319596054Y-319693334D02*
X334596054Y-319693334D01*
X327096054Y-335040334D02*
X327096054Y-340040334D01*
X332096054Y-94955334D02*
X322096054Y-94955334D01*
X322096054Y-94955334D02*
X322096054Y-328255334D01*
X322096054Y-328255334D02*
X332096054Y-328255334D01*
X332096054Y-328255334D02*
X332096054Y-94955334D01*
X329596054Y-100613334D02*
X324596054Y-100613334D01*
X324596054Y-100613334D02*
X324596054Y-105613334D01*
X324596054Y-105613334D02*
X329596054Y-105613334D01*
X329596054Y-105613334D02*
X329596054Y-100613334D01*
X329596054Y-117273334D02*
X324596054Y-117273334D01*
X324596054Y-117273334D02*
X324596054Y-122273334D01*
X324596054Y-122273334D02*
X329596054Y-122273334D01*
X329596054Y-122273334D02*
X329596054Y-117273334D01*
X329596054Y-133933334D02*
X324596054Y-133933334D01*
X324596054Y-133933334D02*
X324596054Y-138933334D01*
X324596054Y-138933334D02*
X329596054Y-138933334D01*
X329596054Y-138933334D02*
X329596054Y-133933334D01*
X329596054Y-150593334D02*
X324596054Y-150593334D01*
X324596054Y-150593334D02*
X324596054Y-155593334D01*
X324596054Y-155593334D02*
X329596054Y-155593334D01*
X329596054Y-155593334D02*
X329596054Y-150593334D01*
X329596054Y-167253334D02*
X324596054Y-167253334D01*
X324596054Y-167253334D02*
X324596054Y-172253334D01*
X324596054Y-172253334D02*
X329596054Y-172253334D01*
X329596054Y-172253334D02*
X329596054Y-167253334D01*
X329596054Y-183913334D02*
X324596054Y-183913334D01*
X324596054Y-183913334D02*
X324596054Y-188913334D01*
X324596054Y-188913334D02*
X329596054Y-188913334D01*
X329596054Y-188913334D02*
X329596054Y-183913334D01*
X329596054Y-200573334D02*
X324596054Y-200573334D01*
X324596054Y-200573334D02*
X324596054Y-205573334D01*
X324596054Y-205573334D02*
X329596054Y-205573334D01*
X329596054Y-205573334D02*
X329596054Y-200573334D01*
X329596054Y-217233334D02*
X324596054Y-217233334D01*
X324596054Y-217233334D02*
X324596054Y-222233334D01*
X324596054Y-222233334D02*
X329596054Y-222233334D01*
X329596054Y-222233334D02*
X329596054Y-217233334D01*
X329596054Y-233893334D02*
X324596054Y-233893334D01*
X324596054Y-233893334D02*
X324596054Y-238893334D01*
X324596054Y-238893334D02*
X329596054Y-238893334D01*
X329596054Y-238893334D02*
X329596054Y-233893334D01*
X329596054Y-250553334D02*
X324596054Y-250553334D01*
X324596054Y-250553334D02*
X324596054Y-255553334D01*
X324596054Y-255553334D02*
X329596054Y-255553334D01*
X329596054Y-255553334D02*
X329596054Y-250553334D01*
X329596054Y-267213334D02*
X324596054Y-267213334D01*
X324596054Y-267213334D02*
X324596054Y-272213334D01*
X324596054Y-272213334D02*
X329596054Y-272213334D01*
X329596054Y-272213334D02*
X329596054Y-267213334D01*
X329596054Y-283873334D02*
X324596054Y-283873334D01*
X324596054Y-283873334D02*
X324596054Y-288873334D01*
X324596054Y-288873334D02*
X329596054Y-288873334D01*
X329596054Y-288873334D02*
X329596054Y-283873334D01*
X329596054Y-300533334D02*
X324596054Y-300533334D01*
X324596054Y-300533334D02*
X324596054Y-305533334D01*
X324596054Y-305533334D02*
X329596054Y-305533334D01*
X329596054Y-305533334D02*
X329596054Y-300533334D01*
X329596054Y-317193334D02*
X324596054Y-317193334D01*
X324596054Y-317193334D02*
X324596054Y-322193334D01*
X324596054Y-322193334D02*
X329596054Y-322193334D01*
X329596054Y-322193334D02*
X329596054Y-317193334D01*
%TO.C,A3*%
X269360054Y-122788667D02*
X269360054Y-117788667D01*
X274360054Y-128288667D02*
X264360054Y-128288667D01*
X271860054Y-136446667D02*
X277360054Y-136446667D01*
X261860054Y-136446667D02*
X276860054Y-136446667D01*
X261860054Y-153106667D02*
X276860054Y-153106667D01*
X261860054Y-169766667D02*
X276860054Y-169766667D01*
X261860054Y-186426667D02*
X276860054Y-186426667D01*
X261860054Y-203086667D02*
X276860054Y-203086667D01*
X261860054Y-219746667D02*
X276860054Y-219746667D01*
X261860054Y-236406667D02*
X276860054Y-236406667D01*
X261860054Y-253066667D02*
X276860054Y-253066667D01*
X261860054Y-269726667D02*
X276860054Y-269726667D01*
X261860054Y-286386667D02*
X276860054Y-286386667D01*
X269360054Y-301733667D02*
X269360054Y-306733667D01*
X274360054Y-128288667D02*
X264360054Y-128288667D01*
X264360054Y-128288667D02*
X264360054Y-294588667D01*
X264360054Y-294588667D02*
X274360054Y-294588667D01*
X274360054Y-294588667D02*
X274360054Y-128288667D01*
X271860054Y-133946667D02*
X266860054Y-133946667D01*
X266860054Y-133946667D02*
X266860054Y-138946667D01*
X266860054Y-138946667D02*
X271860054Y-138946667D01*
X271860054Y-138946667D02*
X271860054Y-133946667D01*
X271860054Y-150606667D02*
X266860054Y-150606667D01*
X266860054Y-150606667D02*
X266860054Y-155606667D01*
X266860054Y-155606667D02*
X271860054Y-155606667D01*
X271860054Y-155606667D02*
X271860054Y-150606667D01*
X271860054Y-167266667D02*
X266860054Y-167266667D01*
X266860054Y-167266667D02*
X266860054Y-172266667D01*
X266860054Y-172266667D02*
X271860054Y-172266667D01*
X271860054Y-172266667D02*
X271860054Y-167266667D01*
X271860054Y-183926667D02*
X266860054Y-183926667D01*
X266860054Y-183926667D02*
X266860054Y-188926667D01*
X266860054Y-188926667D02*
X271860054Y-188926667D01*
X271860054Y-188926667D02*
X271860054Y-183926667D01*
X271860054Y-200586667D02*
X266860054Y-200586667D01*
X266860054Y-200586667D02*
X266860054Y-205586667D01*
X266860054Y-205586667D02*
X271860054Y-205586667D01*
X271860054Y-205586667D02*
X271860054Y-200586667D01*
X271860054Y-217246667D02*
X266860054Y-217246667D01*
X266860054Y-217246667D02*
X266860054Y-222246667D01*
X266860054Y-222246667D02*
X271860054Y-222246667D01*
X271860054Y-222246667D02*
X271860054Y-217246667D01*
X271860054Y-233906667D02*
X266860054Y-233906667D01*
X266860054Y-233906667D02*
X266860054Y-238906667D01*
X266860054Y-238906667D02*
X271860054Y-238906667D01*
X271860054Y-238906667D02*
X271860054Y-233906667D01*
X271860054Y-250566667D02*
X266860054Y-250566667D01*
X266860054Y-250566667D02*
X266860054Y-255566667D01*
X266860054Y-255566667D02*
X271860054Y-255566667D01*
X271860054Y-255566667D02*
X271860054Y-250566667D01*
X271860054Y-267226667D02*
X266860054Y-267226667D01*
X266860054Y-267226667D02*
X266860054Y-272226667D01*
X266860054Y-272226667D02*
X271860054Y-272226667D01*
X271860054Y-272226667D02*
X271860054Y-267226667D01*
X271860054Y-283886667D02*
X266860054Y-283886667D01*
X266860054Y-283886667D02*
X266860054Y-288886667D01*
X266860054Y-288886667D02*
X271860054Y-288886667D01*
X271860054Y-288886667D02*
X271860054Y-283886667D01*
%TO.C,A6*%
X312662054Y-97788667D02*
X312662054Y-92788667D01*
X316598421Y-103293012D02*
X306598421Y-103293012D01*
X315162054Y-111446667D02*
X320662054Y-111446667D01*
X305162054Y-111446667D02*
X320162054Y-111446667D01*
X305162054Y-128106667D02*
X320162054Y-128106667D01*
X305162054Y-144766667D02*
X320162054Y-144766667D01*
X305162054Y-161426667D02*
X320162054Y-161426667D01*
X305162054Y-178086667D02*
X320162054Y-178086667D01*
X305162054Y-194746667D02*
X320162054Y-194746667D01*
X305162054Y-211406667D02*
X320162054Y-211406667D01*
X305162054Y-228066667D02*
X320162054Y-228066667D01*
X305162054Y-244726667D02*
X320162054Y-244726667D01*
X305162054Y-261386667D02*
X320162054Y-261386667D01*
X305162054Y-278046667D02*
X320162054Y-278046667D01*
X305162054Y-294706667D02*
X320162054Y-294706667D01*
X305162054Y-311366667D02*
X320162054Y-311366667D01*
X312662054Y-326713667D02*
X312662054Y-331713667D01*
X317662054Y-103292417D02*
X307662054Y-103292417D01*
X307662054Y-103292417D02*
X307662054Y-319888667D01*
X307662054Y-319888667D02*
X317662054Y-319888667D01*
X317662054Y-319888667D02*
X317662054Y-103292417D01*
X315162054Y-108946667D02*
X310162054Y-108946667D01*
X310162054Y-108946667D02*
X310162054Y-113946667D01*
X310162054Y-113946667D02*
X315162054Y-113946667D01*
X315162054Y-113946667D02*
X315162054Y-108946667D01*
X315162054Y-125606667D02*
X310162054Y-125606667D01*
X310162054Y-125606667D02*
X310162054Y-130606667D01*
X310162054Y-130606667D02*
X315162054Y-130606667D01*
X315162054Y-130606667D02*
X315162054Y-125606667D01*
X315162054Y-142266667D02*
X310162054Y-142266667D01*
X310162054Y-142266667D02*
X310162054Y-147266667D01*
X310162054Y-147266667D02*
X315162054Y-147266667D01*
X315162054Y-147266667D02*
X315162054Y-142266667D01*
X315162054Y-158926667D02*
X310162054Y-158926667D01*
X310162054Y-158926667D02*
X310162054Y-163926667D01*
X310162054Y-163926667D02*
X315162054Y-163926667D01*
X315162054Y-163926667D02*
X315162054Y-158926667D01*
X315162054Y-175586667D02*
X310162054Y-175586667D01*
X310162054Y-175586667D02*
X310162054Y-180586667D01*
X310162054Y-180586667D02*
X315162054Y-180586667D01*
X315162054Y-180586667D02*
X315162054Y-175586667D01*
X315162054Y-192246667D02*
X310162054Y-192246667D01*
X310162054Y-192246667D02*
X310162054Y-197246667D01*
X310162054Y-197246667D02*
X315162054Y-197246667D01*
X315162054Y-197246667D02*
X315162054Y-192246667D01*
X315162054Y-208906667D02*
X310162054Y-208906667D01*
X310162054Y-208906667D02*
X310162054Y-213906667D01*
X310162054Y-213906667D02*
X315162054Y-213906667D01*
X315162054Y-213906667D02*
X315162054Y-208906667D01*
X315162054Y-225566667D02*
X310162054Y-225566667D01*
X310162054Y-225566667D02*
X310162054Y-230566667D01*
X310162054Y-230566667D02*
X315162054Y-230566667D01*
X315162054Y-230566667D02*
X315162054Y-225566667D01*
X315162054Y-242226667D02*
X310162054Y-242226667D01*
X310162054Y-242226667D02*
X310162054Y-247226667D01*
X310162054Y-247226667D02*
X315162054Y-247226667D01*
X315162054Y-247226667D02*
X315162054Y-242226667D01*
X315162054Y-258886667D02*
X310162054Y-258886667D01*
X310162054Y-258886667D02*
X310162054Y-263886667D01*
X310162054Y-263886667D02*
X315162054Y-263886667D01*
X315162054Y-263886667D02*
X315162054Y-258886667D01*
X315162054Y-275546667D02*
X310162054Y-275546667D01*
X310162054Y-275546667D02*
X310162054Y-280546667D01*
X310162054Y-280546667D02*
X315162054Y-280546667D01*
X315162054Y-280546667D02*
X315162054Y-275546667D01*
X315162054Y-292206667D02*
X310162054Y-292206667D01*
X310162054Y-292206667D02*
X310162054Y-297206667D01*
X310162054Y-297206667D02*
X315162054Y-297206667D01*
X315162054Y-297206667D02*
X315162054Y-292206667D01*
X315162054Y-308866667D02*
X310162054Y-308866667D01*
X310162054Y-308866667D02*
X310162054Y-313866667D01*
X310162054Y-313866667D02*
X315162054Y-313866667D01*
X315162054Y-313866667D02*
X315162054Y-308866667D01*
%TO.C,A17*%
X442568054Y-139455334D02*
X442568054Y-134455334D01*
X447568054Y-144955334D02*
X437568054Y-144955334D01*
X445068054Y-153113334D02*
X450568054Y-153113334D01*
X435068054Y-153113334D02*
X450068054Y-153113334D01*
X435068054Y-169773334D02*
X450068054Y-169773334D01*
X435068054Y-186433334D02*
X450068054Y-186433334D01*
X435068054Y-203093334D02*
X450068054Y-203093334D01*
X435068054Y-219753334D02*
X450068054Y-219753334D01*
X435068054Y-236413334D02*
X450068054Y-236413334D01*
X435068054Y-253073334D02*
X450068054Y-253073334D01*
X435068054Y-269733334D02*
X450068054Y-269733334D01*
X442568054Y-285080334D02*
X442568054Y-290080334D01*
X447568054Y-144955334D02*
X437568054Y-144955334D01*
X437568054Y-144955334D02*
X437568054Y-278255334D01*
X437568054Y-278255334D02*
X447568054Y-278255334D01*
X447568054Y-278255334D02*
X447568054Y-144955334D01*
X445068054Y-150613334D02*
X440068054Y-150613334D01*
X440068054Y-150613334D02*
X440068054Y-155613334D01*
X440068054Y-155613334D02*
X445068054Y-155613334D01*
X445068054Y-155613334D02*
X445068054Y-150613334D01*
X445068054Y-167273334D02*
X440068054Y-167273334D01*
X440068054Y-167273334D02*
X440068054Y-172273334D01*
X440068054Y-172273334D02*
X445068054Y-172273334D01*
X445068054Y-172273334D02*
X445068054Y-167273334D01*
X445068054Y-183933334D02*
X440068054Y-183933334D01*
X440068054Y-183933334D02*
X440068054Y-188933334D01*
X440068054Y-188933334D02*
X445068054Y-188933334D01*
X445068054Y-188933334D02*
X445068054Y-183933334D01*
X445068054Y-200593334D02*
X440068054Y-200593334D01*
X440068054Y-200593334D02*
X440068054Y-205593334D01*
X440068054Y-205593334D02*
X445068054Y-205593334D01*
X445068054Y-205593334D02*
X445068054Y-200593334D01*
X445068054Y-217253334D02*
X440068054Y-217253334D01*
X440068054Y-217253334D02*
X440068054Y-222253334D01*
X440068054Y-222253334D02*
X445068054Y-222253334D01*
X445068054Y-222253334D02*
X445068054Y-217253334D01*
X445068054Y-233913334D02*
X440068054Y-233913334D01*
X440068054Y-233913334D02*
X440068054Y-238913334D01*
X440068054Y-238913334D02*
X445068054Y-238913334D01*
X445068054Y-238913334D02*
X445068054Y-233913334D01*
X445068054Y-250573334D02*
X440068054Y-250573334D01*
X440068054Y-250573334D02*
X440068054Y-255573334D01*
X440068054Y-255573334D02*
X445068054Y-255573334D01*
X445068054Y-255573334D02*
X445068054Y-250573334D01*
X445068054Y-267233334D02*
X440068054Y-267233334D01*
X440068054Y-267233334D02*
X440068054Y-272233334D01*
X440068054Y-272233334D02*
X445068054Y-272233334D01*
X445068054Y-272233334D02*
X445068054Y-267233334D01*
%TO.C,A1*%
X240492054Y-139455334D02*
X240492054Y-134455334D01*
X245492054Y-144955334D02*
X235492054Y-144955334D01*
X242992054Y-153113334D02*
X248492054Y-153113334D01*
X232992054Y-153113334D02*
X247992054Y-153113334D01*
X232992054Y-169773334D02*
X247992054Y-169773334D01*
X232992054Y-186433334D02*
X247992054Y-186433334D01*
X232992054Y-203093334D02*
X247992054Y-203093334D01*
X232992054Y-219753334D02*
X247992054Y-219753334D01*
X232992054Y-236413334D02*
X247992054Y-236413334D01*
X232992054Y-253073334D02*
X247992054Y-253073334D01*
X232992054Y-269733334D02*
X247992054Y-269733334D01*
X240492054Y-285080334D02*
X240492054Y-290080334D01*
X245492054Y-144955334D02*
X235492054Y-144955334D01*
X235492054Y-144955334D02*
X235492054Y-278255334D01*
X235492054Y-278255334D02*
X245492054Y-278255334D01*
X245492054Y-278255334D02*
X245492054Y-144955334D01*
X242992054Y-150613334D02*
X237992054Y-150613334D01*
X237992054Y-150613334D02*
X237992054Y-155613334D01*
X237992054Y-155613334D02*
X242992054Y-155613334D01*
X242992054Y-155613334D02*
X242992054Y-150613334D01*
X242992054Y-167273334D02*
X237992054Y-167273334D01*
X237992054Y-167273334D02*
X237992054Y-172273334D01*
X237992054Y-172273334D02*
X242992054Y-172273334D01*
X242992054Y-172273334D02*
X242992054Y-167273334D01*
X242992054Y-183933334D02*
X237992054Y-183933334D01*
X237992054Y-183933334D02*
X237992054Y-188933334D01*
X237992054Y-188933334D02*
X242992054Y-188933334D01*
X242992054Y-188933334D02*
X242992054Y-183933334D01*
X242992054Y-200593334D02*
X237992054Y-200593334D01*
X237992054Y-200593334D02*
X237992054Y-205593334D01*
X237992054Y-205593334D02*
X242992054Y-205593334D01*
X242992054Y-205593334D02*
X242992054Y-200593334D01*
X242992054Y-217253334D02*
X237992054Y-217253334D01*
X237992054Y-217253334D02*
X237992054Y-222253334D01*
X237992054Y-222253334D02*
X242992054Y-222253334D01*
X242992054Y-222253334D02*
X242992054Y-217253334D01*
X242992054Y-233913334D02*
X237992054Y-233913334D01*
X237992054Y-233913334D02*
X237992054Y-238913334D01*
X237992054Y-238913334D02*
X242992054Y-238913334D01*
X242992054Y-238913334D02*
X242992054Y-233913334D01*
X242992054Y-250573334D02*
X237992054Y-250573334D01*
X237992054Y-250573334D02*
X237992054Y-255573334D01*
X237992054Y-255573334D02*
X242992054Y-255573334D01*
X242992054Y-255573334D02*
X242992054Y-250573334D01*
X242992054Y-267233334D02*
X237992054Y-267233334D01*
X237992054Y-267233334D02*
X237992054Y-272233334D01*
X237992054Y-272233334D02*
X242992054Y-272233334D01*
X242992054Y-272233334D02*
X242992054Y-267233334D01*
%TO.C,A15*%
X413700054Y-122788667D02*
X413700054Y-117788667D01*
X418700054Y-128288667D02*
X408700054Y-128288667D01*
X416200054Y-136446667D02*
X421700054Y-136446667D01*
X406200054Y-136446667D02*
X421200054Y-136446667D01*
X406200054Y-153106667D02*
X421200054Y-153106667D01*
X406200054Y-169766667D02*
X421200054Y-169766667D01*
X406200054Y-186426667D02*
X421200054Y-186426667D01*
X406200054Y-203086667D02*
X421200054Y-203086667D01*
X406200054Y-219746667D02*
X421200054Y-219746667D01*
X406200054Y-236406667D02*
X421200054Y-236406667D01*
X406200054Y-253066667D02*
X421200054Y-253066667D01*
X406200054Y-269726667D02*
X421200054Y-269726667D01*
X406200054Y-286386667D02*
X421200054Y-286386667D01*
X413700054Y-301733667D02*
X413700054Y-306733667D01*
X418700054Y-128288667D02*
X408700054Y-128288667D01*
X408700054Y-128288667D02*
X408700054Y-294588667D01*
X408700054Y-294588667D02*
X418700054Y-294588667D01*
X418700054Y-294588667D02*
X418700054Y-128288667D01*
X416200054Y-133946667D02*
X411200054Y-133946667D01*
X411200054Y-133946667D02*
X411200054Y-138946667D01*
X411200054Y-138946667D02*
X416200054Y-138946667D01*
X416200054Y-138946667D02*
X416200054Y-133946667D01*
X416200054Y-150606667D02*
X411200054Y-150606667D01*
X411200054Y-150606667D02*
X411200054Y-155606667D01*
X411200054Y-155606667D02*
X416200054Y-155606667D01*
X416200054Y-155606667D02*
X416200054Y-150606667D01*
X416200054Y-167266667D02*
X411200054Y-167266667D01*
X411200054Y-167266667D02*
X411200054Y-172266667D01*
X411200054Y-172266667D02*
X416200054Y-172266667D01*
X416200054Y-172266667D02*
X416200054Y-167266667D01*
X416200054Y-183926667D02*
X411200054Y-183926667D01*
X411200054Y-183926667D02*
X411200054Y-188926667D01*
X411200054Y-188926667D02*
X416200054Y-188926667D01*
X416200054Y-188926667D02*
X416200054Y-183926667D01*
X416200054Y-200586667D02*
X411200054Y-200586667D01*
X411200054Y-200586667D02*
X411200054Y-205586667D01*
X411200054Y-205586667D02*
X416200054Y-205586667D01*
X416200054Y-205586667D02*
X416200054Y-200586667D01*
X416200054Y-217246667D02*
X411200054Y-217246667D01*
X411200054Y-217246667D02*
X411200054Y-222246667D01*
X411200054Y-222246667D02*
X416200054Y-222246667D01*
X416200054Y-222246667D02*
X416200054Y-217246667D01*
X416200054Y-233906667D02*
X411200054Y-233906667D01*
X411200054Y-233906667D02*
X411200054Y-238906667D01*
X411200054Y-238906667D02*
X416200054Y-238906667D01*
X416200054Y-238906667D02*
X416200054Y-233906667D01*
X416200054Y-250566667D02*
X411200054Y-250566667D01*
X411200054Y-250566667D02*
X411200054Y-255566667D01*
X411200054Y-255566667D02*
X416200054Y-255566667D01*
X416200054Y-255566667D02*
X416200054Y-250566667D01*
X416200054Y-267226667D02*
X411200054Y-267226667D01*
X411200054Y-267226667D02*
X411200054Y-272226667D01*
X411200054Y-272226667D02*
X416200054Y-272226667D01*
X416200054Y-272226667D02*
X416200054Y-267226667D01*
X416200054Y-283886667D02*
X411200054Y-283886667D01*
X411200054Y-283886667D02*
X411200054Y-288886667D01*
X411200054Y-288886667D02*
X416200054Y-288886667D01*
X416200054Y-288886667D02*
X416200054Y-283886667D01*
%TO.C,A14*%
X399240000Y-114308500D02*
X399240000Y-109308500D01*
X404240000Y-119808500D02*
X394240000Y-119808500D01*
X401740000Y-127966500D02*
X407240000Y-127966500D01*
X391740000Y-127966500D02*
X406740000Y-127966500D01*
X391740000Y-144626500D02*
X406740000Y-144626500D01*
X391740000Y-161286500D02*
X406740000Y-161286500D01*
X391740000Y-177946500D02*
X406740000Y-177946500D01*
X391740000Y-194606500D02*
X406740000Y-194606500D01*
X391740000Y-211266500D02*
X406740000Y-211266500D01*
X391740000Y-227926500D02*
X406740000Y-227926500D01*
X391740000Y-244586500D02*
X406740000Y-244586500D01*
X391740000Y-261246500D02*
X406740000Y-261246500D01*
X391740000Y-277906500D02*
X406740000Y-277906500D01*
X391740000Y-294566500D02*
X406740000Y-294566500D01*
X399240000Y-309913500D02*
X399240000Y-314913500D01*
X404240000Y-119788500D02*
X394240000Y-119788500D01*
X394240000Y-119788500D02*
X394240000Y-303088500D01*
X394240000Y-303088500D02*
X404240000Y-303088500D01*
X404240000Y-303088500D02*
X404240000Y-119788500D01*
X401740000Y-125466500D02*
X396740000Y-125466500D01*
X396740000Y-125466500D02*
X396740000Y-130466500D01*
X396740000Y-130466500D02*
X401740000Y-130466500D01*
X401740000Y-130466500D02*
X401740000Y-125466500D01*
X401740000Y-142126500D02*
X396740000Y-142126500D01*
X396740000Y-142126500D02*
X396740000Y-147126500D01*
X396740000Y-147126500D02*
X401740000Y-147126500D01*
X401740000Y-147126500D02*
X401740000Y-142126500D01*
X401740000Y-158786500D02*
X396740000Y-158786500D01*
X396740000Y-158786500D02*
X396740000Y-163786500D01*
X396740000Y-163786500D02*
X401740000Y-163786500D01*
X401740000Y-163786500D02*
X401740000Y-158786500D01*
X401740000Y-175446500D02*
X396740000Y-175446500D01*
X396740000Y-175446500D02*
X396740000Y-180446500D01*
X396740000Y-180446500D02*
X401740000Y-180446500D01*
X401740000Y-180446500D02*
X401740000Y-175446500D01*
X401740000Y-192106500D02*
X396740000Y-192106500D01*
X396740000Y-192106500D02*
X396740000Y-197106500D01*
X396740000Y-197106500D02*
X401740000Y-197106500D01*
X401740000Y-197106500D02*
X401740000Y-192106500D01*
X401740000Y-208766500D02*
X396740000Y-208766500D01*
X396740000Y-208766500D02*
X396740000Y-213766500D01*
X396740000Y-213766500D02*
X401740000Y-213766500D01*
X401740000Y-213766500D02*
X401740000Y-208766500D01*
X401740000Y-225426500D02*
X396740000Y-225426500D01*
X396740000Y-225426500D02*
X396740000Y-230426500D01*
X396740000Y-230426500D02*
X401740000Y-230426500D01*
X401740000Y-230426500D02*
X401740000Y-225426500D01*
X401740000Y-242086500D02*
X396740000Y-242086500D01*
X396740000Y-242086500D02*
X396740000Y-247086500D01*
X396740000Y-247086500D02*
X401740000Y-247086500D01*
X401740000Y-247086500D02*
X401740000Y-242086500D01*
X401740000Y-258746500D02*
X396740000Y-258746500D01*
X396740000Y-258746500D02*
X396740000Y-263746500D01*
X396740000Y-263746500D02*
X401740000Y-263746500D01*
X401740000Y-263746500D02*
X401740000Y-258746500D01*
X401740000Y-275406500D02*
X396740000Y-275406500D01*
X396740000Y-275406500D02*
X396740000Y-280406500D01*
X396740000Y-280406500D02*
X401740000Y-280406500D01*
X401740000Y-280406500D02*
X401740000Y-275406500D01*
X401740000Y-292066500D02*
X396740000Y-292066500D01*
X396740000Y-292066500D02*
X396740000Y-297066500D01*
X396740000Y-297066500D02*
X401740000Y-297066500D01*
X401740000Y-297066500D02*
X401740000Y-292066500D01*
%TO.C,A16*%
X428134054Y-131122000D02*
X428134054Y-126122000D01*
X433134054Y-136622000D02*
X423134054Y-136622000D01*
X430634054Y-144780000D02*
X436134054Y-144780000D01*
X420634054Y-144780000D02*
X435634054Y-144780000D01*
X420634054Y-161440000D02*
X435634054Y-161440000D01*
X420634054Y-178100000D02*
X435634054Y-178100000D01*
X420634054Y-194760000D02*
X435634054Y-194760000D01*
X420634054Y-211420000D02*
X435634054Y-211420000D01*
X420634054Y-228080000D02*
X435634054Y-228080000D01*
X420634054Y-244740000D02*
X435634054Y-244740000D01*
X420634054Y-261400000D02*
X435634054Y-261400000D01*
X420634054Y-278060000D02*
X435634054Y-278060000D01*
X428134054Y-293407000D02*
X428134054Y-298407000D01*
X433134054Y-136621772D02*
X423134054Y-136621772D01*
X423134054Y-136621772D02*
X423134054Y-286582000D01*
X423134054Y-286582000D02*
X433134054Y-286582000D01*
X433134054Y-286582000D02*
X433134054Y-136621772D01*
X430634054Y-142280000D02*
X425634054Y-142280000D01*
X425634054Y-142280000D02*
X425634054Y-147280000D01*
X425634054Y-147280000D02*
X430634054Y-147280000D01*
X430634054Y-147280000D02*
X430634054Y-142280000D01*
X430634054Y-158940000D02*
X425634054Y-158940000D01*
X425634054Y-158940000D02*
X425634054Y-163940000D01*
X425634054Y-163940000D02*
X430634054Y-163940000D01*
X430634054Y-163940000D02*
X430634054Y-158940000D01*
X430634054Y-175600000D02*
X425634054Y-175600000D01*
X425634054Y-175600000D02*
X425634054Y-180600000D01*
X425634054Y-180600000D02*
X430634054Y-180600000D01*
X430634054Y-180600000D02*
X430634054Y-175600000D01*
X430634054Y-192260000D02*
X425634054Y-192260000D01*
X425634054Y-192260000D02*
X425634054Y-197260000D01*
X425634054Y-197260000D02*
X430634054Y-197260000D01*
X430634054Y-197260000D02*
X430634054Y-192260000D01*
X430634054Y-208920000D02*
X425634054Y-208920000D01*
X425634054Y-208920000D02*
X425634054Y-213920000D01*
X425634054Y-213920000D02*
X430634054Y-213920000D01*
X430634054Y-213920000D02*
X430634054Y-208920000D01*
X430634054Y-225580000D02*
X425634054Y-225580000D01*
X425634054Y-225580000D02*
X425634054Y-230580000D01*
X425634054Y-230580000D02*
X430634054Y-230580000D01*
X430634054Y-230580000D02*
X430634054Y-225580000D01*
X430634054Y-242240000D02*
X425634054Y-242240000D01*
X425634054Y-242240000D02*
X425634054Y-247240000D01*
X425634054Y-247240000D02*
X430634054Y-247240000D01*
X430634054Y-247240000D02*
X430634054Y-242240000D01*
X430634054Y-258900000D02*
X425634054Y-258900000D01*
X425634054Y-258900000D02*
X425634054Y-263900000D01*
X425634054Y-263900000D02*
X430634054Y-263900000D01*
X430634054Y-263900000D02*
X430634054Y-258900000D01*
X430634054Y-275560000D02*
X425634054Y-275560000D01*
X425634054Y-275560000D02*
X425634054Y-280560000D01*
X425634054Y-280560000D02*
X430634054Y-280560000D01*
X430634054Y-280560000D02*
X430634054Y-275560000D01*
%TO.C,A11*%
X355964054Y-89455334D02*
X355964054Y-84455334D01*
X360964054Y-94955334D02*
X350964054Y-94955334D01*
X358464054Y-103113334D02*
X363964054Y-103113334D01*
X348464054Y-103113334D02*
X363464054Y-103113334D01*
X348464054Y-119773334D02*
X363464054Y-119773334D01*
X348464054Y-136433334D02*
X363464054Y-136433334D01*
X348464054Y-153093334D02*
X363464054Y-153093334D01*
X348464054Y-169753334D02*
X363464054Y-169753334D01*
X348464054Y-186413334D02*
X363464054Y-186413334D01*
X348464054Y-203073334D02*
X363464054Y-203073334D01*
X348464054Y-219733334D02*
X363464054Y-219733334D01*
X348464054Y-236393334D02*
X363464054Y-236393334D01*
X348464054Y-253053334D02*
X363464054Y-253053334D01*
X348464054Y-269713334D02*
X363464054Y-269713334D01*
X348464054Y-286373334D02*
X363464054Y-286373334D01*
X348464054Y-303033334D02*
X363464054Y-303033334D01*
X348464054Y-319693334D02*
X363464054Y-319693334D01*
X355964054Y-335040334D02*
X355964054Y-340040334D01*
X360964054Y-94955334D02*
X350964054Y-94955334D01*
X350964054Y-94955334D02*
X350964054Y-328255334D01*
X350964054Y-328255334D02*
X360964054Y-328255334D01*
X360964054Y-328255334D02*
X360964054Y-94955334D01*
X358464054Y-100613334D02*
X353464054Y-100613334D01*
X353464054Y-100613334D02*
X353464054Y-105613334D01*
X353464054Y-105613334D02*
X358464054Y-105613334D01*
X358464054Y-105613334D02*
X358464054Y-100613334D01*
X358464054Y-117273334D02*
X353464054Y-117273334D01*
X353464054Y-117273334D02*
X353464054Y-122273334D01*
X353464054Y-122273334D02*
X358464054Y-122273334D01*
X358464054Y-122273334D02*
X358464054Y-117273334D01*
X358464054Y-133933334D02*
X353464054Y-133933334D01*
X353464054Y-133933334D02*
X353464054Y-138933334D01*
X353464054Y-138933334D02*
X358464054Y-138933334D01*
X358464054Y-138933334D02*
X358464054Y-133933334D01*
X358464054Y-150593334D02*
X353464054Y-150593334D01*
X353464054Y-150593334D02*
X353464054Y-155593334D01*
X353464054Y-155593334D02*
X358464054Y-155593334D01*
X358464054Y-155593334D02*
X358464054Y-150593334D01*
X358464054Y-167253334D02*
X353464054Y-167253334D01*
X353464054Y-167253334D02*
X353464054Y-172253334D01*
X353464054Y-172253334D02*
X358464054Y-172253334D01*
X358464054Y-172253334D02*
X358464054Y-167253334D01*
X358464054Y-183913334D02*
X353464054Y-183913334D01*
X353464054Y-183913334D02*
X353464054Y-188913334D01*
X353464054Y-188913334D02*
X358464054Y-188913334D01*
X358464054Y-188913334D02*
X358464054Y-183913334D01*
X358464054Y-200573334D02*
X353464054Y-200573334D01*
X353464054Y-200573334D02*
X353464054Y-205573334D01*
X353464054Y-205573334D02*
X358464054Y-205573334D01*
X358464054Y-205573334D02*
X358464054Y-200573334D01*
X358464054Y-217233334D02*
X353464054Y-217233334D01*
X353464054Y-217233334D02*
X353464054Y-222233334D01*
X353464054Y-222233334D02*
X358464054Y-222233334D01*
X358464054Y-222233334D02*
X358464054Y-217233334D01*
X358464054Y-233893334D02*
X353464054Y-233893334D01*
X353464054Y-233893334D02*
X353464054Y-238893334D01*
X353464054Y-238893334D02*
X358464054Y-238893334D01*
X358464054Y-238893334D02*
X358464054Y-233893334D01*
X358464054Y-250553334D02*
X353464054Y-250553334D01*
X353464054Y-250553334D02*
X353464054Y-255553334D01*
X353464054Y-255553334D02*
X358464054Y-255553334D01*
X358464054Y-255553334D02*
X358464054Y-250553334D01*
X358464054Y-267213334D02*
X353464054Y-267213334D01*
X353464054Y-267213334D02*
X353464054Y-272213334D01*
X353464054Y-272213334D02*
X358464054Y-272213334D01*
X358464054Y-272213334D02*
X358464054Y-267213334D01*
X358464054Y-283873334D02*
X353464054Y-283873334D01*
X353464054Y-283873334D02*
X353464054Y-288873334D01*
X353464054Y-288873334D02*
X358464054Y-288873334D01*
X358464054Y-288873334D02*
X358464054Y-283873334D01*
X358464054Y-300533334D02*
X353464054Y-300533334D01*
X353464054Y-300533334D02*
X353464054Y-305533334D01*
X353464054Y-305533334D02*
X358464054Y-305533334D01*
X358464054Y-305533334D02*
X358464054Y-300533334D01*
X358464054Y-317193334D02*
X353464054Y-317193334D01*
X353464054Y-317193334D02*
X353464054Y-322193334D01*
X353464054Y-322193334D02*
X358464054Y-322193334D01*
X358464054Y-322193334D02*
X358464054Y-317193334D01*
%TO.C,A8*%
X341530054Y-81122000D02*
X341530054Y-76122000D01*
X346530054Y-86622000D02*
X336530054Y-86622000D01*
X344030054Y-94780000D02*
X349530054Y-94780000D01*
X334030054Y-94780000D02*
X349030054Y-94780000D01*
X334030054Y-111440000D02*
X349030054Y-111440000D01*
X334030054Y-128100000D02*
X349030054Y-128100000D01*
X334030054Y-144760000D02*
X349030054Y-144760000D01*
X334030054Y-161420000D02*
X349030054Y-161420000D01*
X334030054Y-178080000D02*
X349030054Y-178080000D01*
X334030054Y-194740000D02*
X349030054Y-194740000D01*
X334030054Y-211400000D02*
X349030054Y-211400000D01*
X334030054Y-228060000D02*
X349030054Y-228060000D01*
X334030054Y-244720000D02*
X349030054Y-244720000D01*
X334030054Y-261380000D02*
X349030054Y-261380000D01*
X334030054Y-278040000D02*
X349030054Y-278040000D01*
X334030054Y-294700000D02*
X349030054Y-294700000D01*
X334030054Y-311360000D02*
X349030054Y-311360000D01*
X334030054Y-328020000D02*
X349030054Y-328020000D01*
X341530054Y-343367000D02*
X341530054Y-348367000D01*
X346530054Y-86620425D02*
X336530054Y-86620425D01*
X336530054Y-86620425D02*
X336530054Y-336542000D01*
X336530054Y-336542000D02*
X346530054Y-336542000D01*
X346530054Y-336542000D02*
X346530054Y-86620425D01*
X344030054Y-92280000D02*
X339030054Y-92280000D01*
X339030054Y-92280000D02*
X339030054Y-97280000D01*
X339030054Y-97280000D02*
X344030054Y-97280000D01*
X344030054Y-97280000D02*
X344030054Y-92280000D01*
X344030054Y-108940000D02*
X339030054Y-108940000D01*
X339030054Y-108940000D02*
X339030054Y-113940000D01*
X339030054Y-113940000D02*
X344030054Y-113940000D01*
X344030054Y-113940000D02*
X344030054Y-108940000D01*
X344030054Y-125600000D02*
X339030054Y-125600000D01*
X339030054Y-125600000D02*
X339030054Y-130600000D01*
X339030054Y-130600000D02*
X344030054Y-130600000D01*
X344030054Y-130600000D02*
X344030054Y-125600000D01*
X344030054Y-142260000D02*
X339030054Y-142260000D01*
X339030054Y-142260000D02*
X339030054Y-147260000D01*
X339030054Y-147260000D02*
X344030054Y-147260000D01*
X344030054Y-147260000D02*
X344030054Y-142260000D01*
X344030054Y-158920000D02*
X339030054Y-158920000D01*
X339030054Y-158920000D02*
X339030054Y-163920000D01*
X339030054Y-163920000D02*
X344030054Y-163920000D01*
X344030054Y-163920000D02*
X344030054Y-158920000D01*
X344030054Y-175580000D02*
X339030054Y-175580000D01*
X339030054Y-175580000D02*
X339030054Y-180580000D01*
X339030054Y-180580000D02*
X344030054Y-180580000D01*
X344030054Y-180580000D02*
X344030054Y-175580000D01*
X344030054Y-192240000D02*
X339030054Y-192240000D01*
X339030054Y-192240000D02*
X339030054Y-197240000D01*
X339030054Y-197240000D02*
X344030054Y-197240000D01*
X344030054Y-197240000D02*
X344030054Y-192240000D01*
X344030054Y-208900000D02*
X339030054Y-208900000D01*
X339030054Y-208900000D02*
X339030054Y-213900000D01*
X339030054Y-213900000D02*
X344030054Y-213900000D01*
X344030054Y-213900000D02*
X344030054Y-208900000D01*
X344030054Y-225560000D02*
X339030054Y-225560000D01*
X339030054Y-225560000D02*
X339030054Y-230560000D01*
X339030054Y-230560000D02*
X344030054Y-230560000D01*
X344030054Y-230560000D02*
X344030054Y-225560000D01*
X344030054Y-242220000D02*
X339030054Y-242220000D01*
X339030054Y-242220000D02*
X339030054Y-247220000D01*
X339030054Y-247220000D02*
X344030054Y-247220000D01*
X344030054Y-247220000D02*
X344030054Y-242220000D01*
X344030054Y-258880000D02*
X339030054Y-258880000D01*
X339030054Y-258880000D02*
X339030054Y-263880000D01*
X339030054Y-263880000D02*
X344030054Y-263880000D01*
X344030054Y-263880000D02*
X344030054Y-258880000D01*
X344030054Y-275540000D02*
X339030054Y-275540000D01*
X339030054Y-275540000D02*
X339030054Y-280540000D01*
X339030054Y-280540000D02*
X344030054Y-280540000D01*
X344030054Y-280540000D02*
X344030054Y-275540000D01*
X344030054Y-292200000D02*
X339030054Y-292200000D01*
X339030054Y-292200000D02*
X339030054Y-297200000D01*
X339030054Y-297200000D02*
X344030054Y-297200000D01*
X344030054Y-297200000D02*
X344030054Y-292200000D01*
X344030054Y-308860000D02*
X339030054Y-308860000D01*
X339030054Y-308860000D02*
X339030054Y-313860000D01*
X339030054Y-313860000D02*
X344030054Y-313860000D01*
X344030054Y-313860000D02*
X344030054Y-308860000D01*
X344030054Y-325520000D02*
X339030054Y-325520000D01*
X339030054Y-325520000D02*
X339030054Y-330520000D01*
X339030054Y-330520000D02*
X344030054Y-330520000D01*
X344030054Y-330520000D02*
X344030054Y-325520000D01*
%TO.C,A13*%
X384832054Y-106122000D02*
X384832054Y-101122000D01*
X389832054Y-111622000D02*
X379832054Y-111622000D01*
X387332054Y-119780000D02*
X392832054Y-119780000D01*
X377332054Y-119780000D02*
X392332054Y-119780000D01*
X377332054Y-136440000D02*
X392332054Y-136440000D01*
X377332054Y-153100000D02*
X392332054Y-153100000D01*
X377332054Y-169760000D02*
X392332054Y-169760000D01*
X377332054Y-186420000D02*
X392332054Y-186420000D01*
X377332054Y-203080000D02*
X392332054Y-203080000D01*
X377332054Y-219740000D02*
X392332054Y-219740000D01*
X377332054Y-236400000D02*
X392332054Y-236400000D01*
X377332054Y-253060000D02*
X392332054Y-253060000D01*
X377332054Y-269720000D02*
X392332054Y-269720000D01*
X377332054Y-286380000D02*
X392332054Y-286380000D01*
X377332054Y-303040000D02*
X392332054Y-303040000D01*
X384832054Y-318387000D02*
X384832054Y-323387000D01*
X389832054Y-111620757D02*
X379832054Y-111620757D01*
X379832054Y-111620757D02*
X379832054Y-311562000D01*
X379832054Y-311562000D02*
X389832054Y-311562000D01*
X389832054Y-311562000D02*
X389832054Y-111620757D01*
X387332054Y-117280000D02*
X382332054Y-117280000D01*
X382332054Y-117280000D02*
X382332054Y-122280000D01*
X382332054Y-122280000D02*
X387332054Y-122280000D01*
X387332054Y-122280000D02*
X387332054Y-117280000D01*
X387332054Y-133940000D02*
X382332054Y-133940000D01*
X382332054Y-133940000D02*
X382332054Y-138940000D01*
X382332054Y-138940000D02*
X387332054Y-138940000D01*
X387332054Y-138940000D02*
X387332054Y-133940000D01*
X387332054Y-150600000D02*
X382332054Y-150600000D01*
X382332054Y-150600000D02*
X382332054Y-155600000D01*
X382332054Y-155600000D02*
X387332054Y-155600000D01*
X387332054Y-155600000D02*
X387332054Y-150600000D01*
X387332054Y-167260000D02*
X382332054Y-167260000D01*
X382332054Y-167260000D02*
X382332054Y-172260000D01*
X382332054Y-172260000D02*
X387332054Y-172260000D01*
X387332054Y-172260000D02*
X387332054Y-167260000D01*
X387332054Y-183920000D02*
X382332054Y-183920000D01*
X382332054Y-183920000D02*
X382332054Y-188920000D01*
X382332054Y-188920000D02*
X387332054Y-188920000D01*
X387332054Y-188920000D02*
X387332054Y-183920000D01*
X387332054Y-200580000D02*
X382332054Y-200580000D01*
X382332054Y-200580000D02*
X382332054Y-205580000D01*
X382332054Y-205580000D02*
X387332054Y-205580000D01*
X387332054Y-205580000D02*
X387332054Y-200580000D01*
X387332054Y-217240000D02*
X382332054Y-217240000D01*
X382332054Y-217240000D02*
X382332054Y-222240000D01*
X382332054Y-222240000D02*
X387332054Y-222240000D01*
X387332054Y-222240000D02*
X387332054Y-217240000D01*
X387332054Y-233900000D02*
X382332054Y-233900000D01*
X382332054Y-233900000D02*
X382332054Y-238900000D01*
X382332054Y-238900000D02*
X387332054Y-238900000D01*
X387332054Y-238900000D02*
X387332054Y-233900000D01*
X387332054Y-250560000D02*
X382332054Y-250560000D01*
X382332054Y-250560000D02*
X382332054Y-255560000D01*
X382332054Y-255560000D02*
X387332054Y-255560000D01*
X387332054Y-255560000D02*
X387332054Y-250560000D01*
X387332054Y-267220000D02*
X382332054Y-267220000D01*
X382332054Y-267220000D02*
X382332054Y-272220000D01*
X382332054Y-272220000D02*
X387332054Y-272220000D01*
X387332054Y-272220000D02*
X387332054Y-267220000D01*
X387332054Y-283880000D02*
X382332054Y-283880000D01*
X382332054Y-283880000D02*
X382332054Y-288880000D01*
X382332054Y-288880000D02*
X387332054Y-288880000D01*
X387332054Y-288880000D02*
X387332054Y-283880000D01*
X387332054Y-300540000D02*
X382332054Y-300540000D01*
X382332054Y-300540000D02*
X382332054Y-305540000D01*
X382332054Y-305540000D02*
X387332054Y-305540000D01*
X387332054Y-305540000D02*
X387332054Y-300540000D01*
%TO.C,A5*%
X298228054Y-106122000D02*
X298228054Y-101122000D01*
X303228054Y-111622000D02*
X293228054Y-111622000D01*
X300728054Y-119780000D02*
X306228054Y-119780000D01*
X290728054Y-119780000D02*
X305728054Y-119780000D01*
X290728054Y-136440000D02*
X305728054Y-136440000D01*
X290728054Y-153100000D02*
X305728054Y-153100000D01*
X290728054Y-169760000D02*
X305728054Y-169760000D01*
X290728054Y-186420000D02*
X305728054Y-186420000D01*
X290728054Y-203080000D02*
X305728054Y-203080000D01*
X290728054Y-219740000D02*
X305728054Y-219740000D01*
X290728054Y-236400000D02*
X305728054Y-236400000D01*
X290728054Y-253060000D02*
X305728054Y-253060000D01*
X290728054Y-269720000D02*
X305728054Y-269720000D01*
X290728054Y-286380000D02*
X305728054Y-286380000D01*
X290728054Y-303040000D02*
X305728054Y-303040000D01*
X298228054Y-318387000D02*
X298228054Y-323387000D01*
X303228054Y-111620757D02*
X293228054Y-111620757D01*
X293228054Y-111620757D02*
X293228054Y-311562000D01*
X293228054Y-311562000D02*
X303228054Y-311562000D01*
X303228054Y-311562000D02*
X303228054Y-111620757D01*
X300728054Y-117280000D02*
X295728054Y-117280000D01*
X295728054Y-117280000D02*
X295728054Y-122280000D01*
X295728054Y-122280000D02*
X300728054Y-122280000D01*
X300728054Y-122280000D02*
X300728054Y-117280000D01*
X300728054Y-133940000D02*
X295728054Y-133940000D01*
X295728054Y-133940000D02*
X295728054Y-138940000D01*
X295728054Y-138940000D02*
X300728054Y-138940000D01*
X300728054Y-138940000D02*
X300728054Y-133940000D01*
X300728054Y-150600000D02*
X295728054Y-150600000D01*
X295728054Y-150600000D02*
X295728054Y-155600000D01*
X295728054Y-155600000D02*
X300728054Y-155600000D01*
X300728054Y-155600000D02*
X300728054Y-150600000D01*
X300728054Y-167260000D02*
X295728054Y-167260000D01*
X295728054Y-167260000D02*
X295728054Y-172260000D01*
X295728054Y-172260000D02*
X300728054Y-172260000D01*
X300728054Y-172260000D02*
X300728054Y-167260000D01*
X300728054Y-183920000D02*
X295728054Y-183920000D01*
X295728054Y-183920000D02*
X295728054Y-188920000D01*
X295728054Y-188920000D02*
X300728054Y-188920000D01*
X300728054Y-188920000D02*
X300728054Y-183920000D01*
X300728054Y-200580000D02*
X295728054Y-200580000D01*
X295728054Y-200580000D02*
X295728054Y-205580000D01*
X295728054Y-205580000D02*
X300728054Y-205580000D01*
X300728054Y-205580000D02*
X300728054Y-200580000D01*
X300728054Y-217240000D02*
X295728054Y-217240000D01*
X295728054Y-217240000D02*
X295728054Y-222240000D01*
X295728054Y-222240000D02*
X300728054Y-222240000D01*
X300728054Y-222240000D02*
X300728054Y-217240000D01*
X300728054Y-233900000D02*
X295728054Y-233900000D01*
X295728054Y-233900000D02*
X295728054Y-238900000D01*
X295728054Y-238900000D02*
X300728054Y-238900000D01*
X300728054Y-238900000D02*
X300728054Y-233900000D01*
X300728054Y-250560000D02*
X295728054Y-250560000D01*
X295728054Y-250560000D02*
X295728054Y-255560000D01*
X295728054Y-255560000D02*
X300728054Y-255560000D01*
X300728054Y-255560000D02*
X300728054Y-250560000D01*
X300728054Y-267220000D02*
X295728054Y-267220000D01*
X295728054Y-267220000D02*
X295728054Y-272220000D01*
X295728054Y-272220000D02*
X300728054Y-272220000D01*
X300728054Y-272220000D02*
X300728054Y-267220000D01*
X300728054Y-283880000D02*
X295728054Y-283880000D01*
X295728054Y-283880000D02*
X295728054Y-288880000D01*
X295728054Y-288880000D02*
X300728054Y-288880000D01*
X300728054Y-288880000D02*
X300728054Y-283880000D01*
X300728054Y-300540000D02*
X295728054Y-300540000D01*
X295728054Y-300540000D02*
X295728054Y-305540000D01*
X295728054Y-305540000D02*
X300728054Y-305540000D01*
X300728054Y-305540000D02*
X300728054Y-300540000D01*
%TD*%
%LPC*%
D11*
%TO.C,U2*%
X224790000Y-234950000D03*
X224790000Y-237490000D03*
X224790000Y-240030000D03*
X224790000Y-242570000D03*
X224790000Y-245110000D03*
X224790000Y-247650000D03*
X224790000Y-250190000D03*
X224790000Y-252730000D03*
X224790000Y-252730000D03*
X224790000Y-255270000D03*
X224790000Y-257810000D03*
X224790000Y-260350000D03*
X224790000Y-262890000D03*
X224790000Y-265430000D03*
X214630000Y-234950000D03*
X214630000Y-237490000D03*
X214630000Y-240030000D03*
X214630000Y-242570000D03*
X214630000Y-245110000D03*
X214630000Y-247650000D03*
X214630000Y-250190000D03*
X214630000Y-252730000D03*
X214630000Y-255270000D03*
X214630000Y-257810000D03*
X214630000Y-260350000D03*
X214630000Y-262890000D03*
X214630000Y-265430000D03*
%TD*%
D12*
%TO.C,A12*%
X367398054Y-102860167D03*
X370398054Y-102860167D03*
X373398054Y-102860167D03*
D13*
X367398054Y-320182167D03*
X370398054Y-320182167D03*
X373398054Y-320182167D03*
D14*
X373398054Y-99446667D03*
X370398054Y-99446667D03*
X367398054Y-99446667D03*
X373398054Y-324746667D03*
X370398054Y-324746667D03*
X367398054Y-324746667D03*
%TD*%
D12*
%TO.C,A2*%
X251926054Y-136193500D03*
X254926054Y-136193500D03*
X257926054Y-136193500D03*
D13*
X251926054Y-286875500D03*
X254926054Y-286875500D03*
X257926054Y-286875500D03*
D14*
X257926054Y-132780000D03*
X254926054Y-132780000D03*
X251926054Y-132780000D03*
X257926054Y-291440000D03*
X254926054Y-291440000D03*
X251926054Y-291440000D03*
%TD*%
D12*
%TO.C,A4*%
X280794054Y-119526834D03*
X283794054Y-119526834D03*
X286794054Y-119526834D03*
D13*
X280794054Y-303528834D03*
X283794054Y-303528834D03*
X286794054Y-303528834D03*
D14*
X286794054Y-116113334D03*
X283794054Y-116113334D03*
X280794054Y-116113334D03*
X286794054Y-308093334D03*
X283794054Y-308093334D03*
X280794054Y-308093334D03*
%TD*%
D12*
%TO.C,A7*%
X324096054Y-94526834D03*
X327096054Y-94526834D03*
X330096054Y-94526834D03*
D13*
X324096054Y-328508834D03*
X327096054Y-328508834D03*
X330096054Y-328508834D03*
D14*
X330096054Y-91113334D03*
X327096054Y-91113334D03*
X324096054Y-91113334D03*
X330096054Y-333073334D03*
X327096054Y-333073334D03*
X324096054Y-333073334D03*
%TD*%
D12*
%TO.C,A3*%
X266360054Y-127860167D03*
X269360054Y-127860167D03*
X272360054Y-127860167D03*
D13*
X266360054Y-295202167D03*
X269360054Y-295202167D03*
X272360054Y-295202167D03*
D14*
X272360054Y-124446667D03*
X269360054Y-124446667D03*
X266360054Y-124446667D03*
X272360054Y-299766667D03*
X269360054Y-299766667D03*
X266360054Y-299766667D03*
%TD*%
D12*
%TO.C,A6*%
X309662054Y-102860167D03*
X312662054Y-102860167D03*
X315662054Y-102860167D03*
D13*
X309662054Y-320182167D03*
X312662054Y-320182167D03*
X315662054Y-320182167D03*
D14*
X315662054Y-99446667D03*
X312662054Y-99446667D03*
X309662054Y-99446667D03*
X315662054Y-324746667D03*
X312662054Y-324746667D03*
X309662054Y-324746667D03*
%TD*%
%TO.C,A17*%
X445568054Y-141113334D03*
X442568054Y-141113334D03*
X439568054Y-141113334D03*
X445568054Y-283113334D03*
X442568054Y-283113334D03*
X439568054Y-283113334D03*
D12*
X439568054Y-144526834D03*
X442568054Y-144526834D03*
X445568054Y-144526834D03*
D13*
X439568054Y-278548834D03*
X442568054Y-278548834D03*
X445568054Y-278548834D03*
%TD*%
D14*
%TO.C,A1*%
X243492054Y-141113334D03*
X240492054Y-141113334D03*
X237492054Y-141113334D03*
X243492054Y-283113334D03*
X240492054Y-283113334D03*
X237492054Y-283113334D03*
D12*
X237492054Y-144526834D03*
X240492054Y-144526834D03*
X243492054Y-144526834D03*
D13*
X237492054Y-278548834D03*
X240492054Y-278548834D03*
X243492054Y-278548834D03*
%TD*%
D12*
%TO.C,A15*%
X410700054Y-127860167D03*
X413700054Y-127860167D03*
X416700054Y-127860167D03*
D13*
X410700054Y-295202167D03*
X413700054Y-295202167D03*
X416700054Y-295202167D03*
D14*
X416700054Y-124446667D03*
X413700054Y-124446667D03*
X410700054Y-124446667D03*
X416700054Y-299766667D03*
X413700054Y-299766667D03*
X410700054Y-299766667D03*
%TD*%
D12*
%TO.C,A14*%
X396240000Y-119380000D03*
X399240000Y-119380000D03*
X402240000Y-119380000D03*
D13*
X396240000Y-303382000D03*
X399240000Y-303382000D03*
X402240000Y-303382000D03*
D14*
X402240000Y-115966500D03*
X399240000Y-115966500D03*
X396240000Y-115966500D03*
X402240000Y-307946500D03*
X399240000Y-307946500D03*
X396240000Y-307946500D03*
%TD*%
D12*
%TO.C,A16*%
X425134054Y-136193500D03*
X428134054Y-136193500D03*
X431134054Y-136193500D03*
D13*
X425134054Y-286875500D03*
X428134054Y-286875500D03*
X431134054Y-286875500D03*
D14*
X431134054Y-132780000D03*
X428134054Y-132780000D03*
X425134054Y-132780000D03*
X431134054Y-291440000D03*
X428134054Y-291440000D03*
X425134054Y-291440000D03*
%TD*%
D12*
%TO.C,A11*%
X352964054Y-94526834D03*
X355964054Y-94526834D03*
X358964054Y-94526834D03*
D13*
X352964054Y-328508834D03*
X355964054Y-328508834D03*
X358964054Y-328508834D03*
D14*
X358964054Y-91113334D03*
X355964054Y-91113334D03*
X352964054Y-91113334D03*
X358964054Y-333073334D03*
X355964054Y-333073334D03*
X352964054Y-333073334D03*
%TD*%
D12*
%TO.C,A8*%
X338530054Y-86193500D03*
X341530054Y-86193500D03*
X344530054Y-86193500D03*
D13*
X338530054Y-336835500D03*
X341530054Y-336835500D03*
X344530054Y-336835500D03*
D14*
X344530054Y-82780000D03*
X341530054Y-82780000D03*
X338530054Y-82780000D03*
X344530054Y-341400000D03*
X341530054Y-341400000D03*
X338530054Y-341400000D03*
%TD*%
D12*
%TO.C,A13*%
X381832054Y-111193500D03*
X384832054Y-111193500D03*
X387832054Y-111193500D03*
D13*
X381832054Y-311855500D03*
X384832054Y-311855500D03*
X387832054Y-311855500D03*
D14*
X387832054Y-107780000D03*
X384832054Y-107780000D03*
X381832054Y-107780000D03*
X387832054Y-316420000D03*
X384832054Y-316420000D03*
X381832054Y-316420000D03*
%TD*%
D12*
%TO.C,A5*%
X295228054Y-111193500D03*
X298228054Y-111193500D03*
X301228054Y-111193500D03*
D13*
X295228054Y-311855500D03*
X298228054Y-311855500D03*
X301228054Y-311855500D03*
D14*
X301228054Y-107780000D03*
X298228054Y-107780000D03*
X295228054Y-107780000D03*
X301228054Y-316420000D03*
X298228054Y-316420000D03*
X295228054Y-316420000D03*
%TD*%
D15*
%TO.C,J1*%
X406400000Y-199390000D03*
D16*
X406400000Y-196850000D03*
X406400000Y-194310000D03*
X406400000Y-191770000D03*
X406400000Y-189230000D03*
X406400000Y-186690000D03*
X406400000Y-184150000D03*
X406400000Y-181610000D03*
X406400000Y-179070000D03*
X406400000Y-176530000D03*
X406400000Y-173990000D03*
X406400000Y-171450000D03*
X406400000Y-168910000D03*
X406400000Y-166370000D03*
X406400000Y-163830000D03*
X406400000Y-161290000D03*
X406400000Y-158750000D03*
X406400000Y-156210000D03*
X406400000Y-153670000D03*
X406400000Y-151130000D03*
%TD*%
D15*
%TO.C,RTC1*%
X377190000Y-189230000D03*
D16*
X377190000Y-191770000D03*
X377190000Y-194310000D03*
X377190000Y-196850000D03*
X377190000Y-199390000D03*
X377190000Y-201930000D03*
%TD*%
D15*
%TO.C,LED_DATA_IN1*%
X242570000Y-129540000D03*
%TD*%
D17*
%TO.C,J7*%
X386513339Y-95431368D03*
X388713044Y-96701368D03*
X390912748Y-97971368D03*
X393112453Y-99241368D03*
X395312157Y-100511368D03*
X397511862Y-101781368D03*
X399711566Y-103051368D03*
X401911271Y-104321368D03*
X404110975Y-105591368D03*
X406310680Y-106861368D03*
X408510384Y-108131368D03*
X410710089Y-109401368D03*
X412909793Y-110671368D03*
X415109498Y-111941368D03*
X417309202Y-113211368D03*
D18*
X419508907Y-114481368D03*
%TD*%
D15*
%TO.C,STEPPER_1-4*%
X452120000Y-246380000D03*
D16*
X452120000Y-248920000D03*
X452120000Y-251460000D03*
X452120000Y-254000000D03*
X452120000Y-256540000D03*
X452120000Y-259080000D03*
X452120000Y-261620000D03*
X452120000Y-264160000D03*
%TD*%
D17*
%TO.C,J4*%
X263550664Y-308411173D03*
X265750369Y-309681173D03*
X267950073Y-310951173D03*
X270149778Y-312221173D03*
X272349482Y-313491173D03*
X274549187Y-314761173D03*
X276748891Y-316031173D03*
X278948596Y-317301173D03*
X281148300Y-318571173D03*
X283348005Y-319841173D03*
X285547709Y-321111173D03*
X287747414Y-322381173D03*
X289947118Y-323651173D03*
X292146823Y-324921173D03*
X294346527Y-326191173D03*
D18*
X296546232Y-327461173D03*
%TD*%
D16*
%TO.C,J3*%
X464493692Y-230497106D03*
X464493692Y-227957106D03*
X464493692Y-225417106D03*
X464493692Y-222877106D03*
X464493692Y-220337106D03*
X464493692Y-217797106D03*
X464493692Y-215257106D03*
X464493692Y-212717106D03*
X464493692Y-210177106D03*
X464493692Y-207637106D03*
X464493692Y-205097106D03*
X464493692Y-202557106D03*
X464493692Y-200017106D03*
X464493692Y-197477106D03*
X464493692Y-194937106D03*
D15*
X464493692Y-192397106D03*
%TD*%
D16*
%TO.C,J5*%
X218566052Y-230496439D03*
X218566052Y-227956439D03*
X218566052Y-225416439D03*
X218566052Y-222876439D03*
X218566052Y-220336439D03*
X218566052Y-217796439D03*
X218566052Y-215256439D03*
X218566052Y-212716439D03*
X218566052Y-210176439D03*
X218566052Y-207636439D03*
X218566052Y-205096439D03*
X218566052Y-202556439D03*
X218566052Y-200016439D03*
X218566052Y-197476439D03*
X218566052Y-194936439D03*
D15*
X218566052Y-192396439D03*
%TD*%
%TO.C,J2*%
X421640000Y-151130000D03*
D16*
X421640000Y-153670000D03*
X421640000Y-156210000D03*
X421640000Y-158750000D03*
X421640000Y-161290000D03*
X421640000Y-163830000D03*
X421640000Y-166370000D03*
X421640000Y-168910000D03*
X421640000Y-171450000D03*
X421640000Y-173990000D03*
X421640000Y-176530000D03*
X421640000Y-179070000D03*
X421640000Y-181610000D03*
X421640000Y-184150000D03*
X421640000Y-186690000D03*
X421640000Y-189230000D03*
X421640000Y-191770000D03*
X421640000Y-194310000D03*
X421640000Y-196850000D03*
X421640000Y-199390000D03*
%TD*%
D19*
%TO.C,J30*%
X245570000Y-289443848D03*
D20*
X242570000Y-294640000D03*
D21*
X239999681Y-289691924D03*
%TD*%
D18*
%TO.C,AmbientLightSensor1*%
X363514705Y-90805000D03*
D17*
X361315000Y-89535000D03*
X359115296Y-88265000D03*
X356915591Y-86995000D03*
X354715887Y-85725000D03*
%TD*%
D15*
%TO.C,MAX98357*%
X377190000Y-158750000D03*
D16*
X377190000Y-161290000D03*
X377190000Y-163830000D03*
X377190000Y-166370000D03*
X377190000Y-168910000D03*
X377190000Y-171450000D03*
X377190000Y-173990000D03*
%TD*%
D22*
%TO.C,U1*%
X463550000Y-238760000D03*
D23*
X463550000Y-241300000D03*
X463550000Y-243840000D03*
X463550000Y-246380000D03*
X463550000Y-248920000D03*
X463550000Y-251460000D03*
X463550000Y-254000000D03*
X463550000Y-256540000D03*
X463550000Y-259080000D03*
X463550000Y-261620000D03*
X455610000Y-261620000D03*
X455610000Y-259080000D03*
X455610000Y-256540000D03*
X455610000Y-254000000D03*
X455610000Y-251460000D03*
X455610000Y-248920000D03*
X455610000Y-246380000D03*
X455610000Y-243840000D03*
X455610000Y-241300000D03*
X455610000Y-238760000D03*
%TD*%
D15*
%TO.C,LED_DATA_OUT1*%
X453390000Y-279400000D03*
%TD*%
D24*
%TO.C,J8*%
X419509543Y-308412485D03*
X417309838Y-309682485D03*
X415110134Y-310952485D03*
X412910429Y-312222485D03*
X410710725Y-313492485D03*
X408511020Y-314762485D03*
X406311316Y-316032485D03*
X404111611Y-317302485D03*
X401911907Y-318572485D03*
X399712202Y-319842485D03*
X397512498Y-321112485D03*
X395312793Y-322382485D03*
X393113089Y-323652485D03*
X390913384Y-324922485D03*
X388713680Y-326192485D03*
D25*
X386513975Y-327462485D03*
%TD*%
D24*
%TO.C,J6*%
X296546160Y-95431217D03*
X294346455Y-96701217D03*
X292146751Y-97971217D03*
X289947046Y-99241217D03*
X287747342Y-100511217D03*
X285547637Y-101781217D03*
X283347933Y-103051217D03*
X281148228Y-104321217D03*
X278948524Y-105591217D03*
X276748819Y-106861217D03*
X274549115Y-108131217D03*
X272349410Y-109401217D03*
X270149706Y-110671217D03*
X267950001Y-111941217D03*
X265750297Y-113211217D03*
D25*
X263550592Y-114481217D03*
%TD*%
%TO.C,I2CBreakout1*%
X316910591Y-85090000D03*
D24*
X319110296Y-83820000D03*
X321310000Y-82550000D03*
X323509705Y-81280000D03*
%TD*%
D15*
%TO.C,Keypad1*%
X231140000Y-255270000D03*
D16*
X231140000Y-252730000D03*
X231140000Y-250190000D03*
X231140000Y-247650000D03*
X231140000Y-245110000D03*
X231140000Y-242570000D03*
X231140000Y-240030000D03*
%TD*%
D26*
%TO.C,PicoProbe1*%
X226485000Y-139325000D03*
D27*
X226185000Y-142355000D03*
X221335000Y-142355000D03*
D26*
X221035000Y-139325000D03*
D16*
X232650000Y-139195000D03*
X232650000Y-141735000D03*
D15*
X232650000Y-144275000D03*
D16*
X232650000Y-146815000D03*
X232650000Y-149355000D03*
X232650000Y-151895000D03*
X232650000Y-154435000D03*
D15*
X232650000Y-156975000D03*
D16*
X232650000Y-159515000D03*
X232650000Y-162055000D03*
X232650000Y-164595000D03*
X232650000Y-167135000D03*
D15*
X232650000Y-169675000D03*
D16*
X232650000Y-172215000D03*
X232650000Y-174755000D03*
X232650000Y-177295000D03*
X232650000Y-179835000D03*
D15*
X232650000Y-182375000D03*
D16*
X232650000Y-184915000D03*
X232650000Y-187455000D03*
X214870000Y-187455000D03*
X214870000Y-184915000D03*
D15*
X214870000Y-182375000D03*
D16*
X214870000Y-179835000D03*
X214870000Y-177295000D03*
X214870000Y-174755000D03*
X214870000Y-172215000D03*
D15*
X214870000Y-169675000D03*
D16*
X214870000Y-167135000D03*
X214870000Y-164595000D03*
X214870000Y-162055000D03*
X214870000Y-159515000D03*
D15*
X214870000Y-156975000D03*
D16*
X214870000Y-154435000D03*
X214870000Y-151895000D03*
X214870000Y-149355000D03*
X214870000Y-146815000D03*
D15*
X214870000Y-144275000D03*
D16*
X214870000Y-141735000D03*
X214870000Y-139195000D03*
X226300000Y-187225000D03*
D15*
X223760000Y-187225000D03*
D16*
X221220000Y-187225000D03*
%TD*%
D15*
%TO.C,STEPPER_4-8*%
X467360000Y-246380000D03*
D16*
X467360000Y-248920000D03*
X467360000Y-251460000D03*
X467360000Y-254000000D03*
X467360000Y-256540000D03*
X467360000Y-259080000D03*
X467360000Y-261620000D03*
X467360000Y-264160000D03*
%TD*%
D15*
%TO.C,MAX98357_BREAKOUT1*%
X349250000Y-166370000D03*
D16*
X349250000Y-168910000D03*
X349250000Y-171450000D03*
X349250000Y-173990000D03*
%TD*%
D26*
%TO.C,MasterControlPico1*%
X461195000Y-138560000D03*
D27*
X460895000Y-141590000D03*
X456045000Y-141590000D03*
D26*
X455745000Y-138560000D03*
D16*
X467360000Y-138430000D03*
X467360000Y-140970000D03*
D15*
X467360000Y-143510000D03*
D16*
X467360000Y-146050000D03*
X467360000Y-148590000D03*
X467360000Y-151130000D03*
X467360000Y-153670000D03*
D15*
X467360000Y-156210000D03*
D16*
X467360000Y-158750000D03*
X467360000Y-161290000D03*
X467360000Y-163830000D03*
X467360000Y-166370000D03*
D15*
X467360000Y-168910000D03*
D16*
X467360000Y-171450000D03*
X467360000Y-173990000D03*
X467360000Y-176530000D03*
X467360000Y-179070000D03*
D15*
X467360000Y-181610000D03*
D16*
X467360000Y-184150000D03*
X467360000Y-186690000D03*
X449580000Y-186690000D03*
X449580000Y-184150000D03*
D15*
X449580000Y-181610000D03*
D16*
X449580000Y-179070000D03*
X449580000Y-176530000D03*
X449580000Y-173990000D03*
X449580000Y-171450000D03*
D15*
X449580000Y-168910000D03*
D16*
X449580000Y-166370000D03*
X449580000Y-163830000D03*
X449580000Y-161290000D03*
X449580000Y-158750000D03*
D15*
X449580000Y-156210000D03*
D16*
X449580000Y-153670000D03*
X449580000Y-151130000D03*
X449580000Y-148590000D03*
X449580000Y-146050000D03*
D15*
X449580000Y-143510000D03*
D16*
X449580000Y-140970000D03*
X449580000Y-138430000D03*
X457885900Y-168160000D03*
D15*
X455345900Y-168160000D03*
D16*
X452805900Y-168160000D03*
%TD*%
%LPD*%
M02*
