%TF.GenerationSoftware,KiCad,Pcbnew,7.0.9*%
%TF.CreationDate,2024-01-04T11:10:08-06:00*%
%TF.ProjectId,HexDisplayPCB,48657844-6973-4706-9c61-795043422e6b,rev?*%
%TF.SameCoordinates,Original*%
%TF.FileFunction,Paste,Top*%
%TF.FilePolarity,Positive*%
%FSLAX46Y46*%
G04 Gerber Fmt 4.6, Leading zero omitted, Abs format (unit mm)*
G04 Created by KiCad (PCBNEW 7.0.9) date 2024-01-04 11:10:08*
%MOMM*%
%LPD*%
G01*
G04 APERTURE LIST*
G04 Aperture macros list*
%AMRoundRect*
0 Rectangle with rounded corners*
0 $1 Rounding radius*
0 $2 $3 $4 $5 $6 $7 $8 $9 X,Y pos of 4 corners*
0 Add a 4 corners polygon primitive as box body*
4,1,4,$2,$3,$4,$5,$6,$7,$8,$9,$2,$3,0*
0 Add four circle primitives for the rounded corners*
1,1,$1+$1,$2,$3*
1,1,$1+$1,$4,$5*
1,1,$1+$1,$6,$7*
1,1,$1+$1,$8,$9*
0 Add four rect primitives between the rounded corners*
20,1,$1+$1,$2,$3,$4,$5,0*
20,1,$1+$1,$4,$5,$6,$7,0*
20,1,$1+$1,$6,$7,$8,$9,0*
20,1,$1+$1,$8,$9,$2,$3,0*%
G04 Aperture macros list end*
%ADD10RoundRect,0.381000X-0.381000X1.190500X-0.381000X-1.190500X0.381000X-1.190500X0.381000X1.190500X0*%
%ADD11RoundRect,0.381000X-0.381000X1.025500X-0.381000X-1.025500X0.381000X-1.025500X0.381000X1.025500X0*%
G04 APERTURE END LIST*
D10*
%TO.C,A12*%
X367398054Y-102860167D03*
X370398054Y-102860167D03*
X373398054Y-102860167D03*
D11*
X367398054Y-320182167D03*
X370398054Y-320182167D03*
X373398054Y-320182167D03*
%TD*%
D10*
%TO.C,A2*%
X251926054Y-136193500D03*
X254926054Y-136193500D03*
X257926054Y-136193500D03*
D11*
X251926054Y-286875500D03*
X254926054Y-286875500D03*
X257926054Y-286875500D03*
%TD*%
D10*
%TO.C,A4*%
X280794054Y-119526834D03*
X283794054Y-119526834D03*
X286794054Y-119526834D03*
D11*
X280794054Y-303528834D03*
X283794054Y-303528834D03*
X286794054Y-303528834D03*
%TD*%
D10*
%TO.C,A7*%
X324096054Y-94526834D03*
X327096054Y-94526834D03*
X330096054Y-94526834D03*
D11*
X324096054Y-328508834D03*
X327096054Y-328508834D03*
X330096054Y-328508834D03*
%TD*%
D10*
%TO.C,A3*%
X266360054Y-127860167D03*
X269360054Y-127860167D03*
X272360054Y-127860167D03*
D11*
X266360054Y-295202167D03*
X269360054Y-295202167D03*
X272360054Y-295202167D03*
%TD*%
D10*
%TO.C,A6*%
X309662054Y-102860167D03*
X312662054Y-102860167D03*
X315662054Y-102860167D03*
D11*
X309662054Y-320182167D03*
X312662054Y-320182167D03*
X315662054Y-320182167D03*
%TD*%
D10*
%TO.C,A17*%
X439568054Y-144526834D03*
X442568054Y-144526834D03*
X445568054Y-144526834D03*
D11*
X439568054Y-278548834D03*
X442568054Y-278548834D03*
X445568054Y-278548834D03*
%TD*%
D10*
%TO.C,A1*%
X237492054Y-144526834D03*
X240492054Y-144526834D03*
X243492054Y-144526834D03*
D11*
X237492054Y-278548834D03*
X240492054Y-278548834D03*
X243492054Y-278548834D03*
%TD*%
D10*
%TO.C,A15*%
X410700054Y-127860167D03*
X413700054Y-127860167D03*
X416700054Y-127860167D03*
D11*
X410700054Y-295202167D03*
X413700054Y-295202167D03*
X416700054Y-295202167D03*
%TD*%
D10*
%TO.C,A14*%
X396240000Y-119380000D03*
X399240000Y-119380000D03*
X402240000Y-119380000D03*
D11*
X396240000Y-303382000D03*
X399240000Y-303382000D03*
X402240000Y-303382000D03*
%TD*%
D10*
%TO.C,A16*%
X425134054Y-136193500D03*
X428134054Y-136193500D03*
X431134054Y-136193500D03*
D11*
X425134054Y-286875500D03*
X428134054Y-286875500D03*
X431134054Y-286875500D03*
%TD*%
D10*
%TO.C,A11*%
X352964054Y-94526834D03*
X355964054Y-94526834D03*
X358964054Y-94526834D03*
D11*
X352964054Y-328508834D03*
X355964054Y-328508834D03*
X358964054Y-328508834D03*
%TD*%
D10*
%TO.C,A8*%
X338530054Y-86193500D03*
X341530054Y-86193500D03*
X344530054Y-86193500D03*
D11*
X338530054Y-336835500D03*
X341530054Y-336835500D03*
X344530054Y-336835500D03*
%TD*%
D10*
%TO.C,A13*%
X381832054Y-111193500D03*
X384832054Y-111193500D03*
X387832054Y-111193500D03*
D11*
X381832054Y-311855500D03*
X384832054Y-311855500D03*
X387832054Y-311855500D03*
%TD*%
D10*
%TO.C,A5*%
X295228054Y-111193500D03*
X298228054Y-111193500D03*
X301228054Y-111193500D03*
D11*
X295228054Y-311855500D03*
X298228054Y-311855500D03*
X301228054Y-311855500D03*
%TD*%
M02*
