%TF.GenerationSoftware,KiCad,Pcbnew,7.0.9*%
%TF.CreationDate,2024-01-04T11:10:08-06:00*%
%TF.ProjectId,HexDisplayPCB,48657844-6973-4706-9c61-795043422e6b,rev?*%
%TF.SameCoordinates,Original*%
%TF.FileFunction,Copper,L2,Bot*%
%TF.FilePolarity,Positive*%
%FSLAX46Y46*%
G04 Gerber Fmt 4.6, Leading zero omitted, Abs format (unit mm)*
G04 Created by KiCad (PCBNEW 7.0.9) date 2024-01-04 11:10:08*
%MOMM*%
%LPD*%
G01*
G04 APERTURE LIST*
G04 Aperture macros list*
%AMRoundRect*
0 Rectangle with rounded corners*
0 $1 Rounding radius*
0 $2 $3 $4 $5 $6 $7 $8 $9 X,Y pos of 4 corners*
0 Add a 4 corners polygon primitive as box body*
4,1,4,$2,$3,$4,$5,$6,$7,$8,$9,$2,$3,0*
0 Add four circle primitives for the rounded corners*
1,1,$1+$1,$2,$3*
1,1,$1+$1,$4,$5*
1,1,$1+$1,$6,$7*
1,1,$1+$1,$8,$9*
0 Add four rect primitives between the rounded corners*
20,1,$1+$1,$2,$3,$4,$5,0*
20,1,$1+$1,$4,$5,$6,$7,0*
20,1,$1+$1,$6,$7,$8,$9,0*
20,1,$1+$1,$8,$9,$2,$3,0*%
%AMHorizOval*
0 Thick line with rounded ends*
0 $1 width*
0 $2 $3 position (X,Y) of the first rounded end (center of the circle)*
0 $4 $5 position (X,Y) of the second rounded end (center of the circle)*
0 Add line between two ends*
20,1,$1,$2,$3,$4,$5,0*
0 Add two circle primitives to create the rounded ends*
1,1,$1,$2,$3*
1,1,$1,$4,$5*%
%AMRotRect*
0 Rectangle, with rotation*
0 The origin of the aperture is its center*
0 $1 length*
0 $2 width*
0 $3 Rotation angle, in degrees counterclockwise*
0 Add horizontal line*
21,1,$1,$2,0,0,$3*%
%AMFreePoly0*
4,1,6,1.000000,0.000000,0.500000,-0.750000,-0.500000,-0.750000,-0.500000,0.750000,0.500000,0.750000,1.000000,0.000000,1.000000,0.000000,$1*%
%AMFreePoly1*
4,1,6,0.500000,-0.750000,-0.650000,-0.750000,-0.150000,0.000000,-0.650000,0.750000,0.500000,0.750000,0.500000,-0.750000,0.500000,-0.750000,$1*%
G04 Aperture macros list end*
%TA.AperFunction,ComponentPad*%
%ADD10C,2.286000*%
%TD*%
%TA.AperFunction,ComponentPad*%
%ADD11R,1.700000X1.700000*%
%TD*%
%TA.AperFunction,ComponentPad*%
%ADD12O,1.700000X1.700000*%
%TD*%
%TA.AperFunction,SMDPad,CuDef*%
%ADD13FreePoly0,0.000000*%
%TD*%
%TA.AperFunction,SMDPad,CuDef*%
%ADD14FreePoly1,0.000000*%
%TD*%
%TA.AperFunction,SMDPad,CuDef*%
%ADD15FreePoly0,180.000000*%
%TD*%
%TA.AperFunction,SMDPad,CuDef*%
%ADD16FreePoly1,180.000000*%
%TD*%
%TA.AperFunction,ComponentPad*%
%ADD17RotRect,1.700000X1.700000X60.000000*%
%TD*%
%TA.AperFunction,ComponentPad*%
%ADD18HorizOval,1.700000X0.000000X0.000000X0.000000X0.000000X0*%
%TD*%
%TA.AperFunction,ComponentPad*%
%ADD19RotRect,3.500000X3.500000X60.000000*%
%TD*%
%TA.AperFunction,ComponentPad*%
%ADD20RoundRect,0.750000X0.491025X-1.149519X1.241025X0.149519X-0.491025X1.149519X-1.241025X-0.149519X0*%
%TD*%
%TA.AperFunction,ComponentPad*%
%ADD21RoundRect,0.875000X0.320272X-1.195272X1.195272X0.320272X-0.320272X1.195272X-1.195272X-0.320272X0*%
%TD*%
%TA.AperFunction,SMDPad,CuDef*%
%ADD22R,1.000000X1.500000*%
%TD*%
%TA.AperFunction,ComponentPad*%
%ADD23C,1.524000*%
%TD*%
%TA.AperFunction,ComponentPad*%
%ADD24R,1.130000X1.130000*%
%TD*%
%TA.AperFunction,ComponentPad*%
%ADD25C,1.130000*%
%TD*%
%TA.AperFunction,ComponentPad*%
%ADD26RotRect,1.700000X1.700000X300.000000*%
%TD*%
%TA.AperFunction,ComponentPad*%
%ADD27HorizOval,1.700000X0.000000X0.000000X0.000000X0.000000X0*%
%TD*%
%TA.AperFunction,SMDPad,CuDef*%
%ADD28R,3.500000X1.700000*%
%TD*%
%TA.AperFunction,SMDPad,CuDef*%
%ADD29R,1.700000X3.500000*%
%TD*%
%TA.AperFunction,ViaPad*%
%ADD30C,2.000000*%
%TD*%
%TA.AperFunction,ViaPad*%
%ADD31C,0.800000*%
%TD*%
%TA.AperFunction,Conductor*%
%ADD32C,1.000000*%
%TD*%
%TA.AperFunction,Conductor*%
%ADD33C,0.250000*%
%TD*%
G04 APERTURE END LIST*
%TA.AperFunction,EtchedComponent*%
%TO.C,PICO_5V_BREAKER1*%
G36*
X445400000Y-129840000D02*
G01*
X444900000Y-129840000D01*
X444900000Y-129240000D01*
X445400000Y-129240000D01*
X445400000Y-129840000D01*
G37*
%TD.AperFunction*%
%TD*%
D10*
%TO.P,A12,10*%
%TO.N,N/C*%
X373398054Y-99446667D03*
X370398054Y-99446667D03*
X367398054Y-99446667D03*
%TO.P,A12,11*%
X373398054Y-324746667D03*
X370398054Y-324746667D03*
X367398054Y-324746667D03*
%TD*%
%TO.P,A2,10*%
%TO.N,N/C*%
X257926054Y-132780000D03*
X254926054Y-132780000D03*
X251926054Y-132780000D03*
%TO.P,A2,11*%
X257926054Y-291440000D03*
X254926054Y-291440000D03*
X251926054Y-291440000D03*
%TD*%
%TO.P,A4,10*%
%TO.N,N/C*%
X286794054Y-116113334D03*
X283794054Y-116113334D03*
X280794054Y-116113334D03*
%TO.P,A4,11*%
X286794054Y-308093334D03*
X283794054Y-308093334D03*
X280794054Y-308093334D03*
%TD*%
%TO.P,A7,10*%
%TO.N,N/C*%
X330096054Y-91113334D03*
X327096054Y-91113334D03*
X324096054Y-91113334D03*
%TO.P,A7,11*%
X330096054Y-333073334D03*
X327096054Y-333073334D03*
X324096054Y-333073334D03*
%TD*%
%TO.P,A3,10*%
%TO.N,N/C*%
X272360054Y-124446667D03*
X269360054Y-124446667D03*
X266360054Y-124446667D03*
%TO.P,A3,11*%
X272360054Y-299766667D03*
X269360054Y-299766667D03*
X266360054Y-299766667D03*
%TD*%
%TO.P,A6,10*%
%TO.N,N/C*%
X315662054Y-99446667D03*
X312662054Y-99446667D03*
X309662054Y-99446667D03*
%TO.P,A6,11*%
X315662054Y-324746667D03*
X312662054Y-324746667D03*
X309662054Y-324746667D03*
%TD*%
%TO.P,A17,*%
%TO.N,*%
X445568054Y-141113334D03*
X442568054Y-141113334D03*
X439568054Y-141113334D03*
X445568054Y-283113334D03*
X442568054Y-283113334D03*
X439568054Y-283113334D03*
%TD*%
%TO.P,A1,*%
%TO.N,*%
X243492054Y-141113334D03*
X240492054Y-141113334D03*
X237492054Y-141113334D03*
X243492054Y-283113334D03*
X240492054Y-283113334D03*
X237492054Y-283113334D03*
%TD*%
%TO.P,A15,10*%
%TO.N,N/C*%
X416700054Y-124446667D03*
X413700054Y-124446667D03*
X410700054Y-124446667D03*
%TO.P,A15,11*%
X416700054Y-299766667D03*
X413700054Y-299766667D03*
X410700054Y-299766667D03*
%TD*%
%TO.P,A14,10*%
%TO.N,N/C*%
X402240000Y-115966500D03*
X399240000Y-115966500D03*
X396240000Y-115966500D03*
%TO.P,A14,11*%
X402240000Y-307946500D03*
X399240000Y-307946500D03*
X396240000Y-307946500D03*
%TD*%
%TO.P,A16,10*%
%TO.N,N/C*%
X431134054Y-132780000D03*
X428134054Y-132780000D03*
X425134054Y-132780000D03*
%TO.P,A16,11*%
X431134054Y-291440000D03*
X428134054Y-291440000D03*
X425134054Y-291440000D03*
%TD*%
%TO.P,A11,10*%
%TO.N,N/C*%
X358964054Y-91113334D03*
X355964054Y-91113334D03*
X352964054Y-91113334D03*
%TO.P,A11,11*%
X358964054Y-333073334D03*
X355964054Y-333073334D03*
X352964054Y-333073334D03*
%TD*%
%TO.P,A8,10*%
%TO.N,N/C*%
X344530054Y-82780000D03*
X341530054Y-82780000D03*
X338530054Y-82780000D03*
%TO.P,A8,11*%
X344530054Y-341400000D03*
X341530054Y-341400000D03*
X338530054Y-341400000D03*
%TD*%
%TO.P,A13,10*%
%TO.N,N/C*%
X387832054Y-107780000D03*
X384832054Y-107780000D03*
X381832054Y-107780000D03*
%TO.P,A13,11*%
X387832054Y-316420000D03*
X384832054Y-316420000D03*
X381832054Y-316420000D03*
%TD*%
%TO.P,A5,10*%
%TO.N,N/C*%
X301228054Y-107780000D03*
X298228054Y-107780000D03*
X295228054Y-107780000D03*
%TO.P,A5,11*%
X301228054Y-316420000D03*
X298228054Y-316420000D03*
X295228054Y-316420000D03*
%TD*%
D11*
%TO.P,J1,1,Pin_1*%
%TO.N,/PICO_DATAIN_6*%
X406400000Y-199390000D03*
D12*
%TO.P,J1,2,Pin_2*%
%TO.N,/PICO_DATAIN_5*%
X406400000Y-196850000D03*
%TO.P,J1,3,Pin_3*%
%TO.N,GND*%
X406400000Y-194310000D03*
%TO.P,J1,4,Pin_4*%
%TO.N,/PICO_DATAIN_4*%
X406400000Y-191770000D03*
%TO.P,J1,5,Pin_5*%
%TO.N,/PICO_DATAIN_3*%
X406400000Y-189230000D03*
%TO.P,J1,6,Pin_6*%
%TO.N,/PICO_DATAIN_2*%
X406400000Y-186690000D03*
%TO.P,J1,7,Pin_7*%
%TO.N,/PICO_DATAIN_1*%
X406400000Y-184150000D03*
%TO.P,J1,8,Pin_8*%
%TO.N,GND*%
X406400000Y-181610000D03*
%TO.P,J1,9,Pin_9*%
%TO.N,/SCL*%
X406400000Y-179070000D03*
%TO.P,J1,10,Pin_10*%
%TO.N,/SDA*%
X406400000Y-176530000D03*
%TO.P,J1,11,Pin_11*%
%TO.N,/RTC_INT*%
X406400000Y-173990000D03*
%TO.P,J1,12,Pin_12*%
%TO.N,/KEYPAD_INT*%
X406400000Y-171450000D03*
%TO.P,J1,13,Pin_13*%
%TO.N,GND*%
X406400000Y-168910000D03*
%TO.P,J1,14,Pin_14*%
%TO.N,Net-(J1-Pin_14)*%
X406400000Y-166370000D03*
%TO.P,J1,15,Pin_15*%
%TO.N,/DIN*%
X406400000Y-163830000D03*
%TO.P,J1,16,Pin_16*%
%TO.N,/BCLK*%
X406400000Y-161290000D03*
%TO.P,J1,17,Pin_17*%
%TO.N,/LRC*%
X406400000Y-158750000D03*
%TO.P,J1,18,Pin_18*%
%TO.N,GND*%
X406400000Y-156210000D03*
%TO.P,J1,19,Pin_19*%
%TO.N,/UART0 RX*%
X406400000Y-153670000D03*
%TO.P,J1,20,Pin_20*%
%TO.N,/UART0 TX*%
X406400000Y-151130000D03*
%TD*%
D13*
%TO.P,LED_DATA_IN-DATA_4,1,A*%
%TO.N,/LED_DATA_IN*%
X403680000Y-248920000D03*
D14*
%TO.P,LED_DATA_IN-DATA_4,2,B*%
%TO.N,/DATA_4*%
X405130000Y-248920000D03*
%TD*%
D11*
%TO.P,RTC1,1,Pin_1*%
%TO.N,GND*%
X377190000Y-189230000D03*
D12*
%TO.P,RTC1,2,Pin_2*%
%TO.N,+3V3*%
X377190000Y-191770000D03*
%TO.P,RTC1,3,Pin_3*%
%TO.N,/SDA*%
X377190000Y-194310000D03*
%TO.P,RTC1,4,Pin_4*%
%TO.N,/SCL*%
X377190000Y-196850000D03*
%TO.P,RTC1,5,Pin_5*%
%TO.N,unconnected-(RTC1-Pin_5-Pad5)*%
X377190000Y-199390000D03*
%TO.P,RTC1,6,Pin_6*%
%TO.N,/RTC_INT*%
X377190000Y-201930000D03*
%TD*%
D11*
%TO.P,LED_DATA_IN1,1,Pin_1*%
%TO.N,/LED_DATA_IN*%
X242570000Y-129540000D03*
%TD*%
D15*
%TO.P,DATA_6_DISCONNECT_1,1,A*%
%TO.N,/DATA_6*%
X386080000Y-305810000D03*
D16*
%TO.P,DATA_6_DISCONNECT_1,2,B*%
%TO.N,/BUS_6*%
X384630000Y-305810000D03*
%TD*%
D15*
%TO.P,LED_DATA_OUT-DATA_6,1,A*%
%TO.N,/LED_DATA_OUT*%
X422365000Y-264910000D03*
D16*
%TO.P,LED_DATA_OUT-DATA_6,2,B*%
%TO.N,/DATA_6*%
X420915000Y-264910000D03*
%TD*%
D13*
%TO.P,LED_DATA_IN-DATA_6,1,A*%
%TO.N,/LED_DATA_IN*%
X403680000Y-256020000D03*
D14*
%TO.P,LED_DATA_IN-DATA_6,2,B*%
%TO.N,/DATA_6*%
X405130000Y-256020000D03*
%TD*%
D17*
%TO.P,J7,1,Pin_1*%
%TO.N,/BUS_1*%
X419508907Y-114481368D03*
D18*
%TO.P,J7,2,Pin_2*%
%TO.N,/BUS_2*%
X417309202Y-113211368D03*
%TO.P,J7,3,Pin_3*%
%TO.N,/BUS_3*%
X415109498Y-111941368D03*
%TO.P,J7,4,Pin_4*%
%TO.N,/BUS_4*%
X412909793Y-110671368D03*
%TO.P,J7,5,Pin_5*%
%TO.N,/BUS_5*%
X410710089Y-109401368D03*
%TO.P,J7,6,Pin_6*%
%TO.N,/BUS_6*%
X408510384Y-108131368D03*
%TO.P,J7,7,Pin_7*%
%TO.N,GND*%
X406310680Y-106861368D03*
%TO.P,J7,8,Pin_8*%
%TO.N,+5V*%
X404110975Y-105591368D03*
%TO.P,J7,9,Pin_9*%
X401911271Y-104321368D03*
%TO.P,J7,10,Pin_10*%
%TO.N,GND*%
X399711566Y-103051368D03*
%TO.P,J7,11,Pin_11*%
%TO.N,/BUS_6*%
X397511862Y-101781368D03*
%TO.P,J7,12,Pin_12*%
%TO.N,/BUS_5*%
X395312157Y-100511368D03*
%TO.P,J7,13,Pin_13*%
%TO.N,/BUS_4*%
X393112453Y-99241368D03*
%TO.P,J7,14,Pin_14*%
%TO.N,/BUS_3*%
X390912748Y-97971368D03*
%TO.P,J7,15,Pin_15*%
%TO.N,/BUS_2*%
X388713044Y-96701368D03*
%TO.P,J7,16,Pin_16*%
%TO.N,/BUS_1*%
X386513339Y-95431368D03*
%TD*%
D11*
%TO.P,STEPPER_1-4,1,Pin_1*%
%TO.N,Net-(PICO_DATAIN_1-STEPPER1-B)*%
X452120000Y-246380000D03*
D12*
%TO.P,STEPPER_1-4,2,Pin_2*%
%TO.N,Net-(PICO_DATAIN_2-STEPPER1-B)*%
X452120000Y-248920000D03*
%TO.P,STEPPER_1-4,3,Pin_3*%
%TO.N,Net-(PICO_DATAIN_3-STEPPER1-B)*%
X452120000Y-251460000D03*
%TO.P,STEPPER_1-4,4,Pin_4*%
%TO.N,Net-(PICO_DATAIN_4-STEPPER1-B)*%
X452120000Y-254000000D03*
%TO.P,STEPPER_1-4,5,Pin_5*%
%TO.N,Net-(STEPPER-DATA_1-B)*%
X452120000Y-256540000D03*
%TO.P,STEPPER_1-4,6,Pin_6*%
%TO.N,Net-(STEPPER-DATA_2-B)*%
X452120000Y-259080000D03*
%TO.P,STEPPER_1-4,7,Pin_7*%
%TO.N,Net-(STEPPER-DATA_3-B)*%
X452120000Y-261620000D03*
%TO.P,STEPPER_1-4,8,Pin_8*%
%TO.N,Net-(STEPPER-DATA_4-B)*%
X452120000Y-264160000D03*
%TD*%
D17*
%TO.P,J4,1,Pin_1*%
%TO.N,/BUS_1*%
X296546232Y-327461173D03*
D18*
%TO.P,J4,2,Pin_2*%
%TO.N,/BUS_2*%
X294346527Y-326191173D03*
%TO.P,J4,3,Pin_3*%
%TO.N,/BUS_3*%
X292146823Y-324921173D03*
%TO.P,J4,4,Pin_4*%
%TO.N,/BUS_4*%
X289947118Y-323651173D03*
%TO.P,J4,5,Pin_5*%
%TO.N,/BUS_5*%
X287747414Y-322381173D03*
%TO.P,J4,6,Pin_6*%
%TO.N,/BUS_6*%
X285547709Y-321111173D03*
%TO.P,J4,7,Pin_7*%
%TO.N,GND*%
X283348005Y-319841173D03*
%TO.P,J4,8,Pin_8*%
%TO.N,+5V*%
X281148300Y-318571173D03*
%TO.P,J4,9,Pin_9*%
X278948596Y-317301173D03*
%TO.P,J4,10,Pin_10*%
%TO.N,GND*%
X276748891Y-316031173D03*
%TO.P,J4,11,Pin_11*%
%TO.N,/BUS_6*%
X274549187Y-314761173D03*
%TO.P,J4,12,Pin_12*%
%TO.N,/BUS_5*%
X272349482Y-313491173D03*
%TO.P,J4,13,Pin_13*%
%TO.N,/BUS_4*%
X270149778Y-312221173D03*
%TO.P,J4,14,Pin_14*%
%TO.N,/BUS_3*%
X267950073Y-310951173D03*
%TO.P,J4,15,Pin_15*%
%TO.N,/BUS_2*%
X265750369Y-309681173D03*
%TO.P,J4,16,Pin_16*%
%TO.N,/BUS_1*%
X263550664Y-308411173D03*
%TD*%
D13*
%TO.P,LED_DATA_IN-DATA_1,1,A*%
%TO.N,/LED_DATA_IN*%
X403680000Y-238270000D03*
D14*
%TO.P,LED_DATA_IN-DATA_1,2,B*%
%TO.N,/DATA_1*%
X405130000Y-238270000D03*
%TD*%
D11*
%TO.P,J3,1,Pin_1*%
%TO.N,/BUS_1*%
X464493692Y-192397106D03*
D12*
%TO.P,J3,2,Pin_2*%
%TO.N,/BUS_2*%
X464493692Y-194937106D03*
%TO.P,J3,3,Pin_3*%
%TO.N,/BUS_3*%
X464493692Y-197477106D03*
%TO.P,J3,4,Pin_4*%
%TO.N,/BUS_4*%
X464493692Y-200017106D03*
%TO.P,J3,5,Pin_5*%
%TO.N,/BUS_5*%
X464493692Y-202557106D03*
%TO.P,J3,6,Pin_6*%
%TO.N,/BUS_6*%
X464493692Y-205097106D03*
%TO.P,J3,7,Pin_7*%
%TO.N,GND*%
X464493692Y-207637106D03*
%TO.P,J3,8,Pin_8*%
%TO.N,+5V*%
X464493692Y-210177106D03*
%TO.P,J3,9,Pin_9*%
X464493692Y-212717106D03*
%TO.P,J3,10,Pin_10*%
%TO.N,GND*%
X464493692Y-215257106D03*
%TO.P,J3,11,Pin_11*%
%TO.N,/BUS_6*%
X464493692Y-217797106D03*
%TO.P,J3,12,Pin_12*%
%TO.N,/BUS_5*%
X464493692Y-220337106D03*
%TO.P,J3,13,Pin_13*%
%TO.N,/BUS_4*%
X464493692Y-222877106D03*
%TO.P,J3,14,Pin_14*%
%TO.N,/BUS_3*%
X464493692Y-225417106D03*
%TO.P,J3,15,Pin_15*%
%TO.N,/BUS_2*%
X464493692Y-227957106D03*
%TO.P,J3,16,Pin_16*%
%TO.N,/BUS_1*%
X464493692Y-230497106D03*
%TD*%
D15*
%TO.P,LED_DATA_OUT-DATA_3,1,A*%
%TO.N,/LED_DATA_OUT*%
X422365000Y-254260000D03*
D16*
%TO.P,LED_DATA_OUT-DATA_3,2,B*%
%TO.N,/DATA_3*%
X420915000Y-254260000D03*
%TD*%
D11*
%TO.P,J5,1,Pin_1*%
%TO.N,/BUS_1*%
X218566052Y-192396439D03*
D12*
%TO.P,J5,2,Pin_2*%
%TO.N,/BUS_2*%
X218566052Y-194936439D03*
%TO.P,J5,3,Pin_3*%
%TO.N,/BUS_3*%
X218566052Y-197476439D03*
%TO.P,J5,4,Pin_4*%
%TO.N,/BUS_4*%
X218566052Y-200016439D03*
%TO.P,J5,5,Pin_5*%
%TO.N,/BUS_5*%
X218566052Y-202556439D03*
%TO.P,J5,6,Pin_6*%
%TO.N,/BUS_6*%
X218566052Y-205096439D03*
%TO.P,J5,7,Pin_7*%
%TO.N,GND*%
X218566052Y-207636439D03*
%TO.P,J5,8,Pin_8*%
%TO.N,+5V*%
X218566052Y-210176439D03*
%TO.P,J5,9,Pin_9*%
X218566052Y-212716439D03*
%TO.P,J5,10,Pin_10*%
%TO.N,GND*%
X218566052Y-215256439D03*
%TO.P,J5,11,Pin_11*%
%TO.N,/BUS_6*%
X218566052Y-217796439D03*
%TO.P,J5,12,Pin_12*%
%TO.N,/BUS_5*%
X218566052Y-220336439D03*
%TO.P,J5,13,Pin_13*%
%TO.N,/BUS_4*%
X218566052Y-222876439D03*
%TO.P,J5,14,Pin_14*%
%TO.N,/BUS_3*%
X218566052Y-225416439D03*
%TO.P,J5,15,Pin_15*%
%TO.N,/BUS_2*%
X218566052Y-227956439D03*
%TO.P,J5,16,Pin_16*%
%TO.N,/BUS_1*%
X218566052Y-230496439D03*
%TD*%
D11*
%TO.P,J2,1,Pin_1*%
%TO.N,Net-(J2-Pin_1)*%
X421640000Y-151130000D03*
D12*
%TO.P,J2,2,Pin_2*%
%TO.N,Net-(J2-Pin_2)*%
X421640000Y-153670000D03*
%TO.P,J2,3,Pin_3*%
%TO.N,GND*%
X421640000Y-156210000D03*
%TO.P,J2,4,Pin_4*%
%TO.N,Net-(J2-Pin_4)*%
X421640000Y-158750000D03*
%TO.P,J2,5,Pin_5*%
%TO.N,+3V3*%
X421640000Y-161290000D03*
%TO.P,J2,6,Pin_6*%
%TO.N,Net-(J2-Pin_6)*%
X421640000Y-163830000D03*
%TO.P,J2,7,Pin_7*%
%TO.N,Net-(J2-Pin_7)*%
X421640000Y-166370000D03*
%TO.P,J2,8,Pin_8*%
%TO.N,Net-(J2-Pin_8)*%
X421640000Y-168910000D03*
%TO.P,J2,9,Pin_9*%
%TO.N,Net-(J2-Pin_9)*%
X421640000Y-171450000D03*
%TO.P,J2,10,Pin_10*%
%TO.N,Net-(J2-Pin_10)*%
X421640000Y-173990000D03*
%TO.P,J2,11,Pin_11*%
%TO.N,Net-(J2-Pin_11)*%
X421640000Y-176530000D03*
%TO.P,J2,12,Pin_12*%
%TO.N,Net-(J2-Pin_12)*%
X421640000Y-179070000D03*
%TO.P,J2,13,Pin_13*%
%TO.N,GND*%
X421640000Y-181610000D03*
%TO.P,J2,14,Pin_14*%
%TO.N,Net-(J2-Pin_14)*%
X421640000Y-184150000D03*
%TO.P,J2,15,Pin_15*%
%TO.N,Net-(J2-Pin_15)*%
X421640000Y-186690000D03*
%TO.P,J2,16,Pin_16*%
%TO.N,Net-(J2-Pin_16)*%
X421640000Y-189230000D03*
%TO.P,J2,17,Pin_17*%
%TO.N,Net-(J2-Pin_17)*%
X421640000Y-191770000D03*
%TO.P,J2,18,Pin_18*%
%TO.N,GND*%
X421640000Y-194310000D03*
%TO.P,J2,19,Pin_19*%
%TO.N,Net-(J2-Pin_19)*%
X421640000Y-196850000D03*
%TO.P,J2,20,Pin_20*%
%TO.N,Net-(J2-Pin_20)*%
X421640000Y-199390000D03*
%TD*%
D13*
%TO.P,PICO_DATAIN_5-STEPPER1,1,A*%
%TO.N,Net-(PICO_DATAIN_5-STEPPER1-A)*%
X436025000Y-233040000D03*
D14*
%TO.P,PICO_DATAIN_5-STEPPER1,2,B*%
%TO.N,/PICO_DATAIN_5*%
X437475000Y-233040000D03*
%TD*%
D15*
%TO.P,DATA_3_DISCONNECT_1,1,A*%
%TO.N,/DATA_3*%
X386080000Y-295160000D03*
D16*
%TO.P,DATA_3_DISCONNECT_1,2,B*%
%TO.N,/BUS_3*%
X384630000Y-295160000D03*
%TD*%
D13*
%TO.P,STEPPER-DATA_3,1,A*%
%TO.N,/DATA_3*%
X440510000Y-259080000D03*
D14*
%TO.P,STEPPER-DATA_3,2,B*%
%TO.N,Net-(STEPPER-DATA_3-B)*%
X441960000Y-259080000D03*
%TD*%
D13*
%TO.P,LED_DATA_IN-DATA_5,1,A*%
%TO.N,/LED_DATA_IN*%
X403680000Y-252470000D03*
D14*
%TO.P,LED_DATA_IN-DATA_5,2,B*%
%TO.N,/DATA_5*%
X405130000Y-252470000D03*
%TD*%
D13*
%TO.P,LED_DATA_IN-DATA_2,1,A*%
%TO.N,/LED_DATA_IN*%
X403680000Y-241820000D03*
D14*
%TO.P,LED_DATA_IN-DATA_2,2,B*%
%TO.N,/DATA_2*%
X405130000Y-241820000D03*
%TD*%
D15*
%TO.P,DATA_5_DISCONNECT_1,1,A*%
%TO.N,/DATA_5*%
X386080000Y-302260000D03*
D16*
%TO.P,DATA_5_DISCONNECT_1,2,B*%
%TO.N,/BUS_5*%
X384630000Y-302260000D03*
%TD*%
D19*
%TO.P,J30,1*%
%TO.N,+5V*%
X245570000Y-289443848D03*
D20*
%TO.P,J30,2*%
%TO.N,GND*%
X242570000Y-294640000D03*
D21*
%TO.P,J30,3*%
%TO.N,unconnected-(J30-Pad3)*%
X239999681Y-289691924D03*
%TD*%
D15*
%TO.P,STEPPER-DATA_5,1,A*%
%TO.N,Net-(STEPPER-DATA_5-A)*%
X441960000Y-266700000D03*
D16*
%TO.P,STEPPER-DATA_5,2,B*%
%TO.N,/DATA_5*%
X440510000Y-266700000D03*
%TD*%
D22*
%TO.P,PICO_5V_BREAKER1,1,A*%
%TO.N,Net-(J2-Pin_1)*%
X445800000Y-129540000D03*
%TO.P,PICO_5V_BREAKER1,2,B*%
%TO.N,+5V*%
X444500000Y-129540000D03*
%TD*%
D17*
%TO.P,AmbientLightSensor1,1,Pin_1*%
%TO.N,+3V3*%
X363514705Y-90805000D03*
D18*
%TO.P,AmbientLightSensor1,2,Pin_2*%
%TO.N,unconnected-(AmbientLightSensor1-Pin_2-Pad2)*%
X361315000Y-89535000D03*
%TO.P,AmbientLightSensor1,3,Pin_3*%
%TO.N,GND*%
X359115296Y-88265000D03*
%TO.P,AmbientLightSensor1,4,Pin_4*%
%TO.N,/SCL*%
X356915591Y-86995000D03*
%TO.P,AmbientLightSensor1,5,Pin_5*%
%TO.N,/SDA*%
X354715887Y-85725000D03*
%TD*%
D11*
%TO.P,MAX98357,1,Pin_1*%
%TO.N,/LRC*%
X377190000Y-158750000D03*
D12*
%TO.P,MAX98357,2,Pin_2*%
%TO.N,/BCLK*%
X377190000Y-161290000D03*
%TO.P,MAX98357,3,Pin_3*%
%TO.N,/DIN*%
X377190000Y-163830000D03*
%TO.P,MAX98357,4,Pin_4*%
%TO.N,Net-(MAX98357-Pin_4)*%
X377190000Y-166370000D03*
%TO.P,MAX98357,5,Pin_5*%
%TO.N,Net-(MAX98357-Pin_5)*%
X377190000Y-168910000D03*
%TO.P,MAX98357,6,Pin_6*%
%TO.N,GND*%
X377190000Y-171450000D03*
%TO.P,MAX98357,7,Pin_7*%
%TO.N,+5V*%
X377190000Y-173990000D03*
%TD*%
D23*
%TO.P,U2,1,VIN*%
%TO.N,+3V3*%
X214630000Y-265430000D03*
%TO.P,U2,2,3Vo*%
%TO.N,unconnected-(U2-3Vo-Pad2)*%
X214630000Y-262890000D03*
%TO.P,U2,3,GND*%
%TO.N,GND*%
X214630000Y-260350000D03*
%TO.P,U2,4,SCL*%
%TO.N,/SCL*%
X214630000Y-257810000D03*
%TO.P,U2,5,SDA*%
%TO.N,/SDA*%
X214630000Y-255270000D03*
%TO.P,U2,6,INT*%
%TO.N,/KEYPAD_INT*%
X214630000Y-252730000D03*
%TO.P,U2,7,RST*%
%TO.N,unconnected-(U2-RST-Pad7)*%
X214630000Y-250190000D03*
%TO.P,U2,8,R7*%
%TO.N,unconnected-(U2-R7-Pad8)*%
X214630000Y-247650000D03*
%TO.P,U2,9,R6*%
%TO.N,unconnected-(U2-R6-Pad9)*%
X214630000Y-245110000D03*
%TO.P,U2,10,R5*%
%TO.N,unconnected-(U2-R5-Pad10)*%
X214630000Y-242570000D03*
%TO.P,U2,11,R4*%
%TO.N,unconnected-(U2-R4-Pad11)*%
X214630000Y-240030000D03*
%TO.P,U2,12,R3*%
%TO.N,unconnected-(U2-R3-Pad12)*%
X214630000Y-237490000D03*
%TO.P,U2,13,R2*%
%TO.N,/KEYPAD_5*%
X214630000Y-234950000D03*
%TO.P,U2,14,GND*%
%TO.N,GND*%
X224790000Y-265430000D03*
%TO.P,U2,15,C9*%
%TO.N,unconnected-(U2-C9-Pad15)*%
X224790000Y-262890000D03*
%TO.P,U2,16,C8*%
%TO.N,unconnected-(U2-C8-Pad16)*%
X224790000Y-260350000D03*
%TO.P,U2,17,C7*%
%TO.N,unconnected-(U2-C7-Pad17)*%
X224790000Y-257810000D03*
%TO.P,U2,18,C6*%
%TO.N,unconnected-(U2-C6-Pad18)*%
X224790000Y-255270000D03*
%TO.P,U2,19,C5*%
%TO.N,unconnected-(U2-C5-Pad19)*%
X224790000Y-252730000D03*
%TO.P,U2,20,C4*%
%TO.N,unconnected-(U2-C4-Pad20)*%
X224790000Y-252730000D03*
%TO.P,U2,21,C3*%
%TO.N,/KEYPAD_1*%
X224790000Y-250190000D03*
%TO.P,U2,22,C2*%
%TO.N,/KEYPAD_2*%
X224790000Y-247650000D03*
%TO.P,U2,23,C1*%
%TO.N,/KEYPAD_3*%
X224790000Y-245110000D03*
%TO.P,U2,24,C0*%
%TO.N,/KEYPAD_4*%
X224790000Y-242570000D03*
%TO.P,U2,25,R1*%
%TO.N,/KEYPAD_6*%
X224790000Y-240030000D03*
%TO.P,U2,26,R0*%
%TO.N,/KEYPAD_7*%
X224790000Y-237490000D03*
%TO.P,U2,27*%
%TO.N,N/C*%
X224790000Y-234950000D03*
%TD*%
D15*
%TO.P,LED_DATA_OUT-DATA_4,1,A*%
%TO.N,/LED_DATA_OUT*%
X422365000Y-257810000D03*
D16*
%TO.P,LED_DATA_OUT-DATA_4,2,B*%
%TO.N,/DATA_4*%
X420915000Y-257810000D03*
%TD*%
D15*
%TO.P,PICO_DATAIN_3-STEPPER1,1,A*%
%TO.N,/PICO_DATAIN_3*%
X437475000Y-225940000D03*
D16*
%TO.P,PICO_DATAIN_3-STEPPER1,2,B*%
%TO.N,Net-(PICO_DATAIN_3-STEPPER1-B)*%
X436025000Y-225940000D03*
%TD*%
D24*
%TO.P,U1,1,DIR*%
%TO.N,+5V*%
X463550000Y-238760000D03*
D25*
%TO.P,U1,2,A1*%
%TO.N,Net-(PICO_DATAIN_1-STEPPER1-B)*%
X463550000Y-241300000D03*
%TO.P,U1,3,A2*%
%TO.N,Net-(PICO_DATAIN_2-STEPPER1-B)*%
X463550000Y-243840000D03*
%TO.P,U1,4,A3*%
%TO.N,Net-(PICO_DATAIN_3-STEPPER1-B)*%
X463550000Y-246380000D03*
%TO.P,U1,5,A4*%
%TO.N,Net-(PICO_DATAIN_4-STEPPER1-B)*%
X463550000Y-248920000D03*
%TO.P,U1,6,A5*%
%TO.N,Net-(PICO_DATAIN_5-STEPPER1-A)*%
X463550000Y-251460000D03*
%TO.P,U1,7,A6*%
%TO.N,Net-(PICO_DATAIN_6-STEPPER1-A)*%
X463550000Y-254000000D03*
%TO.P,U1,8,A7*%
%TO.N,Net-(STEPPER_4-8-Pin_3)*%
X463550000Y-256540000D03*
%TO.P,U1,9,A8*%
%TO.N,Net-(STEPPER_4-8-Pin_4)*%
X463550000Y-259080000D03*
%TO.P,U1,10,GND*%
%TO.N,GND*%
X463550000Y-261620000D03*
%TO.P,U1,11,B8*%
%TO.N,Net-(STEPPER_4-8-Pin_8)*%
X455610000Y-261620000D03*
%TO.P,U1,12,B7*%
%TO.N,Net-(STEPPER_4-8-Pin_7)*%
X455610000Y-259080000D03*
%TO.P,U1,13,B6*%
%TO.N,Net-(STEPPER-DATA_6-A)*%
X455610000Y-256540000D03*
%TO.P,U1,14,B5*%
%TO.N,Net-(STEPPER-DATA_5-A)*%
X455610000Y-254000000D03*
%TO.P,U1,15,B4*%
%TO.N,Net-(STEPPER-DATA_4-B)*%
X455610000Y-251460000D03*
%TO.P,U1,16,B3*%
%TO.N,Net-(STEPPER-DATA_3-B)*%
X455610000Y-248920000D03*
%TO.P,U1,17,B2*%
%TO.N,Net-(STEPPER-DATA_2-B)*%
X455610000Y-246380000D03*
%TO.P,U1,18,B1*%
%TO.N,Net-(STEPPER-DATA_1-B)*%
X455610000Y-243840000D03*
%TO.P,U1,19,~{OE}*%
%TO.N,GND*%
X455610000Y-241300000D03*
%TO.P,U1,20,VCC*%
%TO.N,+5V*%
X455610000Y-238760000D03*
%TD*%
D15*
%TO.P,DATA_1_DISCONNECT_1,1,A*%
%TO.N,/DATA_1*%
X386080000Y-288060000D03*
D16*
%TO.P,DATA_1_DISCONNECT_1,2,B*%
%TO.N,/BUS_1*%
X384630000Y-288060000D03*
%TD*%
D13*
%TO.P,STEPPER-DATA_4,1,A*%
%TO.N,/DATA_4*%
X440690000Y-262890000D03*
D14*
%TO.P,STEPPER-DATA_4,2,B*%
%TO.N,Net-(STEPPER-DATA_4-B)*%
X442140000Y-262890000D03*
%TD*%
D15*
%TO.P,LED_DATA_OUT-DATA_5,1,A*%
%TO.N,/LED_DATA_OUT*%
X422365000Y-261360000D03*
D16*
%TO.P,LED_DATA_OUT-DATA_5,2,B*%
%TO.N,/DATA_5*%
X420915000Y-261360000D03*
%TD*%
D11*
%TO.P,LED_DATA_OUT1,1,Pin_1*%
%TO.N,/LED_DATA_OUT*%
X453390000Y-279400000D03*
%TD*%
D15*
%TO.P,PICO_DATAIN_4-STEPPER1,1,A*%
%TO.N,/PICO_DATAIN_4*%
X437475000Y-229490000D03*
D16*
%TO.P,PICO_DATAIN_4-STEPPER1,2,B*%
%TO.N,Net-(PICO_DATAIN_4-STEPPER1-B)*%
X436025000Y-229490000D03*
%TD*%
D26*
%TO.P,J8,1,Pin_1*%
%TO.N,/BUS_1*%
X386513975Y-327462485D03*
D27*
%TO.P,J8,2,Pin_2*%
%TO.N,/BUS_2*%
X388713680Y-326192485D03*
%TO.P,J8,3,Pin_3*%
%TO.N,/BUS_3*%
X390913384Y-324922485D03*
%TO.P,J8,4,Pin_4*%
%TO.N,/BUS_4*%
X393113089Y-323652485D03*
%TO.P,J8,5,Pin_5*%
%TO.N,/BUS_5*%
X395312793Y-322382485D03*
%TO.P,J8,6,Pin_6*%
%TO.N,/BUS_6*%
X397512498Y-321112485D03*
%TO.P,J8,7,Pin_7*%
%TO.N,GND*%
X399712202Y-319842485D03*
%TO.P,J8,8,Pin_8*%
%TO.N,+5V*%
X401911907Y-318572485D03*
%TO.P,J8,9,Pin_9*%
X404111611Y-317302485D03*
%TO.P,J8,10,Pin_10*%
%TO.N,GND*%
X406311316Y-316032485D03*
%TO.P,J8,11,Pin_11*%
%TO.N,/BUS_6*%
X408511020Y-314762485D03*
%TO.P,J8,12,Pin_12*%
%TO.N,/BUS_5*%
X410710725Y-313492485D03*
%TO.P,J8,13,Pin_13*%
%TO.N,/BUS_4*%
X412910429Y-312222485D03*
%TO.P,J8,14,Pin_14*%
%TO.N,/BUS_3*%
X415110134Y-310952485D03*
%TO.P,J8,15,Pin_15*%
%TO.N,/BUS_2*%
X417309838Y-309682485D03*
%TO.P,J8,16,Pin_16*%
%TO.N,/BUS_1*%
X419509543Y-308412485D03*
%TD*%
D15*
%TO.P,STEPPER-DATA_6,1,A*%
%TO.N,Net-(STEPPER-DATA_6-A)*%
X441960000Y-270510000D03*
D16*
%TO.P,STEPPER-DATA_6,2,B*%
%TO.N,/DATA_6*%
X440510000Y-270510000D03*
%TD*%
D15*
%TO.P,DATA_4_DISCONNECT_1,1,A*%
%TO.N,/DATA_4*%
X386080000Y-298710000D03*
D16*
%TO.P,DATA_4_DISCONNECT_1,2,B*%
%TO.N,/BUS_4*%
X384630000Y-298710000D03*
%TD*%
D26*
%TO.P,J6,1,Pin_1*%
%TO.N,/BUS_1*%
X263550592Y-114481217D03*
D27*
%TO.P,J6,2,Pin_2*%
%TO.N,/BUS_2*%
X265750297Y-113211217D03*
%TO.P,J6,3,Pin_3*%
%TO.N,/BUS_3*%
X267950001Y-111941217D03*
%TO.P,J6,4,Pin_4*%
%TO.N,/BUS_4*%
X270149706Y-110671217D03*
%TO.P,J6,5,Pin_5*%
%TO.N,/BUS_5*%
X272349410Y-109401217D03*
%TO.P,J6,6,Pin_6*%
%TO.N,/BUS_6*%
X274549115Y-108131217D03*
%TO.P,J6,7,Pin_7*%
%TO.N,GND*%
X276748819Y-106861217D03*
%TO.P,J6,8,Pin_8*%
%TO.N,+5V*%
X278948524Y-105591217D03*
%TO.P,J6,9,Pin_9*%
X281148228Y-104321217D03*
%TO.P,J6,10,Pin_10*%
%TO.N,GND*%
X283347933Y-103051217D03*
%TO.P,J6,11,Pin_11*%
%TO.N,/BUS_6*%
X285547637Y-101781217D03*
%TO.P,J6,12,Pin_12*%
%TO.N,/BUS_5*%
X287747342Y-100511217D03*
%TO.P,J6,13,Pin_13*%
%TO.N,/BUS_4*%
X289947046Y-99241217D03*
%TO.P,J6,14,Pin_14*%
%TO.N,/BUS_3*%
X292146751Y-97971217D03*
%TO.P,J6,15,Pin_15*%
%TO.N,/BUS_2*%
X294346455Y-96701217D03*
%TO.P,J6,16,Pin_16*%
%TO.N,/BUS_1*%
X296546160Y-95431217D03*
%TD*%
D13*
%TO.P,LED_DATA_IN-DATA_3,1,A*%
%TO.N,/LED_DATA_IN*%
X403680000Y-245370000D03*
D14*
%TO.P,LED_DATA_IN-DATA_3,2,B*%
%TO.N,/DATA_3*%
X405130000Y-245370000D03*
%TD*%
D26*
%TO.P,I2CBreakout1,1,Pin_1*%
%TO.N,+3V3*%
X316910591Y-85090000D03*
D27*
%TO.P,I2CBreakout1,2,Pin_2*%
%TO.N,GND*%
X319110296Y-83820000D03*
%TO.P,I2CBreakout1,3,Pin_3*%
%TO.N,/SCL*%
X321310000Y-82550000D03*
%TO.P,I2CBreakout1,4,Pin_4*%
%TO.N,/SDA*%
X323509705Y-81280000D03*
%TD*%
D13*
%TO.P,STEPPER-DATA_2,1,A*%
%TO.N,/DATA_2*%
X440510000Y-255270000D03*
D14*
%TO.P,STEPPER-DATA_2,2,B*%
%TO.N,Net-(STEPPER-DATA_2-B)*%
X441960000Y-255270000D03*
%TD*%
D11*
%TO.P,Keypad1,1,Pin_1*%
%TO.N,/KEYPAD_1*%
X231140000Y-255270000D03*
D12*
%TO.P,Keypad1,2,Pin_2*%
%TO.N,/KEYPAD_2*%
X231140000Y-252730000D03*
%TO.P,Keypad1,3,Pin_3*%
%TO.N,/KEYPAD_3*%
X231140000Y-250190000D03*
%TO.P,Keypad1,4,Pin_4*%
%TO.N,/KEYPAD_4*%
X231140000Y-247650000D03*
%TO.P,Keypad1,5,Pin_5*%
%TO.N,/KEYPAD_5*%
X231140000Y-245110000D03*
%TO.P,Keypad1,6,Pin_6*%
%TO.N,/KEYPAD_6*%
X231140000Y-242570000D03*
%TO.P,Keypad1,7,Pin_7*%
%TO.N,/KEYPAD_7*%
X231140000Y-240030000D03*
%TD*%
D15*
%TO.P,DATA_2_DISCONNECT_1,1,A*%
%TO.N,/DATA_2*%
X386080000Y-291610000D03*
D16*
%TO.P,DATA_2_DISCONNECT_1,2,B*%
%TO.N,/BUS_2*%
X384630000Y-291610000D03*
%TD*%
D15*
%TO.P,PICO_DATAIN_1-STEPPER1,1,A*%
%TO.N,/PICO_DATAIN_1*%
X437605000Y-218440000D03*
D16*
%TO.P,PICO_DATAIN_1-STEPPER1,2,B*%
%TO.N,Net-(PICO_DATAIN_1-STEPPER1-B)*%
X436155000Y-218440000D03*
%TD*%
D12*
%TO.P,PicoProbe1,1,GPIO0*%
%TO.N,unconnected-(PicoProbe1-GPIO0-Pad1)*%
X232650000Y-139195000D03*
D28*
X233550000Y-139195000D03*
D12*
%TO.P,PicoProbe1,2,GPIO1*%
%TO.N,unconnected-(PicoProbe1-GPIO1-Pad2)*%
X232650000Y-141735000D03*
D28*
X233550000Y-141735000D03*
D11*
%TO.P,PicoProbe1,3,GND*%
%TO.N,GND*%
X232650000Y-144275000D03*
D28*
X233550000Y-144275000D03*
D12*
%TO.P,PicoProbe1,4,GPIO2*%
%TO.N,/SWCLK*%
X232650000Y-146815000D03*
D28*
X233550000Y-146815000D03*
D12*
%TO.P,PicoProbe1,5,GPIO3*%
%TO.N,/SWDIO*%
X232650000Y-149355000D03*
D28*
X233550000Y-149355000D03*
D12*
%TO.P,PicoProbe1,6,GPIO4*%
%TO.N,/UART0 RX*%
X232650000Y-151895000D03*
D28*
X233550000Y-151895000D03*
D12*
%TO.P,PicoProbe1,7,GPIO5*%
%TO.N,/UART0 TX*%
X232650000Y-154435000D03*
D28*
X233550000Y-154435000D03*
D11*
%TO.P,PicoProbe1,8,GND*%
%TO.N,GND*%
X232650000Y-156975000D03*
D28*
X233550000Y-156975000D03*
D12*
%TO.P,PicoProbe1,9,GPIO6*%
%TO.N,unconnected-(PicoProbe1-GPIO6-Pad9)*%
X232650000Y-159515000D03*
D28*
X233550000Y-159515000D03*
D12*
%TO.P,PicoProbe1,10,GPIO7*%
%TO.N,unconnected-(PicoProbe1-GPIO7-Pad10)*%
X232650000Y-162055000D03*
D28*
X233550000Y-162055000D03*
D12*
%TO.P,PicoProbe1,11,GPIO8*%
%TO.N,unconnected-(PicoProbe1-GPIO8-Pad11)*%
X232650000Y-164595000D03*
D28*
X233550000Y-164595000D03*
D12*
%TO.P,PicoProbe1,12,GPIO9*%
%TO.N,unconnected-(PicoProbe1-GPIO9-Pad12)*%
X232650000Y-167135000D03*
D28*
X233550000Y-167135000D03*
D11*
%TO.P,PicoProbe1,13,GND*%
%TO.N,GND*%
X232650000Y-169675000D03*
D28*
X233550000Y-169675000D03*
D12*
%TO.P,PicoProbe1,14,GPIO10*%
%TO.N,unconnected-(PicoProbe1-GPIO10-Pad14)*%
X232650000Y-172215000D03*
D28*
X233550000Y-172215000D03*
D12*
%TO.P,PicoProbe1,15,GPIO11*%
%TO.N,unconnected-(PicoProbe1-GPIO11-Pad15)*%
X232650000Y-174755000D03*
D28*
X233550000Y-174755000D03*
D12*
%TO.P,PicoProbe1,16,GPIO12*%
%TO.N,unconnected-(PicoProbe1-GPIO12-Pad16)*%
X232650000Y-177295000D03*
D28*
X233550000Y-177295000D03*
D12*
%TO.P,PicoProbe1,17,GPIO13*%
%TO.N,unconnected-(PicoProbe1-GPIO13-Pad17)*%
X232650000Y-179835000D03*
D28*
X233550000Y-179835000D03*
D11*
%TO.P,PicoProbe1,18,GND*%
%TO.N,GND*%
X232650000Y-182375000D03*
D28*
X233550000Y-182375000D03*
D12*
%TO.P,PicoProbe1,19,GPIO14*%
%TO.N,unconnected-(PicoProbe1-GPIO14-Pad19)*%
X232650000Y-184915000D03*
D28*
X233550000Y-184915000D03*
D12*
%TO.P,PicoProbe1,20,GPIO15*%
%TO.N,unconnected-(PicoProbe1-GPIO15-Pad20)*%
X232650000Y-187455000D03*
D28*
X233550000Y-187455000D03*
D12*
%TO.P,PicoProbe1,21,GPIO16*%
%TO.N,unconnected-(PicoProbe1-GPIO16-Pad21)*%
X214870000Y-187455000D03*
D28*
X213970000Y-187455000D03*
D12*
%TO.P,PicoProbe1,22,GPIO17*%
%TO.N,unconnected-(PicoProbe1-GPIO17-Pad22)*%
X214870000Y-184915000D03*
D28*
X213970000Y-184915000D03*
D11*
%TO.P,PicoProbe1,23,GND*%
%TO.N,GND*%
X214870000Y-182375000D03*
D28*
X213970000Y-182375000D03*
D12*
%TO.P,PicoProbe1,24,GPIO18*%
%TO.N,unconnected-(PicoProbe1-GPIO18-Pad24)*%
X214870000Y-179835000D03*
D28*
X213970000Y-179835000D03*
D12*
%TO.P,PicoProbe1,25,GPIO19*%
%TO.N,unconnected-(PicoProbe1-GPIO19-Pad25)*%
X214870000Y-177295000D03*
D28*
X213970000Y-177295000D03*
D12*
%TO.P,PicoProbe1,26,GPIO20*%
%TO.N,unconnected-(PicoProbe1-GPIO20-Pad26)*%
X214870000Y-174755000D03*
D28*
X213970000Y-174755000D03*
D12*
%TO.P,PicoProbe1,27,GPIO21*%
%TO.N,unconnected-(PicoProbe1-GPIO21-Pad27)*%
X214870000Y-172215000D03*
D28*
X213970000Y-172215000D03*
D11*
%TO.P,PicoProbe1,28,GND*%
%TO.N,GND*%
X214870000Y-169675000D03*
D28*
X213970000Y-169675000D03*
D12*
%TO.P,PicoProbe1,29,GPIO22*%
%TO.N,unconnected-(PicoProbe1-GPIO22-Pad29)*%
X214870000Y-167135000D03*
D28*
X213970000Y-167135000D03*
D12*
%TO.P,PicoProbe1,30,RUN*%
%TO.N,unconnected-(PicoProbe1-RUN-Pad30)*%
X214870000Y-164595000D03*
D28*
X213970000Y-164595000D03*
D12*
%TO.P,PicoProbe1,31,GPIO26_ADC0*%
%TO.N,unconnected-(PicoProbe1-GPIO26_ADC0-Pad31)*%
X214870000Y-162055000D03*
D28*
X213970000Y-162055000D03*
D12*
%TO.P,PicoProbe1,32,GPIO27_ADC1*%
%TO.N,unconnected-(PicoProbe1-GPIO27_ADC1-Pad32)*%
X214870000Y-159515000D03*
D28*
X213970000Y-159515000D03*
D11*
%TO.P,PicoProbe1,33,AGND*%
%TO.N,unconnected-(PicoProbe1-AGND-Pad33)*%
X214870000Y-156975000D03*
D28*
X213970000Y-156975000D03*
D12*
%TO.P,PicoProbe1,34,GPIO28_ADC2*%
%TO.N,unconnected-(PicoProbe1-GPIO28_ADC2-Pad34)*%
X214870000Y-154435000D03*
D28*
X213970000Y-154435000D03*
D12*
%TO.P,PicoProbe1,35,ADC_VREF*%
%TO.N,unconnected-(PicoProbe1-ADC_VREF-Pad35)*%
X214870000Y-151895000D03*
D28*
X213970000Y-151895000D03*
D12*
%TO.P,PicoProbe1,36,3V3*%
%TO.N,unconnected-(PicoProbe1-3V3-Pad36)*%
X214870000Y-149355000D03*
D28*
X213970000Y-149355000D03*
D12*
%TO.P,PicoProbe1,37,3V3_EN*%
%TO.N,unconnected-(PicoProbe1-3V3_EN-Pad37)*%
X214870000Y-146815000D03*
D28*
X213970000Y-146815000D03*
D11*
%TO.P,PicoProbe1,38,GND*%
%TO.N,GND*%
X214870000Y-144275000D03*
D28*
X213970000Y-144275000D03*
D12*
%TO.P,PicoProbe1,39,VSYS*%
%TO.N,unconnected-(PicoProbe1-VSYS-Pad39)*%
X214870000Y-141735000D03*
D28*
X213970000Y-141735000D03*
D12*
%TO.P,PicoProbe1,40,VBUS*%
%TO.N,unconnected-(PicoProbe1-VBUS-Pad40)*%
X214870000Y-139195000D03*
D28*
X213970000Y-139195000D03*
D12*
%TO.P,PicoProbe1,41,SWCLK*%
%TO.N,unconnected-(PicoProbe1-SWCLK-Pad41)*%
X226300000Y-187225000D03*
D29*
X226300000Y-188125000D03*
D11*
%TO.P,PicoProbe1,42,GND*%
%TO.N,GND*%
X223760000Y-187225000D03*
D29*
X223760000Y-188125000D03*
D12*
%TO.P,PicoProbe1,43,SWDIO*%
%TO.N,unconnected-(PicoProbe1-SWDIO-Pad43)*%
X221220000Y-187225000D03*
D29*
X221220000Y-188125000D03*
%TD*%
D11*
%TO.P,STEPPER_4-8,1,Pin_1*%
%TO.N,Net-(PICO_DATAIN_5-STEPPER1-A)*%
X467360000Y-246380000D03*
D12*
%TO.P,STEPPER_4-8,2,Pin_2*%
%TO.N,Net-(PICO_DATAIN_6-STEPPER1-A)*%
X467360000Y-248920000D03*
%TO.P,STEPPER_4-8,3,Pin_3*%
%TO.N,Net-(STEPPER_4-8-Pin_3)*%
X467360000Y-251460000D03*
%TO.P,STEPPER_4-8,4,Pin_4*%
%TO.N,Net-(STEPPER_4-8-Pin_4)*%
X467360000Y-254000000D03*
%TO.P,STEPPER_4-8,5,Pin_5*%
%TO.N,Net-(STEPPER-DATA_5-A)*%
X467360000Y-256540000D03*
%TO.P,STEPPER_4-8,6,Pin_6*%
%TO.N,Net-(STEPPER-DATA_6-A)*%
X467360000Y-259080000D03*
%TO.P,STEPPER_4-8,7,Pin_7*%
%TO.N,Net-(STEPPER_4-8-Pin_7)*%
X467360000Y-261620000D03*
%TO.P,STEPPER_4-8,8,Pin_8*%
%TO.N,Net-(STEPPER_4-8-Pin_8)*%
X467360000Y-264160000D03*
%TD*%
D11*
%TO.P,MAX98357_BREAKOUT1,1,Pin_1*%
%TO.N,Net-(MAX98357-Pin_4)*%
X349250000Y-166370000D03*
D12*
%TO.P,MAX98357_BREAKOUT1,2,Pin_2*%
%TO.N,Net-(MAX98357-Pin_5)*%
X349250000Y-168910000D03*
%TO.P,MAX98357_BREAKOUT1,3,Pin_3*%
%TO.N,GND*%
X349250000Y-171450000D03*
%TO.P,MAX98357_BREAKOUT1,4,Pin_4*%
%TO.N,+5V*%
X349250000Y-173990000D03*
%TD*%
D15*
%TO.P,LED_DATA_OUT-DATA_2,1,A*%
%TO.N,/LED_DATA_OUT*%
X422365000Y-250710000D03*
D16*
%TO.P,LED_DATA_OUT-DATA_2,2,B*%
%TO.N,/DATA_2*%
X420915000Y-250710000D03*
%TD*%
D13*
%TO.P,PICO_DATAIN_6-STEPPER1,1,A*%
%TO.N,Net-(PICO_DATAIN_6-STEPPER1-A)*%
X436155000Y-236220000D03*
D14*
%TO.P,PICO_DATAIN_6-STEPPER1,2,B*%
%TO.N,/PICO_DATAIN_6*%
X437605000Y-236220000D03*
%TD*%
D15*
%TO.P,LED_DATA_OUT-DATA_1,1,A*%
%TO.N,/LED_DATA_OUT*%
X422315000Y-246960000D03*
D16*
%TO.P,LED_DATA_OUT-DATA_1,2,B*%
%TO.N,/DATA_1*%
X420865000Y-246960000D03*
%TD*%
D12*
%TO.P,MasterControlPico1,1,GPIO0*%
%TO.N,/UART0 TX*%
X467360000Y-138430000D03*
D28*
X468260000Y-138430000D03*
D12*
%TO.P,MasterControlPico1,2,GPIO1*%
%TO.N,/UART0 RX*%
X467360000Y-140970000D03*
D28*
X468260000Y-140970000D03*
D11*
%TO.P,MasterControlPico1,3,GND*%
%TO.N,GND*%
X467360000Y-143510000D03*
D28*
X468260000Y-143510000D03*
D12*
%TO.P,MasterControlPico1,4,GPIO2*%
%TO.N,/LRC*%
X467360000Y-146050000D03*
D28*
X468260000Y-146050000D03*
D12*
%TO.P,MasterControlPico1,5,GPIO3*%
%TO.N,/BCLK*%
X467360000Y-148590000D03*
D28*
X468260000Y-148590000D03*
D12*
%TO.P,MasterControlPico1,6,GPIO4*%
%TO.N,/DIN*%
X467360000Y-151130000D03*
D28*
X468260000Y-151130000D03*
D12*
%TO.P,MasterControlPico1,7,GPIO5*%
%TO.N,Net-(J1-Pin_14)*%
X467360000Y-153670000D03*
D28*
X468260000Y-153670000D03*
D11*
%TO.P,MasterControlPico1,8,GND*%
%TO.N,GND*%
X467360000Y-156210000D03*
D28*
X468260000Y-156210000D03*
D12*
%TO.P,MasterControlPico1,9,GPIO6*%
%TO.N,/KEYPAD_INT*%
X467360000Y-158750000D03*
D28*
X468260000Y-158750000D03*
D12*
%TO.P,MasterControlPico1,10,GPIO7*%
%TO.N,/RTC_INT*%
X467360000Y-161290000D03*
D28*
X468260000Y-161290000D03*
D12*
%TO.P,MasterControlPico1,11,GPIO8*%
%TO.N,/SDA*%
X467360000Y-163830000D03*
D28*
X468260000Y-163830000D03*
D12*
%TO.P,MasterControlPico1,12,GPIO9*%
%TO.N,/SCL*%
X467360000Y-166370000D03*
D28*
X468260000Y-166370000D03*
D11*
%TO.P,MasterControlPico1,13,GND*%
%TO.N,GND*%
X467360000Y-168910000D03*
D28*
X468260000Y-168910000D03*
D12*
%TO.P,MasterControlPico1,14,GPIO10*%
%TO.N,/PICO_DATAIN_1*%
X467360000Y-171450000D03*
D28*
X468260000Y-171450000D03*
D12*
%TO.P,MasterControlPico1,15,GPIO11*%
%TO.N,/PICO_DATAIN_2*%
X467360000Y-173990000D03*
D28*
X468260000Y-173990000D03*
D12*
%TO.P,MasterControlPico1,16,GPIO12*%
%TO.N,/PICO_DATAIN_3*%
X467360000Y-176530000D03*
D28*
X468260000Y-176530000D03*
D12*
%TO.P,MasterControlPico1,17,GPIO13*%
%TO.N,/PICO_DATAIN_4*%
X467360000Y-179070000D03*
D28*
X468260000Y-179070000D03*
D11*
%TO.P,MasterControlPico1,18,GND*%
%TO.N,GND*%
X467360000Y-181610000D03*
D28*
X468260000Y-181610000D03*
D12*
%TO.P,MasterControlPico1,19,GPIO14*%
%TO.N,/PICO_DATAIN_5*%
X467360000Y-184150000D03*
D28*
X468260000Y-184150000D03*
D12*
%TO.P,MasterControlPico1,20,GPIO15*%
%TO.N,/PICO_DATAIN_6*%
X467360000Y-186690000D03*
D28*
X468260000Y-186690000D03*
D12*
%TO.P,MasterControlPico1,21,GPIO16*%
%TO.N,Net-(J2-Pin_20)*%
X449580000Y-186690000D03*
D28*
X448680000Y-186690000D03*
D12*
%TO.P,MasterControlPico1,22,GPIO17*%
%TO.N,Net-(J2-Pin_19)*%
X449580000Y-184150000D03*
D28*
X448680000Y-184150000D03*
D11*
%TO.P,MasterControlPico1,23,GND*%
%TO.N,GND*%
X449580000Y-181610000D03*
D28*
X448680000Y-181610000D03*
D12*
%TO.P,MasterControlPico1,24,GPIO18*%
%TO.N,Net-(J2-Pin_17)*%
X449580000Y-179070000D03*
D28*
X448680000Y-179070000D03*
D12*
%TO.P,MasterControlPico1,25,GPIO19*%
%TO.N,Net-(J2-Pin_16)*%
X449580000Y-176530000D03*
D28*
X448680000Y-176530000D03*
D12*
%TO.P,MasterControlPico1,26,GPIO20*%
%TO.N,Net-(J2-Pin_15)*%
X449580000Y-173990000D03*
D28*
X448680000Y-173990000D03*
D12*
%TO.P,MasterControlPico1,27,GPIO21*%
%TO.N,Net-(J2-Pin_14)*%
X449580000Y-171450000D03*
D28*
X448680000Y-171450000D03*
D11*
%TO.P,MasterControlPico1,28,GND*%
%TO.N,GND*%
X449580000Y-168910000D03*
D28*
X448680000Y-168910000D03*
D12*
%TO.P,MasterControlPico1,29,GPIO22*%
%TO.N,Net-(J2-Pin_12)*%
X449580000Y-166370000D03*
D28*
X448680000Y-166370000D03*
D12*
%TO.P,MasterControlPico1,30,RUN*%
%TO.N,Net-(J2-Pin_11)*%
X449580000Y-163830000D03*
D28*
X448680000Y-163830000D03*
D12*
%TO.P,MasterControlPico1,31,GPIO26_ADC0*%
%TO.N,Net-(J2-Pin_10)*%
X449580000Y-161290000D03*
D28*
X448680000Y-161290000D03*
D12*
%TO.P,MasterControlPico1,32,GPIO27_ADC1*%
%TO.N,Net-(J2-Pin_9)*%
X449580000Y-158750000D03*
D28*
X448680000Y-158750000D03*
D11*
%TO.P,MasterControlPico1,33,AGND*%
%TO.N,Net-(J2-Pin_8)*%
X449580000Y-156210000D03*
D28*
X448680000Y-156210000D03*
D12*
%TO.P,MasterControlPico1,34,GPIO28_ADC2*%
%TO.N,Net-(J2-Pin_7)*%
X449580000Y-153670000D03*
D28*
X448680000Y-153670000D03*
D12*
%TO.P,MasterControlPico1,35,ADC_VREF*%
%TO.N,Net-(J2-Pin_6)*%
X449580000Y-151130000D03*
D28*
X448680000Y-151130000D03*
D12*
%TO.P,MasterControlPico1,36,3V3*%
%TO.N,+3V3*%
X449580000Y-148590000D03*
D28*
X448680000Y-148590000D03*
D12*
%TO.P,MasterControlPico1,37,3V3_EN*%
%TO.N,Net-(J2-Pin_4)*%
X449580000Y-146050000D03*
D28*
X448680000Y-146050000D03*
D11*
%TO.P,MasterControlPico1,38,GND*%
%TO.N,GND*%
X449580000Y-143510000D03*
D28*
X448680000Y-143510000D03*
D12*
%TO.P,MasterControlPico1,39,VSYS*%
%TO.N,Net-(J2-Pin_2)*%
X449580000Y-140970000D03*
D28*
X448680000Y-140970000D03*
D12*
%TO.P,MasterControlPico1,40,VBUS*%
%TO.N,Net-(J2-Pin_1)*%
X449580000Y-138430000D03*
D28*
X448680000Y-138430000D03*
D12*
%TO.P,MasterControlPico1,41,SWCLK*%
%TO.N,/SWCLK*%
X457885900Y-168160000D03*
D11*
%TO.P,MasterControlPico1,42,GND*%
%TO.N,GND*%
X455345900Y-168160000D03*
D12*
%TO.P,MasterControlPico1,43,SWDIO*%
%TO.N,/SWDIO*%
X452805900Y-168160000D03*
%TD*%
D13*
%TO.P,STEPPER-DATA_1,1,A*%
%TO.N,/DATA_1*%
X440510000Y-251460000D03*
D14*
%TO.P,STEPPER-DATA_1,2,B*%
%TO.N,Net-(STEPPER-DATA_1-B)*%
X441960000Y-251460000D03*
%TD*%
D15*
%TO.P,PICO_DATAIN_2-STEPPER1,1,A*%
%TO.N,/PICO_DATAIN_2*%
X437605000Y-222250000D03*
D16*
%TO.P,PICO_DATAIN_2-STEPPER1,2,B*%
%TO.N,Net-(PICO_DATAIN_2-STEPPER1-B)*%
X436155000Y-222250000D03*
%TD*%
D30*
%TO.N,GND*%
X356184320Y-344119320D03*
D31*
X424815000Y-282575000D03*
D30*
X410210000Y-133985000D03*
X380365000Y-139065000D03*
X280794054Y-300479054D03*
X350520000Y-332740000D03*
X262200500Y-288290000D03*
X252730000Y-283845000D03*
X363855000Y-323215000D03*
X420370000Y-139700000D03*
X368300000Y-139065000D03*
X295275000Y-139065000D03*
D31*
X396875000Y-310515000D03*
D30*
X235530500Y-193094500D03*
X395605000Y-207645000D03*
D31*
X391160000Y-306705000D03*
D30*
X292735000Y-316230000D03*
X421640000Y-130175000D03*
X233680000Y-280670000D03*
X405130000Y-139065000D03*
X280670000Y-139065000D03*
X324239554Y-139065000D03*
D31*
X432975000Y-144875000D03*
D30*
X235530500Y-235585000D03*
X339725000Y-139065000D03*
D31*
X401955000Y-300990000D03*
D30*
X396240000Y-139065000D03*
X402590000Y-207645000D03*
X337820000Y-332740000D03*
X407670000Y-131445000D03*
X354330000Y-139065000D03*
X276748891Y-304020500D03*
X338591500Y-346211500D03*
D31*
X459740000Y-242570000D03*
D30*
X324485000Y-324485000D03*
X311150000Y-139065000D03*
D31*
X323215000Y-92710000D03*
D30*
X309880000Y-316865000D03*
X235530500Y-214630000D03*
X290538426Y-318991173D03*
D31*
X389255000Y-306070000D03*
D30*
X266216554Y-139065000D03*
D31*
X422910000Y-286385000D03*
D30*
X253365000Y-139065000D03*
X365125000Y-337820000D03*
D31*
X458470000Y-245745000D03*
%TO.N,/LED_DATA_IN*%
X313690000Y-178980500D03*
X285115000Y-150405500D03*
X240030000Y-147955000D03*
X292100000Y-157480000D03*
X316230000Y-181610000D03*
D30*
%TO.N,+5V*%
X392430000Y-210185000D03*
D31*
X386080000Y-120015000D03*
D30*
X241935000Y-206375000D03*
X315595000Y-137160000D03*
X358140000Y-137160000D03*
X272415000Y-137160000D03*
X344805000Y-137160000D03*
X387985000Y-137160000D03*
X247015000Y-140970000D03*
X372110000Y-137160000D03*
X238179500Y-206375000D03*
X401320000Y-137160000D03*
X247650000Y-149081000D03*
X262255000Y-137160000D03*
X416560000Y-136470500D03*
D31*
X405765000Y-312420000D03*
X384107554Y-120015000D03*
X422910000Y-297180000D03*
D30*
X439420000Y-132080000D03*
X286385000Y-137160000D03*
X457835000Y-210177106D03*
D31*
X419100000Y-295275000D03*
D30*
X277495000Y-289560000D03*
X277495000Y-285115000D03*
X280670000Y-316230000D03*
X330835000Y-137160000D03*
X300990000Y-137160000D03*
X402590000Y-210185000D03*
D31*
%TO.N,/LED_DATA_OUT*%
X439420000Y-272415000D03*
%TO.N,+3V3*%
X401320000Y-160655000D03*
X347305200Y-182919800D03*
X317500000Y-182334500D03*
X403949500Y-160655000D03*
X348647299Y-182212701D03*
%TO.N,/SCL*%
X320040000Y-180885500D03*
X401320000Y-179070000D03*
X382270000Y-194310000D03*
%TO.N,/SDA*%
X382270000Y-193040000D03*
X401320000Y-176530000D03*
X318135000Y-179794500D03*
%TO.N,/PICO_DATAIN_6*%
X448310000Y-198025000D03*
%TO.N,/PICO_DATAIN_5*%
X450215000Y-195485000D03*
%TO.N,/PICO_DATAIN_4*%
X454025000Y-190595000D03*
%TO.N,/PICO_DATAIN_3*%
X456019500Y-185420000D03*
%TO.N,/PICO_DATAIN_2*%
X455384500Y-182880000D03*
%TO.N,/PICO_DATAIN_1*%
X454660000Y-180435000D03*
%TO.N,/RTC_INT*%
X382270000Y-196215000D03*
X401320000Y-173990000D03*
%TO.N,/KEYPAD_INT*%
X401320000Y-171450000D03*
%TO.N,/DIN*%
X401320000Y-163830000D03*
X403949500Y-163830000D03*
%TO.N,/BCLK*%
X401320000Y-161925000D03*
X403949500Y-161654503D03*
%TO.N,/LRC*%
X401320000Y-158750000D03*
X403949500Y-158750000D03*
%TO.N,/UART0 RX*%
X262890000Y-154940000D03*
X261620000Y-153670000D03*
X403225000Y-153670000D03*
%TO.N,/UART0 TX*%
X403225000Y-151130000D03*
%TO.N,/DATA_1*%
X406400000Y-238125000D03*
X421005000Y-244475000D03*
X440055000Y-250190000D03*
%TO.N,/DATA_2*%
X421005000Y-248920000D03*
X406400000Y-241935000D03*
X440055000Y-253365000D03*
%TO.N,/DATA_3*%
X406400000Y-245110000D03*
X439028464Y-259876514D03*
X421005000Y-252730000D03*
%TO.N,/DATA_4*%
X421005000Y-255905000D03*
X406400000Y-248920000D03*
X439420000Y-262255000D03*
%TO.N,/DATA_5*%
X406400000Y-252095000D03*
X439420000Y-266700000D03*
X421005000Y-259715000D03*
%TO.N,/DATA_6*%
X421005000Y-263525000D03*
X439420000Y-270510000D03*
X406920000Y-256020000D03*
%TO.N,Net-(PICO_DATAIN_1-STEPPER1-B)*%
X436155000Y-215990000D03*
%TO.N,Net-(PICO_DATAIN_2-STEPPER1-B)*%
X434975000Y-220980000D03*
%TO.N,Net-(PICO_DATAIN_3-STEPPER1-B)*%
X434975000Y-224155000D03*
%TO.N,Net-(PICO_DATAIN_4-STEPPER1-B)*%
X434975000Y-227330000D03*
%TO.N,Net-(PICO_DATAIN_5-STEPPER1-A)*%
X446845200Y-240224800D03*
X461010000Y-240030000D03*
X434975000Y-231140000D03*
%TO.N,Net-(PICO_DATAIN_6-STEPPER1-A)*%
X434975000Y-234315000D03*
%TO.N,/BUS_1*%
X239395000Y-236855000D03*
X263525000Y-260985000D03*
X263525000Y-303530000D03*
%TO.N,/BUS_2*%
X382905000Y-292100000D03*
X264892054Y-260447054D03*
X378460000Y-306070000D03*
X265430000Y-303530000D03*
X239767554Y-235585000D03*
%TO.N,/BUS_3*%
X382270000Y-295275000D03*
X267335000Y-303530000D03*
X267828054Y-261478054D03*
X378460000Y-307340000D03*
X239767554Y-233680000D03*
%TO.N,/BUS_4*%
X382905000Y-299085000D03*
X270084554Y-262255000D03*
X378460000Y-308610000D03*
X239395000Y-231775000D03*
X269875000Y-303530000D03*
%TO.N,/BUS_5*%
X378460000Y-309880000D03*
X272415000Y-303530000D03*
X382994500Y-302260000D03*
X239395000Y-229870000D03*
X271780000Y-262255000D03*
%TO.N,/BUS_6*%
X274549187Y-263119187D03*
X378432811Y-311122811D03*
X239395000Y-227965000D03*
X274549187Y-303759187D03*
X383629500Y-305926685D03*
%TD*%
D32*
%TO.N,GND*%
X420370000Y-131445000D02*
X421640000Y-130175000D01*
X462943692Y-213707106D02*
X464493692Y-215257106D01*
X464493692Y-207971308D02*
X462943692Y-209521308D01*
X295275000Y-139065000D02*
X311150000Y-139065000D01*
X280520260Y-107141217D02*
X283347933Y-104313544D01*
D33*
X432975000Y-144875000D02*
X448215000Y-144875000D01*
X407575000Y-180435000D02*
X407575000Y-170085000D01*
D32*
X233680000Y-287725974D02*
X233680000Y-280670000D01*
X283347933Y-104313544D02*
X283347933Y-103051217D01*
X252730000Y-286455974D02*
X252730000Y-283845000D01*
D33*
X349250000Y-171450000D02*
X377190000Y-171450000D01*
X407575000Y-182785000D02*
X407575000Y-187176701D01*
X405225000Y-193135000D02*
X406400000Y-194310000D01*
D32*
X276748891Y-304276109D02*
X280670000Y-300355000D01*
X242570000Y-294640000D02*
X244545974Y-294640000D01*
X235530500Y-235585000D02*
X235530500Y-193094500D01*
X324239554Y-139065000D02*
X339725000Y-139065000D01*
X464493692Y-207637106D02*
X464493692Y-207971308D01*
D33*
X396875000Y-310515000D02*
X396875000Y-317005283D01*
X458470000Y-245745000D02*
X458470000Y-243840000D01*
X461310305Y-240755000D02*
X462415305Y-239650000D01*
D32*
X240594026Y-294640000D02*
X233680000Y-287725974D01*
D33*
X464440000Y-232665000D02*
X463318692Y-231543692D01*
D32*
X339725000Y-139065000D02*
X354330000Y-139065000D01*
D33*
X451505000Y-166985000D02*
X449580000Y-168910000D01*
D32*
X276748891Y-317293500D02*
X280130391Y-320675000D01*
D33*
X421640000Y-194310000D02*
X434340000Y-181610000D01*
X458470000Y-243840000D02*
X459740000Y-242570000D01*
D32*
X252730000Y-283845000D02*
X249555000Y-280670000D01*
D33*
X454170900Y-166985000D02*
X451505000Y-166985000D01*
D32*
X403347871Y-107950000D02*
X405222048Y-107950000D01*
X336687054Y-333872946D02*
X337820000Y-332740000D01*
D33*
X448215000Y-144875000D02*
X449580000Y-143510000D01*
D32*
X421640000Y-130175000D02*
X413385000Y-130175000D01*
D33*
X407575000Y-170085000D02*
X406400000Y-168910000D01*
D32*
X276748891Y-316031173D02*
X276748891Y-317293500D01*
X410210000Y-133985000D02*
X407670000Y-131445000D01*
X336687054Y-344307054D02*
X336687054Y-333872946D01*
D33*
X390525000Y-306070000D02*
X391160000Y-306705000D01*
D32*
X337820000Y-332740000D02*
X332740000Y-332740000D01*
X324485000Y-324485000D02*
X316865000Y-316865000D01*
X311150000Y-139065000D02*
X324239554Y-139065000D01*
X365125000Y-324485000D02*
X363855000Y-323215000D01*
X399711566Y-103051368D02*
X399711566Y-104313695D01*
D33*
X406791701Y-187960000D02*
X406008299Y-187960000D01*
X406400000Y-181610000D02*
X407575000Y-182785000D01*
X434340000Y-181610000D02*
X449580000Y-181610000D01*
D32*
X396240000Y-139065000D02*
X405130000Y-139065000D01*
X266216554Y-139065000D02*
X280670000Y-139065000D01*
D33*
X424815000Y-284480000D02*
X422910000Y-286385000D01*
D32*
X276748819Y-106861217D02*
X277028819Y-107141217D01*
X276748891Y-304403256D02*
X276748891Y-304276109D01*
X280670000Y-139065000D02*
X295275000Y-139065000D01*
X368300000Y-139065000D02*
X380365000Y-139065000D01*
D33*
X406008299Y-187960000D02*
X405225000Y-188743299D01*
X389255000Y-306070000D02*
X390525000Y-306070000D01*
D32*
X249555000Y-280670000D02*
X233680000Y-280670000D01*
D33*
X396875000Y-300990000D02*
X391160000Y-306705000D01*
X405130000Y-154940000D02*
X405130000Y-139065000D01*
X456155000Y-240755000D02*
X461310305Y-240755000D01*
X463318692Y-216432106D02*
X464493692Y-215257106D01*
X401955000Y-300990000D02*
X396875000Y-300990000D01*
X406400000Y-156210000D02*
X405130000Y-154940000D01*
D32*
X290538426Y-318426574D02*
X292735000Y-316230000D01*
X280130391Y-320675000D02*
X282514178Y-320675000D01*
D33*
X319110296Y-88605296D02*
X323215000Y-92710000D01*
X396875000Y-317005283D02*
X399712202Y-319842485D01*
D32*
X338591500Y-346211500D02*
X336687054Y-344307054D01*
X332740000Y-332740000D02*
X324485000Y-324485000D01*
D33*
X421640000Y-181610000D02*
X434340000Y-168910000D01*
D32*
X462943692Y-209521308D02*
X462943692Y-213707106D01*
X365125000Y-337820000D02*
X365125000Y-324485000D01*
X242570000Y-294640000D02*
X240594026Y-294640000D01*
D33*
X421640000Y-156210000D02*
X432975000Y-144875000D01*
X407575000Y-187176701D02*
X406791701Y-187960000D01*
X455345900Y-168160000D02*
X454170900Y-166985000D01*
D32*
X350520000Y-338455000D02*
X350520000Y-332740000D01*
D33*
X463318692Y-231543692D02*
X463318692Y-216432106D01*
D32*
X402590000Y-207645000D02*
X395605000Y-207645000D01*
D33*
X406400000Y-181610000D02*
X407575000Y-180435000D01*
D32*
X253365000Y-139065000D02*
X266216554Y-139065000D01*
X399711566Y-104313695D02*
X403347871Y-107950000D01*
D33*
X434340000Y-168910000D02*
X449580000Y-168910000D01*
X319110296Y-83820000D02*
X319110296Y-88605296D01*
D32*
X356184320Y-344119320D02*
X350520000Y-338455000D01*
X354330000Y-139065000D02*
X368300000Y-139065000D01*
X405222048Y-107950000D02*
X406310680Y-106861368D01*
X262255000Y-288290000D02*
X257810000Y-283845000D01*
X257810000Y-283845000D02*
X252730000Y-283845000D01*
D33*
X455610000Y-241300000D02*
X456155000Y-240755000D01*
D32*
X412115000Y-131445000D02*
X407670000Y-131445000D01*
D33*
X464440000Y-239650000D02*
X464440000Y-232665000D01*
X424815000Y-282575000D02*
X424815000Y-284480000D01*
D32*
X282514178Y-320675000D02*
X283348005Y-319841173D01*
X290538426Y-318991173D02*
X290538426Y-318426574D01*
X244545974Y-294640000D02*
X252730000Y-286455974D01*
X380365000Y-139065000D02*
X396240000Y-139065000D01*
X235585000Y-193040000D02*
X235530500Y-193094500D01*
X420370000Y-139700000D02*
X420370000Y-131445000D01*
X316865000Y-316865000D02*
X309880000Y-316865000D01*
X413385000Y-130175000D02*
X412115000Y-131445000D01*
D33*
X462415305Y-239650000D02*
X464440000Y-239650000D01*
X405225000Y-188743299D02*
X405225000Y-193135000D01*
D32*
X277028819Y-107141217D02*
X280520260Y-107141217D01*
D33*
%TO.N,/LED_DATA_IN*%
X403680000Y-238270000D02*
X403680000Y-241820000D01*
X403680000Y-248920000D02*
X403680000Y-245370000D01*
X242480500Y-150405500D02*
X240030000Y-147955000D01*
X403680000Y-238270000D02*
X347020000Y-181610000D01*
X313600500Y-178980500D02*
X292100000Y-157480000D01*
X347020000Y-181610000D02*
X316230000Y-181610000D01*
X313690000Y-178980500D02*
X313600500Y-178980500D01*
X285115000Y-150405500D02*
X242480500Y-150405500D01*
X403680000Y-252470000D02*
X403680000Y-248920000D01*
X403680000Y-241820000D02*
X403680000Y-245370000D01*
X403680000Y-256020000D02*
X403680000Y-252470000D01*
D32*
%TO.N,+5V*%
X300990000Y-137160000D02*
X315595000Y-137160000D01*
X416560000Y-137160000D02*
X416560000Y-136470500D01*
X344805000Y-137160000D02*
X358140000Y-137160000D01*
X404110975Y-105591368D02*
X403181271Y-105591368D01*
X402590000Y-210185000D02*
X392430000Y-210185000D01*
X315595000Y-137160000D02*
X330835000Y-137160000D01*
D33*
X421005000Y-297180000D02*
X419100000Y-295275000D01*
D32*
X247650000Y-141605000D02*
X247015000Y-140970000D01*
D33*
X405765000Y-312420000D02*
X404111611Y-314073389D01*
X377190000Y-173990000D02*
X349250000Y-173990000D01*
D32*
X280218524Y-104321217D02*
X278948524Y-105591217D01*
X441960000Y-129540000D02*
X439420000Y-132080000D01*
X262255000Y-137160000D02*
X272415000Y-137160000D01*
X401320000Y-137160000D02*
X416560000Y-137160000D01*
X444500000Y-129540000D02*
X441960000Y-129540000D01*
X403181271Y-105591368D02*
X401911271Y-104321368D01*
D33*
X422910000Y-297180000D02*
X421005000Y-297180000D01*
X463550000Y-238760000D02*
X457835000Y-233045000D01*
D32*
X286385000Y-137160000D02*
X300990000Y-137160000D01*
X277495000Y-289560000D02*
X277495000Y-285115000D01*
X272415000Y-137160000D02*
X286385000Y-137160000D01*
D33*
X463550000Y-238760000D02*
X455610000Y-238760000D01*
X384107554Y-120015000D02*
X386080000Y-120015000D01*
D32*
X280019769Y-316230000D02*
X280670000Y-316230000D01*
X278948596Y-317301173D02*
X280019769Y-316230000D01*
D33*
X404111611Y-314073389D02*
X404111611Y-317302485D01*
D32*
X330835000Y-137160000D02*
X344805000Y-137160000D01*
X238179500Y-206375000D02*
X241935000Y-206375000D01*
X281148228Y-104321217D02*
X280218524Y-104321217D01*
X387985000Y-137160000D02*
X401320000Y-137160000D01*
X372110000Y-137160000D02*
X387985000Y-137160000D01*
X358140000Y-137160000D02*
X372110000Y-137160000D01*
D33*
X457835000Y-233045000D02*
X457835000Y-210177106D01*
D32*
X247650000Y-149081000D02*
X247650000Y-141605000D01*
D33*
%TO.N,/LED_DATA_OUT*%
X422365000Y-257810000D02*
X422365000Y-261360000D01*
X422315000Y-246960000D02*
X422315000Y-250660000D01*
X422365000Y-254260000D02*
X422365000Y-257810000D01*
X422365000Y-264910000D02*
X429870000Y-272415000D01*
X429870000Y-272415000D02*
X439420000Y-272415000D01*
X422315000Y-250660000D02*
X422365000Y-250710000D01*
X422365000Y-261360000D02*
X422365000Y-264910000D01*
X422365000Y-250710000D02*
X422365000Y-254260000D01*
%TO.N,+3V3*%
X333375000Y-67310000D02*
X348664512Y-67310000D01*
X347305200Y-182919800D02*
X318085300Y-182919800D01*
X238575000Y-252281396D02*
X238575000Y-214182792D01*
X316910591Y-85090000D02*
X316910591Y-83774409D01*
X316863604Y-182881396D02*
X317500000Y-182245000D01*
X404400000Y-160115000D02*
X403860000Y-160655000D01*
X348615000Y-182245000D02*
X348647299Y-182212701D01*
X434340000Y-148590000D02*
X449580000Y-148590000D01*
X421640000Y-161290000D02*
X420465000Y-160115000D01*
X377676701Y-198025000D02*
X364395000Y-198025000D01*
X316910591Y-83774409D02*
X333375000Y-67310000D01*
X402045000Y-161380000D02*
X402045000Y-171750305D01*
X366395000Y-87924705D02*
X363514705Y-90805000D01*
X348664512Y-67310000D02*
X366395000Y-85040488D01*
X382025305Y-191770000D02*
X377190000Y-191770000D01*
X318085300Y-182919800D02*
X317500000Y-182334500D01*
X364395000Y-198025000D02*
X348615000Y-182245000D01*
X238575000Y-214182792D02*
X269876396Y-182881396D01*
X317500000Y-182245000D02*
X317500000Y-182334500D01*
X403860000Y-160655000D02*
X403949500Y-160655000D01*
X216083000Y-263977000D02*
X226879396Y-263977000D01*
X401320000Y-160655000D02*
X402045000Y-161380000D01*
X420465000Y-160115000D02*
X404400000Y-160115000D01*
X377190000Y-191770000D02*
X378365000Y-192945000D01*
X214630000Y-265430000D02*
X216083000Y-263977000D01*
X378365000Y-192945000D02*
X378365000Y-197336701D01*
X402045000Y-171750305D02*
X382025305Y-191770000D01*
X366395000Y-85040488D02*
X366395000Y-87924705D01*
X421640000Y-161290000D02*
X434340000Y-148590000D01*
X269876396Y-182881396D02*
X316863604Y-182881396D01*
X378365000Y-197336701D02*
X377676701Y-198025000D01*
X226879396Y-263977000D02*
X238575000Y-252281396D01*
%TO.N,/SCL*%
X321310000Y-81347919D02*
X323282919Y-79375000D01*
X214630000Y-257810000D02*
X218257000Y-261437000D01*
X356915591Y-82595591D02*
X356915591Y-86995000D01*
X319405000Y-180605000D02*
X319670000Y-180605000D01*
X320040000Y-180975000D02*
X320040000Y-180885500D01*
X321310000Y-82550000D02*
X321310000Y-81347919D01*
X382270000Y-194310000D02*
X397510000Y-179070000D01*
X271516396Y-180605000D02*
X319405000Y-180605000D01*
X319405000Y-180605000D02*
X360945000Y-180605000D01*
X228783000Y-261437000D02*
X238125000Y-252095000D01*
X397510000Y-179070000D02*
X401320000Y-179070000D01*
X323282919Y-79375000D02*
X353695000Y-79375000D01*
X353695000Y-79375000D02*
X356915591Y-82595591D01*
X319670000Y-180605000D02*
X320040000Y-180975000D01*
X218257000Y-261437000D02*
X228783000Y-261437000D01*
X238125000Y-213996396D02*
X271516396Y-180605000D01*
X238125000Y-252095000D02*
X238125000Y-213996396D01*
X360945000Y-180605000D02*
X377190000Y-196850000D01*
%TO.N,/SDA*%
X317685000Y-180155000D02*
X318135000Y-179705000D01*
X318135000Y-179794500D02*
X318409500Y-179794500D01*
X318135000Y-179794500D02*
X318135000Y-180155000D01*
X398780000Y-176530000D02*
X401320000Y-176530000D01*
X351790000Y-81280000D02*
X323509705Y-81280000D01*
X317500000Y-180155000D02*
X317685000Y-180155000D01*
X363035000Y-180155000D02*
X377190000Y-194310000D01*
X382270000Y-193040000D02*
X398780000Y-176530000D01*
X318770000Y-180155000D02*
X363035000Y-180155000D01*
X271330000Y-180155000D02*
X317500000Y-180155000D01*
X237490000Y-213995000D02*
X271330000Y-180155000D01*
X351790000Y-81280000D02*
X354715887Y-84205887D01*
X237490000Y-251906396D02*
X237490000Y-213995000D01*
X318135000Y-180155000D02*
X318770000Y-180155000D01*
X317500000Y-180155000D02*
X318135000Y-180155000D01*
X318409500Y-179794500D02*
X318770000Y-180155000D01*
X318135000Y-179705000D02*
X318135000Y-179794500D01*
X218257000Y-258897000D02*
X230499396Y-258897000D01*
X230499396Y-258897000D02*
X237490000Y-251906396D01*
X214630000Y-255270000D02*
X218257000Y-258897000D01*
X354715887Y-84205887D02*
X354715887Y-85725000D01*
%TO.N,/PICO_DATAIN_6*%
X441325000Y-204471396D02*
X447675698Y-198120698D01*
X448214302Y-198120698D02*
X448310000Y-198025000D01*
X447675698Y-198120698D02*
X448214302Y-198120698D01*
X441325000Y-230899620D02*
X441325000Y-204471396D01*
X437605000Y-236220000D02*
X437605000Y-234619620D01*
X437605000Y-234619620D02*
X441325000Y-230899620D01*
%TO.N,/PICO_DATAIN_5*%
X449580000Y-195580000D02*
X450215000Y-195580000D01*
X440690000Y-204470000D02*
X449580000Y-195580000D01*
X437475000Y-233040000D02*
X437475000Y-232649620D01*
X440690000Y-229434620D02*
X440690000Y-204470000D01*
X450215000Y-195580000D02*
X450215000Y-195485000D01*
X437475000Y-232649620D02*
X440690000Y-229434620D01*
%TO.N,/PICO_DATAIN_4*%
X454025000Y-190500000D02*
X454025000Y-190595000D01*
X440055698Y-226159302D02*
X440055698Y-203835698D01*
X440689302Y-203835698D02*
X454025000Y-190500000D01*
X440055698Y-203835698D02*
X440689302Y-203835698D01*
X437475000Y-228740000D02*
X440055698Y-226159302D01*
X437475000Y-229490000D02*
X437475000Y-228740000D01*
%TO.N,/PICO_DATAIN_3*%
X455930000Y-187325000D02*
X455930000Y-185420000D01*
X439420000Y-203835000D02*
X455930000Y-187325000D01*
X455930000Y-185420000D02*
X456019500Y-185420000D01*
X439420000Y-223995000D02*
X439420000Y-203835000D01*
X437475000Y-225940000D02*
X439420000Y-223995000D01*
%TO.N,/PICO_DATAIN_2*%
X437605000Y-222250000D02*
X438785000Y-221070000D01*
X455295000Y-182880000D02*
X455384500Y-182880000D01*
X455295000Y-186055000D02*
X455295000Y-182880000D01*
X438785000Y-202565000D02*
X455295000Y-186055000D01*
X438785000Y-221070000D02*
X438785000Y-202565000D01*
%TO.N,/PICO_DATAIN_1*%
X454660000Y-185420000D02*
X454660000Y-180435000D01*
X437605000Y-218440000D02*
X437605000Y-202475000D01*
X437605000Y-202475000D02*
X454660000Y-185420000D01*
%TO.N,/RTC_INT*%
X402045000Y-174715000D02*
X401320000Y-173990000D01*
X402045000Y-179370305D02*
X402045000Y-174715000D01*
X385200305Y-196215000D02*
X402045000Y-179370305D01*
X382270000Y-196215000D02*
X385200305Y-196215000D01*
%TO.N,/KEYPAD_INT*%
X236855000Y-180340000D02*
X237490000Y-179705000D01*
X236855000Y-251905000D02*
X236855000Y-180340000D01*
X383092208Y-179705000D02*
X391347208Y-171450000D01*
X317500000Y-179070000D02*
X318770000Y-179070000D01*
X232315000Y-256445000D02*
X236855000Y-251905000D01*
X318770000Y-179070000D02*
X319405000Y-179705000D01*
X214630000Y-252730000D02*
X218345000Y-256445000D01*
X218345000Y-256445000D02*
X232315000Y-256445000D01*
X237490000Y-179705000D02*
X316865000Y-179705000D01*
X316865000Y-179705000D02*
X317500000Y-179070000D01*
X391347208Y-171450000D02*
X401320000Y-171450000D01*
X319405000Y-179705000D02*
X383092208Y-179705000D01*
%TO.N,/DIN*%
X377190000Y-163830000D02*
X401320000Y-163830000D01*
X406400000Y-163830000D02*
X403949500Y-163830000D01*
%TO.N,/BCLK*%
X400685000Y-161290000D02*
X377190000Y-161290000D01*
X404314003Y-161290000D02*
X403949500Y-161654503D01*
X401320000Y-161925000D02*
X400685000Y-161290000D01*
X406400000Y-161290000D02*
X404314003Y-161290000D01*
%TO.N,/LRC*%
X377190000Y-158750000D02*
X401320000Y-158750000D01*
X403949500Y-158750000D02*
X406400000Y-158750000D01*
%TO.N,/UART0 RX*%
X245931396Y-174810000D02*
X237490698Y-166369302D01*
X403225000Y-153670000D02*
X265430000Y-153670000D01*
X251910000Y-174810000D02*
X245931396Y-174810000D01*
X261620000Y-153670000D02*
X254000000Y-161290000D01*
X254000000Y-161290000D02*
X254000000Y-172720000D01*
X254000000Y-172720000D02*
X251910000Y-174810000D01*
X264160000Y-154940000D02*
X262890000Y-154940000D01*
X265430000Y-153670000D02*
X264160000Y-154940000D01*
X237490698Y-154939302D02*
X234446396Y-151895000D01*
X237490698Y-166369302D02*
X237490698Y-154939302D01*
X234446396Y-151895000D02*
X232650000Y-151895000D01*
%TO.N,/UART0 TX*%
X236350000Y-154435000D02*
X232650000Y-154435000D01*
X254635000Y-162144620D02*
X254635000Y-173355000D01*
X403225000Y-151130000D02*
X265649620Y-151130000D01*
X252730000Y-175260000D02*
X245745000Y-175260000D01*
X236855000Y-166370000D02*
X236855000Y-154940000D01*
X254635000Y-173355000D02*
X252730000Y-175260000D01*
X236855000Y-154940000D02*
X236350000Y-154435000D01*
X265649620Y-151130000D02*
X254635000Y-162144620D01*
X245745000Y-175260000D02*
X236855000Y-166370000D01*
%TO.N,Net-(J2-Pin_1)*%
X449580000Y-133320000D02*
X445800000Y-129540000D01*
X421640000Y-151130000D02*
X433124666Y-139645334D01*
X449580000Y-138430000D02*
X449580000Y-133320000D01*
X448364666Y-139645334D02*
X449580000Y-138430000D01*
X433124666Y-139645334D02*
X448364666Y-139645334D01*
%TO.N,Net-(J2-Pin_2)*%
X421640000Y-153670000D02*
X431800000Y-143510000D01*
X447787454Y-140970000D02*
X449580000Y-140970000D01*
X445247454Y-143510000D02*
X447787454Y-140970000D01*
X431800000Y-143510000D02*
X445247454Y-143510000D01*
%TO.N,Net-(J2-Pin_4)*%
X434340000Y-146050000D02*
X449580000Y-146050000D01*
X421640000Y-158750000D02*
X434340000Y-146050000D01*
%TO.N,Net-(J2-Pin_6)*%
X421640000Y-163830000D02*
X434340000Y-151130000D01*
X434340000Y-151130000D02*
X449580000Y-151130000D01*
%TO.N,Net-(J2-Pin_7)*%
X421640000Y-166370000D02*
X434340000Y-153670000D01*
X434340000Y-153670000D02*
X449580000Y-153670000D01*
%TO.N,Net-(J2-Pin_8)*%
X434340000Y-156210000D02*
X449580000Y-156210000D01*
X421640000Y-168910000D02*
X434340000Y-156210000D01*
%TO.N,Net-(J2-Pin_9)*%
X421640000Y-171450000D02*
X434340000Y-158750000D01*
X434340000Y-158750000D02*
X449580000Y-158750000D01*
%TO.N,Net-(J2-Pin_10)*%
X434340000Y-161290000D02*
X449580000Y-161290000D01*
X421640000Y-173990000D02*
X434340000Y-161290000D01*
%TO.N,Net-(J2-Pin_11)*%
X434340000Y-163830000D02*
X449580000Y-163830000D01*
X421640000Y-176530000D02*
X434340000Y-163830000D01*
%TO.N,Net-(J2-Pin_12)*%
X421640000Y-179070000D02*
X434340000Y-166370000D01*
X434340000Y-166370000D02*
X449580000Y-166370000D01*
%TO.N,Net-(J2-Pin_14)*%
X434340000Y-171450000D02*
X449580000Y-171450000D01*
X421640000Y-184150000D02*
X434340000Y-171450000D01*
%TO.N,Net-(J2-Pin_15)*%
X421640000Y-186690000D02*
X434340000Y-173990000D01*
X434340000Y-173990000D02*
X449580000Y-173990000D01*
%TO.N,Net-(J2-Pin_16)*%
X421640000Y-189230000D02*
X434340000Y-176530000D01*
X434340000Y-176530000D02*
X449580000Y-176530000D01*
%TO.N,Net-(J2-Pin_17)*%
X421640000Y-191770000D02*
X434340000Y-179070000D01*
X434340000Y-179070000D02*
X449580000Y-179070000D01*
%TO.N,Net-(J2-Pin_19)*%
X434340000Y-184150000D02*
X449580000Y-184150000D01*
X421640000Y-196850000D02*
X434340000Y-184150000D01*
%TO.N,Net-(J2-Pin_20)*%
X434340000Y-186690000D02*
X449580000Y-186690000D01*
X421640000Y-199390000D02*
X434340000Y-186690000D01*
%TO.N,/DATA_1*%
X406255000Y-238270000D02*
X406400000Y-238125000D01*
X440510000Y-251460000D02*
X440510000Y-250645000D01*
X420865000Y-244615000D02*
X421005000Y-244475000D01*
X440510000Y-250645000D02*
X440055000Y-250190000D01*
X420865000Y-246960000D02*
X420865000Y-244615000D01*
X405130000Y-238270000D02*
X406255000Y-238270000D01*
X386080000Y-288060000D02*
X386080000Y-281745000D01*
X386080000Y-281745000D02*
X420865000Y-246960000D01*
%TO.N,/DATA_2*%
X406285000Y-241820000D02*
X406400000Y-241935000D01*
X440510000Y-253820000D02*
X440055000Y-253365000D01*
X386080000Y-289769620D02*
X404715698Y-271133922D01*
X405130000Y-241820000D02*
X406285000Y-241820000D01*
X386080000Y-291610000D02*
X386080000Y-289769620D01*
X407476396Y-260985000D02*
X410640000Y-260985000D01*
X440510000Y-255270000D02*
X440510000Y-253820000D01*
X420915000Y-250710000D02*
X420915000Y-249010000D01*
X404715698Y-271133922D02*
X404715698Y-263745698D01*
X410640000Y-260985000D02*
X420915000Y-250710000D01*
X404715698Y-263745698D02*
X407476396Y-260985000D01*
X420915000Y-249010000D02*
X421005000Y-248920000D01*
%TO.N,/DATA_3*%
X420915000Y-254260000D02*
X420915000Y-252820000D01*
X420915000Y-254260000D02*
X420090000Y-255085000D01*
X438875338Y-259723388D02*
X439028464Y-259876514D01*
X420090000Y-255085000D02*
X418650000Y-255085000D01*
X409575000Y-271665000D02*
X386080000Y-295160000D01*
X440510000Y-259080000D02*
X439866612Y-259723388D01*
X439866612Y-259723388D02*
X438875338Y-259723388D01*
X405130000Y-245370000D02*
X406140000Y-245370000D01*
X420915000Y-252820000D02*
X421005000Y-252730000D01*
X406140000Y-245370000D02*
X406400000Y-245110000D01*
X418650000Y-255085000D02*
X409575000Y-264160000D01*
X409575000Y-264160000D02*
X409575000Y-271665000D01*
%TO.N,/DATA_4*%
X405130000Y-248920000D02*
X406400000Y-248920000D01*
X440690000Y-262890000D02*
X440055000Y-262255000D01*
X386080000Y-298710000D02*
X415925000Y-268865000D01*
X420915000Y-255995000D02*
X421005000Y-255905000D01*
X440055000Y-262255000D02*
X439420000Y-262255000D01*
X415925000Y-259080000D02*
X417195000Y-257810000D01*
X415925000Y-268865000D02*
X415925000Y-259080000D01*
X420915000Y-257810000D02*
X420915000Y-255995000D01*
X417195000Y-257810000D02*
X420915000Y-257810000D01*
%TO.N,/DATA_5*%
X420915000Y-261360000D02*
X416375000Y-265900000D01*
X406025000Y-252470000D02*
X406400000Y-252095000D01*
X416375000Y-271965000D02*
X386080000Y-302260000D01*
X420915000Y-261360000D02*
X420915000Y-259805000D01*
X405130000Y-252470000D02*
X406025000Y-252470000D01*
X420915000Y-259805000D02*
X421005000Y-259715000D01*
X440510000Y-266700000D02*
X439420000Y-266700000D01*
X416375000Y-265900000D02*
X416375000Y-271965000D01*
%TO.N,/DATA_6*%
X420915000Y-264910000D02*
X420915000Y-263615000D01*
X420915000Y-263615000D02*
X421005000Y-263525000D01*
X440510000Y-270510000D02*
X439420000Y-270510000D01*
X407035000Y-255905000D02*
X406920000Y-256020000D01*
X386080000Y-305810000D02*
X420915000Y-270975000D01*
X420915000Y-270975000D02*
X420915000Y-264910000D01*
X405130000Y-256020000D02*
X406920000Y-256020000D01*
%TO.N,/KEYPAD_1*%
X229870000Y-255270000D02*
X224790000Y-250190000D01*
X231140000Y-255270000D02*
X229870000Y-255270000D01*
%TO.N,/KEYPAD_2*%
X226060000Y-247650000D02*
X224790000Y-247650000D01*
X231140000Y-252730000D02*
X226060000Y-247650000D01*
%TO.N,/KEYPAD_3*%
X231140000Y-250190000D02*
X226060000Y-245110000D01*
X226060000Y-245110000D02*
X224790000Y-245110000D01*
%TO.N,/KEYPAD_4*%
X229870000Y-247650000D02*
X224790000Y-242570000D01*
X231140000Y-247650000D02*
X229870000Y-247650000D01*
%TO.N,/KEYPAD_5*%
X225240251Y-241117000D02*
X220797000Y-241117000D01*
X220797000Y-241117000D02*
X214630000Y-234950000D01*
X231140000Y-245110000D02*
X229233251Y-245110000D01*
X229233251Y-245110000D02*
X225240251Y-241117000D01*
%TO.N,/KEYPAD_6*%
X227330000Y-242570000D02*
X224790000Y-240030000D01*
X231140000Y-242570000D02*
X227330000Y-242570000D01*
%TO.N,/KEYPAD_7*%
X227330000Y-240030000D02*
X224790000Y-237490000D01*
X231140000Y-240030000D02*
X227330000Y-240030000D01*
%TO.N,/SWCLK*%
X237338604Y-170850000D02*
X231475000Y-170850000D01*
X405038604Y-201015000D02*
X402590000Y-198566396D01*
X457885900Y-168160000D02*
X456500900Y-169545000D01*
X402590000Y-198566396D02*
X402590000Y-158750000D01*
X453390000Y-170180000D02*
X453390000Y-185866396D01*
X438241396Y-201015000D02*
X405038604Y-201015000D01*
X456500900Y-169545000D02*
X454025000Y-169545000D01*
X400050000Y-156210000D02*
X264160000Y-156210000D01*
X231025000Y-170400000D02*
X231025000Y-148440000D01*
X242648604Y-176160000D02*
X237338604Y-170850000D01*
X454025000Y-169545000D02*
X453390000Y-170180000D01*
X453390000Y-185866396D02*
X438241396Y-201015000D01*
X231025000Y-148440000D02*
X232650000Y-146815000D01*
X264160000Y-165102792D02*
X253102792Y-176160000D01*
X402590000Y-158750000D02*
X400050000Y-156210000D01*
X253102792Y-176160000D02*
X242648604Y-176160000D01*
X231475000Y-170850000D02*
X231025000Y-170400000D01*
X264160000Y-156210000D02*
X264160000Y-165102792D01*
%TO.N,/SWDIO*%
X231475000Y-150530000D02*
X231475000Y-168310000D01*
X235435000Y-168310000D02*
X242835000Y-175710000D01*
X260985000Y-167641396D02*
X260985000Y-157480000D01*
X231475000Y-168310000D02*
X235435000Y-168310000D01*
X232650000Y-149355000D02*
X231475000Y-150530000D01*
X262800000Y-155665000D02*
X402045000Y-155665000D01*
X252916396Y-175710000D02*
X260985000Y-167641396D01*
X403225000Y-198565000D02*
X405225000Y-200565000D01*
X402045000Y-155665000D02*
X403225000Y-156845000D01*
X242835000Y-175710000D02*
X252916396Y-175710000D01*
X405225000Y-200565000D02*
X438055000Y-200565000D01*
X260985000Y-157480000D02*
X262800000Y-155665000D01*
X403225000Y-156845000D02*
X403225000Y-198565000D01*
X452805900Y-185814100D02*
X452805900Y-168160000D01*
X438055000Y-200565000D02*
X452805900Y-185814100D01*
%TO.N,Net-(MAX98357-Pin_4)*%
X377190000Y-166370000D02*
X349250000Y-166370000D01*
%TO.N,Net-(MAX98357-Pin_5)*%
X349250000Y-168910000D02*
X377190000Y-168910000D01*
%TO.N,Net-(PICO_DATAIN_1-STEPPER1-B)*%
X436245000Y-215900000D02*
X436155000Y-215990000D01*
X454351349Y-246380000D02*
X459431349Y-241300000D01*
X452120000Y-246380000D02*
X454351349Y-246380000D01*
X459431349Y-241300000D02*
X463550000Y-241300000D01*
X436155000Y-218440000D02*
X436155000Y-215990000D01*
%TO.N,Net-(PICO_DATAIN_2-STEPPER1-B)*%
X436155000Y-222250000D02*
X434975000Y-221070000D01*
X459360000Y-248030000D02*
X463550000Y-243840000D01*
X434975000Y-221070000D02*
X434975000Y-220980000D01*
X453010000Y-248030000D02*
X459360000Y-248030000D01*
X452120000Y-248920000D02*
X453010000Y-248030000D01*
%TO.N,Net-(PICO_DATAIN_3-STEPPER1-B)*%
X452120000Y-251460000D02*
X454351349Y-251460000D01*
X461450000Y-248480000D02*
X463550000Y-246380000D01*
X457331349Y-248480000D02*
X461450000Y-248480000D01*
X436025000Y-225940000D02*
X434975000Y-224890000D01*
X454351349Y-251460000D02*
X457331349Y-248480000D01*
X434975000Y-224890000D02*
X434975000Y-224155000D01*
%TO.N,Net-(PICO_DATAIN_4-STEPPER1-B)*%
X436025000Y-229490000D02*
X436025000Y-228380000D01*
X460120000Y-252350000D02*
X463550000Y-248920000D01*
X452120000Y-254000000D02*
X454328651Y-254000000D01*
X455978651Y-252350000D02*
X460120000Y-252350000D01*
X454328651Y-254000000D02*
X455978651Y-252350000D01*
X436025000Y-228380000D02*
X434975000Y-227330000D01*
%TO.N,Net-(PICO_DATAIN_5-STEPPER1-A)*%
X460630000Y-239650000D02*
X461010000Y-240030000D01*
X446845200Y-240224800D02*
X447420000Y-239650000D01*
X436025000Y-232190000D02*
X434975000Y-231140000D01*
X436025000Y-233040000D02*
X436025000Y-232190000D01*
X447420000Y-239650000D02*
X460630000Y-239650000D01*
%TO.N,Net-(PICO_DATAIN_6-STEPPER1-A)*%
X434975000Y-235040000D02*
X434975000Y-234315000D01*
X436155000Y-236220000D02*
X434975000Y-235040000D01*
%TO.N,Net-(STEPPER-DATA_1-B)*%
X441960000Y-251460000D02*
X447040000Y-256540000D01*
X447040000Y-256540000D02*
X452120000Y-256540000D01*
%TO.N,Net-(STEPPER-DATA_2-B)*%
X441960000Y-255270000D02*
X445770000Y-259080000D01*
X445770000Y-259080000D02*
X452120000Y-259080000D01*
%TO.N,Net-(STEPPER-DATA_3-B)*%
X444500000Y-261620000D02*
X452120000Y-261620000D01*
X441960000Y-259080000D02*
X444500000Y-261620000D01*
%TO.N,Net-(STEPPER-DATA_4-B)*%
X442140000Y-262890000D02*
X443410000Y-264160000D01*
X443410000Y-264160000D02*
X452120000Y-264160000D01*
%TO.N,Net-(STEPPER-DATA_5-A)*%
X438150000Y-262059620D02*
X438150000Y-259730380D01*
X457260000Y-255650000D02*
X455610000Y-254000000D01*
X442594620Y-258005000D02*
X444844620Y-260255000D01*
X454660000Y-254950000D02*
X455610000Y-254000000D01*
X439875380Y-258005000D02*
X442594620Y-258005000D01*
X467360000Y-256540000D02*
X466470000Y-255650000D01*
X454660000Y-256540000D02*
X454660000Y-254950000D01*
X466470000Y-255650000D02*
X457260000Y-255650000D01*
X441960000Y-265869620D02*
X438150000Y-262059620D01*
X438150000Y-259730380D02*
X439875380Y-258005000D01*
X452606701Y-260255000D02*
X453295000Y-259566701D01*
X441960000Y-266700000D02*
X441960000Y-265869620D01*
X453295000Y-259566701D02*
X453295000Y-257905000D01*
X444844620Y-260255000D02*
X452606701Y-260255000D01*
X453295000Y-257905000D02*
X454660000Y-256540000D01*
%TO.N,Net-(STEPPER-DATA_6-A)*%
X466470000Y-258190000D02*
X457260000Y-258190000D01*
X454720000Y-257430000D02*
X455610000Y-256540000D01*
X454720000Y-263221701D02*
X454720000Y-257430000D01*
X467360000Y-259080000D02*
X466470000Y-258190000D01*
X441960000Y-270510000D02*
X447431701Y-270510000D01*
X457260000Y-258190000D02*
X455610000Y-256540000D01*
X447431701Y-270510000D02*
X454720000Y-263221701D01*
%TO.N,Net-(STEPPER_4-8-Pin_7)*%
X459040000Y-262510000D02*
X455610000Y-259080000D01*
X467360000Y-261620000D02*
X466470000Y-262510000D01*
X466470000Y-262510000D02*
X459040000Y-262510000D01*
%TO.N,Net-(STEPPER_4-8-Pin_8)*%
X458150000Y-264160000D02*
X455610000Y-261620000D01*
X467360000Y-264160000D02*
X458150000Y-264160000D01*
%TO.N,/BUS_1*%
X419508907Y-113499872D02*
X419508907Y-114481368D01*
X386513975Y-327462485D02*
X399612515Y-327462485D01*
X263550592Y-113638012D02*
X263550592Y-114481217D01*
X263525000Y-260985000D02*
X239395000Y-236855000D01*
X281384595Y-97071217D02*
X278127906Y-100327906D01*
X434340000Y-119380000D02*
X427990000Y-113030000D01*
X296546160Y-95431217D02*
X285485000Y-95431217D01*
X464493692Y-192397106D02*
X464493692Y-134928692D01*
X386513339Y-95431368D02*
X398961368Y-95431368D01*
X401391673Y-326390000D02*
X401990837Y-325790836D01*
X296546160Y-95431217D02*
X386513188Y-95431217D01*
X467918692Y-227072106D02*
X467918692Y-195822106D01*
X402591396Y-325755000D02*
X403860698Y-324485698D01*
X398961368Y-95431368D02*
X402590000Y-99060000D01*
X221091052Y-227971439D02*
X221091052Y-194921439D01*
X464493692Y-134928692D02*
X459740000Y-130175000D01*
X285485000Y-95431217D02*
X283845000Y-97071217D01*
X401990837Y-325790836D02*
X402554164Y-325790836D01*
X384630000Y-288060000D02*
X378460000Y-294230000D01*
X263525000Y-303530000D02*
X263525000Y-260985000D01*
X402590000Y-99060000D02*
X405069035Y-99060000D01*
X440690000Y-119380000D02*
X434340000Y-119380000D01*
X400685000Y-326390000D02*
X401391673Y-326390000D01*
X378460000Y-305345000D02*
X266616837Y-305345000D01*
X455490000Y-128465000D02*
X449775000Y-128465000D01*
X276860698Y-100327906D02*
X263550592Y-113638012D01*
X379464054Y-293225946D02*
X384630000Y-288060000D01*
X427990000Y-113030000D02*
X426538632Y-114481368D01*
X278127906Y-100327906D02*
X276860698Y-100327906D01*
X221091052Y-194921439D02*
X218566052Y-192396439D01*
X386513188Y-95431217D02*
X386513339Y-95431368D01*
X467918692Y-195822106D02*
X464493692Y-192397106D01*
X283845000Y-97071217D02*
X281384595Y-97071217D01*
X464493692Y-230497106D02*
X467918692Y-227072106D01*
X402590000Y-325755000D02*
X402591396Y-325755000D01*
X457200000Y-130175000D02*
X455490000Y-128465000D01*
X403860698Y-324485698D02*
X404494302Y-324485698D01*
X419509543Y-309470457D02*
X419509543Y-308412485D01*
X386513975Y-327462485D02*
X388321979Y-327462485D01*
X378460000Y-294230000D02*
X378460000Y-305345000D01*
X388321979Y-327462485D02*
X379464054Y-318604560D01*
X379464054Y-318604560D02*
X379464054Y-293225946D01*
X266616837Y-305345000D02*
X263550664Y-308411173D01*
X459740000Y-130175000D02*
X457200000Y-130175000D01*
X405069035Y-99060000D02*
X419508907Y-113499872D01*
X426538632Y-114481368D02*
X419508907Y-114481368D01*
X402554164Y-325790836D02*
X402590000Y-325755000D01*
X399612515Y-327462485D02*
X400685000Y-326390000D01*
X218566052Y-230496439D02*
X221091052Y-227971439D01*
X404494302Y-324485698D02*
X419509543Y-309470457D01*
X449775000Y-128465000D02*
X440690000Y-119380000D01*
%TO.N,/BUS_2*%
X276858604Y-102233604D02*
X278762208Y-100330000D01*
X417309202Y-114213527D02*
X417309202Y-113211368D01*
X464493692Y-194937106D02*
X459770000Y-190213414D01*
X218566052Y-227956439D02*
X216941052Y-226331439D01*
X239767554Y-235585000D02*
X240030000Y-235585000D01*
X379914054Y-296325946D02*
X379914054Y-317392859D01*
X269361542Y-306070000D02*
X265750369Y-309681173D01*
X399413462Y-96701368D02*
X388713044Y-96701368D01*
X240030000Y-235585000D02*
X264892054Y-260447054D01*
X216941052Y-196561439D02*
X218566052Y-194936439D01*
X388713044Y-96701368D02*
X294346606Y-96701368D01*
X275591396Y-102233604D02*
X276858604Y-102233604D01*
X464493692Y-194937106D02*
X467468692Y-197912106D01*
X417309202Y-113211368D02*
X417309202Y-112009287D01*
X401390277Y-325755000D02*
X396875000Y-325755000D01*
X216941052Y-226331439D02*
X216941052Y-196561439D01*
X287655000Y-97521217D02*
X288475000Y-96701217D01*
X265430000Y-303530000D02*
X264892054Y-302992054D01*
X405812821Y-100512906D02*
X403225000Y-100512906D01*
X384630000Y-291610000D02*
X383395000Y-291610000D01*
X265750297Y-112074703D02*
X275591396Y-102233604D01*
X264892054Y-302992054D02*
X264892054Y-260447054D01*
X417309202Y-112009287D02*
X405812821Y-100512906D01*
X459770000Y-139096396D02*
X440503604Y-119830000D01*
X402307638Y-324837639D02*
X401390277Y-325755000D01*
X383395000Y-291610000D02*
X382905000Y-292100000D01*
X467468692Y-197912106D02*
X467468692Y-224982106D01*
X459770000Y-190213414D02*
X459770000Y-139096396D01*
X294346606Y-96701368D02*
X294346455Y-96701217D01*
X396875000Y-325755000D02*
X396437515Y-326192485D01*
X378460000Y-306070000D02*
X269361542Y-306070000D01*
X384630000Y-291610000D02*
X379914054Y-296325946D01*
X278762208Y-100330000D02*
X280035000Y-100330000D01*
X417309838Y-310884566D02*
X405614404Y-322580000D01*
X379914054Y-317392859D02*
X388713680Y-326192485D01*
X422925675Y-119830000D02*
X417309202Y-114213527D01*
X288475000Y-96701217D02*
X294346455Y-96701217D01*
X405130000Y-322580000D02*
X402872361Y-324837639D01*
X403225000Y-100512906D02*
X399413462Y-96701368D01*
X417309838Y-309682485D02*
X417309838Y-310884566D01*
X280035000Y-100330000D02*
X282843783Y-97521217D01*
X282843783Y-97521217D02*
X287655000Y-97521217D01*
X467468692Y-224982106D02*
X464493692Y-227957106D01*
X440503604Y-119830000D02*
X422925675Y-119830000D01*
X402872361Y-324837639D02*
X402307638Y-324837639D01*
X265750297Y-113211217D02*
X265750297Y-112074703D01*
X396437515Y-326192485D02*
X388713680Y-326192485D01*
X405614404Y-322580000D02*
X405130000Y-322580000D01*
%TO.N,/BUS_3*%
X280035000Y-101520000D02*
X283583783Y-97971217D01*
X390913384Y-324922485D02*
X401586396Y-324922485D01*
X284402120Y-306625334D02*
X272275912Y-306625334D01*
X384630000Y-295160000D02*
X382385000Y-295160000D01*
X450755000Y-147225000D02*
X450755000Y-132595000D01*
X378460000Y-307340000D02*
X376238666Y-309561334D01*
X285262054Y-308637400D02*
X285262054Y-307485268D01*
X390912597Y-97971217D02*
X390912748Y-97971368D01*
X220641052Y-223341439D02*
X220641052Y-199551439D01*
X218566052Y-225416439D02*
X220641052Y-223341439D01*
X464493692Y-225417106D02*
X467018692Y-222892106D01*
X402592094Y-100962906D02*
X405039808Y-100962906D01*
X380364054Y-299425946D02*
X384630000Y-295160000D01*
X467018692Y-200002106D02*
X464493692Y-197477106D01*
X401586396Y-324922485D02*
X403576941Y-322931940D01*
X382385000Y-295160000D02*
X382270000Y-295275000D01*
X276859302Y-102869302D02*
X278208604Y-101520000D01*
X405039808Y-100962906D02*
X415109498Y-111032596D01*
X267335000Y-303530000D02*
X267828054Y-303036946D01*
X272275912Y-306625334D02*
X267950073Y-310951173D01*
X267950001Y-111941217D02*
X267950001Y-110739136D01*
X459320000Y-192303414D02*
X459320000Y-155790000D01*
X422616049Y-120650000D02*
X415109498Y-113143449D01*
X438810000Y-120650000D02*
X422616049Y-120650000D01*
X380364054Y-317028066D02*
X380364054Y-299425946D01*
X403576941Y-322931940D02*
X404039451Y-322931940D01*
X415109498Y-113143449D02*
X415109498Y-111941368D01*
X267950001Y-110739136D02*
X275819835Y-102869302D01*
X267828054Y-303036946D02*
X267828054Y-261478054D01*
X267828054Y-261478054D02*
X240030000Y-233680000D01*
X464493692Y-197477106D02*
X459320000Y-192303414D01*
X292146751Y-97971217D02*
X390912597Y-97971217D01*
X390913384Y-324922485D02*
X388258473Y-324922485D01*
X399600556Y-97971368D02*
X402592094Y-100962906D01*
X240030000Y-233680000D02*
X239767554Y-233680000D01*
X390912748Y-97971368D02*
X399600556Y-97971368D01*
X220641052Y-199551439D02*
X218566052Y-197476439D01*
X285262054Y-307485268D02*
X284402120Y-306625334D01*
X415110134Y-311861257D02*
X415110134Y-310952485D01*
X404039451Y-322931940D02*
X415110134Y-311861257D01*
X286185988Y-309561334D02*
X285262054Y-308637400D01*
X278208604Y-101520000D02*
X280035000Y-101520000D01*
X275819835Y-102869302D02*
X276859302Y-102869302D01*
X388258473Y-324922485D02*
X380364054Y-317028066D01*
X376238666Y-309561334D02*
X286185988Y-309561334D01*
X467018692Y-222892106D02*
X467018692Y-200002106D01*
X459320000Y-155790000D02*
X450755000Y-147225000D01*
X283583783Y-97971217D02*
X292146751Y-97971217D01*
X415109498Y-111032596D02*
X415109498Y-111941368D01*
X450755000Y-132595000D02*
X438810000Y-120650000D01*
%TO.N,/BUS_4*%
X389988473Y-323652485D02*
X383300054Y-316964066D01*
X278395000Y-101970000D02*
X276860000Y-103505000D01*
X405674110Y-102233604D02*
X403226396Y-102233604D01*
X412909793Y-110671368D02*
X412909793Y-109469287D01*
X391439154Y-100914667D02*
X291620496Y-100914667D01*
X412910429Y-313424566D02*
X404322510Y-322012485D01*
X464493692Y-200017106D02*
X466568692Y-202092106D01*
X269875000Y-262255000D02*
X239395000Y-231775000D01*
X400234160Y-99241368D02*
X393112453Y-99241368D01*
X378460000Y-308610000D02*
X374848827Y-312221173D01*
X218566052Y-222876439D02*
X220191052Y-221251439D01*
X283398783Y-99241217D02*
X280670000Y-101970000D01*
X383280000Y-298710000D02*
X382905000Y-299085000D01*
X466568692Y-220802106D02*
X464493692Y-222877106D01*
X276407150Y-103505000D02*
X270149706Y-109762444D01*
X384630000Y-298710000D02*
X383280000Y-298710000D01*
X402220000Y-323652485D02*
X393113089Y-323652485D01*
X220191052Y-201641439D02*
X218566052Y-200016439D01*
X382270000Y-301070000D02*
X384630000Y-298710000D01*
X382270000Y-314781880D02*
X382270000Y-301070000D01*
X393112453Y-99241368D02*
X391439154Y-100914667D01*
X403860000Y-322012485D02*
X402220000Y-323652485D01*
X280670000Y-101970000D02*
X278395000Y-101970000D01*
X383300054Y-315811934D02*
X382270000Y-314781880D01*
X403226396Y-102233604D02*
X400234160Y-99241368D01*
X270149706Y-109762444D02*
X270149706Y-110671217D01*
X289947046Y-99241217D02*
X283398783Y-99241217D01*
X291620496Y-100914667D02*
X289947046Y-99241217D01*
X466568692Y-202092106D02*
X466568692Y-220802106D01*
X220191052Y-221251439D02*
X220191052Y-201641439D01*
X404322510Y-322012485D02*
X403860000Y-322012485D01*
X393113089Y-323652485D02*
X389988473Y-323652485D01*
X270892054Y-263272054D02*
X269875000Y-262255000D01*
X412910429Y-312222485D02*
X412910429Y-313424566D01*
X269875000Y-262255000D02*
X270084554Y-262255000D01*
X383300054Y-316964066D02*
X383300054Y-315811934D01*
X270892054Y-302512946D02*
X270892054Y-263272054D01*
X276860000Y-103505000D02*
X276407150Y-103505000D01*
X412909793Y-109469287D02*
X405674110Y-102233604D01*
X269875000Y-303530000D02*
X270892054Y-302512946D01*
X374848827Y-312221173D02*
X270149778Y-312221173D01*
%TO.N,/BUS_5*%
X382905000Y-303985000D02*
X384630000Y-302260000D01*
X272415000Y-303530000D02*
X273828054Y-302116946D01*
X401135000Y-322382485D02*
X395312793Y-322382485D01*
X410710089Y-108669372D02*
X410710089Y-109401368D01*
X281305000Y-102420000D02*
X283213783Y-100511217D01*
X217391052Y-203731439D02*
X218566052Y-202556439D01*
X273828054Y-302116946D02*
X273828054Y-264303054D01*
X218566052Y-220336439D02*
X217391052Y-219161439D01*
X279215000Y-102420000D02*
X281305000Y-102420000D01*
X378460000Y-309880000D02*
X374848827Y-313491173D01*
X276860000Y-104775000D02*
X279215000Y-102420000D01*
X401955000Y-321562485D02*
X401135000Y-322382485D01*
X403225698Y-102869302D02*
X404910019Y-102869302D01*
X374848827Y-313491173D02*
X272349482Y-313491173D01*
X283213783Y-100511217D02*
X287747342Y-100511217D01*
X287747342Y-100511217D02*
X288600792Y-101364667D01*
X272349410Y-109401217D02*
X272349410Y-108199136D01*
X394458858Y-101364667D02*
X395312157Y-100511368D01*
X272349410Y-108199136D02*
X275773546Y-104775000D01*
X403842806Y-321562485D02*
X401955000Y-321562485D01*
X395312793Y-321180404D02*
X382905000Y-308772611D01*
X410710725Y-314694566D02*
X403842806Y-321562485D01*
X404910019Y-102869302D02*
X410710089Y-108669372D01*
X384630000Y-302260000D02*
X382994500Y-302260000D01*
X400867764Y-100511368D02*
X403225698Y-102869302D01*
X217391052Y-219161439D02*
X217391052Y-203731439D01*
X466118692Y-218712106D02*
X466118692Y-204182106D01*
X288600792Y-101364667D02*
X394458858Y-101364667D01*
X466118692Y-204182106D02*
X464493692Y-202557106D01*
X382905000Y-308772611D02*
X382905000Y-303985000D01*
X410710725Y-313492485D02*
X410710725Y-314694566D01*
X273828054Y-264303054D02*
X239395000Y-229870000D01*
X395312793Y-322382485D02*
X395312793Y-321180404D01*
X464493692Y-220337106D02*
X466118692Y-218712106D01*
X275773546Y-104775000D02*
X276860000Y-104775000D01*
X395312157Y-100511368D02*
X400867764Y-100511368D01*
%TO.N,/BUS_6*%
X404616013Y-103505000D02*
X408510384Y-107399371D01*
X403225000Y-103505000D02*
X404616013Y-103505000D01*
X219741052Y-216621439D02*
X219741052Y-206271439D01*
X276068251Y-105410000D02*
X277495000Y-105410000D01*
X378432811Y-311122811D02*
X374794449Y-314761173D01*
X397512498Y-321112485D02*
X402893017Y-321112485D01*
X396661862Y-102631368D02*
X286397788Y-102631368D01*
X384630000Y-306560000D02*
X397512498Y-319442498D01*
X277495000Y-105410000D02*
X277495000Y-105383040D01*
X274549187Y-303759187D02*
X274549187Y-263119187D01*
X219741052Y-206271439D02*
X218566052Y-205096439D01*
X408511020Y-315494482D02*
X408511020Y-314762485D01*
X397511862Y-101781368D02*
X400866368Y-101781368D01*
X277495000Y-105383040D02*
X280008040Y-102870000D01*
X401320000Y-102235000D02*
X401955000Y-102235000D01*
X383800000Y-305810000D02*
X383629500Y-305980500D01*
X274549115Y-108131217D02*
X274549115Y-106929136D01*
X465668692Y-216622106D02*
X464493692Y-217797106D01*
X397511862Y-101781368D02*
X396661862Y-102631368D01*
X286397788Y-102631368D02*
X285547637Y-101781217D01*
X282956232Y-101781217D02*
X285547637Y-101781217D01*
X464493692Y-205097106D02*
X465668692Y-206272106D01*
X280008040Y-102870000D02*
X281940000Y-102870000D01*
X374794449Y-314761173D02*
X274549187Y-314761173D01*
X400866368Y-101781368D02*
X401320000Y-102235000D01*
X397512498Y-319442498D02*
X397512498Y-321112485D01*
X384630000Y-305810000D02*
X384630000Y-306560000D01*
X218566052Y-217796439D02*
X219741052Y-216621439D01*
X383629500Y-305980500D02*
X383629500Y-305926685D01*
X274549187Y-263119187D02*
X239395000Y-227965000D01*
X281940000Y-102870000D02*
X281940000Y-102797449D01*
X281940000Y-102797449D02*
X282956232Y-101781217D01*
X401955000Y-102235000D02*
X403225000Y-103505000D01*
X274549115Y-106929136D02*
X276068251Y-105410000D01*
X408510384Y-107399371D02*
X408510384Y-108131368D01*
X402893017Y-321112485D02*
X408511020Y-315494482D01*
X384630000Y-305810000D02*
X383800000Y-305810000D01*
X465668692Y-206272106D02*
X465668692Y-216622106D01*
%TD*%
M02*
